<svg width="51" height="13" viewBox="0 0 51 13" fill="none" xmlns="http://www.w3.org/2000/svg">
<path d="M0.98 12H5.614C8.862 12 11.088 10.11 11.088 7.1C11.088 4.09 8.862 2.2 5.614 2.2H0.98V12ZM3.752 9.788V4.412H5.502C7.168 4.412 8.288 5.406 8.288 7.1C8.288 8.794 7.168 9.788 5.502 9.788H3.752ZM20.1764 8.22C20.1764 5.714 18.3564 4.286 16.1164 4.286C13.7224 4.286 11.9444 5.91 11.9444 8.192C11.9444 10.46 13.6944 12.126 16.3964 12.126C17.8384 12.126 18.9024 11.706 19.6304 10.894L18.2304 9.438C17.7124 9.886 17.2224 10.096 16.4804 10.096C15.5004 10.096 14.8424 9.648 14.6184 8.878H20.1344C20.1484 8.668 20.1764 8.416 20.1764 8.22ZM16.1304 6.176C16.9564 6.176 17.5444 6.68 17.6844 7.478H14.5764C14.7304 6.68 15.3044 6.176 16.1304 6.176ZM26.7261 4.412L24.8081 9.046L22.9881 4.412H20.2581L23.3801 12H26.1241L29.2601 4.412H26.7261ZM31.2778 3.572C32.2578 3.572 32.9018 2.956 32.9018 2.116C32.9018 1.318 32.2578 0.744 31.2778 0.744C30.2978 0.744 29.6538 1.36 29.6538 2.158C29.6538 2.956 30.2978 3.572 31.2778 3.572ZM29.9478 12H32.6078V4.412H29.9478V12ZM38.2144 12.126C39.9364 12.126 41.2524 11.356 41.7704 10.04L39.7124 8.99C39.3484 9.704 38.8164 10.012 38.2004 10.012C37.2764 10.012 36.5484 9.368 36.5484 8.192C36.5484 7.044 37.2764 6.4 38.2004 6.4C38.8164 6.4 39.3484 6.708 39.7124 7.422L41.7704 6.372C41.2524 5.056 39.9364 4.286 38.2144 4.286C35.6664 4.286 33.8604 5.91 33.8604 8.192C33.8604 10.502 35.6664 12.126 38.2144 12.126ZM50.4459 8.22C50.4459 5.714 48.6259 4.286 46.3859 4.286C43.9919 4.286 42.2139 5.91 42.2139 8.192C42.2139 10.46 43.9639 12.126 46.6659 12.126C48.1079 12.126 49.1719 11.706 49.8999 10.894L48.4999 9.438C47.9819 9.886 47.4919 10.096 46.7499 10.096C45.7699 10.096 45.1119 9.648 44.8879 8.878H50.4039C50.4179 8.668 50.4459 8.416 50.4459 8.22ZM46.3999 6.176C47.2259 6.176 47.8139 6.68 47.9539 7.478H44.8459C44.9999 6.68 45.5739 6.176 46.3999 6.176Z" fill="#7733FF"/>
</svg>
