<svg width="32" height="32" viewBox="0 0 32 32" fill="none" xmlns="http://www.w3.org/2000/svg">
<path d="M10.6667 4V6.66667H14.6667V13.6933C13.84 14.1733 13.3333 15.0533 13.3333 16V17.3333H18.6667V16C18.6667 15.0533 18.16 14.1733 17.3333 13.6933V6.66667H21.3333V4H10.6667ZM8 16C5.05333 16 2.66666 16.8933 2.66666 18C2.66666 19.1067 5.05333 20 8 20C10.9467 20 13.3333 19.1067 13.3333 18C13.3333 16.8933 10.9467 16 8 16ZM24 16C21.0533 16 18.6667 16.8933 18.6667 18C18.6667 19.1067 21.0533 20 24 20C26.9467 20 29.3333 19.1067 29.3333 18C29.3333 16.8933 26.9467 16 24 16ZM13.3333 18.6667V20C13.3333 20.96 13.84 21.84 14.6667 22.3067C15.4933 22.7867 16.5067 22.7867 17.3333 22.3067C18.16 21.84 18.6667 20.9467 18.6667 20V18.6667H13.3333ZM17.3333 25.3333V29.3333H14.6667V25.3333H17.3333ZM21.1733 21.9467L24 24.7867L22.12 26.6667L19.2933 23.84L21.1733 21.9467ZM12.72 23.84L9.88 26.6667L8 24.7867L10.8267 21.96L12.72 23.84Z" fill="#7733FF"/>
</svg>
