<svg width="31" height="31" viewBox="0 0 31 31" fill="none" xmlns="http://www.w3.org/2000/svg">
<path d="M15.5 14.2084C15.1574 14.2084 14.8289 14.3445 14.5866 14.5867C14.3444 14.8289 14.2083 15.1575 14.2083 15.5C14.2083 15.8426 14.3444 16.1712 14.5866 16.4134C14.8289 16.6556 15.1574 16.7917 15.5 16.7917C15.8426 16.7917 16.1711 16.6556 16.4133 16.4134C16.6556 16.1712 16.7916 15.8426 16.7916 15.5C16.7916 15.1575 16.6556 14.8289 16.4133 14.5867C16.1711 14.3445 15.8426 14.2084 15.5 14.2084ZM16.1458 2.58337C21.9583 2.58337 22.1004 7.19462 19.0521 8.71879C17.7733 9.35171 17.205 10.708 16.9596 11.9092C17.5796 12.1675 18.1221 12.568 18.5354 13.0846C23.3146 10.5013 28.4554 11.5217 28.4554 16.1459C28.4554 21.9584 23.8441 22.0875 22.32 19.0263C21.6741 17.7475 20.305 17.1792 19.1037 16.9338C18.8454 17.5538 18.445 18.0834 17.9283 18.5225C20.4987 23.2888 19.4783 28.4167 14.8541 28.4167C9.04165 28.4167 8.9254 23.7925 11.9737 22.2684C13.2396 21.6355 13.8079 20.2921 14.0662 19.1038C13.4333 18.8455 12.8779 18.4321 12.4646 17.9155C7.69831 20.473 2.58331 19.4655 2.58331 14.8542C2.58331 9.04171 7.18165 8.89962 8.70581 11.9609C9.35165 13.2396 10.7079 13.795 11.9091 14.0405C12.1546 13.4205 12.5679 12.878 13.0975 12.4646C10.5271 7.69837 11.5475 2.58337 16.1458 2.58337Z" fill="#7733FF"/>
</svg>
