<svg width="80" height="13" viewBox="0 0 80 13" fill="none" xmlns="http://www.w3.org/2000/svg">
<path d="M11.208 12L11.18 2.2H9.318L5.706 8.29L2.038 2.2H0.162V12H2.29V6.246L5.16 10.964H6.182L9.066 6.12L9.08 12H11.208ZM14.4711 3.418C15.2831 3.418 15.8291 2.886 15.8291 2.158C15.8291 1.486 15.2831 0.981999 14.4711 0.981999C13.6591 0.981999 13.1131 1.514 13.1131 2.2C13.1131 2.886 13.6591 3.418 14.4711 3.418ZM13.3791 12H15.5631V4.468H13.3791V12ZM20.124 12.112C22.378 12.112 23.68 11.118 23.68 9.718C23.68 6.75 19.13 7.996 19.13 6.708C19.13 6.316 19.55 6.008 20.53 6.008C21.216 6.008 21.958 6.148 22.7 6.568L23.428 5.014C22.714 4.594 21.566 4.356 20.53 4.356C18.332 4.356 17.044 5.364 17.044 6.792C17.044 9.802 21.594 8.542 21.594 9.774C21.594 10.194 21.216 10.46 20.208 10.46C19.284 10.46 18.262 10.166 17.59 9.732L16.862 11.3C17.562 11.762 18.85 12.112 20.124 12.112ZM29.2975 10.096C29.0595 10.278 28.7375 10.376 28.4155 10.376C27.8275 10.376 27.4775 10.026 27.4775 9.382V6.316H29.3535V4.636H27.4775V2.802H25.2935V4.636H24.1315V6.316H25.2935V9.41C25.2935 11.202 26.3295 12.112 28.1075 12.112C28.7795 12.112 29.4375 11.958 29.8855 11.636L29.2975 10.096ZM46.2764 12L46.2484 2.2H44.3864L40.7744 8.29L37.1064 2.2H35.2304V12H37.3584V6.246L40.2284 10.964H41.2504L44.1344 6.12L44.1484 12H46.2764ZM51.4855 4.356C50.2815 4.356 49.0635 4.678 48.2375 5.266L49.0215 6.792C49.5675 6.358 50.3935 6.092 51.1915 6.092C52.3675 6.092 52.9275 6.638 52.9275 7.576H51.1915C48.8955 7.576 47.9575 8.5 47.9575 9.83C47.9575 11.132 49.0075 12.112 50.7715 12.112C51.8775 12.112 52.6615 11.748 53.0675 11.062V12H55.1115V7.702C55.1115 5.42 53.7815 4.356 51.4855 4.356ZM51.3175 10.642C50.5475 10.642 50.0855 10.278 50.0855 9.732C50.0855 9.228 50.4075 8.85 51.4295 8.85H52.9275V9.62C52.6755 10.306 52.0455 10.642 51.3175 10.642ZM62.7021 12H65.3481L61.9321 7.66L65.0681 4.468H62.4641L59.2721 7.492V1.612H57.0881V12H59.2721V10.082L60.3221 9.046L62.7021 12ZM73.3801 8.262C73.3801 5.84 71.6721 4.356 69.4601 4.356C67.1641 4.356 65.4421 5.98 65.4421 8.234C65.4421 10.474 67.1361 12.112 69.7401 12.112C71.0981 12.112 72.1481 11.692 72.8481 10.894L71.6861 9.634C71.1681 10.124 70.5941 10.362 69.7961 10.362C68.6481 10.362 67.8501 9.788 67.6401 8.85H73.3381C73.3521 8.668 73.3801 8.43 73.3801 8.262ZM69.4741 6.008C70.4541 6.008 71.1681 6.624 71.3221 7.576H67.6121C67.7661 6.61 68.4801 6.008 69.4741 6.008ZM76.9202 5.462V4.468H74.8342V12H77.0182V8.444C77.0182 7.002 77.8162 6.344 79.0202 6.344C79.1882 6.344 79.3282 6.358 79.5102 6.372V4.356C78.3482 4.356 77.4522 4.734 76.9202 5.462Z" fill="#844AF8"/>
</svg>
