<svg width="116" height="40" viewBox="0 0 116 40" fill="none" xmlns="http://www.w3.org/2000/svg">
<g filter="url(#filter0_d_146_127)">
<rect x="8" y="6" width="92" height="24" rx="12" fill="white"/>
</g>
<path fill-rule="evenodd" clip-rule="evenodd" d="M30.7784 10.7138V13.2096C32.4788 14.152 33.5652 15.9976 33.5652 18.0737C33.5652 21.1061 31.077 23.5658 28.0085 23.5658C24.9421 23.5658 22.4539 21.1072 22.4539 18.0737C22.4539 15.9307 23.5254 14.0904 25.3085 13.1852V10.7117C22.1987 11.7476 20.1255 14.6355 20.1255 18.0737C20.1255 22.379 23.6557 25.8672 28.0074 25.8672C32.3603 25.8672 35.8914 22.379 35.8914 18.0737C35.8925 14.6982 33.8024 11.8029 30.7784 10.7138Z" fill="#7733FF"/>
<path fill-rule="evenodd" clip-rule="evenodd" d="M27.9576 17.365C28.7814 17.365 29.4527 16.855 29.4527 16.2229V10.1847C29.4527 9.55354 28.7814 9.04248 27.9576 9.04248C27.1328 9.04248 26.4626 9.55354 26.4626 10.1847V16.2229C26.4626 16.855 27.1328 17.365 27.9576 17.365Z" fill="#7733FF"/>
<path d="M48.0898 21H48.8298V14.64H51.2898V14H45.6298V14.64H48.0898V21ZM56.2153 15.74V18.5C56.2153 19.7 55.5253 20.41 54.4253 20.41C53.4253 20.41 52.8453 19.84 52.8453 18.72V15.74H52.1353V18.79C52.1353 20.3 53.0153 21.05 54.3553 21.05C55.1953 21.05 55.8753 20.68 56.2453 20.04V21H56.9253V15.74H56.2153ZM59.5938 16.77V15.74H58.9138V21H59.6238V18.32C59.6238 17.08 60.2938 16.38 61.3938 16.38C61.4438 16.38 61.5038 16.39 61.5638 16.39V15.7C60.5938 15.7 59.9238 16.07 59.5938 16.77ZM65.5294 15.7C64.6194 15.7 63.9094 16.07 63.5294 16.71V15.74H62.8494V21H63.5594V18.24C63.5594 17.04 64.2694 16.34 65.3994 16.34C66.3994 16.34 66.9794 16.91 66.9794 18.02V21H67.6894V17.95C67.6894 16.44 66.8094 15.7 65.5294 15.7ZM75.4441 21.06C77.5441 21.06 79.1141 19.55 79.1141 17.5C79.1141 15.45 77.5441 13.94 75.4441 13.94C73.3241 13.94 71.7641 15.46 71.7641 17.5C71.7641 19.54 73.3241 21.06 75.4441 21.06ZM75.4441 20.4C73.7541 20.4 72.4941 19.17 72.4941 17.5C72.4941 15.83 73.7541 14.6 75.4441 14.6C77.1241 14.6 78.3741 15.83 78.3741 17.5C78.3741 19.17 77.1241 20.4 75.4441 20.4ZM82.3628 14.13C82.6628 14.13 82.9428 14.22 83.1428 14.39L83.3828 13.86C83.1228 13.64 82.7228 13.53 82.3328 13.53C81.3028 13.53 80.7428 14.15 80.7428 15.09V15.74H79.8028V16.34H80.7428V21H81.4528V16.34H83.0528V15.74H81.4328V15.12C81.4328 14.47 81.7528 14.13 82.3628 14.13ZM85.7515 14.13C86.0515 14.13 86.3315 14.22 86.5315 14.39L86.7715 13.86C86.5115 13.64 86.1115 13.53 85.7215 13.53C84.6915 13.53 84.1315 14.15 84.1315 15.09V15.74H83.1915V16.34H84.1315V21H84.8415V16.34H86.4415V15.74H84.8215V15.12C84.8215 14.47 85.1415 14.13 85.7515 14.13Z" fill="#525252"/>
<defs>
<filter id="filter0_d_146_127" x="0" y="0" width="108" height="40" filterUnits="userSpaceOnUse" color-interpolation-filters="sRGB">
<feFlood flood-opacity="0" result="BackgroundImageFix"/>
<feColorMatrix in="SourceAlpha" type="matrix" values="0 0 0 0 0 0 0 0 0 0 0 0 0 0 0 0 0 0 127 0" result="hardAlpha"/>
<feMorphology radius="4" operator="dilate" in="SourceAlpha" result="effect1_dropShadow_146_127"/>
<feOffset dy="2"/>
<feGaussianBlur stdDeviation="2"/>
<feComposite in2="hardAlpha" operator="out"/>
<feColorMatrix type="matrix" values="0 0 0 0 0.466667 0 0 0 0 0.2 0 0 0 0 1 0 0 0 0.05 0"/>
<feBlend mode="normal" in2="BackgroundImageFix" result="effect1_dropShadow_146_127"/>
<feBlend mode="normal" in="SourceGraphic" in2="effect1_dropShadow_146_127" result="shape"/>
</filter>
</defs>
</svg>
