<svg width="118" height="12" viewBox="0 0 118 12" fill="none" xmlns="http://www.w3.org/2000/svg">
<path d="M5.852 11.168C7.56 11.168 8.974 10.552 9.898 9.418L8.442 8.074C7.784 8.844 6.958 9.236 5.978 9.236C4.144 9.236 2.842 7.948 2.842 6.1C2.842 4.252 4.144 2.964 5.978 2.964C6.958 2.964 7.784 3.356 8.442 4.112L9.898 2.768C8.974 1.648 7.56 1.032 5.866 1.032C2.814 1.032 0.546 3.146 0.546 6.1C0.546 9.054 2.814 11.168 5.852 11.168ZM14.5998 11.112C16.9938 11.112 18.7298 9.502 18.7298 7.234C18.7298 4.966 16.9938 3.356 14.5998 3.356C12.2058 3.356 10.4558 4.966 10.4558 7.234C10.4558 9.502 12.2058 11.112 14.5998 11.112ZM14.5998 9.32C13.5078 9.32 12.6678 8.536 12.6678 7.234C12.6678 5.932 13.5078 5.148 14.5998 5.148C15.6918 5.148 16.5178 5.932 16.5178 7.234C16.5178 8.536 15.6918 9.32 14.5998 9.32ZM24.7676 3.356C23.7456 3.356 22.8636 3.706 22.2756 4.35V3.468H20.1896V11H22.3736V7.276C22.3736 5.89 23.1296 5.246 24.1796 5.246C25.1456 5.246 25.7056 5.806 25.7056 7.024V11H27.8896V6.688C27.8896 4.392 26.5456 3.356 24.7676 3.356ZM34.4473 3.356C33.4253 3.356 32.5433 3.706 31.9553 4.35V3.468H29.8693V11H32.0533V7.276C32.0533 5.89 32.8093 5.246 33.8593 5.246C34.8253 5.246 35.3853 5.806 35.3853 7.024V11H37.5693V6.688C37.5693 4.392 36.2253 3.356 34.4473 3.356ZM47.009 7.262C47.009 4.84 45.301 3.356 43.089 3.356C40.793 3.356 39.071 4.98 39.071 7.234C39.071 9.474 40.765 11.112 43.369 11.112C44.727 11.112 45.777 10.692 46.477 9.894L45.315 8.634C44.797 9.124 44.223 9.362 43.425 9.362C42.277 9.362 41.479 8.788 41.269 7.85H46.967C46.981 7.668 47.009 7.43 47.009 7.262ZM43.103 5.008C44.083 5.008 44.797 5.624 44.951 6.576H41.241C41.395 5.61 42.109 5.008 43.103 5.008ZM52.1031 11.112C53.6851 11.112 54.9311 10.412 55.4771 9.208L53.7831 8.284C53.3771 9.012 52.7751 9.32 52.0891 9.32C50.9831 9.32 50.1151 8.55 50.1151 7.234C50.1151 5.918 50.9831 5.148 52.0891 5.148C52.7751 5.148 53.3771 5.47 53.7831 6.184L55.4771 5.274C54.9311 4.042 53.6851 3.356 52.1031 3.356C49.6531 3.356 47.9031 4.966 47.9031 7.234C47.9031 9.502 49.6531 11.112 52.1031 11.112ZM61.1139 9.096C60.8759 9.278 60.5539 9.376 60.2319 9.376C59.6439 9.376 59.2939 9.026 59.2939 8.382V5.316H61.1699V3.636H59.2939V1.802H57.1099V3.636H55.9479V5.316H57.1099V8.41C57.1099 10.202 58.1459 11.112 59.9239 11.112C60.5959 11.112 61.2539 10.958 61.7019 10.636L61.1139 9.096ZM70.0735 7.262C70.0735 4.84 68.3655 3.356 66.1535 3.356C63.8575 3.356 62.1355 4.98 62.1355 7.234C62.1355 9.474 63.8295 11.112 66.4335 11.112C67.7915 11.112 68.8415 10.692 69.5415 9.894L68.3795 8.634C67.8615 9.124 67.2875 9.362 66.4895 9.362C65.3415 9.362 64.5435 8.788 64.3335 7.85H70.0315C70.0455 7.668 70.0735 7.43 70.0735 7.262ZM66.1675 5.008C67.1475 5.008 67.8615 5.624 68.0155 6.576H64.3055C64.4595 5.61 65.1735 5.008 66.1675 5.008ZM77.0155 0.611999V4.266C76.4695 3.65 75.6855 3.356 74.7615 3.356C72.6335 3.356 70.9955 4.868 70.9955 7.234C70.9955 9.6 72.6335 11.112 74.7615 11.112C75.7695 11.112 76.5675 10.79 77.1135 10.132V11H79.1995V0.611999H77.0155ZM75.1395 9.32C74.0475 9.32 73.2075 8.536 73.2075 7.234C73.2075 5.932 74.0475 5.148 75.1395 5.148C76.2175 5.148 77.0575 5.932 77.0575 7.234C77.0575 8.536 76.2175 9.32 75.1395 9.32ZM92.0877 1.2V7.15L87.2157 1.2H85.3397V11H87.5797V5.05L92.4657 11H94.3277V1.2H92.0877ZM103.87 7.262C103.87 4.84 102.162 3.356 99.9504 3.356C97.6544 3.356 95.9324 4.98 95.9324 7.234C95.9324 9.474 97.6264 11.112 100.23 11.112C101.588 11.112 102.638 10.692 103.338 9.894L102.176 8.634C101.658 9.124 101.084 9.362 100.286 9.362C99.1384 9.362 98.3404 8.788 98.1304 7.85H103.828C103.842 7.668 103.87 7.43 103.87 7.262ZM99.9644 5.008C100.944 5.008 101.658 5.624 101.812 6.576H98.1024C98.2564 5.61 98.9704 5.008 99.9644 5.008ZM107.858 11.112C110.112 11.112 111.414 10.118 111.414 8.718C111.414 5.75 106.864 6.996 106.864 5.708C106.864 5.316 107.284 5.008 108.264 5.008C108.95 5.008 109.692 5.148 110.434 5.568L111.162 4.014C110.448 3.594 109.3 3.356 108.264 3.356C106.066 3.356 104.778 4.364 104.778 5.792C104.778 8.802 109.328 7.542 109.328 8.774C109.328 9.194 108.95 9.46 107.942 9.46C107.018 9.46 105.996 9.166 105.324 8.732L104.596 10.3C105.296 10.762 106.584 11.112 107.858 11.112ZM117.032 9.096C116.794 9.278 116.472 9.376 116.15 9.376C115.562 9.376 115.212 9.026 115.212 8.382V5.316H117.088V3.636H115.212V1.802H113.028V3.636H111.866V5.316H113.028V8.41C113.028 10.202 114.064 11.112 115.842 11.112C116.514 11.112 117.172 10.958 117.62 10.636L117.032 9.096Z" fill="#525252"/>
</svg>
