<svg width="76" height="12" viewBox="0 0 76 12" fill="none" xmlns="http://www.w3.org/2000/svg">
<path d="M0.596 11H4.586C7.722 11 9.836 8.984 9.836 6.1C9.836 3.216 7.722 1.2 4.586 1.2H0.596V11ZM1.632 10.104V2.096H4.53C7.134 2.096 8.814 3.748 8.814 6.1C8.814 8.452 7.134 10.104 4.53 10.104H1.632ZM14.5284 3.58C13.3664 3.58 12.2744 3.944 11.5324 4.574L11.9804 5.316C12.5824 4.784 13.4784 4.448 14.4304 4.448C15.8024 4.448 16.5164 5.134 16.5164 6.394V6.842H14.1784C12.0644 6.842 11.3364 7.794 11.3364 8.928C11.3364 10.202 12.3584 11.07 14.0244 11.07C15.2424 11.07 16.1104 10.608 16.5584 9.852V11H17.5104V6.436C17.5104 4.532 16.4324 3.58 14.5284 3.58ZM14.1784 10.286C13.0024 10.286 12.3164 9.754 12.3164 8.9C12.3164 8.144 12.7784 7.584 14.2064 7.584H16.5164V8.788C16.1244 9.754 15.2984 10.286 14.1784 10.286ZM22.1842 11.07C24.1022 11.07 25.2222 10.244 25.2222 8.97C25.2222 6.142 20.4482 7.64 20.4482 5.652C20.4482 4.952 21.0362 4.434 22.3662 4.434C23.1222 4.434 23.8922 4.616 24.5362 5.064L24.9702 4.266C24.3542 3.846 23.3182 3.58 22.3662 3.58C20.4902 3.58 19.4542 4.476 19.4542 5.68C19.4542 8.592 24.2282 7.08 24.2282 8.998C24.2282 9.726 23.6542 10.202 22.2542 10.202C21.2182 10.202 20.2242 9.838 19.6362 9.376L19.1882 10.16C19.7902 10.678 20.9662 11.07 22.1842 11.07ZM30.8118 3.58C29.5658 3.58 28.5998 4.07 28.0538 4.924V0.611999H27.0598V11H28.0538V7.136C28.0538 5.456 29.0478 4.476 30.6298 4.476C32.0298 4.476 32.8418 5.274 32.8418 6.828V11H33.8358V6.73C33.8358 4.616 32.6038 3.58 30.8118 3.58ZM40.3284 3.58C39.1524 3.58 38.1444 4.084 37.5284 5.036V0.611999H36.5344V11H37.4864V9.544C38.0884 10.538 39.1104 11.07 40.3284 11.07C42.4284 11.07 43.9964 9.544 43.9964 7.318C43.9964 5.092 42.4284 3.58 40.3284 3.58ZM40.2584 10.188C38.6904 10.188 37.5144 9.04 37.5144 7.318C37.5144 5.596 38.6904 4.448 40.2584 4.448C41.8124 4.448 43.0024 5.596 43.0024 7.318C43.0024 9.04 41.8124 10.188 40.2584 10.188ZM49.0327 11.07C51.1887 11.07 52.7707 9.502 52.7707 7.318C52.7707 5.134 51.1887 3.58 49.0327 3.58C46.8767 3.58 45.2807 5.134 45.2807 7.318C45.2807 9.502 46.8767 11.07 49.0327 11.07ZM49.0327 10.188C47.4647 10.188 46.2887 9.04 46.2887 7.318C46.2887 5.596 47.4647 4.448 49.0327 4.448C50.6007 4.448 51.7627 5.596 51.7627 7.318C51.7627 9.04 50.6007 10.188 49.0327 10.188ZM57.335 3.58C56.173 3.58 55.081 3.944 54.339 4.574L54.787 5.316C55.389 4.784 56.285 4.448 57.237 4.448C58.609 4.448 59.323 5.134 59.323 6.394V6.842H56.985C54.871 6.842 54.143 7.794 54.143 8.928C54.143 10.202 55.165 11.07 56.831 11.07C58.049 11.07 58.917 10.608 59.365 9.852V11H60.317V6.436C60.317 4.532 59.239 3.58 57.335 3.58ZM56.985 10.286C55.809 10.286 55.123 9.754 55.123 8.9C55.123 8.144 55.585 7.584 57.013 7.584H59.323V8.788C58.931 9.754 58.105 10.286 56.985 10.286ZM63.9689 5.078V3.636H63.0169V11H64.0109V7.248C64.0109 5.512 64.9489 4.532 66.4889 4.532C66.5589 4.532 66.6429 4.546 66.7269 4.546V3.58C65.3689 3.58 64.4309 4.098 63.9689 5.078ZM74.1843 0.611999V5.036C73.5683 4.084 72.5603 3.58 71.3843 3.58C69.2843 3.58 67.7163 5.092 67.7163 7.318C67.7163 9.544 69.2843 11.07 71.3843 11.07C72.6023 11.07 73.6243 10.538 74.2263 9.544V11H75.1783V0.611999H74.1843ZM71.4683 10.188C69.9003 10.188 68.7243 9.04 68.7243 7.318C68.7243 5.596 69.9003 4.448 71.4683 4.448C73.0223 4.448 74.1983 5.596 74.1983 7.318C74.1983 9.04 73.0223 10.188 71.4683 10.188Z" fill="#525252"/>
</svg>
