<svg width="131" height="12" viewBox="0 0 131 12" fill="none" xmlns="http://www.w3.org/2000/svg">
<path d="M8.028 1.368L8.184 0.599999H2.424L0.744 9H6.672L6.828 8.232H1.776L2.4 5.112H6.756L6.9 4.356H2.544L3.144 1.368H8.028ZM12.9233 2.64C11.9273 2.64 11.0633 2.976 10.4513 3.696L10.6553 2.688H9.83934L8.59134 9H9.44334L10.1153 5.616C10.4153 4.14 11.3393 3.408 12.6833 3.408C13.7753 3.408 14.3153 3.924 14.3153 4.824C14.3153 5.004 14.2913 5.196 14.2553 5.4L13.5353 9H14.3873L15.1073 5.412C15.1553 5.16 15.1793 4.92 15.1793 4.692C15.1793 3.408 14.3513 2.64 12.9233 2.64ZM18.8124 3.408H20.7324L20.8764 2.688H18.9564L19.2324 1.308H18.3804L18.1044 2.688H16.9764L16.8444 3.408H17.9604L17.2284 7.128C17.1924 7.296 17.1804 7.464 17.1804 7.62C17.1804 8.52 17.7684 9.06 18.7164 9.06C19.1964 9.06 19.7244 8.952 20.1204 8.652L19.9164 8.004C19.6284 8.22 19.2924 8.328 18.9444 8.328C18.3324 8.328 18.0324 8.028 18.0324 7.488C18.0324 7.368 18.0564 7.236 18.0804 7.092L18.8124 3.408ZM27.4608 6.084C27.5088 5.844 27.5448 5.58 27.5448 5.316C27.5448 3.636 26.4648 2.64 24.7968 2.64C22.7808 2.64 21.3048 4.224 21.3048 6.372C21.3048 8.028 22.4208 9.06 24.2448 9.06C25.2288 9.06 26.1768 8.712 26.7648 8.124L26.3808 7.512C25.9128 8.004 25.1568 8.304 24.3168 8.304C22.8648 8.304 22.1448 7.596 22.1448 6.336C22.1448 6.252 22.1448 6.168 22.1568 6.084H27.4608ZM24.7728 3.36C25.9488 3.36 26.7528 4.02 26.7528 5.22C26.7528 5.292 26.7528 5.364 26.7408 5.448H22.2408C22.5528 4.188 23.5008 3.36 24.7728 3.36ZM30.455 3.84L30.671 2.688H29.855L28.607 9H29.459L30.095 5.796C30.407 4.224 31.307 3.456 32.651 3.456C32.747 3.456 32.807 3.468 32.891 3.468L33.047 2.64C31.847 2.64 31.019 3.012 30.455 3.84ZM42.252 2.688L38.808 8.064L37.5 2.688H36.636L38.208 8.964L37.764 9.636C37.272 10.404 36.852 10.656 36.312 10.656C35.832 10.656 35.472 10.488 35.196 10.2L34.74 10.824C35.052 11.184 35.652 11.388 36.24 11.388C37.152 11.388 37.74 11.016 38.52 9.816L43.128 2.688H42.252ZM45.7001 9.06C47.8241 9.06 49.3481 7.464 49.3481 5.304C49.3481 3.672 48.2321 2.64 46.4801 2.64C44.3561 2.64 42.8321 4.236 42.8321 6.384C42.8321 8.004 43.9481 9.06 45.7001 9.06ZM45.7601 8.304C44.4401 8.304 43.6841 7.584 43.6841 6.348C43.6841 4.632 44.8481 3.384 46.4201 3.384C47.7401 3.384 48.4961 4.116 48.4961 5.352C48.4961 7.068 47.3321 8.304 45.7601 8.304ZM56.5116 2.688L55.8396 6.084C55.5396 7.548 54.6156 8.292 53.2836 8.292C52.2036 8.292 51.6756 7.764 51.6756 6.852C51.6756 6.672 51.6996 6.492 51.7356 6.288L52.4556 2.688H51.6036L50.8836 6.288C50.8356 6.54 50.8116 6.768 50.8116 6.996C50.8116 8.292 51.6396 9.06 53.0556 9.06C54.0276 9.06 54.8796 8.724 55.4916 7.992L55.2876 9H56.1036L57.3636 2.688H56.5116ZM60.3378 3.84L60.5538 2.688H59.7378L58.4898 9H59.3418L59.9778 5.796C60.2898 4.224 61.1898 3.456 62.5338 3.456C62.6298 3.456 62.6898 3.468 62.7738 3.468L62.9298 2.64C61.7298 2.64 60.9018 3.012 60.3378 3.84ZM70.7788 2.64C69.7828 2.64 68.9188 2.976 68.3068 3.696L68.5108 2.688H67.6948L66.4468 9H67.2988L67.9708 5.616C68.2708 4.14 69.1948 3.408 70.5388 3.408C71.6308 3.408 72.1708 3.924 72.1708 4.824C72.1708 5.004 72.1468 5.196 72.1108 5.4L71.3908 9H72.2428L72.9628 5.412C73.0108 5.16 73.0348 4.92 73.0348 4.692C73.0348 3.408 72.2068 2.64 70.7788 2.64ZM80.6873 6.084C80.7353 5.844 80.7713 5.58 80.7713 5.316C80.7713 3.636 79.6913 2.64 78.0233 2.64C76.0073 2.64 74.5313 4.224 74.5313 6.372C74.5313 8.028 75.6473 9.06 77.4713 9.06C78.4553 9.06 79.4033 8.712 79.9913 8.124L79.6073 7.512C79.1393 8.004 78.3833 8.304 77.5433 8.304C76.0913 8.304 75.3713 7.596 75.3713 6.336C75.3713 6.252 75.3713 6.168 75.3833 6.084H80.6873ZM77.9993 3.36C79.1753 3.36 79.9793 4.02 79.9793 5.22C79.9793 5.292 79.9793 5.364 79.9673 5.448H75.4673C75.7793 4.188 76.7273 3.36 77.9993 3.36ZM83.6695 9.06C85.3495 9.06 86.4655 8.34 86.4655 7.092C86.4655 4.992 82.8895 5.988 82.8895 4.524C82.8895 3.84 83.5495 3.372 84.7135 3.372C85.3615 3.372 86.0695 3.54 86.5615 3.912L86.9215 3.228C86.4415 2.868 85.5895 2.64 84.7855 2.64C83.1295 2.64 82.0495 3.408 82.0495 4.608C82.0495 6.744 85.6255 5.76 85.6255 7.188C85.6255 7.896 84.9655 8.316 83.7535 8.316C82.8895 8.316 82.0495 8.04 81.5695 7.62L81.1615 8.292C81.6535 8.736 82.6375 9.06 83.6695 9.06ZM89.8046 3.408H91.7246L91.8686 2.688H89.9486L90.2246 1.308H89.3726L89.0966 2.688H87.9686L87.8366 3.408H88.9526L88.2206 7.128C88.1846 7.296 88.1726 7.464 88.1726 7.62C88.1726 8.52 88.7606 9.06 89.7086 9.06C90.1886 9.06 90.7166 8.952 91.1126 8.652L90.9086 8.004C90.6206 8.22 90.2846 8.328 89.9366 8.328C89.3246 8.328 89.0246 8.028 89.0246 7.488C89.0246 7.368 89.0486 7.236 89.0726 7.092L89.8046 3.408ZM100.052 2.64C99.0563 2.64 98.1923 2.976 97.5803 3.696L97.7843 2.688H96.9683L95.7203 9H96.5723L97.2443 5.616C97.5443 4.14 98.4683 3.408 99.8123 3.408C100.904 3.408 101.444 3.924 101.444 4.824C101.444 5.004 101.42 5.196 101.384 5.4L100.664 9H101.516L102.236 5.412C102.284 5.16 102.308 4.92 102.308 4.692C102.308 3.408 101.48 2.64 100.052 2.64ZM110.033 2.688L109.769 4.008C109.409 3.132 108.569 2.64 107.369 2.64C105.317 2.64 103.805 4.224 103.805 6.384C103.805 8.052 104.933 9.06 106.553 9.06C107.573 9.06 108.413 8.664 109.013 8.004L108.809 9H109.625L110.885 2.688H110.033ZM106.733 8.304C105.413 8.304 104.657 7.584 104.657 6.348C104.657 4.632 105.821 3.384 107.393 3.384C108.713 3.384 109.469 4.116 109.469 5.352C109.469 7.068 108.305 8.304 106.733 8.304ZM120.974 2.64C119.87 2.64 118.946 3.06 118.31 3.9C118.034 3.096 117.314 2.64 116.246 2.64C115.286 2.64 114.458 2.964 113.858 3.696L114.062 2.688H113.246L111.998 9H112.85L113.522 5.616C113.822 4.152 114.71 3.408 115.994 3.408C117.05 3.408 117.554 3.924 117.554 4.824C117.554 5.004 117.53 5.196 117.494 5.4L116.774 9H117.626L118.322 5.52C118.61 4.104 119.51 3.408 120.77 3.408C121.814 3.408 122.33 3.924 122.33 4.812C122.33 4.992 122.318 5.184 122.27 5.4L121.55 9H122.402L123.122 5.412C123.17 5.148 123.206 4.896 123.206 4.668C123.206 3.396 122.402 2.64 120.974 2.64ZM130.844 6.084C130.892 5.844 130.928 5.58 130.928 5.316C130.928 3.636 129.848 2.64 128.18 2.64C126.164 2.64 124.688 4.224 124.688 6.372C124.688 8.028 125.804 9.06 127.628 9.06C128.612 9.06 129.56 8.712 130.148 8.124L129.764 7.512C129.296 8.004 128.54 8.304 127.7 8.304C126.248 8.304 125.528 7.596 125.528 6.336C125.528 6.252 125.528 6.168 125.54 6.084H130.844ZM128.156 3.36C129.332 3.36 130.136 4.02 130.136 5.22C130.136 5.292 130.136 5.364 130.124 5.448H125.624C125.936 4.188 126.884 3.36 128.156 3.36Z" fill="#7733FF" fill-opacity="0.26"/>
</svg>
