<svg width="22" height="10" viewBox="0 0 22 10" fill="none" xmlns="http://www.w3.org/2000/svg">
<path d="M6.26 1.908V0.599999H0.128V9H1.688V5.784H5.744V4.464H1.688V1.908H6.26ZM9.87341 2.52C8.84141 2.52 7.84541 2.784 7.16141 3.312L7.74941 4.404C8.22941 4.008 8.97341 3.768 9.69341 3.768C10.7614 3.768 11.2894 4.284 11.2894 5.16V5.256H9.63341C7.68941 5.256 6.96941 6.096 6.96941 7.164C6.96941 8.28 7.89341 9.084 9.35741 9.084C10.3174 9.084 11.0134 8.772 11.3734 8.22V9H12.7894V5.244C12.7894 3.396 11.7214 2.52 9.87341 2.52ZM9.66941 7.992C8.90141 7.992 8.44541 7.644 8.44541 7.104C8.44541 6.636 8.72141 6.252 9.74141 6.252H11.2894V6.996C11.0374 7.656 10.4014 7.992 9.66941 7.992ZM18.3505 2.52C17.4145 2.52 16.6345 2.832 16.1425 3.42V2.592H14.7145V9H16.2145V5.76C16.2145 4.476 16.9345 3.828 18.0025 3.828C18.9625 3.828 19.5265 4.38 19.5265 5.52V9H21.0265V5.328C21.0265 3.396 19.8865 2.52 18.3505 2.52Z" fill="#525252"/>
</svg>
