<svg width="24" height="24" viewBox="0 0 24 24" fill="none" xmlns="http://www.w3.org/2000/svg">
<path d="M16.474 5.40799L18.592 7.52499L16.474 5.40799ZM17.836 3.54299L12.109 9.27C11.8131 9.56549 11.6113 9.94198 11.529 10.352L11 13L13.648 12.47C14.058 12.388 14.434 12.187 14.73 11.891L20.457 6.16399C20.6291 5.9919 20.7656 5.78759 20.8588 5.56273C20.9519 5.33788 20.9998 5.09688 20.9998 4.85349C20.9998 4.61011 20.9519 4.36911 20.8588 4.14426C20.7656 3.9194 20.6291 3.71509 20.457 3.54299C20.2849 3.3709 20.0806 3.23438 19.8557 3.14124C19.6309 3.04811 19.3899 3.00017 19.1465 3.00017C18.9031 3.00017 18.6621 3.04811 18.4373 3.14124C18.2124 3.23438 18.0081 3.3709 17.836 3.54299V3.54299Z" stroke="#7733FF" stroke-width="2" stroke-linecap="round" stroke-linejoin="round"/>
<path d="M19 15V18C19 18.5304 18.7893 19.0391 18.4142 19.4142C18.0391 19.7893 17.5304 20 17 20H6C5.46957 20 4.96086 19.7893 4.58579 19.4142C4.21071 19.0391 4 18.5304 4 18V7C4 6.46957 4.21071 5.96086 4.58579 5.58579C4.96086 5.21071 5.46957 5 6 5H9" stroke="#7733FF" stroke-width="2" stroke-linecap="round" stroke-linejoin="round"/>
</svg>
