<svg width="291" height="27" viewBox="0 0 291 27" fill="none" xmlns="http://www.w3.org/2000/svg">
<path d="M40.404 7.2H36.162V17H38.43V14.298H40.404C43.022 14.298 44.66 12.94 44.66 10.756C44.66 8.558 43.022 7.2 40.404 7.2ZM40.278 12.45H38.43V9.048H40.278C41.664 9.048 42.364 9.678 42.364 10.756C42.364 11.82 41.664 12.45 40.278 12.45ZM48.2112 10.462V9.468H46.1252V17H48.3092V13.444C48.3092 12.002 49.1072 11.344 50.3112 11.344C50.4792 11.344 50.6192 11.358 50.8012 11.372V9.356C49.6392 9.356 48.7432 9.734 48.2112 10.462ZM53.1918 8.418C54.0038 8.418 54.5498 7.886 54.5498 7.158C54.5498 6.486 54.0038 5.982 53.1918 5.982C52.3798 5.982 51.8338 6.514 51.8338 7.2C51.8338 7.886 52.3798 8.418 53.1918 8.418ZM52.0998 17H54.2838V9.468H52.0998V17ZM61.6867 9.468L59.5307 14.592L57.4447 9.468H55.1907L58.3547 17H60.6087L63.7867 9.468H61.6867ZM67.4698 9.356C66.2658 9.356 65.0478 9.678 64.2218 10.266L65.0058 11.792C65.5518 11.358 66.3778 11.092 67.1758 11.092C68.3518 11.092 68.9118 11.638 68.9118 12.576H67.1758C64.8798 12.576 63.9418 13.5 63.9418 14.83C63.9418 16.132 64.9918 17.112 66.7558 17.112C67.8618 17.112 68.6458 16.748 69.0518 16.062V17H71.0958V12.702C71.0958 10.42 69.7658 9.356 67.4698 9.356ZM67.3018 15.642C66.5318 15.642 66.0698 15.278 66.0698 14.732C66.0698 14.228 66.3918 13.85 67.4138 13.85H68.9118V14.62C68.6598 15.306 68.0298 15.642 67.3018 15.642ZM76.7945 17.112C78.3765 17.112 79.6225 16.412 80.1685 15.208L78.4745 14.284C78.0685 15.012 77.4665 15.32 76.7805 15.32C75.6745 15.32 74.8065 14.55 74.8065 13.234C74.8065 11.918 75.6745 11.148 76.7805 11.148C77.4665 11.148 78.0685 11.47 78.4745 12.184L80.1685 11.274C79.6225 10.042 78.3765 9.356 76.7945 9.356C74.3445 9.356 72.5945 10.966 72.5945 13.234C72.5945 15.502 74.3445 17.112 76.7945 17.112ZM86.6926 9.468L84.5646 14.578L82.4506 9.468H80.1966L83.4586 17.056L83.4306 17.126C83.1366 17.798 82.8006 18.064 82.1986 18.064C81.7646 18.064 81.3026 17.882 80.9666 17.588L80.1686 19.142C80.6586 19.576 81.4986 19.828 82.2686 19.828C83.6266 19.828 84.6626 19.282 85.3906 17.462L88.7926 9.468H86.6926Z" fill="#525252"/>
<path d="M276.31 9.71C276.217 9.80251 276.144 9.9124 276.094 10.0334C276.043 10.1543 276.018 10.284 276.018 10.415C276.018 10.546 276.043 10.6757 276.094 10.7966C276.144 10.9176 276.217 11.0275 276.31 11.12L280.19 15L276.31 18.88C276.123 19.067 276.018 19.3206 276.018 19.585C276.018 19.8494 276.123 20.103 276.31 20.29C276.497 20.477 276.751 20.582 277.015 20.582C277.279 20.582 277.533 20.477 277.72 20.29L282.31 15.7C282.403 15.6075 282.476 15.4976 282.526 15.3766C282.577 15.2556 282.602 15.126 282.602 14.995C282.602 14.864 282.577 14.7343 282.526 14.6134C282.476 14.4924 282.403 14.3825 282.31 14.29L277.72 9.7C277.34 9.32 276.7 9.32 276.31 9.71Z" fill="#7733FF"/>
<path d="M12 1L3 5V11C3 16.55 6.84 21.74 12 23C17.16 21.74 21 16.55 21 11V5L12 1ZM11 7H13V9H11V7ZM11 11H13V17H11V11Z" fill="#7733FF"/>
</svg>
