<svg width="23" height="23" viewBox="0 0 23 23" fill="none" xmlns="http://www.w3.org/2000/svg">
<path d="M8.62504 19.1667C12.8592 19.1667 16.2917 15.7342 16.2917 11.5C16.2917 7.26582 12.8592 3.83334 8.62504 3.83334C4.39086 3.83334 0.958374 7.26582 0.958374 11.5C0.958374 15.7342 4.39086 19.1667 8.62504 19.1667Z" fill="#7733FF"/>
<path d="M16.2916 4.0825V6.08542C17.4125 6.48009 18.3833 7.2129 19.07 8.18275C19.7568 9.15259 20.1256 10.3117 20.1256 11.5C20.1256 12.6884 19.7568 13.8474 19.07 14.8173C18.3833 15.7871 17.4125 16.5199 16.2916 16.9146V18.9175C19.5979 18.0646 22.0416 15.0746 22.0416 11.5C22.0416 7.92542 19.5979 4.93542 16.2916 4.0825V4.0825Z" fill="#7733FF"/>
</svg>
