<svg width="35" height="45" viewBox="0 0 35 45" fill="none" xmlns="http://www.w3.org/2000/svg">
<path d="M17.5 0C12.8604 0.00552933 8.41239 1.86986 5.13169 5.18404C1.85099 8.49822 0.00549209 12.9916 1.86182e-05 17.6786C-0.00553825 21.5088 1.23294 25.235 3.52547 28.2857C3.52547 28.2857 4.00274 28.9205 4.0807 29.0121L17.5 45L30.9257 29.0041C30.9957 28.9189 31.4745 28.2857 31.4745 28.2857L31.4761 28.2809C33.7675 25.2315 35.0054 21.507 35 17.6786C34.9945 12.9916 33.149 8.49822 29.8683 5.18404C26.5876 1.86986 22.1396 0.00552933 17.5 0ZM17.5 24.1071C16.2414 24.1071 15.0111 23.7301 13.9646 23.0237C12.9181 22.3174 12.1024 21.3133 11.6208 20.1387C11.1391 18.964 11.0131 17.6714 11.2586 16.4244C11.5042 15.1774 12.1103 14.0319 13.0002 13.1329C13.8902 12.2338 15.0241 11.6216 16.2585 11.3735C17.4929 11.1255 18.7725 11.2528 19.9353 11.7393C21.0981 12.2259 22.0919 13.0499 22.7912 14.107C23.4904 15.1642 23.8636 16.4071 23.8636 17.6786C23.8615 19.3829 23.1904 21.0168 21.9974 22.2219C20.8045 23.427 19.1871 24.105 17.5 24.1071Z" fill="#7733FF"/>
</svg>
