<svg width="52" height="13" viewBox="0 0 52 13" fill="none" xmlns="http://www.w3.org/2000/svg">
<path d="M0.162 10H7.344V8.152H2.43V0.199999H0.162V10ZM11.9865 10.112C14.3805 10.112 16.1165 8.502 16.1165 6.234C16.1165 3.966 14.3805 2.356 11.9865 2.356C9.59253 2.356 7.84253 3.966 7.84253 6.234C7.84253 8.502 9.59253 10.112 11.9865 10.112ZM11.9865 8.32C10.8945 8.32 10.0545 7.536 10.0545 6.234C10.0545 4.932 10.8945 4.148 11.9865 4.148C13.0785 4.148 13.9045 4.932 13.9045 6.234C13.9045 7.536 13.0785 8.32 11.9865 8.32ZM23.2744 2.468V3.434C22.7004 2.706 21.8324 2.356 20.7824 2.356C18.6964 2.356 17.0164 3.798 17.0164 5.996C17.0164 8.194 18.6964 9.636 20.7824 9.636C21.7624 9.636 22.5884 9.328 23.1624 8.698V9.02C23.1624 10.378 22.4904 11.078 20.9504 11.078C19.9844 11.078 18.9344 10.742 18.2904 10.224L17.4224 11.792C18.3044 12.478 19.6904 12.828 21.1184 12.828C23.8344 12.828 25.3464 11.54 25.3464 8.74V2.468H23.2744ZM21.2164 7.844C20.0684 7.844 19.2284 7.102 19.2284 5.996C19.2284 4.89 20.0684 4.148 21.2164 4.148C22.3644 4.148 23.1904 4.89 23.1904 5.996C23.1904 7.102 22.3644 7.844 21.2164 7.844ZM30.9631 10.112C33.3571 10.112 35.0931 8.502 35.0931 6.234C35.0931 3.966 33.3571 2.356 30.9631 2.356C28.5691 2.356 26.8191 3.966 26.8191 6.234C26.8191 8.502 28.5691 10.112 30.9631 10.112ZM30.9631 8.32C29.8711 8.32 29.0311 7.536 29.0311 6.234C29.0311 4.932 29.8711 4.148 30.9631 4.148C32.0551 4.148 32.8811 4.932 32.8811 6.234C32.8811 7.536 32.0551 8.32 30.9631 8.32ZM41.9569 2.468V6.192C41.9569 7.578 41.2289 8.222 40.2209 8.222C39.2549 8.222 38.6949 7.662 38.6949 6.402V2.468H36.5109V6.724C36.5109 9.048 37.8409 10.112 39.7309 10.112C40.6549 10.112 41.4949 9.762 42.0689 9.104V10H44.1409V2.468H41.9569ZM50.4343 8.096C50.1963 8.278 49.8743 8.376 49.5523 8.376C48.9643 8.376 48.6143 8.026 48.6143 7.382V4.316H50.4903V2.636H48.6143V0.802H46.4303V2.636H45.2683V4.316H46.4303V7.41C46.4303 9.202 47.4663 10.112 49.2443 10.112C49.9163 10.112 50.5743 9.958 51.0223 9.636L50.4343 8.096Z" fill="#FF6C87"/>
</svg>
