<svg width="351" height="65" viewBox="0 0 351 65" fill="none" xmlns="http://www.w3.org/2000/svg">
<g filter="url(#filter0_d_58:193)">
<rect x="8" y="6" width="335" height="49" rx="20" fill="white"/>
</g>
<path d="M46.498 27.2V34.508L40.618 27.2H39.47V37H40.87V29.692L46.75 37H47.898V27.2H46.498ZM57.3413 33.332C57.3413 31.05 55.8153 29.51 53.6733 29.51C51.5313 29.51 49.9493 31.092 49.9493 33.29C49.9493 35.502 51.5453 37.084 53.9393 37.084C55.1713 37.084 56.1933 36.664 56.8653 35.88L56.1233 35.012C55.5773 35.614 54.8493 35.908 53.9813 35.908C52.5113 35.908 51.4613 35.04 51.2933 33.738H57.3133C57.3273 33.612 57.3413 33.444 57.3413 33.332ZM53.6733 30.644C54.9753 30.644 55.9133 31.526 56.0533 32.772H51.2933C51.4333 31.512 52.3853 30.644 53.6733 30.644ZM61.3356 37.084C63.3096 37.084 64.5416 36.23 64.5416 34.886C64.5416 32.002 59.8376 33.43 59.8376 31.68C59.8376 31.092 60.4116 30.658 61.5876 30.658C62.3156 30.658 63.0576 30.812 63.7296 31.246L64.3036 30.182C63.6596 29.762 62.5676 29.51 61.6016 29.51C59.6976 29.51 58.5076 30.406 58.5076 31.736C58.5076 34.69 63.1976 33.248 63.1976 34.914C63.1976 35.544 62.6796 35.922 61.4336 35.922C60.4676 35.922 59.4596 35.6 58.8296 35.152L58.2696 36.216C58.8856 36.706 60.1036 37.084 61.3356 37.084ZM69.9733 35.6C69.6933 35.824 69.3153 35.95 68.9233 35.95C68.1813 35.95 67.7613 35.502 67.7613 34.704V30.686H69.8893V29.58H67.7613V27.956H66.4173V29.58H65.1573V30.686H66.4173V34.76C66.4173 36.258 67.2713 37.084 68.7693 37.084C69.3713 37.084 69.9873 36.916 70.3933 36.566L69.9733 35.6ZM74.6159 27.2V28.418H76.8279V37H78.2139V27.2H74.6159Z" fill="#525252"/>
<rect x="275" y="23" width="39" height="18.72" rx="9.36" fill="#7733FF" fill-opacity="0.08"/>
<circle cx="304.64" cy="32.36" r="7.02" fill="#7733FF"/>
<path d="M149.06 35.05C150.79 35.05 151.58 34.19 151.58 33.2C151.58 30.66 147.21 31.9 147.21 29.8C147.21 29.03 147.82 28.4 149.18 28.4C149.81 28.4 150.52 28.59 151.1 28.99L151.29 28.58C150.75 28.19 149.95 27.95 149.18 27.95C147.46 27.95 146.7 28.82 146.7 29.81C146.7 32.39 151.07 31.13 151.07 33.23C151.07 33.99 150.45 34.6 149.05 34.6C148.11 34.6 147.22 34.22 146.74 33.72L146.51 34.1C147.02 34.66 148.02 35.05 149.06 35.05ZM157.224 29.78V32.56C157.224 33.8 156.494 34.59 155.314 34.59C154.224 34.59 153.594 33.97 153.594 32.79V29.78H153.094V32.83C153.094 34.29 153.944 35.04 155.274 35.04C156.194 35.04 156.904 34.61 157.244 33.88V35H157.724V29.78H157.224ZM160.323 30.92V29.78H159.843V35H160.343V32.28C160.343 30.99 161.033 30.22 162.193 30.22C162.233 30.22 162.273 30.23 162.313 30.23V29.74C161.333 29.74 160.643 30.16 160.323 30.92ZM165.451 29.74C164.641 29.74 163.881 30.02 163.361 30.48L163.611 30.84C164.041 30.45 164.691 30.18 165.411 30.18C166.431 30.18 166.961 30.7 166.961 31.67V32.09H165.171C163.721 32.09 163.221 32.76 163.221 33.55C163.221 34.44 163.931 35.04 165.101 35.04C166.011 35.04 166.651 34.67 166.981 34.07V35H167.461V31.69C167.461 30.4 166.741 29.74 165.451 29.74ZM165.171 34.63C164.251 34.63 163.721 34.21 163.721 33.53C163.721 32.93 164.101 32.48 165.181 32.48H166.961V33.46C166.661 34.21 166.051 34.63 165.171 34.63ZM172.141 29.74C171.221 29.74 170.441 30.19 170.021 30.97V27.58H169.521V35H170.001V33.77C170.411 34.57 171.201 35.04 172.141 35.04C173.611 35.04 174.721 33.95 174.721 32.39C174.721 30.82 173.611 29.74 172.141 29.74ZM172.111 34.59C170.911 34.59 170.011 33.7 170.011 32.39C170.011 31.08 170.911 30.19 172.111 30.19C173.311 30.19 174.221 31.08 174.221 32.39C174.221 33.7 173.311 34.59 172.111 34.59ZM178.009 29.74C177.199 29.74 176.439 30.02 175.919 30.48L176.169 30.84C176.599 30.45 177.249 30.18 177.969 30.18C178.989 30.18 179.519 30.7 179.519 31.67V32.09H177.729C176.279 32.09 175.779 32.76 175.779 33.55C175.779 34.44 176.489 35.04 177.659 35.04C178.569 35.04 179.209 34.67 179.539 34.07V35H180.019V31.69C180.019 30.4 179.299 29.74 178.009 29.74ZM177.729 34.63C176.809 34.63 176.279 34.21 176.279 33.53C176.279 32.93 176.659 32.48 177.739 32.48H179.519V33.46C179.219 34.21 178.609 34.63 177.729 34.63ZM185.662 29.78L183.572 34.45L181.482 29.78H180.952L183.302 34.98L183.022 35.61C182.702 36.32 182.352 36.54 181.872 36.54C181.482 36.54 181.172 36.41 180.902 36.13L180.652 36.51C180.952 36.82 181.392 36.98 181.862 36.98C182.552 36.98 183.072 36.67 183.492 35.71L186.172 29.78H185.662ZM188.869 29.74C188.059 29.74 187.299 30.02 186.779 30.48L187.029 30.84C187.459 30.45 188.109 30.18 188.829 30.18C189.849 30.18 190.379 30.7 190.379 31.67V32.09H188.589C187.139 32.09 186.639 32.76 186.639 33.55C186.639 34.44 187.349 35.04 188.519 35.04C189.429 35.04 190.069 34.67 190.399 34.07V35H190.879V31.69C190.879 30.4 190.159 29.74 188.869 29.74ZM188.589 34.63C187.669 34.63 187.139 34.21 187.139 33.53C187.139 32.93 187.519 32.48 188.599 32.48H190.379V33.46C190.079 34.21 189.469 34.63 188.589 34.63ZM192.879 34.19C192.639 34.19 192.459 34.37 192.459 34.61C192.459 34.82 192.589 34.97 192.789 35.02L192.459 36.43H192.819L193.209 35.07C193.269 34.86 193.299 34.76 193.299 34.61C193.299 34.39 193.129 34.19 192.879 34.19ZM198.179 34.54V31.67H201.909V31.22H198.179V28.46H202.349V28H197.669V35H202.499V34.54H198.179ZM205.871 29.74C205.061 29.74 204.301 30.02 203.781 30.48L204.031 30.84C204.461 30.45 205.111 30.18 205.831 30.18C206.851 30.18 207.381 30.7 207.381 31.67V32.09H205.591C204.141 32.09 203.641 32.76 203.641 33.55C203.641 34.44 204.351 35.04 205.521 35.04C206.431 35.04 207.071 34.67 207.401 34.07V35H207.881V31.69C207.881 30.4 207.161 29.74 205.871 29.74ZM205.591 34.63C204.671 34.63 204.141 34.21 204.141 33.53C204.141 32.93 204.521 32.48 205.601 32.48H207.381V33.46C207.081 34.21 206.471 34.63 205.591 34.63ZM211.261 35.04C212.591 35.04 213.321 34.46 213.321 33.61C213.321 31.62 209.861 32.73 209.861 31.16C209.861 30.6 210.311 30.18 211.331 30.18C211.891 30.18 212.461 30.33 212.901 30.65L213.131 30.25C212.721 29.94 212.001 29.74 211.341 29.74C210.021 29.74 209.361 30.38 209.361 31.17C209.361 33.22 212.821 32.1 212.821 33.62C212.821 34.21 212.381 34.6 211.281 34.6C210.511 34.6 209.801 34.31 209.401 33.97L209.171 34.37C209.581 34.75 210.401 35.04 211.261 35.04ZM217.096 34.32C216.886 34.51 216.596 34.61 216.286 34.61C215.646 34.61 215.316 34.24 215.316 33.57V30.21H216.976V29.78H215.316V28.64H214.816V29.78H213.856V30.21H214.816V33.62C214.816 34.5 215.316 35.04 216.236 35.04C216.626 35.04 217.046 34.92 217.306 34.67L217.096 34.32ZM222.059 35.05C223.309 35.05 223.959 34.35 223.959 32.94V28H220.869V28.46H223.449V32.94C223.449 34.06 222.989 34.59 222.059 34.59C221.429 34.59 220.889 34.28 220.509 33.71L220.199 34.05C220.599 34.68 221.299 35.05 222.059 35.05ZM227.941 29.74C227.131 29.74 226.371 30.02 225.851 30.48L226.101 30.84C226.531 30.45 227.181 30.18 227.901 30.18C228.921 30.18 229.451 30.7 229.451 31.67V32.09H227.661C226.211 32.09 225.711 32.76 225.711 33.55C225.711 34.44 226.421 35.04 227.591 35.04C228.501 35.04 229.141 34.67 229.471 34.07V35H229.951V31.69C229.951 30.4 229.231 29.74 227.941 29.74ZM227.661 34.63C226.741 34.63 226.211 34.21 226.211 33.53C226.211 32.93 226.591 32.48 227.671 32.48H229.451V33.46C229.151 34.21 228.541 34.63 227.661 34.63ZM235.594 29.78L233.494 34.45L231.414 29.78H230.884L233.234 35H233.744L236.104 29.78H235.594ZM238.8 29.74C237.99 29.74 237.23 30.02 236.71 30.48L236.96 30.84C237.39 30.45 238.04 30.18 238.76 30.18C239.78 30.18 240.31 30.7 240.31 31.67V32.09H238.52C237.07 32.09 236.57 32.76 236.57 33.55C236.57 34.44 237.28 35.04 238.45 35.04C239.36 35.04 240 34.67 240.33 34.07V35H240.81V31.69C240.81 30.4 240.09 29.74 238.8 29.74ZM238.52 34.63C237.6 34.63 237.07 34.21 237.07 33.53C237.07 32.93 237.45 32.48 238.53 32.48H240.31V33.46C240.01 34.21 239.4 34.63 238.52 34.63Z" fill="#525252"/>
<path d="M135 25C133.674 25.0016 132.404 25.5402 131.466 26.4976C130.529 27.455 130.002 28.7531 130 30.1071C129.998 31.2136 130.352 32.2901 131.007 33.1714C131.007 33.1714 131.144 33.3548 131.166 33.3813L135 38L138.836 33.379C138.856 33.3544 138.993 33.1714 138.993 33.1714L138.993 33.17C139.648 32.2891 140.002 31.2131 140 30.1071C139.998 28.7531 139.471 27.455 138.534 26.4976C137.596 25.5402 136.326 25.0016 135 25ZM135 31.9643C134.64 31.9643 134.289 31.8554 133.99 31.6513C133.691 31.4472 133.458 31.1572 133.32 30.8178C133.183 30.4785 133.147 30.1051 133.217 29.7448C133.287 29.3846 133.46 29.0537 133.714 28.7939C133.969 28.5342 134.293 28.3573 134.645 28.2857C134.998 28.214 135.364 28.2508 135.696 28.3914C136.028 28.5319 136.312 28.77 136.512 29.0754C136.712 29.3808 136.818 29.7398 136.818 30.1071C136.818 30.5995 136.626 31.0715 136.285 31.4197C135.944 31.7678 135.482 31.9637 135 31.9643Z" fill="#7733FF"/>
<defs>
<filter id="filter0_d_58:193" x="0" y="0" width="351" height="65" filterUnits="userSpaceOnUse" color-interpolation-filters="sRGB">
<feFlood flood-opacity="0" result="BackgroundImageFix"/>
<feColorMatrix in="SourceAlpha" type="matrix" values="0 0 0 0 0 0 0 0 0 0 0 0 0 0 0 0 0 0 127 0" result="hardAlpha"/>
<feMorphology radius="4" operator="dilate" in="SourceAlpha" result="effect1_dropShadow_58:193"/>
<feOffset dy="2"/>
<feGaussianBlur stdDeviation="2"/>
<feComposite in2="hardAlpha" operator="out"/>
<feColorMatrix type="matrix" values="0 0 0 0 0.466667 0 0 0 0 0.2 0 0 0 0 1 0 0 0 0.05 0"/>
<feBlend mode="normal" in2="BackgroundImageFix" result="effect1_dropShadow_58:193"/>
<feBlend mode="normal" in="SourceGraphic" in2="effect1_dropShadow_58:193" result="shape"/>
</filter>
</defs>
</svg>
