<svg width="351" height="65" viewBox="0 0 351 65" fill="none" xmlns="http://www.w3.org/2000/svg">
<g filter="url(#filter0_d_58:194)">
<rect x="8" y="6" width="335" height="49" rx="20" fill="white"/>
</g>
<path d="M46.498 26.2V33.508L40.618 26.2H39.47V36H40.87V28.692L46.75 36H47.898V26.2H46.498ZM57.3413 32.332C57.3413 30.05 55.8153 28.51 53.6733 28.51C51.5313 28.51 49.9493 30.092 49.9493 32.29C49.9493 34.502 51.5453 36.084 53.9393 36.084C55.1713 36.084 56.1933 35.664 56.8653 34.88L56.1233 34.012C55.5773 34.614 54.8493 34.908 53.9813 34.908C52.5113 34.908 51.4613 34.04 51.2933 32.738H57.3133C57.3273 32.612 57.3413 32.444 57.3413 32.332ZM53.6733 29.644C54.9753 29.644 55.9133 30.526 56.0533 31.772H51.2933C51.4333 30.512 52.3853 29.644 53.6733 29.644ZM61.3356 36.084C63.3096 36.084 64.5416 35.23 64.5416 33.886C64.5416 31.002 59.8376 32.43 59.8376 30.68C59.8376 30.092 60.4116 29.658 61.5876 29.658C62.3156 29.658 63.0576 29.812 63.7296 30.246L64.3036 29.182C63.6596 28.762 62.5676 28.51 61.6016 28.51C59.6976 28.51 58.5076 29.406 58.5076 30.736C58.5076 33.69 63.1976 32.248 63.1976 33.914C63.1976 34.544 62.6796 34.922 61.4336 34.922C60.4676 34.922 59.4596 34.6 58.8296 34.152L58.2696 35.216C58.8856 35.706 60.1036 36.084 61.3356 36.084ZM69.9733 34.6C69.6933 34.824 69.3153 34.95 68.9233 34.95C68.1813 34.95 67.7613 34.502 67.7613 33.704V29.686H69.8893V28.58H67.7613V26.956H66.4173V28.58H65.1573V29.686H66.4173V33.76C66.4173 35.258 67.2713 36.084 68.7693 36.084C69.3713 36.084 69.9873 35.916 70.3933 35.566L69.9733 34.6ZM77.0379 34.782L80.0339 31.898C81.3639 30.624 81.6439 29.77 81.6439 28.818C81.6439 27.138 80.3279 26.088 78.2839 26.088C76.7579 26.088 75.4559 26.634 74.6999 27.572L75.6519 28.398C76.2539 27.67 77.1079 27.334 78.1579 27.334C79.5299 27.334 80.2439 27.95 80.2439 28.958C80.2439 29.574 80.0479 30.19 79.0119 31.198L75.0219 35.048V36H82.0639V34.782H77.0379Z" fill="#525252"/>
<rect x="275" y="21" width="39" height="18.72" rx="9.36" fill="#7733FF" fill-opacity="0.08"/>
<circle cx="304.64" cy="30.36" r="7.02" fill="#7733FF" fill-opacity="0.08"/>
<circle cx="304.64" cy="30.36" r="7.02" fill="#7733FF"/>
<path d="M147.22 35H149.99C152.21 35 153.71 33.54 153.71 31.5C153.71 29.46 152.21 28 149.99 28H147.22V35ZM147.73 34.54V28.46H149.95C151.93 28.46 153.2 29.72 153.2 31.5C153.2 33.28 151.93 34.54 149.95 34.54H147.73ZM159.742 32.37C159.742 30.82 158.682 29.74 157.252 29.74C155.822 29.74 154.752 30.84 154.752 32.39C154.752 33.94 155.862 35.04 157.442 35.04C158.232 35.04 158.952 34.75 159.412 34.19L159.122 33.86C158.722 34.35 158.112 34.59 157.452 34.59C156.202 34.59 155.292 33.75 155.242 32.51H159.732C159.732 32.46 159.742 32.41 159.742 32.37ZM157.252 30.18C158.362 30.18 159.182 30.99 159.252 32.12H155.252C155.332 30.98 156.142 30.18 157.252 30.18ZM163.839 29.74C162.849 29.74 162.119 30.18 161.769 30.91V29.78H161.289V35H161.789V32.22C161.789 30.98 162.539 30.19 163.769 30.19C164.829 30.19 165.459 30.81 165.459 31.99V35H165.959V31.95C165.959 30.49 165.109 29.74 163.839 29.74ZM170.637 29.74C169.697 29.74 168.907 30.21 168.497 31.01V29.78H168.017V36.94H168.517V33.81C168.937 34.59 169.717 35.04 170.637 35.04C172.107 35.04 173.217 33.96 173.217 32.39C173.217 30.83 172.107 29.74 170.637 29.74ZM170.607 34.59C169.407 34.59 168.507 33.7 168.507 32.39C168.507 31.08 169.407 30.19 170.607 30.19C171.807 30.19 172.717 31.08 172.717 32.39C172.717 33.7 171.807 34.59 170.607 34.59ZM176.506 29.74C175.696 29.74 174.936 30.02 174.416 30.48L174.666 30.84C175.096 30.45 175.746 30.18 176.466 30.18C177.486 30.18 178.016 30.7 178.016 31.67V32.09H176.226C174.776 32.09 174.276 32.76 174.276 33.55C174.276 34.44 174.986 35.04 176.156 35.04C177.066 35.04 177.706 34.67 178.036 34.07V35H178.516V31.69C178.516 30.4 177.796 29.74 176.506 29.74ZM176.226 34.63C175.306 34.63 174.776 34.21 174.776 33.53C174.776 32.93 175.156 32.48 176.236 32.48H178.016V33.46C177.716 34.21 177.106 34.63 176.226 34.63ZM181.896 35.04C183.226 35.04 183.956 34.46 183.956 33.61C183.956 31.62 180.496 32.73 180.496 31.16C180.496 30.6 180.946 30.18 181.966 30.18C182.526 30.18 183.096 30.33 183.536 30.65L183.766 30.25C183.356 29.94 182.636 29.74 181.976 29.74C180.656 29.74 179.996 30.38 179.996 31.17C179.996 33.22 183.456 32.1 183.456 33.62C183.456 34.21 183.016 34.6 181.916 34.6C181.146 34.6 180.436 34.31 180.036 33.97L179.806 34.37C180.216 34.75 181.036 35.04 181.896 35.04ZM187.111 29.74C186.301 29.74 185.541 30.02 185.021 30.48L185.271 30.84C185.701 30.45 186.351 30.18 187.071 30.18C188.091 30.18 188.621 30.7 188.621 31.67V32.09H186.831C185.381 32.09 184.881 32.76 184.881 33.55C184.881 34.44 185.591 35.04 186.761 35.04C187.671 35.04 188.311 34.67 188.641 34.07V35H189.121V31.69C189.121 30.4 188.401 29.74 187.111 29.74ZM186.831 34.63C185.911 34.63 185.381 34.21 185.381 33.53C185.381 32.93 185.761 32.48 186.841 32.48H188.621V33.46C188.321 34.21 187.711 34.63 186.831 34.63ZM191.661 30.92V29.78H191.181V35H191.681V32.28C191.681 30.99 192.371 30.22 193.531 30.22C193.571 30.22 193.611 30.23 193.651 30.23V29.74C192.671 29.74 191.981 30.16 191.661 30.92ZM194.959 34.19C194.719 34.19 194.539 34.37 194.539 34.61C194.539 34.82 194.669 34.97 194.869 35.02L194.539 36.43H194.899L195.289 35.07C195.349 34.86 195.379 34.76 195.379 34.61C195.379 34.39 195.209 34.19 194.959 34.19ZM203.909 31.39C204.609 31.16 205.079 30.62 205.079 29.79C205.079 28.63 204.169 28 202.669 28H199.749V35H202.869C204.589 35 205.449 34.33 205.449 33.15C205.449 32.18 204.899 31.58 203.909 31.39ZM202.649 28.44C203.859 28.44 204.559 28.91 204.559 29.83C204.559 30.76 203.859 31.23 202.649 31.23H200.259V28.44H202.649ZM202.869 34.56H200.259V31.67H202.869C204.209 31.67 204.939 32.11 204.939 33.11C204.939 34.12 204.209 34.56 202.869 34.56ZM208.869 29.74C208.059 29.74 207.299 30.02 206.779 30.48L207.029 30.84C207.459 30.45 208.109 30.18 208.829 30.18C209.849 30.18 210.379 30.7 210.379 31.67V32.09H208.589C207.139 32.09 206.639 32.76 206.639 33.55C206.639 34.44 207.349 35.04 208.519 35.04C209.429 35.04 210.069 34.67 210.399 34.07V35H210.879V31.69C210.879 30.4 210.159 29.74 208.869 29.74ZM208.589 34.63C207.669 34.63 207.139 34.21 207.139 33.53C207.139 32.93 207.519 32.48 208.599 32.48H210.379V33.46C210.079 34.21 209.469 34.63 208.589 34.63ZM212.939 35H213.439V27.58H212.939V35ZM215.796 28.51C216.026 28.51 216.206 28.33 216.206 28.1C216.206 27.88 216.026 27.7 215.796 27.7C215.566 27.7 215.386 27.89 215.386 28.11C215.386 28.33 215.566 28.51 215.796 28.51ZM215.546 35H216.046V29.78H215.546V35Z" fill="#525252"/>
<path d="M135 25C133.674 25.0016 132.404 25.5402 131.466 26.4976C130.529 27.455 130.002 28.7531 130 30.1071C129.998 31.2136 130.352 32.2901 131.007 33.1714C131.007 33.1714 131.144 33.3548 131.166 33.3813L135 38L138.836 33.379C138.856 33.3544 138.993 33.1714 138.993 33.1714L138.993 33.17C139.648 32.2891 140.002 31.2131 140 30.1071C139.998 28.7531 139.471 27.455 138.534 26.4976C137.596 25.5402 136.326 25.0016 135 25ZM135 31.9643C134.64 31.9643 134.289 31.8554 133.99 31.6513C133.691 31.4472 133.458 31.1572 133.32 30.8178C133.183 30.4785 133.147 30.1051 133.217 29.7448C133.287 29.3846 133.46 29.0537 133.714 28.7939C133.969 28.5342 134.293 28.3573 134.645 28.2857C134.998 28.214 135.364 28.2508 135.696 28.3914C136.028 28.5319 136.312 28.77 136.512 29.0754C136.712 29.3808 136.818 29.7398 136.818 30.1071C136.818 30.5995 136.626 31.0715 136.285 31.4197C135.944 31.7678 135.482 31.9637 135 31.9643Z" fill="#7733FF"/>
<defs>
<filter id="filter0_d_58:194" x="0" y="0" width="351" height="65" filterUnits="userSpaceOnUse" color-interpolation-filters="sRGB">
<feFlood flood-opacity="0" result="BackgroundImageFix"/>
<feColorMatrix in="SourceAlpha" type="matrix" values="0 0 0 0 0 0 0 0 0 0 0 0 0 0 0 0 0 0 127 0" result="hardAlpha"/>
<feMorphology radius="4" operator="dilate" in="SourceAlpha" result="effect1_dropShadow_58:194"/>
<feOffset dy="2"/>
<feGaussianBlur stdDeviation="2"/>
<feComposite in2="hardAlpha" operator="out"/>
<feColorMatrix type="matrix" values="0 0 0 0 0.466667 0 0 0 0 0.2 0 0 0 0 1 0 0 0 0.05 0"/>
<feBlend mode="normal" in2="BackgroundImageFix" result="effect1_dropShadow_58:194"/>
<feBlend mode="normal" in="SourceGraphic" in2="effect1_dropShadow_58:194" result="shape"/>
</filter>
</defs>
</svg>
