<svg width="53" height="15" viewBox="0 0 53 15" fill="none" xmlns="http://www.w3.org/2000/svg">
<path d="M4.404 2.2H0.162V12H2.43V9.298H4.404C7.022 9.298 8.66 7.94 8.66 5.756C8.66 3.558 7.022 2.2 4.404 2.2ZM4.278 7.45H2.43V4.048H4.278C5.664 4.048 6.364 4.678 6.364 5.756C6.364 6.82 5.664 7.45 4.278 7.45ZM12.2112 5.462V4.468H10.1252V12H12.3092V8.444C12.3092 7.002 13.1072 6.344 14.3112 6.344C14.4792 6.344 14.6192 6.358 14.8012 6.372V4.356C13.6392 4.356 12.7432 4.734 12.2112 5.462ZM17.1918 3.418C18.0038 3.418 18.5498 2.886 18.5498 2.158C18.5498 1.486 18.0038 0.981999 17.1918 0.981999C16.3798 0.981999 15.8338 1.514 15.8338 2.2C15.8338 2.886 16.3798 3.418 17.1918 3.418ZM16.0998 12H18.2838V4.468H16.0998V12ZM25.6867 4.468L23.5307 9.592L21.4447 4.468H19.1907L22.3547 12H24.6087L27.7867 4.468H25.6867ZM31.4698 4.356C30.2658 4.356 29.0478 4.678 28.2218 5.266L29.0058 6.792C29.5518 6.358 30.3778 6.092 31.1758 6.092C32.3518 6.092 32.9118 6.638 32.9118 7.576H31.1758C28.8798 7.576 27.9418 8.5 27.9418 9.83C27.9418 11.132 28.9918 12.112 30.7558 12.112C31.8618 12.112 32.6458 11.748 33.0518 11.062V12H35.0958V7.702C35.0958 5.42 33.7658 4.356 31.4698 4.356ZM31.3018 10.642C30.5318 10.642 30.0698 10.278 30.0698 9.732C30.0698 9.228 30.3918 8.85 31.4138 8.85H32.9118V9.62C32.6598 10.306 32.0298 10.642 31.3018 10.642ZM40.7945 12.112C42.3765 12.112 43.6225 11.412 44.1685 10.208L42.4745 9.284C42.0685 10.012 41.4665 10.32 40.7805 10.32C39.6745 10.32 38.8065 9.55 38.8065 8.234C38.8065 6.918 39.6745 6.148 40.7805 6.148C41.4665 6.148 42.0685 6.47 42.4745 7.184L44.1685 6.274C43.6225 5.042 42.3765 4.356 40.7945 4.356C38.3445 4.356 36.5945 5.966 36.5945 8.234C36.5945 10.502 38.3445 12.112 40.7945 12.112ZM50.6926 4.468L48.5646 9.578L46.4506 4.468H44.1966L47.4586 12.056L47.4306 12.126C47.1366 12.798 46.8006 13.064 46.1986 13.064C45.7646 13.064 45.3026 12.882 44.9666 12.588L44.1686 14.142C44.6586 14.576 45.4986 14.828 46.2686 14.828C47.6266 14.828 48.6626 14.282 49.3906 12.462L52.7926 4.468H50.6926Z" fill="#525252"/>
</svg>
