<svg width="48" height="13" viewBox="0 0 48 13" fill="none" xmlns="http://www.w3.org/2000/svg">
<path d="M4.41084 2.2H0.168836V12H2.43684V9.298H4.41084C7.02884 9.298 8.66684 7.94 8.66684 5.756C8.66684 3.558 7.02884 2.2 4.41084 2.2ZM4.28484 7.45H2.43684V4.048H4.28484C5.67084 4.048 6.37084 4.678 6.37084 5.756C6.37084 6.82 5.67084 7.45 4.28484 7.45ZM12.218 5.462V4.468H10.132V12H12.316V8.444C12.316 7.002 13.114 6.344 14.318 6.344C14.486 6.344 14.626 6.358 14.808 6.372V4.356C13.646 4.356 12.75 4.734 12.218 5.462ZM19.6223 12.112C22.0163 12.112 23.7523 10.502 23.7523 8.234C23.7523 5.966 22.0163 4.356 19.6223 4.356C17.2283 4.356 15.4783 5.966 15.4783 8.234C15.4783 10.502 17.2283 12.112 19.6223 12.112ZM19.6223 10.32C18.5303 10.32 17.6903 9.536 17.6903 8.234C17.6903 6.932 18.5303 6.148 19.6223 6.148C20.7143 6.148 21.5403 6.932 21.5403 8.234C21.5403 9.536 20.7143 10.32 19.6223 10.32ZM32.8421 3.418C33.6541 3.418 34.2001 2.886 34.2001 2.158C34.2001 1.486 33.6541 0.981999 32.8421 0.981999C32.0301 0.981999 31.4841 1.514 31.4841 2.2C31.4841 2.886 32.0301 3.418 32.8421 3.418ZM28.6001 3.222C28.9361 3.222 29.2441 3.32 29.4821 3.488L30.0561 1.906C29.6501 1.626 29.0061 1.5 28.3901 1.5C26.5141 1.5 25.4781 2.606 25.4781 4.3V4.636H24.3161V6.316H25.4781V12H27.6621V6.316H29.5381V4.636H27.6061V4.314C27.6061 3.572 27.9561 3.222 28.6001 3.222ZM31.7501 12H33.9341V4.468H31.7501V12ZM35.9582 12H38.1422V1.612H35.9582V12ZM47.5471 8.262C47.5471 5.84 45.8391 4.356 43.6271 4.356C41.3311 4.356 39.6091 5.98 39.6091 8.234C39.6091 10.474 41.3031 12.112 43.9071 12.112C45.2651 12.112 46.3151 11.692 47.0151 10.894L45.8531 9.634C45.3351 10.124 44.7611 10.362 43.9631 10.362C42.8151 10.362 42.0171 9.788 41.8071 8.85H47.5051C47.5191 8.668 47.5471 8.43 47.5471 8.262ZM43.6411 6.008C44.6211 6.008 45.3351 6.624 45.4891 7.576H41.7791C41.9331 6.61 42.6471 6.008 43.6411 6.008Z" fill="#7733FF"/>
</svg>
