<svg width="116" height="13" viewBox="0 0 116 13" fill="none" xmlns="http://www.w3.org/2000/svg">
<path d="M4.382 12.168C7.182 12.168 8.54 10.768 8.54 9.13C8.54 5.532 2.842 6.778 2.842 4.972C2.842 4.356 3.36 3.852 4.704 3.852C5.572 3.852 6.51 4.104 7.42 4.622L8.12 2.9C7.21 2.326 5.95 2.032 4.718 2.032C1.932 2.032 0.588 3.418 0.588 5.084C0.588 8.724 6.286 7.464 6.286 9.298C6.286 9.9 5.74 10.348 4.396 10.348C3.22 10.348 1.988 9.928 1.162 9.326L0.392 11.034C1.26 11.706 2.828 12.168 4.382 12.168ZM19.963 4.468L18.129 9.564L16.337 4.468H14.489L12.641 9.564L10.863 4.468H8.80502L11.521 12H13.621L15.371 7.324L17.065 12H19.165L21.895 4.468H19.963ZM24.0023 3.418C24.8143 3.418 25.3603 2.886 25.3603 2.158C25.3603 1.486 24.8143 0.981999 24.0023 0.981999C23.1903 0.981999 22.6443 1.514 22.6443 2.2C22.6443 2.886 23.1903 3.418 24.0023 3.418ZM22.9103 12H25.0943V4.468H22.9103V12ZM31.3913 10.096C31.1533 10.278 30.8313 10.376 30.5093 10.376C29.9213 10.376 29.5713 10.026 29.5713 9.382V6.316H31.4473V4.636H29.5713V2.802H27.3873V4.636H26.2253V6.316H27.3873V9.41C27.3873 11.202 28.4233 12.112 30.2013 12.112C30.8733 12.112 31.5313 11.958 31.9793 11.636L31.3913 10.096ZM36.6128 12.112C38.1948 12.112 39.4408 11.412 39.9868 10.208L38.2928 9.284C37.8868 10.012 37.2848 10.32 36.5988 10.32C35.4928 10.32 34.6248 9.55 34.6248 8.234C34.6248 6.918 35.4928 6.148 36.5988 6.148C37.2848 6.148 37.8868 6.47 38.2928 7.184L39.9868 6.274C39.4408 5.042 38.1948 4.356 36.6128 4.356C34.1628 4.356 32.4128 5.966 32.4128 8.234C32.4128 10.502 34.1628 12.112 36.6128 12.112ZM45.7676 4.356C44.8016 4.356 43.9616 4.664 43.3736 5.252V1.612H41.1896V12H43.3736V8.276C43.3736 6.89 44.1296 6.246 45.1796 6.246C46.1456 6.246 46.7056 6.806 46.7056 8.024V12H48.8896V7.688C48.8896 5.392 47.5456 4.356 45.7676 4.356ZM62.3102 12H64.6902L60.3082 2.2H58.0682L53.7002 12H56.0242L56.8922 9.9H61.4422L62.3102 12ZM57.6202 8.178L59.1742 4.426L60.7282 8.178H57.6202ZM69.1246 12.112C70.7066 12.112 71.9526 11.412 72.4986 10.208L70.8046 9.284C70.3986 10.012 69.7966 10.32 69.1106 10.32C68.0046 10.32 67.1366 9.55 67.1366 8.234C67.1366 6.918 68.0046 6.148 69.1106 6.148C69.7966 6.148 70.3986 6.47 70.8046 7.184L72.4986 6.274C71.9526 5.042 70.7066 4.356 69.1246 4.356C66.6746 4.356 64.9246 5.966 64.9246 8.234C64.9246 10.502 66.6746 12.112 69.1246 12.112ZM77.3003 12.112C78.8823 12.112 80.1283 11.412 80.6743 10.208L78.9803 9.284C78.5743 10.012 77.9723 10.32 77.2863 10.32C76.1803 10.32 75.3123 9.55 75.3123 8.234C75.3123 6.918 76.1803 6.148 77.2863 6.148C77.9723 6.148 78.5743 6.47 78.9803 7.184L80.6743 6.274C80.1283 5.042 78.8823 4.356 77.3003 4.356C74.8503 4.356 73.1003 5.966 73.1003 8.234C73.1003 10.502 74.8503 12.112 77.3003 12.112ZM85.4201 12.112C87.8141 12.112 89.5501 10.502 89.5501 8.234C89.5501 5.966 87.8141 4.356 85.4201 4.356C83.0261 4.356 81.2761 5.966 81.2761 8.234C81.2761 10.502 83.0261 12.112 85.4201 12.112ZM85.4201 10.32C84.3281 10.32 83.4881 9.536 83.4881 8.234C83.4881 6.932 84.3281 6.148 85.4201 6.148C86.5121 6.148 87.3381 6.932 87.3381 8.234C87.3381 9.536 86.5121 10.32 85.4201 10.32ZM96.414 4.468V8.192C96.414 9.578 95.686 10.222 94.678 10.222C93.712 10.222 93.152 9.662 93.152 8.402V4.468H90.968V8.724C90.968 11.048 92.298 12.112 94.188 12.112C95.112 12.112 95.952 11.762 96.526 11.104V12H98.598V4.468H96.414ZM105.199 4.356C104.177 4.356 103.295 4.706 102.707 5.35V4.468H100.621V12H102.805V8.276C102.805 6.89 103.561 6.246 104.611 6.246C105.577 6.246 106.137 6.806 106.137 8.024V12H108.321V7.688C108.321 5.392 106.977 4.356 105.199 4.356ZM114.571 10.096C114.333 10.278 114.011 10.376 113.689 10.376C113.101 10.376 112.751 10.026 112.751 9.382V6.316H114.627V4.636H112.751V2.802H110.567V4.636H109.405V6.316H110.567V9.41C110.567 11.202 111.603 12.112 113.381 12.112C114.053 12.112 114.711 11.958 115.159 11.636L114.571 10.096Z" fill="#7733FF"/>
</svg>
