<svg width="105" height="15" viewBox="0 0 105 15" fill="none" xmlns="http://www.w3.org/2000/svg">
<path d="M15.26 -9.53674e-07H11.42L8.1 5.56L4.78 -9.53674e-07H0.6L5.94 8.92V14H9.9V8.98L15.26 -9.53674e-07ZM20.3358 14.18C23.9158 14.18 26.4558 11.84 26.4558 8.56C26.4558 5.3 23.9158 2.98 20.3358 2.98C16.7958 2.98 14.2158 5.3 14.2158 8.56C14.2158 11.84 16.7958 14.18 20.3358 14.18ZM20.3358 11.16C19.0558 11.16 18.0558 10.22 18.0558 8.56C18.0558 6.92 19.0558 6 20.3358 6C21.6358 6 22.6158 6.92 22.6158 8.56C22.6158 10.22 21.6358 11.16 20.3358 11.16ZM35.8161 3.16V8.38C35.8161 10.2 34.8961 10.94 33.7761 10.94C32.6361 10.94 31.9761 10.28 31.9761 8.6V3.16H28.1761V9.22C28.1761 12.66 30.1161 14.18 32.7761 14.18C34.0161 14.18 35.1761 13.74 35.9961 12.84V14H39.6161V3.16H35.8161ZM45.6838 4.46V3.16H42.0638V14H45.8638V9.02C45.8638 7.12 46.9238 6.34 48.4638 6.34C48.7438 6.34 48.9838 6.36 49.3238 6.4V2.98C47.7238 2.98 46.4638 3.48 45.6838 4.46ZM66.3713 -9.53674e-07V7.46L60.1913 -9.53674e-07H56.9313V14H60.8112V6.54L66.9913 14H70.2513V-9.53674e-07H66.3713ZM83.9445 8.6C83.9445 5.02 81.3445 2.98 78.1445 2.98C74.7245 2.98 72.1845 5.3 72.1845 8.56C72.1845 11.8 74.6845 14.18 78.5445 14.18C80.6045 14.18 82.1245 13.58 83.1645 12.42L81.1645 10.34C80.4245 10.98 79.7245 11.28 78.6645 11.28C77.2645 11.28 76.3245 10.64 76.0045 9.54H83.8845C83.9045 9.24 83.9445 8.88 83.9445 8.6ZM78.1645 5.68C79.3445 5.68 80.1845 6.4 80.3845 7.54H75.9445C76.1645 6.4 76.9845 5.68 78.1645 5.68ZM89.6366 14.18C93.1566 14.18 94.9966 12.62 94.9966 10.62C94.9966 6.32 88.6166 7.94 88.6166 6.44C88.6166 6.04 89.0766 5.68 90.3566 5.68C91.3166 5.68 92.3966 5.88 93.4766 6.48L94.6166 3.9C93.5366 3.3 91.8566 2.98 90.3366 2.98C86.9366 2.98 85.0566 4.54 85.0566 6.58C85.0566 10.92 91.4566 9.26 91.4566 10.72C91.4566 11.18 91.0366 11.46 89.7566 11.46C88.4366 11.46 86.9766 11.08 85.9766 10.46L84.8366 13.06C85.8966 13.72 87.7966 14.18 89.6366 14.18ZM103.174 10.9C102.854 11.12 102.434 11.24 102.014 11.24C101.334 11.24 100.874 10.8 100.874 10V6.4H103.354V3.56H100.874V0.739999H97.0741V3.56H95.4941V6.4H97.0741V10.04C97.0741 12.82 98.6941 14.18 101.474 14.18C102.474 14.18 103.454 13.98 104.114 13.56L103.174 10.9Z" fill="#7733FF"/>
</svg>
