<svg width="32" height="16" viewBox="0 0 32 16" fill="none" xmlns="http://www.w3.org/2000/svg">
<path d="M2.90586 13.72L7.66586 9.04C9.54586 7.2 9.96586 6 9.96586 4.66C9.96586 2.32 8.16586 0.879999 5.32586 0.879999C3.18586 0.879999 1.44586 1.6 0.365859 2.88L1.38586 3.76C2.30586 2.7 3.56586 2.2 5.20586 2.2C7.34586 2.2 8.48586 3.2 8.48586 4.82C8.48586 5.78 8.18586 6.72 6.60586 8.28L0.785859 13.98V15H10.6059V13.72H2.90586ZM17.9149 15.12C21.1549 15.12 23.5149 12.46 23.5149 8C23.5149 3.54 21.1549 0.879999 17.9149 0.879999C14.6749 0.879999 12.3349 3.54 12.3349 8C12.3349 12.46 14.6749 15.12 17.9149 15.12ZM17.9149 13.8C15.4749 13.8 13.7949 11.74 13.7949 8C13.7949 4.26 15.4749 2.2 17.9149 2.2C20.3549 2.2 22.0349 4.26 22.0349 8C22.0349 11.74 20.3549 13.8 17.9149 13.8ZM28.7952 7.24C30.5952 7.24 31.9952 5.84 31.9952 4.06C31.9952 2.3 30.5952 0.899999 28.7952 0.899999C27.0152 0.899999 25.6152 2.3 25.6152 4.06C25.6152 5.84 27.0152 7.24 28.7952 7.24ZM28.7952 6.4C27.4952 6.4 26.4952 5.38 26.4952 4.06C26.4952 2.74 27.4952 1.74 28.7952 1.74C30.1152 1.74 31.1152 2.76 31.1152 4.06C31.1152 5.38 30.1152 6.4 28.7952 6.4Z" fill="#525252"/>
</svg>
