<svg width="76" height="10" viewBox="0 0 76 10" fill="none" xmlns="http://www.w3.org/2000/svg">
<path d="M6.37 8H7.15L3.95 1H3.22L0.02 8H0.79L1.63 6.13H5.53L6.37 8ZM1.9 5.53L3.58 1.77L5.26 5.53H1.9ZM8.51797 1.59C8.81797 1.59 9.03797 1.36 9.03797 1.07C9.03797 0.8 8.80797 0.58 8.51797 0.58C8.22797 0.58 7.99797 0.81 7.99797 1.08C7.99797 1.36 8.22797 1.59 8.51797 1.59ZM8.15797 8H8.86797V2.74H8.15797V8ZM11.5235 3.77V2.74H10.8435V8H11.5535V5.32C11.5535 4.08 12.2235 3.38 13.3235 3.38C13.3735 3.38 13.4335 3.39 13.4935 3.39V2.7C12.5235 2.7 11.8535 3.07 11.5235 3.77ZM18.9844 8H19.7244V1.64H22.1844V1H16.5244V1.64H18.9844V8ZM27.2597 5.37C27.2597 3.79 26.1897 2.7 24.7097 2.7C23.2297 2.7 22.1397 3.81 22.1397 5.37C22.1397 6.93 23.2597 8.05 24.8997 8.05C25.7297 8.05 26.4597 7.75 26.9297 7.19L26.5297 6.73C26.1297 7.19 25.5597 7.42 24.9197 7.42C23.7697 7.42 22.9297 6.69 22.8497 5.59H27.2497C27.2497 5.51 27.2597 5.43 27.2597 5.37ZM24.7097 3.31C25.7397 3.31 26.4897 4.03 26.5797 5.06H22.8497C22.9397 4.03 23.6897 3.31 24.7097 3.31ZM35.2648 2.7C34.3148 2.7 33.5648 3.13 33.1848 3.81C32.8648 3.07 32.1848 2.7 31.3148 2.7C30.4348 2.7 29.7548 3.07 29.3848 3.7V2.74H28.7048V8H29.4148V5.24C29.4148 4.04 30.1048 3.34 31.1748 3.34C32.1348 3.34 32.6948 3.91 32.6948 5.02V8H33.4048V5.24C33.4048 4.04 34.0848 3.34 35.1648 3.34C36.1148 3.34 36.6748 3.91 36.6748 5.02V8H37.3848V4.95C37.3848 3.44 36.5448 2.7 35.2648 2.7ZM42.0203 2.7C41.1503 2.7 40.4203 3.08 39.9903 3.78V2.74H39.3103V9.94H40.0203V7.01C40.4603 7.69 41.1803 8.05 42.0203 8.05C43.5203 8.05 44.6403 6.97 44.6403 5.37C44.6403 3.78 43.5203 2.7 42.0203 2.7ZM41.9703 7.42C40.8503 7.42 40.0103 6.6 40.0103 5.37C40.0103 4.15 40.8503 3.32 41.9703 3.32C43.0803 3.32 43.9303 4.15 43.9303 5.37C43.9303 6.6 43.0803 7.42 41.9703 7.42ZM46.7677 3.77V2.74H46.0877V8H46.7977V5.32C46.7977 4.08 47.4677 3.38 48.5677 3.38C48.6177 3.38 48.6777 3.39 48.7377 3.39V2.7C47.7677 2.7 47.0977 3.07 46.7677 3.77ZM51.8534 2.7C51.0234 2.7 50.2434 2.96 49.7134 3.41L50.0334 3.94C50.4634 3.56 51.1034 3.32 51.7834 3.32C52.7634 3.32 53.2734 3.81 53.2734 4.71V5.03H51.6034C50.0934 5.03 49.5734 5.71 49.5734 6.52C49.5734 7.43 50.3034 8.05 51.4934 8.05C52.3634 8.05 52.9834 7.72 53.3034 7.18V8H53.9834V4.74C53.9834 3.38 53.2134 2.7 51.8534 2.7ZM51.6034 7.49C50.7634 7.49 50.2734 7.11 50.2734 6.5C50.2734 5.96 50.6034 5.56 51.6234 5.56H53.2734V6.42C52.9934 7.11 52.4034 7.49 51.6034 7.49ZM58.4319 7.17C58.2319 7.35 57.9419 7.44 57.6519 7.44C57.0619 7.44 56.7419 7.1 56.7419 6.48V3.34H58.3419V2.74H56.7419V1.59H56.0319V2.74H55.0919V3.34H56.0319V6.52C56.0319 7.49 56.5819 8.05 57.5719 8.05C57.9819 8.05 58.4019 7.93 58.6819 7.68L58.4319 7.17ZM64.0044 2.74V5.5C64.0044 6.7 63.3144 7.41 62.2144 7.41C61.2144 7.41 60.6344 6.84 60.6344 5.72V2.74H59.9244V5.79C59.9244 7.3 60.8044 8.05 62.1444 8.05C62.9844 8.05 63.6644 7.68 64.0344 7.04V8H64.7144V2.74H64.0044ZM67.3829 3.77V2.74H66.7029V8H67.4129V5.32C67.4129 4.08 68.0829 3.38 69.1829 3.38C69.2329 3.38 69.2929 3.39 69.3529 3.39V2.7C68.3829 2.7 67.7129 3.07 67.3829 3.77ZM75.1796 5.37C75.1796 3.79 74.1096 2.7 72.6296 2.7C71.1496 2.7 70.0596 3.81 70.0596 5.37C70.0596 6.93 71.1796 8.05 72.8196 8.05C73.6496 8.05 74.3796 7.75 74.8496 7.19L74.4496 6.73C74.0496 7.19 73.4796 7.42 72.8396 7.42C71.6896 7.42 70.8496 6.69 70.7696 5.59H75.1696C75.1696 5.51 75.1796 5.43 75.1796 5.37ZM72.6296 3.31C73.6596 3.31 74.4096 4.03 74.4996 5.06H70.7696C70.8596 4.03 71.6096 3.31 72.6296 3.31Z" fill="#525252"/>
</svg>
