<svg width="24" height="8" viewBox="0 0 24 8" fill="none" xmlns="http://www.w3.org/2000/svg">
<path d="M5.29015 5.974C4.80415 6.325 4.24615 6.46 3.64315 6.46C2.09515 6.46 0.952148 5.344 0.952148 3.85C0.952148 2.347 2.09515 1.24 3.65215 1.24C4.39015 1.24 5.02015 1.456 5.55115 1.978L5.96515 1.555C5.40715 0.952 4.57915 0.646 3.62515 0.646C1.69915 0.646 0.295148 2.005 0.295148 3.85C0.295148 5.695 1.69915 7.054 3.61615 7.054C4.48915 7.054 5.33515 6.784 5.92915 6.253V3.85H5.29015V5.974ZM9.61409 7.045C11.0001 7.045 12.0171 6.037 12.0171 4.633C12.0171 3.229 11.0001 2.23 9.61409 2.23C8.22809 2.23 7.20209 3.229 7.20209 4.633C7.20209 6.037 8.22809 7.045 9.61409 7.045ZM9.61409 6.478C8.60609 6.478 7.85009 5.74 7.85009 4.633C7.85009 3.526 8.60609 2.788 9.61409 2.788C10.6221 2.788 11.3691 3.526 11.3691 4.633C11.3691 5.74 10.6221 6.478 9.61409 6.478ZM15.2567 7.045C16.6427 7.045 17.6597 6.037 17.6597 4.633C17.6597 3.229 16.6427 2.23 15.2567 2.23C13.8707 2.23 12.8447 3.229 12.8447 4.633C12.8447 6.037 13.8707 7.045 15.2567 7.045ZM15.2567 6.478C14.2487 6.478 13.4927 5.74 13.4927 4.633C13.4927 3.526 14.2487 2.788 15.2567 2.788C16.2647 2.788 17.0117 3.526 17.0117 4.633C17.0117 5.74 16.2647 6.478 15.2567 6.478ZM22.6452 0.322V3.166C22.2492 2.554 21.6012 2.23 20.8452 2.23C19.4952 2.23 18.4872 3.202 18.4872 4.633C18.4872 6.064 19.4952 7.045 20.8452 7.045C21.6282 7.045 22.2852 6.703 22.6722 6.064V7H23.2842V0.322H22.6452ZM20.8992 6.478C19.8912 6.478 19.1352 5.74 19.1352 4.633C19.1352 3.526 19.8912 2.788 20.8992 2.788C21.8982 2.788 22.6542 3.526 22.6542 4.633C22.6542 5.74 21.8982 6.478 20.8992 6.478Z" fill="black"/>
</svg>
