<svg width="351" height="65" viewBox="0 0 351 65" fill="none" xmlns="http://www.w3.org/2000/svg">
<g filter="url(#filter0_d)">
<rect x="8" y="6" width="335" height="49" rx="20" fill="white"/>
</g>
<path d="M46.498 26.2V33.508L40.618 26.2H39.47V36H40.87V28.692L46.75 36H47.898V26.2H46.498ZM57.3413 32.332C57.3413 30.05 55.8153 28.51 53.6733 28.51C51.5313 28.51 49.9493 30.092 49.9493 32.29C49.9493 34.502 51.5453 36.084 53.9393 36.084C55.1713 36.084 56.1933 35.664 56.8653 34.88L56.1233 34.012C55.5773 34.614 54.8493 34.908 53.9813 34.908C52.5113 34.908 51.4613 34.04 51.2933 32.738H57.3133C57.3273 32.612 57.3413 32.444 57.3413 32.332ZM53.6733 29.644C54.9753 29.644 55.9133 30.526 56.0533 31.772H51.2933C51.4333 30.512 52.3853 29.644 53.6733 29.644ZM61.3356 36.084C63.3096 36.084 64.5416 35.23 64.5416 33.886C64.5416 31.002 59.8376 32.43 59.8376 30.68C59.8376 30.092 60.4116 29.658 61.5876 29.658C62.3156 29.658 63.0576 29.812 63.7296 30.246L64.3036 29.182C63.6596 28.762 62.5676 28.51 61.6016 28.51C59.6976 28.51 58.5076 29.406 58.5076 30.736C58.5076 33.69 63.1976 32.248 63.1976 33.914C63.1976 34.544 62.6796 34.922 61.4336 34.922C60.4676 34.922 59.4596 34.6 58.8296 34.152L58.2696 35.216C58.8856 35.706 60.1036 36.084 61.3356 36.084ZM69.9733 34.6C69.6933 34.824 69.3153 34.95 68.9233 34.95C68.1813 34.95 67.7613 34.502 67.7613 33.704V29.686H69.8893V28.58H67.7613V26.956H66.4173V28.58H65.1573V29.686H66.4173V33.76C66.4173 35.258 67.2713 36.084 68.7693 36.084C69.3713 36.084 69.9873 35.916 70.3933 35.566L69.9733 34.6ZM77.0379 34.782L80.0339 31.898C81.3639 30.624 81.6439 29.77 81.6439 28.818C81.6439 27.138 80.3279 26.088 78.2839 26.088C76.7579 26.088 75.4559 26.634 74.6999 27.572L75.6519 28.398C76.2539 27.67 77.1079 27.334 78.1579 27.334C79.5299 27.334 80.2439 27.95 80.2439 28.958C80.2439 29.574 80.0479 30.19 79.0119 31.198L75.0219 35.048V36H82.0639V34.782H77.0379Z" fill="#525252"/>
<rect x="275" y="21" width="39" height="18.72" rx="9.36" fill="#7733FF" fill-opacity="0.08"/>
<circle cx="304.64" cy="30.36" r="7.02" fill="#7733FF" fill-opacity="0.08"/>
<circle cx="304.64" cy="30.36" r="7.02" fill="#7733FF"/>
<circle cx="198.716" cy="31.3199" r="6.0867" stroke="#7733FF" stroke-opacity="0.23" stroke-width="2" stroke-linecap="round"/>
<path d="M196.192 25.7809C194.936 26.3536 193.911 27.3366 193.287 28.5686C192.662 29.8006 192.476 31.2083 192.757 32.5604C193.039 33.9125 193.772 35.1288 194.836 36.0093C195.9 36.8898 197.232 37.3822 198.613 37.4057" stroke="#7733FF" stroke-width="2" stroke-linecap="round"/>
<circle cx="251.913" cy="31.0867" r="6.0867" stroke="#FF6C87" stroke-opacity="0.23" stroke-width="2" stroke-linecap="round"/>
<path d="M249.39 25.5478C248.133 26.1204 247.108 27.1035 246.484 28.3354C245.86 29.5674 245.673 30.9751 245.954 32.3272C246.236 33.6794 246.969 34.8956 248.033 35.7761C249.097 36.6566 250.429 37.149 251.81 37.1725" stroke="#FF6C87" stroke-width="2" stroke-linecap="round"/>
<circle cx="225.284" cy="31.0867" r="6.0867" stroke="#FFE35B" stroke-opacity="0.23" stroke-width="2" stroke-linecap="round"/>
<path d="M222.76 25.5478C221.504 26.1204 220.479 27.1035 219.855 28.3354C219.23 29.5674 219.044 30.9751 219.325 32.3272C219.607 33.6794 220.339 34.8956 221.404 35.7761C222.468 36.6566 223.8 37.149 225.18 37.1725" stroke="#FFE35B" stroke-width="2" stroke-linecap="round"/>
<circle cx="172.087" cy="31.7764" r="6.0867" stroke="#4ED394" stroke-opacity="0.23" stroke-width="2" stroke-linecap="round"/>
<path d="M172.827 25.7349C171.249 25.5413 169.657 25.9735 168.393 26.9388C167.128 27.9042 166.292 29.326 166.063 30.9001C165.834 32.4741 166.231 34.0752 167.167 35.3608C168.104 36.6463 169.507 37.5141 171.075 37.7784" stroke="#4ED394" stroke-width="2" stroke-linecap="round"/>
<defs>
<filter id="filter0_d" x="0" y="0" width="351" height="65" filterUnits="userSpaceOnUse" color-interpolation-filters="sRGB">
<feFlood flood-opacity="0" result="BackgroundImageFix"/>
<feColorMatrix in="SourceAlpha" type="matrix" values="0 0 0 0 0 0 0 0 0 0 0 0 0 0 0 0 0 0 127 0" result="hardAlpha"/>
<feMorphology radius="4" operator="dilate" in="SourceAlpha" result="effect1_dropShadow"/>
<feOffset dy="2"/>
<feGaussianBlur stdDeviation="2"/>
<feComposite in2="hardAlpha" operator="out"/>
<feColorMatrix type="matrix" values="0 0 0 0 0.466667 0 0 0 0 0.2 0 0 0 0 1 0 0 0 0.05 0"/>
<feBlend mode="normal" in2="BackgroundImageFix" result="effect1_dropShadow"/>
<feBlend mode="normal" in="SourceGraphic" in2="effect1_dropShadow" result="shape"/>
</filter>
</defs>
</svg>
