<svg width="351" height="65" viewBox="0 0 351 65" fill="none" xmlns="http://www.w3.org/2000/svg">
<g filter="url(#filter0_d)">
<rect x="8" y="6" width="335" height="49" rx="20" fill="white"/>
</g>
<path d="M46.498 27.2V34.508L40.618 27.2H39.47V37H40.87V29.692L46.75 37H47.898V27.2H46.498ZM57.3413 33.332C57.3413 31.05 55.8153 29.51 53.6733 29.51C51.5313 29.51 49.9493 31.092 49.9493 33.29C49.9493 35.502 51.5453 37.084 53.9393 37.084C55.1713 37.084 56.1933 36.664 56.8653 35.88L56.1233 35.012C55.5773 35.614 54.8493 35.908 53.9813 35.908C52.5113 35.908 51.4613 35.04 51.2933 33.738H57.3133C57.3273 33.612 57.3413 33.444 57.3413 33.332ZM53.6733 30.644C54.9753 30.644 55.9133 31.526 56.0533 32.772H51.2933C51.4333 31.512 52.3853 30.644 53.6733 30.644ZM61.3356 37.084C63.3096 37.084 64.5416 36.23 64.5416 34.886C64.5416 32.002 59.8376 33.43 59.8376 31.68C59.8376 31.092 60.4116 30.658 61.5876 30.658C62.3156 30.658 63.0576 30.812 63.7296 31.246L64.3036 30.182C63.6596 29.762 62.5676 29.51 61.6016 29.51C59.6976 29.51 58.5076 30.406 58.5076 31.736C58.5076 34.69 63.1976 33.248 63.1976 34.914C63.1976 35.544 62.6796 35.922 61.4336 35.922C60.4676 35.922 59.4596 35.6 58.8296 35.152L58.2696 36.216C58.8856 36.706 60.1036 37.084 61.3356 37.084ZM69.9733 35.6C69.6933 35.824 69.3153 35.95 68.9233 35.95C68.1813 35.95 67.7613 35.502 67.7613 34.704V30.686H69.8893V29.58H67.7613V27.956H66.4173V29.58H65.1573V30.686H66.4173V34.76C66.4173 36.258 67.2713 37.084 68.7693 37.084C69.3713 37.084 69.9873 36.916 70.3933 36.566L69.9733 35.6ZM74.6159 27.2V28.418H76.8279V37H78.2139V27.2H74.6159Z" fill="#525252"/>
<rect x="275" y="23" width="39" height="18.72" rx="9.36" fill="#7733FF" fill-opacity="0.08"/>
<circle cx="304.64" cy="32.36" r="7.02" fill="#7733FF"/>
<circle cx="198.716" cy="32.1648" r="6.0867" stroke="#7733FF" stroke-opacity="0.23" stroke-width="2" stroke-linecap="round"/>
<path d="M196.192 26.6259C194.936 27.1985 193.911 28.1816 193.287 29.4136C192.662 30.6456 192.476 32.0532 192.757 33.4054C193.039 34.7575 193.772 35.9737 194.836 36.8542C195.9 37.7347 197.232 38.2272 198.613 38.2506" stroke="#7733FF" stroke-width="2" stroke-linecap="round"/>
<circle cx="251.913" cy="31.9317" r="6.0867" stroke="#FF6C87" stroke-opacity="0.23" stroke-width="2" stroke-linecap="round"/>
<path d="M249.39 26.3928C248.133 26.9654 247.108 27.9484 246.484 29.1804C245.86 30.4124 245.673 31.8201 245.954 33.1722C246.236 34.5244 246.969 35.7406 248.033 36.6211C249.097 37.5016 250.429 37.994 251.81 38.0175" stroke="#FF6C87" stroke-width="2" stroke-linecap="round"/>
<circle cx="225.284" cy="31.9317" r="6.0867" stroke="#FFE35B" stroke-opacity="0.23" stroke-width="2" stroke-linecap="round"/>
<path d="M222.76 26.3928C221.504 26.9654 220.479 27.9484 219.855 29.1804C219.23 30.4124 219.044 31.8201 219.325 33.1722C219.607 34.5244 220.339 35.7406 221.404 36.6211C222.468 37.5016 223.8 37.994 225.18 38.0175" stroke="#FFE35B" stroke-width="2" stroke-linecap="round"/>
<circle cx="172.087" cy="32.6214" r="6.0867" stroke="#4ED394" stroke-opacity="0.23" stroke-width="2" stroke-linecap="round"/>
<path d="M172.827 26.5799C171.249 26.3863 169.657 26.8185 168.393 27.7838C167.128 28.7492 166.292 30.171 166.063 31.7451C165.834 33.3191 166.231 34.9202 167.167 36.2058C168.104 37.4913 169.507 38.3591 171.075 38.6234" stroke="#4ED394" stroke-width="2" stroke-linecap="round"/>
<defs>
<filter id="filter0_d" x="0" y="0" width="351" height="65" filterUnits="userSpaceOnUse" color-interpolation-filters="sRGB">
<feFlood flood-opacity="0" result="BackgroundImageFix"/>
<feColorMatrix in="SourceAlpha" type="matrix" values="0 0 0 0 0 0 0 0 0 0 0 0 0 0 0 0 0 0 127 0" result="hardAlpha"/>
<feMorphology radius="4" operator="dilate" in="SourceAlpha" result="effect1_dropShadow"/>
<feOffset dy="2"/>
<feGaussianBlur stdDeviation="2"/>
<feComposite in2="hardAlpha" operator="out"/>
<feColorMatrix type="matrix" values="0 0 0 0 0.466667 0 0 0 0 0.2 0 0 0 0 1 0 0 0 0.05 0"/>
<feBlend mode="normal" in2="BackgroundImageFix" result="effect1_dropShadow"/>
<feBlend mode="normal" in="SourceGraphic" in2="effect1_dropShadow" result="shape"/>
</filter>
</defs>
</svg>
