<svg width="351" height="69" viewBox="0 0 351 69" fill="none" xmlns="http://www.w3.org/2000/svg">
<g filter="url(#filter0_d)">
<rect x="8" y="6" width="335" height="53" rx="20" fill="white"/>
</g>
<path d="M70.25 41.5H87.75C88.413 41.5 89.0489 41.2366 89.5178 40.7678C89.9866 40.2989 90.25 39.6631 90.25 39V27.75C90.251 27.5855 90.2194 27.4224 90.1572 27.2701C90.095 27.1178 90.0034 26.9793 89.8875 26.8625L79.8875 16.8625C79.6533 16.6297 79.3365 16.499 79.0063 16.499C78.676 16.499 78.3592 16.6297 78.125 16.8625L68.125 26.8625C68.0069 26.9783 67.9129 27.1163 67.8486 27.2687C67.7842 27.421 67.7507 27.5846 67.75 27.75V39C67.75 39.6631 68.0134 40.2989 68.4822 40.7678C68.9511 41.2366 69.587 41.5 70.25 41.5ZM76.5 39V32.75H81.5V39H76.5ZM70.25 28.2625L79 19.5125L87.75 28.2625V39H84V32.75C84 32.087 83.7366 31.4511 83.2678 30.9822C82.7989 30.5134 82.163 30.25 81.5 30.25H76.5C75.837 30.25 75.2011 30.5134 74.7322 30.9822C74.2634 31.4511 74 32.087 74 32.75V39H70.25V28.2625Z" fill="#7733FF"/>
<path d="M178.25 41C183.773 41 188.25 36.5228 188.25 31C188.25 25.4772 183.773 21 178.25 21C172.727 21 168.25 25.4772 168.25 31C168.25 36.5228 172.727 41 178.25 41Z" fill="#7733FF"/>
<path d="M188.25 21.325V23.9375C189.712 24.4523 190.978 25.4081 191.874 26.6732C192.77 27.9382 193.251 29.45 193.251 31C193.251 32.55 192.77 34.0619 191.874 35.3269C190.978 36.5919 189.712 37.5477 188.25 38.0625V40.675C192.562 39.5625 195.75 35.6625 195.75 31C195.75 26.3375 192.562 22.4375 188.25 21.325Z" fill="#7733FF"/>
<path d="M294.215 36.9538C293.714 35.7188 292.986 34.5971 292.072 33.651C291.161 32.7022 290.081 31.9457 288.894 31.4234C288.883 31.4178 288.872 31.4151 288.862 31.4095C290.519 30.1658 291.596 28.1399 291.596 25.8543C291.596 22.0678 288.644 19 285 19C281.356 19 278.404 22.0678 278.404 25.8543C278.404 28.1399 279.481 30.1658 281.138 31.4123C281.128 31.4178 281.117 31.4206 281.106 31.4261C279.915 31.9485 278.846 32.6975 277.928 33.6538C277.015 34.6006 276.287 35.7221 275.785 36.9565C275.291 38.165 275.024 39.4607 275 40.7734C274.999 40.8029 275.004 40.8322 275.015 40.8597C275.025 40.8871 275.041 40.9122 275.06 40.9333C275.08 40.9544 275.104 40.9712 275.13 40.9827C275.156 40.9941 275.184 41 275.213 41H276.809C276.926 41 277.019 40.9033 277.021 40.7844C277.075 38.6508 277.899 36.6525 279.356 35.1379C280.864 33.5709 282.867 32.7085 285 32.7085C287.133 32.7085 289.136 33.5709 290.644 35.1379C292.101 36.6525 292.925 38.6508 292.979 40.7844C292.981 40.906 293.074 41 293.191 41H294.787C294.816 41 294.844 40.9941 294.87 40.9827C294.896 40.9712 294.92 40.9544 294.94 40.9333C294.959 40.9122 294.975 40.8871 294.985 40.8597C294.996 40.8322 295.001 40.8029 295 40.7734C294.973 39.4523 294.71 38.1671 294.215 36.9538ZM285 30.608C283.779 30.608 282.63 30.1133 281.766 29.2151C280.902 28.3168 280.426 27.1229 280.426 25.8543C280.426 24.5857 280.902 23.3917 281.766 22.4935C282.63 21.5952 283.779 21.1005 285 21.1005C286.221 21.1005 287.37 21.5952 288.234 22.4935C289.098 23.3917 289.574 24.5857 289.574 25.8543C289.574 27.1229 289.098 28.3168 288.234 29.2151C287.37 30.1133 286.221 30.608 285 30.608Z" fill="#7733FF"/>
<defs>
<filter id="filter0_d" x="0" y="0" width="351" height="69" filterUnits="userSpaceOnUse" color-interpolation-filters="sRGB">
<feFlood flood-opacity="0" result="BackgroundImageFix"/>
<feColorMatrix in="SourceAlpha" type="matrix" values="0 0 0 0 0 0 0 0 0 0 0 0 0 0 0 0 0 0 127 0" result="hardAlpha"/>
<feMorphology radius="4" operator="dilate" in="SourceAlpha" result="effect1_dropShadow"/>
<feOffset dy="2"/>
<feGaussianBlur stdDeviation="2"/>
<feComposite in2="hardAlpha" operator="out"/>
<feColorMatrix type="matrix" values="0 0 0 0 0.466667 0 0 0 0 0.2 0 0 0 0 1 0 0 0 0.07 0"/>
<feBlend mode="normal" in2="BackgroundImageFix" result="effect1_dropShadow"/>
<feBlend mode="normal" in="SourceGraphic" in2="effect1_dropShadow" result="shape"/>
</filter>
</defs>
</svg>
