<svg width="171" height="48" viewBox="0 0 171 48" fill="none" xmlns="http://www.w3.org/2000/svg">
<g filter="url(#filter0_d)">
<rect x="4" width="163" height="40" rx="20" fill="#7733FF"/>
<path d="M54.6438 18.07C54.3732 17.5007 53.9812 17.062 53.4678 16.754C52.9545 16.4367 52.3572 16.278 51.6758 16.278C50.9945 16.278 50.3785 16.4367 49.8278 16.754C49.2865 17.062 48.8572 17.51 48.5398 18.098C48.2318 18.6767 48.0778 19.3487 48.0778 20.114C48.0778 20.8793 48.2318 21.5513 48.5398 22.13C48.8572 22.7087 49.2865 23.1567 49.8278 23.474C50.3785 23.782 50.9945 23.936 51.6758 23.936C52.6278 23.936 53.4118 23.6513 54.0278 23.082C54.6438 22.5127 55.0032 21.7427 55.1058 20.772H51.2138V19.736H56.4638V20.716C56.3892 21.5187 56.1372 22.256 55.7078 22.928C55.2785 23.5907 54.7138 24.118 54.0138 24.51C53.3138 24.8927 52.5345 25.084 51.6758 25.084C50.7705 25.084 49.9445 24.874 49.1978 24.454C48.4512 24.0247 47.8585 23.432 47.4198 22.676C46.9905 21.92 46.7758 21.066 46.7758 20.114C46.7758 19.162 46.9905 18.308 47.4198 17.552C47.8585 16.7867 48.4512 16.194 49.1978 15.774C49.9445 15.3447 50.7705 15.13 51.6758 15.13C52.7118 15.13 53.6265 15.3867 54.4198 15.9C55.2225 16.4133 55.8058 17.1367 56.1698 18.07H54.6438ZM65.1483 20.87C65.1483 21.1127 65.1343 21.3693 65.1063 21.64H58.9743C59.021 22.396 59.2776 22.9887 59.7443 23.418C60.2203 23.838 60.7943 24.048 61.4663 24.048C62.017 24.048 62.4743 23.922 62.8383 23.67C63.2116 23.4087 63.473 23.0633 63.6223 22.634H64.9943C64.789 23.3713 64.3783 23.9733 63.7623 24.44C63.1463 24.8973 62.381 25.126 61.4663 25.126C60.7383 25.126 60.085 24.9627 59.5063 24.636C58.937 24.3093 58.489 23.8473 58.1623 23.25C57.8356 22.6433 57.6723 21.9433 57.6723 21.15C57.6723 20.3567 57.831 19.6613 58.1483 19.064C58.4656 18.4667 58.909 18.0093 59.4783 17.692C60.057 17.3653 60.7196 17.202 61.4663 17.202C62.1943 17.202 62.8383 17.3607 63.3983 17.678C63.9583 17.9953 64.3876 18.434 64.6863 18.994C64.9943 19.5447 65.1483 20.17 65.1483 20.87ZM63.8323 20.604C63.8323 20.1187 63.725 19.7033 63.5103 19.358C63.2956 19.0033 63.0016 18.7373 62.6283 18.56C62.2643 18.3733 61.8583 18.28 61.4103 18.28C60.7663 18.28 60.2156 18.4853 59.7583 18.896C59.3103 19.3067 59.0536 19.876 58.9883 20.604H63.8323ZM68.384 18.378V22.9C68.384 23.2733 68.4633 23.5393 68.622 23.698C68.7806 23.8473 69.056 23.922 69.448 23.922H70.386V25H69.238C68.5286 25 67.9966 24.8367 67.642 24.51C67.2873 24.1833 67.11 23.6467 67.11 22.9V18.378H66.116V17.328H67.11V15.396H68.384V17.328H70.386V18.378H68.384ZM78.756 25.098C78.112 25.098 77.5333 24.986 77.02 24.762C76.516 24.5287 76.1193 24.2113 75.83 23.81C75.5407 23.3993 75.3913 22.928 75.382 22.396H76.74C76.7867 22.8533 76.9733 23.2407 77.3 23.558C77.636 23.866 78.1213 24.02 78.756 24.02C79.3627 24.02 79.8387 23.8707 80.184 23.572C80.5387 23.264 80.716 22.872 80.716 22.396C80.716 22.0227 80.6133 21.7193 80.408 21.486C80.2027 21.2527 79.946 21.0753 79.638 20.954C79.33 20.8327 78.9147 20.702 78.392 20.562C77.748 20.394 77.23 20.226 76.838 20.058C76.4553 19.89 76.124 19.6287 75.844 19.274C75.5733 18.91 75.438 18.4247 75.438 17.818C75.438 17.286 75.5733 16.8147 75.844 16.404C76.1147 15.9933 76.4927 15.676 76.978 15.452C77.4727 15.228 78.0373 15.116 78.672 15.116C79.5867 15.116 80.3333 15.3447 80.912 15.802C81.5 16.2593 81.8313 16.866 81.906 17.622H80.506C80.4593 17.2487 80.2633 16.922 79.918 16.642C79.5727 16.3527 79.1153 16.208 78.546 16.208C78.014 16.208 77.58 16.348 77.244 16.628C76.908 16.8987 76.74 17.2813 76.74 17.776C76.74 18.1307 76.838 18.42 77.034 18.644C77.2393 18.868 77.4867 19.0407 77.776 19.162C78.0747 19.274 78.49 19.4047 79.022 19.554C79.666 19.7313 80.184 19.9087 80.576 20.086C80.968 20.254 81.304 20.52 81.584 20.884C81.864 21.2387 82.004 21.724 82.004 22.34C82.004 22.816 81.878 23.264 81.626 23.684C81.374 24.104 81.0007 24.4447 80.506 24.706C80.0113 24.9673 79.428 25.098 78.756 25.098ZM85.4328 18.378V22.9C85.4328 23.2733 85.5121 23.5393 85.6708 23.698C85.8294 23.8473 86.1048 23.922 86.4968 23.922H87.4348V25H86.2868C85.5774 25 85.0454 24.8367 84.6908 24.51C84.3361 24.1833 84.1588 23.6467 84.1588 22.9V18.378H83.1648V17.328H84.1588V15.396H85.4328V17.328H87.4348V18.378H85.4328ZM88.5024 21.136C88.5024 20.352 88.6611 19.666 88.9784 19.078C89.2957 18.4807 89.7297 18.0187 90.2804 17.692C90.8404 17.3653 91.4611 17.202 92.1424 17.202C92.8144 17.202 93.3977 17.3467 93.8924 17.636C94.3871 17.9253 94.7557 18.2893 94.9984 18.728V17.328H96.2864V25H94.9984V23.572C94.7464 24.02 94.3684 24.3933 93.8644 24.692C93.3697 24.9813 92.7911 25.126 92.1284 25.126C91.4471 25.126 90.8311 24.958 90.2804 24.622C89.7297 24.286 89.2957 23.8147 88.9784 23.208C88.6611 22.6013 88.5024 21.9107 88.5024 21.136ZM94.9984 21.15C94.9984 20.5713 94.8817 20.0673 94.6484 19.638C94.4151 19.2087 94.0977 18.882 93.6964 18.658C93.3044 18.4247 92.8704 18.308 92.3944 18.308C91.9184 18.308 91.4844 18.42 91.0924 18.644C90.7004 18.868 90.3877 19.1947 90.1544 19.624C89.9211 20.0533 89.8044 20.5573 89.8044 21.136C89.8044 21.724 89.9211 22.2373 90.1544 22.676C90.3877 23.1053 90.7004 23.4367 91.0924 23.67C91.4844 23.894 91.9184 24.006 92.3944 24.006C92.8704 24.006 93.3044 23.894 93.6964 23.67C94.0977 23.4367 94.4151 23.1053 94.6484 22.676C94.8817 22.2373 94.9984 21.7287 94.9984 21.15ZM99.7133 18.574C99.9373 18.1353 100.255 17.7947 100.665 17.552C101.085 17.3093 101.594 17.188 102.191 17.188V18.504H101.855C100.427 18.504 99.7133 19.2787 99.7133 20.828V25H98.4393V17.328H99.7133V18.574ZM105.216 18.378V22.9C105.216 23.2733 105.295 23.5393 105.454 23.698C105.613 23.8473 105.888 23.922 106.28 23.922H107.218V25H106.07C105.361 25 104.829 24.8367 104.474 24.51C104.119 24.1833 103.942 23.6467 103.942 22.9V18.378H102.948V17.328H103.942V15.396H105.216V17.328H107.218V18.378H105.216ZM115.762 20.87C115.762 21.1127 115.748 21.3693 115.72 21.64H109.588C109.634 22.396 109.891 22.9887 110.358 23.418C110.834 23.838 111.408 24.048 112.08 24.048C112.63 24.048 113.088 23.922 113.452 23.67C113.825 23.4087 114.086 23.0633 114.236 22.634H115.608C115.402 23.3713 114.992 23.9733 114.376 24.44C113.76 24.8973 112.994 25.126 112.08 25.126C111.352 25.126 110.698 24.9627 110.12 24.636C109.55 24.3093 109.102 23.8473 108.776 23.25C108.449 22.6433 108.286 21.9433 108.286 21.15C108.286 20.3567 108.444 19.6613 108.762 19.064C109.079 18.4667 109.522 18.0093 110.092 17.692C110.67 17.3653 111.333 17.202 112.08 17.202C112.808 17.202 113.452 17.3607 114.012 17.678C114.572 17.9953 115.001 18.434 115.3 18.994C115.608 19.5447 115.762 20.17 115.762 20.87ZM114.446 20.604C114.446 20.1187 114.338 19.7033 114.124 19.358C113.909 19.0033 113.615 18.7373 113.242 18.56C112.878 18.3733 112.472 18.28 112.024 18.28C111.38 18.28 110.829 18.4853 110.372 18.896C109.924 19.3067 109.667 19.876 109.602 20.604H114.446ZM116.967 21.136C116.967 20.352 117.126 19.666 117.443 19.078C117.761 18.4807 118.195 18.0187 118.745 17.692C119.305 17.3653 119.931 17.202 120.621 17.202C121.219 17.202 121.774 17.342 122.287 17.622C122.801 17.8927 123.193 18.252 123.463 18.7V14.64H124.751V25H123.463V23.558C123.211 24.0153 122.838 24.3933 122.343 24.692C121.849 24.9813 121.27 25.126 120.607 25.126C119.926 25.126 119.305 24.958 118.745 24.622C118.195 24.286 117.761 23.8147 117.443 23.208C117.126 22.6013 116.967 21.9107 116.967 21.136ZM123.463 21.15C123.463 20.5713 123.347 20.0673 123.113 19.638C122.88 19.2087 122.563 18.882 122.161 18.658C121.769 18.4247 121.335 18.308 120.859 18.308C120.383 18.308 119.949 18.42 119.557 18.644C119.165 18.868 118.853 19.1947 118.619 19.624C118.386 20.0533 118.269 20.5573 118.269 21.136C118.269 21.724 118.386 22.2373 118.619 22.676C118.853 23.1053 119.165 23.4367 119.557 23.67C119.949 23.894 120.383 24.006 120.859 24.006C121.335 24.006 121.769 23.894 122.161 23.67C122.563 23.4367 122.88 23.1053 123.113 22.676C123.347 22.2373 123.463 21.7287 123.463 21.15Z" fill="white"/>
</g>
<defs>
<filter id="filter0_d" x="0" y="0" width="171" height="48" filterUnits="userSpaceOnUse" color-interpolation-filters="sRGB">
<feFlood flood-opacity="0" result="BackgroundImageFix"/>
<feColorMatrix in="SourceAlpha" type="matrix" values="0 0 0 0 0 0 0 0 0 0 0 0 0 0 0 0 0 0 127 0" result="hardAlpha"/>
<feOffset dy="4"/>
<feGaussianBlur stdDeviation="2"/>
<feComposite in2="hardAlpha" operator="out"/>
<feColorMatrix type="matrix" values="0 0 0 0 0 0 0 0 0 0 0 0 0 0 0 0 0 0 0.25 0"/>
<feBlend mode="normal" in2="BackgroundImageFix" result="effect1_dropShadow"/>
<feBlend mode="normal" in="SourceGraphic" in2="effect1_dropShadow" result="shape"/>
</filter>
</defs>
</svg>
