<svg width="107" height="28" viewBox="0 0 107 28" fill="none" xmlns="http://www.w3.org/2000/svg">
<path d="M17.6297 1.8V11.268H7.90972V1.8H0.781719V27H7.90972V17.172H17.6297V27H24.7577V1.8H17.6297ZM49.4056 17.28C49.4056 10.836 44.7256 7.164 38.9656 7.164C32.8096 7.164 28.2376 11.34 28.2376 17.208C28.2376 23.04 32.7376 27.324 39.6856 27.324C43.3936 27.324 46.1296 26.244 48.0016 24.156L44.4016 20.412C43.0696 21.564 41.8096 22.104 39.9016 22.104C37.3816 22.104 35.6896 20.952 35.1136 18.972H49.2976C49.3336 18.432 49.4056 17.784 49.4056 17.28ZM39.0016 12.024C41.1256 12.024 42.6376 13.32 42.9976 15.372H35.0056C35.4016 13.32 36.8776 12.024 39.0016 12.024ZM52.5593 27H59.3993V0.287998H52.5593V27ZM63.8444 27H70.6844V0.287998H63.8444V27ZM84.9216 27.324C91.3656 27.324 95.9376 23.112 95.9376 17.208C95.9376 11.34 91.3656 7.164 84.9216 7.164C78.5496 7.164 73.9056 11.34 73.9056 17.208C73.9056 23.112 78.5496 27.324 84.9216 27.324ZM84.9216 21.888C82.6176 21.888 80.8176 20.196 80.8176 17.208C80.8176 14.256 82.6176 12.6 84.9216 12.6C87.2616 12.6 89.0256 14.256 89.0256 17.208C89.0256 20.196 87.2616 21.888 84.9216 21.888ZM99.6102 17.82H105.046L106.414 1.8H98.2782L99.6102 17.82ZM102.346 27.324C104.758 27.324 106.414 25.632 106.414 23.544C106.414 21.42 104.758 19.836 102.346 19.836C99.9342 19.836 98.2422 21.42 98.2422 23.544C98.2422 25.632 99.9342 27.324 102.346 27.324Z" fill="#7733FF"/>
</svg>
