<svg width="30" height="30" viewBox="0 0 30 30" fill="none" xmlns="http://www.w3.org/2000/svg">
<path d="M11.25 25C16.7728 25 21.25 20.5228 21.25 15C21.25 9.47715 16.7728 5 11.25 5C5.72715 5 1.25 9.47715 1.25 15C1.25 20.5228 5.72715 25 11.25 25Z" fill="#7733FF"/>
<path d="M21.25 5.32501V7.93751C22.712 8.4523 23.9783 9.40814 24.874 10.6732C25.7697 11.9382 26.2508 13.45 26.2508 15C26.2508 16.55 25.7697 18.0619 24.874 19.3269C23.9783 20.5919 22.712 21.5477 21.25 22.0625V24.675C25.5625 23.5625 28.75 19.6625 28.75 15C28.75 10.3375 25.5625 6.43751 21.25 5.32501Z" fill="#7733FF"/>
</svg>
