<svg width="18" height="26" viewBox="0 0 18 26" fill="none" xmlns="http://www.w3.org/2000/svg">
<path d="M16.8125 11.75C17.039 11.75 17.2579 11.8321 17.4287 11.981C17.5994 12.1299 17.7104 12.3356 17.7412 12.56L17.75 12.6875V13.3125C17.7502 15.442 16.9452 17.4928 15.4964 19.0535C14.0477 20.6142 12.0624 21.5694 9.93875 21.7275L9.9375 24.5625C9.93743 24.8 9.84719 25.0287 9.68503 25.2022C9.52287 25.3758 9.30088 25.4813 9.0639 25.4975C8.82692 25.5137 8.59264 25.4394 8.40838 25.2895C8.22412 25.1396 8.10363 24.9253 8.07125 24.69L8.0625 24.5625V21.7275C5.98939 21.5735 4.04609 20.6597 2.60526 19.1612C1.16444 17.6627 0.327517 15.6851 0.255 13.6075L0.25 13.3125V12.6875C0.250073 12.45 0.340305 12.2213 0.502466 12.0478C0.664626 11.8742 0.886623 11.7687 1.1236 11.7525C1.36058 11.7363 1.59487 11.8106 1.77912 11.9605C1.96338 12.1104 2.08387 12.3247 2.11625 12.56L2.125 12.6875V13.3125C2.12486 15.0063 2.77965 16.6346 3.95242 17.8568C5.12519 19.0789 6.7251 19.8003 8.4175 19.87L8.6875 19.875H9.3125C11.0063 19.8751 12.6346 19.2204 13.8568 18.0476C15.0789 16.8748 15.8003 15.2749 15.87 13.5825L15.875 13.3125V12.6875C15.875 12.4389 15.9738 12.2004 16.1496 12.0246C16.3254 11.8488 16.5639 11.75 16.8125 11.75ZM9 0.5C10.3261 0.5 11.5979 1.02678 12.5355 1.96447C13.4732 2.90215 14 4.17392 14 5.5V13C14 14.3261 13.4732 15.5979 12.5355 16.5355C11.5979 17.4732 10.3261 18 9 18C7.67392 18 6.40215 17.4732 5.46447 16.5355C4.52678 15.5979 4 14.3261 4 13V5.5C4 4.17392 4.52678 2.90215 5.46447 1.96447C6.40215 1.02678 7.67392 0.5 9 0.5Z" fill="#7733FF"/>
</svg>
