<svg width="28" height="8" viewBox="0 0 28 8" fill="none" xmlns="http://www.w3.org/2000/svg">
<path d="M5.26 -4.76837e-07V5.68L0.75 -4.76837e-07H0.14V7H0.88V1.32L5.38 7H5.99V-4.76837e-07H5.26ZM12.7148 4.37C12.7148 2.79 11.6448 1.7 10.1648 1.7C8.68477 1.7 7.59477 2.81 7.59477 4.37C7.59477 5.93 8.71477 7.05 10.3548 7.05C11.1848 7.05 11.9148 6.75 12.3848 6.19L11.9848 5.73C11.5848 6.19 11.0148 6.42 10.3748 6.42C9.22477 6.42 8.38477 5.69 8.30477 4.59H12.7048C12.7048 4.51 12.7148 4.43 12.7148 4.37ZM10.1648 2.31C11.1948 2.31 11.9448 3.03 12.0348 4.06H8.30477C8.39477 3.03 9.14477 2.31 10.1648 2.31ZM15.5699 7.05C16.9399 7.05 17.7399 6.46 17.7399 5.55C17.7399 3.53 14.3299 4.6 14.3299 3.18C14.3299 2.68 14.7499 2.31 15.6999 2.31C16.2399 2.31 16.7899 2.44 17.2499 2.76L17.5599 2.19C17.1199 1.89 16.3799 1.7 15.6999 1.7C14.3599 1.7 13.6199 2.34 13.6199 3.2C13.6199 5.28 17.0299 4.2 17.0299 5.57C17.0299 6.09 16.6199 6.43 15.6199 6.43C14.8799 6.43 14.1699 6.17 13.7499 5.84L13.4299 6.4C13.8599 6.77 14.6999 7.05 15.5699 7.05ZM21.5725 6.17C21.3725 6.35 21.0825 6.44 20.7925 6.44C20.2025 6.44 19.8825 6.1 19.8825 5.48V2.34H21.4825V1.74H19.8825V0.59H19.1725V1.74H18.2325V2.34H19.1725V5.52C19.1725 6.49 19.7225 7.05 20.7125 7.05C21.1225 7.05 21.5425 6.93 21.8225 6.68L21.5725 6.17ZM24.8322 -4.76837e-07V0.64H26.4822V7H27.2022V-4.76837e-07H24.8322Z" fill="#F8F8F8"/>
</svg>
