<svg width="28" height="28" viewBox="0 0 28 28" fill="none" xmlns="http://www.w3.org/2000/svg">
<path d="M14 27.125C21.2488 27.125 27.125 21.2488 27.125 14C27.125 6.75125 21.2488 0.875 14 0.875C6.75125 0.875 0.875 6.75125 0.875 14C0.875 21.2488 6.75125 27.125 14 27.125ZM13.0625 9.3125C13.0625 9.06386 13.1613 8.8254 13.3371 8.64959C13.5129 8.47377 13.7514 8.375 14 8.375C14.2486 8.375 14.4871 8.47377 14.6629 8.64959C14.8387 8.8254 14.9375 9.06386 14.9375 9.3125V13.0625H18.6875C18.9361 13.0625 19.1746 13.1613 19.3504 13.3371C19.5262 13.5129 19.625 13.7514 19.625 14C19.625 14.2486 19.5262 14.4871 19.3504 14.6629C19.1746 14.8387 18.9361 14.9375 18.6875 14.9375H14.9375V18.6875C14.9375 18.9361 14.8387 19.1746 14.6629 19.3504C14.4871 19.5262 14.2486 19.625 14 19.625C13.7514 19.625 13.5129 19.5262 13.3371 19.3504C13.1613 19.1746 13.0625 18.9361 13.0625 18.6875V14.9375H9.3125C9.06386 14.9375 8.8254 14.8387 8.64959 14.6629C8.47377 14.4871 8.375 14.2486 8.375 14C8.375 13.7514 8.47377 13.5129 8.64959 13.3371C8.8254 13.1613 9.06386 13.0625 9.3125 13.0625H13.0625V9.3125Z" fill="#7733FF"/>
</svg>
