<svg width="250" height="31" viewBox="0 0 250 31" fill="none" xmlns="http://www.w3.org/2000/svg">
<path d="M4.55288 11.084C7.05888 11.084 8.20688 9.852 8.20688 8.41C8.20688 4.84 2.17288 6.464 2.17288 3.776C2.17288 2.796 2.97088 1.998 4.76288 1.998C5.63088 1.998 6.61088 2.264 7.45088 2.81L7.80088 1.984C7.01688 1.438 5.86888 1.116 4.76288 1.116C2.27088 1.116 1.15088 2.362 1.15088 3.804C1.15088 7.43 7.18488 5.778 7.18488 8.466C7.18488 9.432 6.38688 10.202 4.55288 10.202C3.26488 10.202 2.01888 9.698 1.31888 9.012L0.912883 9.81C1.64088 10.566 3.08288 11.084 4.55288 11.084ZM20.0154 3.636L17.6774 9.894L15.3254 3.636H14.4714L12.1054 9.894L9.79545 3.636H8.84345L11.6154 11H12.5534L14.8774 4.966L17.2014 11H18.1394L20.9254 3.636H20.0154ZM24.7794 3.58C23.6174 3.58 22.5254 3.944 21.7834 4.574L22.2314 5.316C22.8334 4.784 23.7294 4.448 24.6814 4.448C26.0534 4.448 26.7674 5.134 26.7674 6.394V6.842H24.4294C22.3154 6.842 21.5874 7.794 21.5874 8.928C21.5874 10.202 22.6094 11.07 24.2754 11.07C25.4934 11.07 26.3614 10.608 26.8094 9.852V11H27.7614V6.436C27.7614 4.532 26.6834 3.58 24.7794 3.58ZM24.4294 10.286C23.2534 10.286 22.5674 9.754 22.5674 8.9C22.5674 8.144 23.0294 7.584 24.4574 7.584H26.7674V8.788C26.3754 9.754 25.5494 10.286 24.4294 10.286ZM30.4612 11H31.4552V0.611999H30.4612V11ZM34.221 11H35.215V0.611999H34.221V11ZM40.9907 11.07C43.1467 11.07 44.7287 9.502 44.7287 7.318C44.7287 5.134 43.1467 3.58 40.9907 3.58C38.8347 3.58 37.2387 5.134 37.2387 7.318C37.2387 9.502 38.8347 11.07 40.9907 11.07ZM40.9907 10.188C39.4227 10.188 38.2467 9.04 38.2467 7.318C38.2467 5.596 39.4227 4.448 40.9907 4.448C42.5587 4.448 43.7207 5.596 43.7207 7.318C43.7207 9.04 42.5587 10.188 40.9907 10.188ZM56.451 3.636L54.113 9.894L51.761 3.636H50.907L48.541 9.894L46.231 3.636H45.279L48.051 11H48.989L51.313 4.966L53.637 11H54.575L57.361 3.636H56.451ZM66.3157 3.58C65.1397 3.58 64.1317 4.084 63.5157 5.036V0.611999H62.5217V11H63.4737V9.544C64.0757 10.538 65.0977 11.07 66.3157 11.07C68.4157 11.07 69.9837 9.544 69.9837 7.318C69.9837 5.092 68.4157 3.58 66.3157 3.58ZM66.2457 10.188C64.6777 10.188 63.5017 9.04 63.5017 7.318C63.5017 5.596 64.6777 4.448 66.2457 4.448C67.7997 4.448 68.9897 5.596 68.9897 7.318C68.9897 9.04 67.7997 10.188 66.2457 10.188ZM72.514 2.026C72.934 2.026 73.242 1.704 73.242 1.298C73.242 0.92 72.92 0.611999 72.514 0.611999C72.108 0.611999 71.786 0.933999 71.786 1.312C71.786 1.704 72.108 2.026 72.514 2.026ZM72.01 11H73.004V3.636H72.01V11ZM76.7218 5.078V3.636H75.7698V11H76.7638V7.248C76.7638 5.512 77.7018 4.532 79.2418 4.532C79.3118 4.532 79.3958 4.546 79.4798 4.546V3.58C78.1218 3.58 77.1838 4.098 76.7218 5.078ZM86.9372 0.611999V5.036C86.3212 4.084 85.3132 3.58 84.1372 3.58C82.0372 3.58 80.4692 5.092 80.4692 7.318C80.4692 9.544 82.0372 11.07 84.1372 11.07C85.3552 11.07 86.3772 10.538 86.9792 9.544V11H87.9312V0.611999H86.9372ZM84.2212 10.188C82.6532 10.188 81.4772 9.04 81.4772 7.318C81.4772 5.596 82.6532 4.448 84.2212 4.448C85.7752 4.448 86.9512 5.596 86.9512 7.318C86.9512 9.04 85.7752 10.188 84.2212 10.188ZM104.262 3.636L101.924 9.894L99.5715 3.636H98.7175L96.3515 9.894L94.0415 3.636H93.0895L95.8615 11H96.7995L99.1235 4.966L101.448 11H102.386L105.172 3.636H104.262ZM107.172 2.026C107.592 2.026 107.9 1.704 107.9 1.298C107.9 0.92 107.578 0.611999 107.172 0.611999C106.766 0.611999 106.444 0.933999 106.444 1.312C106.444 1.704 106.766 2.026 107.172 2.026ZM106.668 11H107.662V3.636H106.668V11ZM110.428 11H111.422V0.611999H110.428V11ZM114.188 11H115.182V0.611999H114.188V11ZM124.664 11.07C125.91 11.07 126.96 10.566 127.548 9.614L126.806 9.11C126.302 9.852 125.518 10.188 124.664 10.188C123.054 10.188 121.878 9.054 121.878 7.318C121.878 5.596 123.054 4.448 124.664 4.448C125.518 4.448 126.302 4.798 126.806 5.54L127.548 5.036C126.96 4.07 125.91 3.58 124.664 3.58C122.466 3.58 120.87 5.12 120.87 7.318C120.87 9.516 122.466 11.07 124.664 11.07ZM132.387 11.07C134.543 11.07 136.125 9.502 136.125 7.318C136.125 5.134 134.543 3.58 132.387 3.58C130.231 3.58 128.635 5.134 128.635 7.318C128.635 9.502 130.231 11.07 132.387 11.07ZM132.387 10.188C130.819 10.188 129.643 9.04 129.643 7.318C129.643 5.596 130.819 4.448 132.387 4.448C133.955 4.448 135.117 5.596 135.117 7.318C135.117 9.04 133.955 10.188 132.387 10.188ZM147.339 3.58C146.009 3.58 144.959 4.182 144.427 5.134C143.979 4.098 143.027 3.58 141.809 3.58C140.577 3.58 139.625 4.098 139.107 4.98V3.636H138.155V11H139.149V7.136C139.149 5.456 140.115 4.476 141.613 4.476C142.957 4.476 143.741 5.274 143.741 6.828V11H144.735V7.136C144.735 5.456 145.687 4.476 147.199 4.476C148.529 4.476 149.313 5.274 149.313 6.828V11H150.307V6.73C150.307 4.616 149.131 3.58 147.339 3.58ZM159.456 7.318C159.456 5.106 157.958 3.58 155.886 3.58C153.814 3.58 152.288 5.134 152.288 7.318C152.288 9.502 153.856 11.07 156.152 11.07C157.314 11.07 158.336 10.65 158.994 9.866L158.434 9.222C157.874 9.866 157.076 10.188 156.18 10.188C154.57 10.188 153.394 9.166 153.282 7.626H159.442C159.442 7.514 159.456 7.402 159.456 7.318ZM155.886 4.434C157.328 4.434 158.378 5.442 158.504 6.884H153.282C153.408 5.442 154.458 4.434 155.886 4.434ZM168.671 9.838C168.391 10.09 167.985 10.216 167.579 10.216C166.753 10.216 166.305 9.74 166.305 8.872V4.476H168.545V3.636H166.305V2.026H165.311V3.636H163.995V4.476H165.311V8.928C165.311 10.286 166.081 11.07 167.467 11.07C168.041 11.07 168.629 10.902 169.021 10.552L168.671 9.838ZM173.581 11.07C175.737 11.07 177.319 9.502 177.319 7.318C177.319 5.134 175.737 3.58 173.581 3.58C171.425 3.58 169.829 5.134 169.829 7.318C169.829 9.502 171.425 11.07 173.581 11.07ZM173.581 10.188C172.013 10.188 170.837 9.04 170.837 7.318C170.837 5.596 172.013 4.448 173.581 4.448C175.149 4.448 176.311 5.596 176.311 7.318C176.311 9.04 175.149 10.188 173.581 10.188ZM188.22 3.636L185.448 9.894L182.676 3.636H181.64L184.93 10.986L184.608 11.7C184.188 12.624 183.74 12.932 183.082 12.932C182.55 12.932 182.102 12.736 181.738 12.372L181.276 13.114C181.724 13.562 182.382 13.786 183.068 13.786C184.118 13.786 184.902 13.324 185.518 11.882L189.2 3.636H188.22ZM193.405 11.07C195.561 11.07 197.143 9.502 197.143 7.318C197.143 5.134 195.561 3.58 193.405 3.58C191.249 3.58 189.653 5.134 189.653 7.318C189.653 9.502 191.249 11.07 193.405 11.07ZM193.405 10.188C191.837 10.188 190.661 9.04 190.661 7.318C190.661 5.596 191.837 4.448 193.405 4.448C194.973 4.448 196.135 5.596 196.135 7.318C196.135 9.04 194.973 10.188 193.405 10.188ZM204.814 3.636V7.5C204.814 9.18 203.848 10.174 202.308 10.174C200.908 10.174 200.096 9.376 200.096 7.808V3.636H199.102V7.906C199.102 10.02 200.334 11.07 202.21 11.07C203.386 11.07 204.338 10.552 204.856 9.656V11H205.808V3.636H204.814ZM209.544 5.078V3.636H208.592V11H209.586V7.248C209.586 5.512 210.524 4.532 212.064 4.532C212.134 4.532 212.218 4.546 212.302 4.546V3.58C210.944 3.58 210.006 4.098 209.544 5.078ZM221.627 3.58C220.353 3.58 219.359 4.098 218.827 4.994V3.636H217.875V11H218.869V7.136C218.869 5.456 219.863 4.476 221.445 4.476C222.845 4.476 223.657 5.274 223.657 6.828V11H224.651V6.73C224.651 4.616 223.419 3.58 221.627 3.58ZM233.803 7.318C233.803 5.106 232.305 3.58 230.233 3.58C228.161 3.58 226.635 5.134 226.635 7.318C226.635 9.502 228.203 11.07 230.499 11.07C231.661 11.07 232.683 10.65 233.341 9.866L232.781 9.222C232.221 9.866 231.423 10.188 230.527 10.188C228.917 10.188 227.741 9.166 227.629 7.626H233.789C233.789 7.514 233.803 7.402 233.803 7.318ZM230.233 4.434C231.675 4.434 232.725 5.442 232.851 6.884H227.629C227.755 5.442 228.805 4.434 230.233 4.434ZM237.8 11.07C239.718 11.07 240.838 10.244 240.838 8.97C240.838 6.142 236.064 7.64 236.064 5.652C236.064 4.952 236.652 4.434 237.982 4.434C238.738 4.434 239.508 4.616 240.152 5.064L240.586 4.266C239.97 3.846 238.934 3.58 237.982 3.58C236.106 3.58 235.07 4.476 235.07 5.68C235.07 8.592 239.844 7.08 239.844 8.998C239.844 9.726 239.27 10.202 237.87 10.202C236.834 10.202 235.84 9.838 235.252 9.376L234.804 10.16C235.406 10.678 236.582 11.07 237.8 11.07ZM246.204 9.838C245.924 10.09 245.518 10.216 245.112 10.216C244.286 10.216 243.838 9.74 243.838 8.872V4.476H246.078V3.636H243.838V2.026H242.844V3.636H241.528V4.476H242.844V8.928C242.844 10.286 243.614 11.07 245 11.07C245.574 11.07 246.162 10.902 246.554 10.552L246.204 9.838ZM248.612 9.544C248.192 9.544 247.87 9.866 247.87 10.3C247.87 10.664 248.08 10.93 248.374 11.014L247.898 13.044H248.57L249.158 11.112C249.298 10.72 249.354 10.538 249.354 10.3C249.354 9.88 249.046 9.544 248.612 9.544ZM40.8233 20.58C39.6613 20.58 38.5693 20.944 37.8273 21.574L38.2753 22.316C38.8773 21.784 39.7733 21.448 40.7253 21.448C42.0973 21.448 42.8113 22.134 42.8113 23.394V23.842H40.4733C38.3593 23.842 37.6313 24.794 37.6313 25.928C37.6313 27.202 38.6533 28.07 40.3193 28.07C41.5373 28.07 42.4053 27.608 42.8533 26.852V28H43.8053V23.436C43.8053 21.532 42.7273 20.58 40.8233 20.58ZM40.4733 27.286C39.2973 27.286 38.6113 26.754 38.6113 25.9C38.6113 25.144 39.0733 24.584 40.5013 24.584H42.8113V25.788C42.4193 26.754 41.5933 27.286 40.4733 27.286ZM50.2571 20.58C48.9831 20.58 47.9891 21.098 47.4571 21.994V20.636H46.5051V28H47.4991V24.136C47.4991 22.456 48.4931 21.476 50.0751 21.476C51.4751 21.476 52.2871 22.274 52.2871 23.828V28H53.2811V23.73C53.2811 21.616 52.0491 20.58 50.2571 20.58ZM61.7331 17.612V22.036C61.1171 21.084 60.1091 20.58 58.9331 20.58C56.8331 20.58 55.2651 22.092 55.2651 24.318C55.2651 26.544 56.8331 28.07 58.9331 28.07C60.1511 28.07 61.1731 27.538 61.7751 26.544V28H62.7271V17.612H61.7331ZM59.0171 27.188C57.4491 27.188 56.2731 26.04 56.2731 24.318C56.2731 22.596 57.4491 21.448 59.0171 21.448C60.5711 21.448 61.7471 22.596 61.7471 24.318C61.7471 26.04 60.5711 27.188 59.0171 27.188ZM75.5854 24.318C75.5854 22.106 74.0874 20.58 72.0154 20.58C69.9434 20.58 68.4174 22.134 68.4174 24.318C68.4174 26.502 69.9854 28.07 72.2814 28.07C73.4434 28.07 74.4654 27.65 75.1234 26.866L74.5634 26.222C74.0034 26.866 73.2054 27.188 72.3094 27.188C70.6994 27.188 69.5234 26.166 69.4114 24.626H75.5714C75.5714 24.514 75.5854 24.402 75.5854 24.318ZM72.0154 21.434C73.4574 21.434 74.5074 22.442 74.6334 23.884H69.4114C69.5374 22.442 70.5874 21.434 72.0154 21.434ZM81.3607 20.58C80.0867 20.58 79.0927 21.098 78.5607 21.994V20.636H77.6087V28H78.6027V24.136C78.6027 22.456 79.5967 21.476 81.1787 21.476C82.5787 21.476 83.3907 22.274 83.3907 23.828V28H84.3847V23.73C84.3847 21.616 83.1527 20.58 81.3607 20.58ZM87.6573 19.026C88.0773 19.026 88.3853 18.704 88.3853 18.298C88.3853 17.92 88.0633 17.612 87.6573 17.612C87.2513 17.612 86.9293 17.934 86.9293 18.312C86.9293 18.704 87.2513 19.026 87.6573 19.026ZM85.9913 30.786C87.3913 30.786 88.1473 29.904 88.1473 28.546V20.636H87.1533V28.546C87.1533 29.456 86.7193 29.932 85.9353 29.932C85.4733 29.932 85.0813 29.806 84.7873 29.554L84.4373 30.31C84.8013 30.632 85.4033 30.786 85.9913 30.786ZM93.9351 28.07C96.0911 28.07 97.6731 26.502 97.6731 24.318C97.6731 22.134 96.0911 20.58 93.9351 20.58C91.7791 20.58 90.1831 22.134 90.1831 24.318C90.1831 26.502 91.7791 28.07 93.9351 28.07ZM93.9351 27.188C92.3671 27.188 91.1911 26.04 91.1911 24.318C91.1911 22.596 92.3671 21.448 93.9351 21.448C95.5031 21.448 96.6651 22.596 96.6651 24.318C96.6651 26.04 95.5031 27.188 93.9351 27.188ZM104.705 20.636L101.933 26.894L99.1613 20.636H98.1253L101.415 27.986L101.093 28.7C100.673 29.624 100.225 29.932 99.5673 29.932C99.0353 29.932 98.5873 29.736 98.2233 29.372L97.7613 30.114C98.2093 30.562 98.8673 30.786 99.5533 30.786C100.603 30.786 101.387 30.324 102.003 28.882L105.685 20.636H104.705ZM114.277 26.838C113.997 27.09 113.591 27.216 113.185 27.216C112.359 27.216 111.911 26.74 111.911 25.872V21.476H114.151V20.636H111.911V19.026H110.917V20.636H109.601V21.476H110.917V25.928C110.917 27.286 111.687 28.07 113.073 28.07C113.647 28.07 114.235 27.902 114.627 27.552L114.277 26.838ZM120.189 20.58C118.943 20.58 117.977 21.07 117.431 21.924V17.612H116.437V28H117.431V24.136C117.431 22.456 118.425 21.476 120.007 21.476C121.407 21.476 122.219 22.274 122.219 23.828V28H123.213V23.73C123.213 21.616 121.981 20.58 120.189 20.58ZM132.365 24.318C132.365 22.106 130.867 20.58 128.795 20.58C126.723 20.58 125.197 22.134 125.197 24.318C125.197 26.502 126.765 28.07 129.061 28.07C130.223 28.07 131.245 27.65 131.903 26.866L131.343 26.222C130.783 26.866 129.985 27.188 129.089 27.188C127.479 27.188 126.303 26.166 126.191 24.626H132.351C132.351 24.514 132.365 24.402 132.365 24.318ZM128.795 21.434C130.237 21.434 131.287 22.442 131.413 23.884H126.191C126.317 22.442 127.367 21.434 128.795 21.434ZM143.918 20.636V22.05C143.302 21.084 142.238 20.58 141.006 20.58C138.906 20.58 137.31 22.022 137.31 24.136C137.31 26.25 138.906 27.72 141.006 27.72C142.21 27.72 143.26 27.23 143.876 26.292V27.23C143.876 29.05 143.022 29.904 141.16 29.904C140.026 29.904 138.962 29.526 138.262 28.896L137.758 29.652C138.528 30.38 139.844 30.786 141.188 30.786C143.624 30.786 144.87 29.638 144.87 27.104V20.636H143.918ZM141.104 26.838C139.48 26.838 138.318 25.732 138.318 24.136C138.318 22.54 139.48 21.448 141.104 21.448C142.728 21.448 143.904 22.54 143.904 24.136C143.904 25.732 142.728 26.838 141.104 26.838ZM150.66 28.07C152.816 28.07 154.398 26.502 154.398 24.318C154.398 22.134 152.816 20.58 150.66 20.58C148.504 20.58 146.908 22.134 146.908 24.318C146.908 26.502 148.504 28.07 150.66 28.07ZM150.66 27.188C149.092 27.188 147.916 26.04 147.916 24.318C147.916 22.596 149.092 21.448 150.66 21.448C152.228 21.448 153.39 22.596 153.39 24.318C153.39 26.04 152.228 27.188 150.66 27.188ZM159.437 28.07C161.593 28.07 163.175 26.502 163.175 24.318C163.175 22.134 161.593 20.58 159.437 20.58C157.281 20.58 155.685 22.134 155.685 24.318C155.685 26.502 157.281 28.07 159.437 28.07ZM159.437 27.188C157.869 27.188 156.693 26.04 156.693 24.318C156.693 22.596 157.869 21.448 159.437 21.448C161.005 21.448 162.167 22.596 162.167 24.318C162.167 26.04 161.005 27.188 159.437 27.188ZM170.93 17.612V22.036C170.314 21.084 169.306 20.58 168.13 20.58C166.03 20.58 164.462 22.092 164.462 24.318C164.462 26.544 166.03 28.07 168.13 28.07C169.348 28.07 170.37 27.538 170.972 26.544V28H171.924V17.612H170.93ZM168.214 27.188C166.646 27.188 165.47 26.04 165.47 24.318C165.47 22.596 166.646 21.448 168.214 21.448C169.768 21.448 170.944 22.596 170.944 24.318C170.944 26.04 169.768 27.188 168.214 27.188ZM178.445 20.58C177.171 20.58 176.177 21.098 175.645 21.994V20.636H174.693V28H175.687V24.136C175.687 22.456 176.681 21.476 178.263 21.476C179.663 21.476 180.475 22.274 180.475 23.828V28H181.469V23.73C181.469 21.616 180.237 20.58 178.445 20.58ZM190.621 24.318C190.621 22.106 189.123 20.58 187.051 20.58C184.979 20.58 183.453 22.134 183.453 24.318C183.453 26.502 185.021 28.07 187.317 28.07C188.479 28.07 189.501 27.65 190.159 26.866L189.599 26.222C189.039 26.866 188.241 27.188 187.345 27.188C185.735 27.188 184.559 26.166 184.447 24.626H190.607C190.607 24.514 190.621 24.402 190.621 24.318ZM187.051 21.434C188.493 21.434 189.543 22.442 189.669 23.884H184.447C184.573 22.442 185.623 21.434 187.051 21.434ZM194.618 28.07C196.536 28.07 197.656 27.244 197.656 25.97C197.656 23.142 192.882 24.64 192.882 22.652C192.882 21.952 193.47 21.434 194.8 21.434C195.556 21.434 196.326 21.616 196.97 22.064L197.404 21.266C196.788 20.846 195.752 20.58 194.8 20.58C192.924 20.58 191.888 21.476 191.888 22.68C191.888 25.592 196.662 24.08 196.662 25.998C196.662 26.726 196.088 27.202 194.688 27.202C193.652 27.202 192.658 26.838 192.07 26.376L191.622 27.16C192.224 27.678 193.4 28.07 194.618 28.07ZM201.467 28.07C203.385 28.07 204.505 27.244 204.505 25.97C204.505 23.142 199.731 24.64 199.731 22.652C199.731 21.952 200.319 21.434 201.649 21.434C202.405 21.434 203.175 21.616 203.819 22.064L204.253 21.266C203.637 20.846 202.601 20.58 201.649 20.58C199.773 20.58 198.737 21.476 198.737 22.68C198.737 25.592 203.511 24.08 203.511 25.998C203.511 26.726 202.937 27.202 201.537 27.202C200.501 27.202 199.507 26.838 198.919 26.376L198.471 27.16C199.073 27.678 200.249 28.07 201.467 28.07ZM206.441 22.106C206.847 22.106 207.197 21.77 207.197 21.336C207.197 20.902 206.847 20.58 206.441 20.58C206.035 20.58 205.699 20.902 205.699 21.336C205.699 21.77 206.035 22.106 206.441 22.106ZM206.441 28.07C206.847 28.07 207.197 27.734 207.197 27.3C207.197 26.866 206.847 26.544 206.441 26.544C206.035 26.544 205.699 26.866 205.699 27.3C205.699 27.734 206.035 28.07 206.441 28.07ZM209.436 30.716C210.486 29.022 211.074 26.74 211.074 24.164C211.074 21.588 210.486 19.278 209.436 17.612H208.484C209.604 19.53 210.094 21.672 210.094 24.164C210.094 26.656 209.604 28.798 208.484 30.716H209.436ZM214.043 30.716C215.093 29.022 215.681 26.74 215.681 24.164C215.681 21.588 215.093 19.278 214.043 17.612H213.091C214.211 19.53 214.701 21.672 214.701 24.164C214.701 26.656 214.211 28.798 213.091 30.716H214.043Z" fill="#525252"/>
</svg>
