<svg width="20" height="22" viewBox="0 0 20 22" fill="none" xmlns="http://www.w3.org/2000/svg">
<path d="M19.2154 17.9538C18.7137 16.7188 17.9856 15.5971 17.0718 14.651C16.1607 13.7022 15.0814 12.9457 13.8936 12.4234C13.883 12.4178 13.8723 12.4151 13.8617 12.4095C15.5186 11.1658 16.5957 9.13995 16.5957 6.85427C16.5957 3.06784 13.6436 0 10 0C6.35641 0 3.4043 3.06784 3.4043 6.85427C3.4043 9.13995 4.48142 11.1658 6.13832 12.4123C6.12769 12.4178 6.11705 12.4206 6.10641 12.4261C4.91493 12.9485 3.84579 13.6975 2.92824 14.6538C2.01524 15.6006 1.2873 16.7221 0.784636 17.9565C0.290815 19.165 0.0244864 20.4607 6.65049e-05 21.7734C-0.000643344 21.8029 0.00433542 21.8322 0.0147096 21.8597C0.0250837 21.8871 0.0406433 21.9122 0.0604714 21.9333C0.0802996 21.9544 0.103995 21.9712 0.130162 21.9827C0.156329 21.9941 0.184437 22 0.212831 22H1.80857C1.92559 22 2.01867 21.9033 2.02133 21.7844C2.07452 19.6508 2.89898 17.6525 4.35642 16.1379C5.86439 14.5709 7.86704 13.7085 10 13.7085C12.133 13.7085 14.1356 14.5709 15.6436 16.1379C17.101 17.6525 17.9255 19.6508 17.9787 21.7844C17.9813 21.906 18.0744 22 18.1914 22H19.7872C19.8156 22 19.8437 21.9941 19.8698 21.9827C19.896 21.9712 19.9197 21.9544 19.9395 21.9333C19.9594 21.9122 19.9749 21.8871 19.9853 21.8597C19.9957 21.8322 20.0006 21.8029 19.9999 21.7734C19.9733 20.4523 19.71 19.1671 19.2154 17.9538ZM10 11.608C8.77926 11.608 7.63033 11.1133 6.76598 10.2151C5.90162 9.31683 5.42556 8.12286 5.42556 6.85427C5.42556 5.58568 5.90162 4.39171 6.76598 3.49347C7.63033 2.59523 8.77926 2.1005 10 2.1005C11.2207 2.1005 12.3697 2.59523 13.234 3.49347C14.0984 4.39171 14.5744 5.58568 14.5744 6.85427C14.5744 8.12286 14.0984 9.31683 13.234 10.2151C12.3697 11.1133 11.2207 11.608 10 11.608Z" fill="#7733FF"/>
</svg>
