<svg width="77" height="12" viewBox="0 0 77 12" fill="none" xmlns="http://www.w3.org/2000/svg">
<path d="M7.644 9H8.58L4.74 0.599999H3.864L0.024 9H0.948L1.956 6.756H6.636L7.644 9ZM2.28 6.036L4.296 1.524L6.312 6.036H2.28ZM10.2216 1.308C10.5816 1.308 10.8456 1.032 10.8456 0.684C10.8456 0.36 10.5696 0.0959995 10.2216 0.0959995C9.87356 0.0959995 9.59756 0.372 9.59756 0.696C9.59756 1.032 9.87356 1.308 10.2216 1.308ZM9.78956 9H10.6416V2.688H9.78956V9ZM13.8282 3.924V2.688H13.0122V9H13.8642V5.784C13.8642 4.296 14.6682 3.456 15.9882 3.456C16.0482 3.456 16.1202 3.468 16.1922 3.468V2.64C15.0282 2.64 14.2242 3.084 13.8282 3.924ZM27.2933 0.599999V4.344H22.0373V0.599999H21.1493V9H22.0373V5.124H27.2933V9H28.1693V0.599999H27.2933ZM35.567 2.688V6C35.567 7.44 34.739 8.292 33.419 8.292C32.219 8.292 31.523 7.608 31.523 6.264V2.688H30.671V6.348C30.671 8.16 31.727 9.06 33.335 9.06C34.343 9.06 35.159 8.616 35.603 7.848V9H36.419V2.688H35.567ZM46.6772 2.64C45.5372 2.64 44.6372 3.156 44.1812 3.972C43.7972 3.084 42.9812 2.64 41.9372 2.64C40.8812 2.64 40.0652 3.084 39.6212 3.84V2.688H38.8052V9H39.6572V5.688C39.6572 4.248 40.4852 3.408 41.7692 3.408C42.9212 3.408 43.5932 4.092 43.5932 5.424V9H44.4452V5.688C44.4452 4.248 45.2612 3.408 46.5572 3.408C47.6972 3.408 48.3692 4.092 48.3692 5.424V9H49.2212V5.34C49.2212 3.528 48.2132 2.64 46.6772 2.64ZM51.9638 1.308C52.3238 1.308 52.5878 1.032 52.5878 0.684C52.5878 0.36 52.3118 0.0959995 51.9638 0.0959995C51.6158 0.0959995 51.3398 0.372 51.3398 0.696C51.3398 1.032 51.6158 1.308 51.9638 1.308ZM51.5318 9H52.3838V2.688H51.5318V9ZM59.6624 0.0959995V3.888C59.1344 3.072 58.2704 2.64 57.2624 2.64C55.4624 2.64 54.1184 3.936 54.1184 5.844C54.1184 7.752 55.4624 9.06 57.2624 9.06C58.3064 9.06 59.1824 8.604 59.6984 7.752V9H60.5144V0.0959995H59.6624ZM57.3344 8.304C55.9904 8.304 54.9824 7.32 54.9824 5.844C54.9824 4.368 55.9904 3.384 57.3344 3.384C58.6664 3.384 59.6744 4.368 59.6744 5.844C59.6744 7.32 58.6664 8.304 57.3344 8.304ZM63.3192 1.308C63.6792 1.308 63.9432 1.032 63.9432 0.684C63.9432 0.36 63.6672 0.0959995 63.3192 0.0959995C62.9712 0.0959995 62.6952 0.372 62.6952 0.696C62.6952 1.032 62.9712 1.308 63.3192 1.308ZM62.8872 9H63.7392V2.688H62.8872V9ZM69.1339 8.004C68.8939 8.22 68.5459 8.328 68.1979 8.328C67.4899 8.328 67.1059 7.92 67.1059 7.176V3.408H69.0259V2.688H67.1059V1.308H66.2539V2.688H65.1259V3.408H66.2539V7.224C66.2539 8.388 66.9139 9.06 68.1019 9.06C68.5939 9.06 69.0979 8.916 69.4339 8.616L69.1339 8.004ZM75.3317 2.688L72.9557 8.052L70.5797 2.688H69.6917L72.5117 8.988L72.2357 9.6C71.8757 10.392 71.4917 10.656 70.9277 10.656C70.4717 10.656 70.0877 10.488 69.7757 10.176L69.3797 10.812C69.7637 11.196 70.3277 11.388 70.9157 11.388C71.8157 11.388 72.4877 10.992 73.0157 9.756L76.1717 2.688H75.3317Z" fill="#525252"/>
</svg>
