<svg width="100" height="12" viewBox="0 0 100 12" fill="none" xmlns="http://www.w3.org/2000/svg">
<path d="M7.9858 9H8.9218L5.0818 0.599999H4.2058L0.365797 9H1.2898L2.2978 6.756H6.9778L7.9858 9ZM2.6218 6.036L4.6378 1.524L6.6538 6.036H2.6218ZM10.5634 1.308C10.9234 1.308 11.1874 1.032 11.1874 0.684C11.1874 0.36 10.9114 0.0959995 10.5634 0.0959995C10.2154 0.0959995 9.93936 0.372 9.93936 0.696C9.93936 1.032 10.2154 1.308 10.5634 1.308ZM10.1314 9H10.9834V2.688H10.1314V9ZM14.17 3.924V2.688H13.354V9H14.206V5.784C14.206 4.296 15.01 3.456 16.33 3.456C16.39 3.456 16.462 3.468 16.534 3.468V2.64C15.37 2.64 14.566 3.084 14.17 3.924ZM29.519 9.192C29.075 9.708 28.559 9.96 27.923 9.96C27.323 9.96 26.735 9.66 26.099 8.988C28.139 8.592 29.567 6.948 29.567 4.8C29.567 2.34 27.683 0.528 25.163 0.528C22.619 0.528 20.747 2.352 20.747 4.8C20.747 7.2 22.547 9 25.007 9.072C26.111 10.224 26.927 10.668 27.911 10.668C28.727 10.668 29.435 10.332 29.951 9.708L29.519 9.192ZM21.623 4.8C21.623 2.808 23.135 1.32 25.163 1.32C27.179 1.32 28.679 2.808 28.679 4.8C28.679 6.792 27.179 8.28 25.163 8.28C23.135 8.28 21.623 6.792 21.623 4.8ZM36.2135 2.688V6C36.2135 7.44 35.3855 8.292 34.0655 8.292C32.8655 8.292 32.1695 7.608 32.1695 6.264V2.688H31.3175V6.348C31.3175 8.16 32.3735 9.06 33.9815 9.06C34.9895 9.06 35.8055 8.616 36.2495 7.848V9H37.0655V2.688H36.2135ZM41.6597 2.64C40.6637 2.64 39.7277 2.952 39.0917 3.492L39.4757 4.128C39.9917 3.672 40.7597 3.384 41.5757 3.384C42.7517 3.384 43.3637 3.972 43.3637 5.052V5.436H41.3597C39.5477 5.436 38.9237 6.252 38.9237 7.224C38.9237 8.316 39.7997 9.06 41.2277 9.06C42.2717 9.06 43.0157 8.664 43.3997 8.016V9H44.2157V5.088C44.2157 3.456 43.2917 2.64 41.6597 2.64ZM41.3597 8.388C40.3517 8.388 39.7637 7.932 39.7637 7.2C39.7637 6.552 40.1597 6.072 41.3837 6.072H43.3637V7.104C43.0277 7.932 42.3197 8.388 41.3597 8.388ZM46.5298 9H47.3818V0.0959995H46.5298V9ZM50.1845 1.308C50.5445 1.308 50.8085 1.032 50.8085 0.684C50.8085 0.36 50.5325 0.0959995 50.1845 0.0959995C49.8365 0.0959995 49.5605 0.372 49.5605 0.696C49.5605 1.032 49.8365 1.308 50.1845 1.308ZM49.7525 9H50.6045V2.688H49.7525V9ZM55.9991 8.004C55.7591 8.22 55.4111 8.328 55.0631 8.328C54.3551 8.328 53.9711 7.92 53.9711 7.176V3.408H55.8911V2.688H53.9711V1.308H53.1191V2.688H51.9911V3.408H53.1191V7.224C53.1191 8.388 53.7791 9.06 54.9671 9.06C55.4591 9.06 55.9631 8.916 56.2991 8.616L55.9991 8.004ZM62.1969 2.688L59.8209 8.052L57.4449 2.688H56.5569L59.3769 8.988L59.1009 9.6C58.7409 10.392 58.3569 10.656 57.7929 10.656C57.3369 10.656 56.9529 10.488 56.6409 10.176L56.2449 10.812C56.6289 11.196 57.1929 11.388 57.7809 11.388C58.6809 11.388 59.3529 10.992 59.8809 9.756L63.0369 2.688H62.1969ZM69.8735 9.072C72.0215 9.072 73.0055 8.016 73.0055 6.78C73.0055 3.72 67.8335 5.112 67.8335 2.808C67.8335 1.968 68.5175 1.284 70.0535 1.284C70.7975 1.284 71.6375 1.512 72.3575 1.98L72.6575 1.272C71.9855 0.804 71.0015 0.528 70.0535 0.528C67.9175 0.528 66.9575 1.596 66.9575 2.832C66.9575 5.94 72.1295 4.524 72.1295 6.828C72.1295 7.656 71.4455 8.316 69.8735 8.316C68.7695 8.316 67.7015 7.884 67.1015 7.296L66.7535 7.98C67.3775 8.628 68.6135 9.072 69.8735 9.072ZM77.3763 9.06C78.4443 9.06 79.3443 8.628 79.8483 7.812L79.2123 7.38C78.7803 8.016 78.1083 8.304 77.3763 8.304C75.9963 8.304 74.9883 7.332 74.9883 5.844C74.9883 4.368 75.9963 3.384 77.3763 3.384C78.1083 3.384 78.7803 3.684 79.2123 4.32L79.8483 3.888C79.3443 3.06 78.4443 2.64 77.3763 2.64C75.4923 2.64 74.1243 3.96 74.1243 5.844C74.1243 7.728 75.4923 9.06 77.3763 9.06ZM83.9965 9.06C85.8445 9.06 87.2005 7.716 87.2005 5.844C87.2005 3.972 85.8445 2.64 83.9965 2.64C82.1485 2.64 80.7805 3.972 80.7805 5.844C80.7805 7.716 82.1485 9.06 83.9965 9.06ZM83.9965 8.304C82.6525 8.304 81.6445 7.32 81.6445 5.844C81.6445 4.368 82.6525 3.384 83.9965 3.384C85.3405 3.384 86.3365 4.368 86.3365 5.844C86.3365 7.32 85.3405 8.304 83.9965 8.304ZM89.756 3.924V2.688H88.94V9H89.792V5.784C89.792 4.296 90.596 3.456 91.916 3.456C91.976 3.456 92.048 3.468 92.12 3.468V2.64C90.956 2.64 90.152 3.084 89.756 3.924ZM99.112 5.844C99.112 3.948 97.828 2.64 96.052 2.64C94.276 2.64 92.968 3.972 92.968 5.844C92.968 7.716 94.312 9.06 96.28 9.06C97.276 9.06 98.152 8.7 98.716 8.028L98.236 7.476C97.756 8.028 97.072 8.304 96.304 8.304C94.924 8.304 93.916 7.428 93.82 6.108H99.1C99.1 6.012 99.112 5.916 99.112 5.844ZM96.052 3.372C97.288 3.372 98.188 4.236 98.296 5.472H93.82C93.928 4.236 94.828 3.372 96.052 3.372Z" fill="#525252"/>
</svg>
