<svg width="23" height="23" viewBox="0 0 23 23" fill="none" xmlns="http://www.w3.org/2000/svg">
<path d="M4.79167 21.0833H18.2083C18.7167 21.0833 19.2042 20.8814 19.5636 20.5219C19.9231 20.1625 20.125 19.675 20.125 19.1667V10.5417C20.1257 10.4155 20.1016 10.2905 20.0539 10.1737C20.0062 10.057 19.9359 9.95078 19.8471 9.86124L12.1804 2.19457C12.0009 2.01608 11.758 1.91589 11.5048 1.91589C11.2516 1.91589 11.0087 2.01608 10.8292 2.19457L3.1625 9.86124C3.07195 9.94999 2.99991 10.0558 2.95056 10.1726C2.90121 10.2894 2.87553 10.4149 2.875 10.5417V19.1667C2.875 19.675 3.07693 20.1625 3.43638 20.5219C3.79582 20.8814 4.28334 21.0833 4.79167 21.0833ZM9.58333 19.1667V14.375H13.4167V19.1667H9.58333ZM4.79167 10.9346L11.5 4.22624L18.2083 10.9346V19.1667H15.3333V14.375C15.3333 13.8667 15.1314 13.3791 14.772 13.0197C14.4125 12.6603 13.925 12.4583 13.4167 12.4583H9.58333C9.075 12.4583 8.58749 12.6603 8.22805 13.0197C7.8686 13.3791 7.66667 13.8667 7.66667 14.375V19.1667H4.79167V10.9346Z" fill="#7733FF"/>
</svg>
