<svg width="155" height="37" viewBox="0 0 155 37" fill="none" xmlns="http://www.w3.org/2000/svg">
<rect width="155" height="37" rx="18.5" fill="#7733FF"/>
<path d="M30.8305 18.812C30.8305 17.996 31.0145 17.264 31.3825 16.616C31.7505 15.96 32.2505 15.448 32.8825 15.08C33.5225 14.712 34.2305 14.528 35.0065 14.528C35.9185 14.528 36.7145 14.748 37.3945 15.188C38.0745 15.628 38.5705 16.252 38.8825 17.06H37.5745C37.3425 16.556 37.0065 16.168 36.5665 15.896C36.1345 15.624 35.6145 15.488 35.0065 15.488C34.4225 15.488 33.8985 15.624 33.4345 15.896C32.9705 16.168 32.6065 16.556 32.3425 17.06C32.0785 17.556 31.9465 18.14 31.9465 18.812C31.9465 19.476 32.0785 20.06 32.3425 20.564C32.6065 21.06 32.9705 21.444 33.4345 21.716C33.8985 21.988 34.4225 22.124 35.0065 22.124C35.6145 22.124 36.1345 21.992 36.5665 21.728C37.0065 21.456 37.3425 21.068 37.5745 20.564H38.8825C38.5705 21.364 38.0745 21.984 37.3945 22.424C36.7145 22.856 35.9185 23.072 35.0065 23.072C34.2305 23.072 33.5225 22.892 32.8825 22.532C32.2505 22.164 31.7505 21.656 31.3825 21.008C31.0145 20.36 30.8305 19.628 30.8305 18.812ZM41.6 17.492C41.792 17.116 42.064 16.824 42.416 16.616C42.776 16.408 43.212 16.304 43.724 16.304V17.432H43.436C42.212 17.432 41.6 18.096 41.6 19.424V23H40.508V16.424H41.6V17.492ZM50.9845 19.46C50.9845 19.668 50.9725 19.888 50.9485 20.12H45.6925C45.7325 20.768 45.9525 21.276 46.3525 21.644C46.7605 22.004 47.2525 22.184 47.8285 22.184C48.3005 22.184 48.6925 22.076 49.0045 21.86C49.3245 21.636 49.5485 21.34 49.6765 20.972H50.8525C50.6765 21.604 50.3245 22.12 49.7965 22.52C49.2685 22.912 48.6125 23.108 47.8285 23.108C47.2045 23.108 46.6445 22.968 46.1485 22.688C45.6605 22.408 45.2765 22.012 44.9965 21.5C44.7165 20.98 44.5765 20.38 44.5765 19.7C44.5765 19.02 44.7125 18.424 44.9845 17.912C45.2565 17.4 45.6365 17.008 46.1245 16.736C46.6205 16.456 47.1885 16.316 47.8285 16.316C48.4525 16.316 49.0045 16.452 49.4845 16.724C49.9645 16.996 50.3325 17.372 50.5885 17.852C50.8525 18.324 50.9845 18.86 50.9845 19.46ZM49.8565 19.232C49.8565 18.816 49.7645 18.46 49.5805 18.164C49.3965 17.86 49.1445 17.632 48.8245 17.48C48.5125 17.32 48.1645 17.24 47.7805 17.24C47.2285 17.24 46.7565 17.416 46.3645 17.768C45.9805 18.12 45.7605 18.608 45.7045 19.232H49.8565ZM52.018 19.688C52.018 19.016 52.154 18.428 52.426 17.924C52.698 17.412 53.07 17.016 53.542 16.736C54.022 16.456 54.554 16.316 55.138 16.316C55.714 16.316 56.214 16.44 56.638 16.688C57.062 16.936 57.378 17.248 57.586 17.624V16.424H58.69V23H57.586V21.776C57.37 22.16 57.046 22.48 56.614 22.736C56.19 22.984 55.694 23.108 55.126 23.108C54.542 23.108 54.014 22.964 53.542 22.676C53.07 22.388 52.698 21.984 52.426 21.464C52.154 20.944 52.018 20.352 52.018 19.688ZM57.586 19.7C57.586 19.204 57.486 18.772 57.286 18.404C57.086 18.036 56.814 17.756 56.47 17.564C56.134 17.364 55.762 17.264 55.354 17.264C54.946 17.264 54.574 17.36 54.238 17.552C53.902 17.744 53.634 18.024 53.434 18.392C53.234 18.76 53.134 19.192 53.134 19.688C53.134 20.192 53.234 20.632 53.434 21.008C53.634 21.376 53.902 21.66 54.238 21.86C54.574 22.052 54.946 22.148 55.354 22.148C55.762 22.148 56.134 22.052 56.47 21.86C56.814 21.66 57.086 21.376 57.286 21.008C57.486 20.632 57.586 20.196 57.586 19.7ZM61.8673 17.324V21.2C61.8673 21.52 61.9353 21.748 62.0713 21.884C62.2073 22.012 62.4433 22.076 62.7793 22.076H63.5833V23H62.5993C61.9913 23 61.5353 22.86 61.2313 22.58C60.9273 22.3 60.7753 21.84 60.7753 21.2V17.324H59.9233V16.424H60.7753V14.768H61.8673V16.424H63.5833V17.324H61.8673ZM70.9064 19.46C70.9064 19.668 70.8944 19.888 70.8704 20.12H65.6144C65.6544 20.768 65.8744 21.276 66.2744 21.644C66.6824 22.004 67.1744 22.184 67.7504 22.184C68.2224 22.184 68.6144 22.076 68.9264 21.86C69.2464 21.636 69.4704 21.34 69.5984 20.972H70.7744C70.5984 21.604 70.2464 22.12 69.7184 22.52C69.1904 22.912 68.5344 23.108 67.7504 23.108C67.1264 23.108 66.5664 22.968 66.0704 22.688C65.5824 22.408 65.1984 22.012 64.9184 21.5C64.6384 20.98 64.4984 20.38 64.4984 19.7C64.4984 19.02 64.6344 18.424 64.9064 17.912C65.1784 17.4 65.5584 17.008 66.0464 16.736C66.5424 16.456 67.1104 16.316 67.7504 16.316C68.3744 16.316 68.9264 16.452 69.4064 16.724C69.8864 16.996 70.2544 17.372 70.5104 17.852C70.7744 18.324 70.9064 18.86 70.9064 19.46ZM69.7784 19.232C69.7784 18.816 69.6864 18.46 69.5024 18.164C69.3184 17.86 69.0664 17.632 68.7464 17.48C68.4344 17.32 68.0864 17.24 67.7024 17.24C67.1504 17.24 66.6784 17.416 66.2864 17.768C65.9024 18.12 65.6824 18.608 65.6264 19.232H69.7784ZM80.491 21.14H76.843L76.171 23H75.019L78.043 14.684H79.303L82.315 23H81.163L80.491 21.14ZM80.179 20.252L78.667 16.028L77.155 20.252H80.179ZM83.225 19.7C83.225 19.02 83.361 18.428 83.633 17.924C83.905 17.412 84.281 17.016 84.761 16.736C85.249 16.456 85.805 16.316 86.429 16.316C87.237 16.316 87.901 16.512 88.421 16.904C88.949 17.296 89.297 17.84 89.465 18.536H88.289C88.177 18.136 87.957 17.82 87.629 17.588C87.309 17.356 86.909 17.24 86.429 17.24C85.805 17.24 85.301 17.456 84.917 17.888C84.533 18.312 84.341 18.916 84.341 19.7C84.341 20.492 84.533 21.104 84.917 21.536C85.301 21.968 85.805 22.184 86.429 22.184C86.909 22.184 87.309 22.072 87.629 21.848C87.949 21.624 88.169 21.304 88.289 20.888H89.465C89.289 21.56 88.937 22.1 88.409 22.508C87.881 22.908 87.221 23.108 86.429 23.108C85.805 23.108 85.249 22.968 84.761 22.688C84.281 22.408 83.905 22.012 83.633 21.5C83.361 20.988 83.225 20.388 83.225 19.7ZM90.514 19.7C90.514 19.02 90.65 18.428 90.922 17.924C91.194 17.412 91.57 17.016 92.05 16.736C92.538 16.456 93.094 16.316 93.718 16.316C94.526 16.316 95.19 16.512 95.71 16.904C96.238 17.296 96.586 17.84 96.754 18.536H95.578C95.466 18.136 95.246 17.82 94.918 17.588C94.598 17.356 94.198 17.24 93.718 17.24C93.094 17.24 92.59 17.456 92.206 17.888C91.822 18.312 91.63 18.916 91.63 19.7C91.63 20.492 91.822 21.104 92.206 21.536C92.59 21.968 93.094 22.184 93.718 22.184C94.198 22.184 94.598 22.072 94.918 21.848C95.238 21.624 95.458 21.304 95.578 20.888H96.754C96.578 21.56 96.226 22.1 95.698 22.508C95.17 22.908 94.51 23.108 93.718 23.108C93.094 23.108 92.538 22.968 92.05 22.688C91.57 22.408 91.194 22.012 90.922 21.5C90.65 20.988 90.514 20.388 90.514 19.7ZM101.079 23.108C100.463 23.108 99.9031 22.968 99.3991 22.688C98.9031 22.408 98.5111 22.012 98.2231 21.5C97.9431 20.98 97.8031 20.38 97.8031 19.7C97.8031 19.028 97.9471 18.436 98.2351 17.924C98.5311 17.404 98.9311 17.008 99.4351 16.736C99.9391 16.456 100.503 16.316 101.127 16.316C101.751 16.316 102.315 16.456 102.819 16.736C103.323 17.008 103.719 17.4 104.007 17.912C104.303 18.424 104.451 19.02 104.451 19.7C104.451 20.38 104.299 20.98 103.995 21.5C103.699 22.012 103.295 22.408 102.783 22.688C102.271 22.968 101.703 23.108 101.079 23.108ZM101.079 22.148C101.471 22.148 101.839 22.056 102.183 21.872C102.527 21.688 102.803 21.412 103.011 21.044C103.227 20.676 103.335 20.228 103.335 19.7C103.335 19.172 103.231 18.724 103.023 18.356C102.815 17.988 102.543 17.716 102.207 17.54C101.871 17.356 101.507 17.264 101.115 17.264C100.715 17.264 100.347 17.356 100.011 17.54C99.6831 17.716 99.4191 17.988 99.2191 18.356C99.0191 18.724 98.9191 19.172 98.9191 19.7C98.9191 20.236 99.0151 20.688 99.2071 21.056C99.4071 21.424 99.6711 21.7 99.9991 21.884C100.327 22.06 100.687 22.148 101.079 22.148ZM111.719 16.424V23H110.627V22.028C110.419 22.364 110.127 22.628 109.751 22.82C109.383 23.004 108.975 23.096 108.527 23.096C108.015 23.096 107.555 22.992 107.147 22.784C106.739 22.568 106.415 22.248 106.175 21.824C105.943 21.4 105.827 20.884 105.827 20.276V16.424H106.907V20.132C106.907 20.78 107.071 21.28 107.399 21.632C107.727 21.976 108.175 22.148 108.743 22.148C109.327 22.148 109.787 21.968 110.123 21.608C110.459 21.248 110.627 20.724 110.627 20.036V16.424H111.719ZM116.767 16.304C117.567 16.304 118.215 16.548 118.711 17.036C119.207 17.516 119.455 18.212 119.455 19.124V23H118.375V19.28C118.375 18.624 118.211 18.124 117.883 17.78C117.555 17.428 117.107 17.252 116.539 17.252C115.963 17.252 115.503 17.432 115.159 17.792C114.823 18.152 114.655 18.676 114.655 19.364V23H113.563V16.424H114.655V17.36C114.871 17.024 115.163 16.764 115.531 16.58C115.907 16.396 116.319 16.304 116.767 16.304ZM122.57 17.324V21.2C122.57 21.52 122.638 21.748 122.774 21.884C122.91 22.012 123.146 22.076 123.482 22.076H124.286V23H123.302C122.694 23 122.238 22.86 121.934 22.58C121.63 22.3 121.478 21.84 121.478 21.2V17.324H120.626V16.424H121.478V14.768H122.57V16.424H124.286V17.324H122.57Z" fill="white"/>
</svg>
