<svg width="51" height="8" viewBox="0 0 51 8" fill="none" xmlns="http://www.w3.org/2000/svg">
<path d="M0.297 3.832C0.297 3.208 0.432 2.653 0.702 2.167C0.972 1.675 1.347 1.294 1.827 1.024C2.313 0.748 2.862 0.61 3.474 0.61C4.224 0.61 4.866 0.808 5.4 1.204C5.934 1.6 6.291 2.14 6.471 2.824H4.779C4.653 2.56 4.473 2.359 4.239 2.221C4.011 2.083 3.75 2.014 3.456 2.014C2.982 2.014 2.598 2.179 2.304 2.509C2.01 2.839 1.863 3.28 1.863 3.832C1.863 4.384 2.01 4.825 2.304 5.155C2.598 5.485 2.982 5.65 3.456 5.65C3.75 5.65 4.011 5.581 4.239 5.443C4.473 5.305 4.653 5.104 4.779 4.84H6.471C6.291 5.524 5.934 6.064 5.4 6.46C4.866 6.85 4.224 7.045 3.474 7.045C2.862 7.045 2.313 6.91 1.827 6.64C1.347 6.364 0.972 5.983 0.702 5.497C0.432 5.011 0.297 4.456 0.297 3.832ZM8.95247 2.815C9.13247 2.539 9.35747 2.323 9.62747 2.167C9.89747 2.005 10.1975 1.924 10.5275 1.924V3.553H10.1045C9.72047 3.553 9.43247 3.637 9.24047 3.805C9.04847 3.967 8.95247 4.255 8.95247 4.669V7H7.41347V1.978H8.95247V2.815ZM15.9971 4.408C15.9971 4.552 15.9881 4.702 15.9701 4.858H12.4871C12.5111 5.17 12.6101 5.41 12.7841 5.578C12.9641 5.74 13.1831 5.821 13.4411 5.821C13.8251 5.821 14.0921 5.659 14.2421 5.335H15.8801C15.7961 5.665 15.6431 5.962 15.4211 6.226C15.2051 6.49 14.9321 6.697 14.6021 6.847C14.2721 6.997 13.9031 7.072 13.4951 7.072C13.0031 7.072 12.5651 6.967 12.1811 6.757C11.7971 6.547 11.4971 6.247 11.2811 5.857C11.0651 5.467 10.9571 5.011 10.9571 4.489C10.9571 3.967 11.0621 3.511 11.2721 3.121C11.4881 2.731 11.7881 2.431 12.1721 2.221C12.5561 2.011 12.9971 1.906 13.4951 1.906C13.9811 1.906 14.4131 2.008 14.7911 2.212C15.1691 2.416 15.4631 2.707 15.6731 3.085C15.8891 3.463 15.9971 3.904 15.9971 4.408ZM14.4221 4.003C14.4221 3.739 14.3321 3.529 14.1521 3.373C13.9721 3.217 13.7471 3.139 13.4771 3.139C13.2191 3.139 13.0001 3.214 12.8201 3.364C12.6461 3.514 12.5381 3.727 12.4961 4.003H14.4221ZM16.503 4.48C16.503 3.964 16.599 3.511 16.791 3.121C16.989 2.731 17.256 2.431 17.592 2.221C17.928 2.011 18.303 1.906 18.717 1.906C19.071 1.906 19.38 1.978 19.644 2.122C19.914 2.266 20.121 2.455 20.265 2.689V1.978H21.804V7H20.265V6.289C20.115 6.523 19.905 6.712 19.635 6.856C19.371 7 19.062 7.072 18.708 7.072C18.3 7.072 17.928 6.967 17.592 6.757C17.256 6.541 16.989 6.238 16.791 5.848C16.599 5.452 16.503 4.996 16.503 4.48ZM20.265 4.489C20.265 4.105 20.157 3.802 19.941 3.58C19.731 3.358 19.473 3.247 19.167 3.247C18.861 3.247 18.6 3.358 18.384 3.58C18.174 3.796 18.069 4.096 18.069 4.48C18.069 4.864 18.174 5.17 18.384 5.398C18.6 5.62 18.861 5.731 19.167 5.731C19.473 5.731 19.731 5.62 19.941 5.398C20.157 5.176 20.265 4.873 20.265 4.489ZM25.7164 5.695V7H24.9334C24.3754 7 23.9404 6.865 23.6284 6.595C23.3164 6.319 23.1604 5.872 23.1604 5.254V3.256H22.5484V1.978H23.1604V0.754H24.6994V1.978H25.7074V3.256H24.6994V5.272C24.6994 5.422 24.7354 5.53 24.8074 5.596C24.8794 5.662 24.9994 5.695 25.1674 5.695H25.7164ZM31.3076 4.408C31.3076 4.552 31.2986 4.702 31.2806 4.858H27.7976C27.8216 5.17 27.9206 5.41 28.0946 5.578C28.2746 5.74 28.4936 5.821 28.7516 5.821C29.1356 5.821 29.4026 5.659 29.5526 5.335H31.1906C31.1066 5.665 30.9536 5.962 30.7316 6.226C30.5156 6.49 30.2426 6.697 29.9126 6.847C29.5826 6.997 29.2136 7.072 28.8056 7.072C28.3136 7.072 27.8756 6.967 27.4916 6.757C27.1076 6.547 26.8076 6.247 26.5916 5.857C26.3756 5.467 26.2676 5.011 26.2676 4.489C26.2676 3.967 26.3726 3.511 26.5826 3.121C26.7986 2.731 27.0986 2.431 27.4826 2.221C27.8666 2.011 28.3076 1.906 28.8056 1.906C29.2916 1.906 29.7236 2.008 30.1016 2.212C30.4796 2.416 30.7736 2.707 30.9836 3.085C31.1996 3.463 31.3076 3.904 31.3076 4.408ZM29.7326 4.003C29.7326 3.739 29.6426 3.529 29.4626 3.373C29.2826 3.217 29.0576 3.139 28.7876 3.139C28.5296 3.139 28.3106 3.214 28.1306 3.364C27.9566 3.514 27.8486 3.727 27.8066 4.003H29.7326ZM36.3128 7.072C35.8208 7.072 35.3768 6.967 34.9808 6.757C34.5908 6.547 34.2818 6.247 34.0538 5.857C33.8318 5.467 33.7208 5.011 33.7208 4.489C33.7208 3.973 33.8348 3.52 34.0627 3.13C34.2908 2.734 34.6028 2.431 34.9988 2.221C35.3948 2.011 35.8388 1.906 36.3308 1.906C36.8228 1.906 37.2668 2.011 37.6628 2.221C38.0588 2.431 38.3708 2.734 38.5988 3.13C38.8268 3.52 38.9408 3.973 38.9408 4.489C38.9408 5.005 38.8238 5.461 38.5898 5.857C38.3618 6.247 38.0468 6.547 37.6448 6.757C37.2488 6.967 36.8048 7.072 36.3128 7.072ZM36.3128 5.74C36.6068 5.74 36.8558 5.632 37.0598 5.416C37.2698 5.2 37.3748 4.891 37.3748 4.489C37.3748 4.087 37.2728 3.778 37.0688 3.562C36.8708 3.346 36.6248 3.238 36.3308 3.238C36.0308 3.238 35.7818 3.346 35.5838 3.562C35.3858 3.772 35.2868 4.081 35.2868 4.489C35.2868 4.891 35.3828 5.2 35.5748 5.416C35.7728 5.632 36.0188 5.74 36.3128 5.74ZM42.8172 1.924C43.4052 1.924 43.8732 2.116 44.2212 2.5C44.5752 2.878 44.7522 3.4 44.7522 4.066V7H43.2222V4.273C43.2222 3.937 43.1352 3.676 42.9612 3.49C42.7872 3.304 42.5532 3.211 42.2592 3.211C41.9652 3.211 41.7312 3.304 41.5572 3.49C41.3832 3.676 41.2962 3.937 41.2962 4.273V7H39.7572V1.978H41.2962V2.644C41.4522 2.422 41.6622 2.248 41.9262 2.122C42.1902 1.99 42.4872 1.924 42.8172 1.924ZM50.5557 4.408C50.5557 4.552 50.5467 4.702 50.5287 4.858H47.0457C47.0697 5.17 47.1687 5.41 47.3427 5.578C47.5227 5.74 47.7417 5.821 47.9997 5.821C48.3837 5.821 48.6507 5.659 48.8007 5.335H50.4387C50.3547 5.665 50.2017 5.962 49.9797 6.226C49.7637 6.49 49.4907 6.697 49.1607 6.847C48.8307 6.997 48.4617 7.072 48.0537 7.072C47.5617 7.072 47.1237 6.967 46.7397 6.757C46.3557 6.547 46.0557 6.247 45.8397 5.857C45.6237 5.467 45.5157 5.011 45.5157 4.489C45.5157 3.967 45.6207 3.511 45.8307 3.121C46.0467 2.731 46.3467 2.431 46.7307 2.221C47.1147 2.011 47.5557 1.906 48.0537 1.906C48.5397 1.906 48.9717 2.008 49.3497 2.212C49.7277 2.416 50.0217 2.707 50.2317 3.085C50.4477 3.463 50.5557 3.904 50.5557 4.408ZM48.9807 4.003C48.9807 3.739 48.8907 3.529 48.7107 3.373C48.5307 3.217 48.3057 3.139 48.0357 3.139C47.7777 3.139 47.5587 3.214 47.3787 3.364C47.2047 3.514 47.0967 3.727 47.0547 4.003H48.9807Z" fill="#844AF8"/>
</svg>
