<svg width="93" height="8" viewBox="0 0 93 8" fill="none" xmlns="http://www.w3.org/2000/svg">
<path d="M2.646 0.727C3.33 0.727 3.921 0.856 4.419 1.114C4.923 1.366 5.307 1.729 5.571 2.203C5.841 2.677 5.976 3.235 5.976 3.877C5.976 4.519 5.841 5.077 5.571 5.551C5.307 6.019 4.923 6.379 4.419 6.631C3.921 6.877 3.33 7 2.646 7H0.693V0.727H2.646ZM2.646 6.325C3.456 6.325 4.074 6.112 4.5 5.686C4.926 5.254 5.139 4.651 5.139 3.877C5.139 3.097 4.923 2.488 4.491 2.05C4.065 1.612 3.45 1.393 2.646 1.393H1.512V6.325H2.646ZM9.20728 7.081C8.74528 7.081 8.32528 6.976 7.94728 6.766C7.57528 6.556 7.28128 6.259 7.06528 5.875C6.85528 5.485 6.75028 5.035 6.75028 4.525C6.75028 4.021 6.85828 3.577 7.07428 3.193C7.29628 2.803 7.59628 2.506 7.97428 2.302C8.35228 2.092 8.77528 1.987 9.24328 1.987C9.71128 1.987 10.1343 2.092 10.5123 2.302C10.8903 2.506 11.1873 2.8 11.4033 3.184C11.6253 3.568 11.7363 4.015 11.7363 4.525C11.7363 5.035 11.6223 5.485 11.3943 5.875C11.1723 6.259 10.8693 6.556 10.4853 6.766C10.1013 6.976 9.67528 7.081 9.20728 7.081ZM9.20728 6.361C9.50128 6.361 9.77728 6.292 10.0353 6.154C10.2933 6.016 10.5003 5.809 10.6563 5.533C10.8183 5.257 10.8993 4.921 10.8993 4.525C10.8993 4.129 10.8213 3.793 10.6653 3.517C10.5093 3.241 10.3053 3.037 10.0533 2.905C9.80128 2.767 9.52828 2.698 9.23428 2.698C8.93428 2.698 8.65828 2.767 8.40628 2.905C8.16028 3.037 7.96228 3.241 7.81228 3.517C7.66228 3.793 7.58728 4.129 7.58728 4.525C7.58728 4.927 7.65928 5.266 7.80328 5.542C7.95328 5.818 8.15128 6.025 8.39728 6.163C8.64328 6.295 8.91328 6.361 9.20728 6.361ZM15.2161 1.978C15.8161 1.978 16.3021 2.161 16.6741 2.527C17.0461 2.887 17.2321 3.409 17.2321 4.093V7H16.4221V4.21C16.4221 3.718 16.2991 3.343 16.0531 3.085C15.8071 2.821 15.4711 2.689 15.0451 2.689C14.6131 2.689 14.2681 2.824 14.0101 3.094C13.7581 3.364 13.6321 3.757 13.6321 4.273V7H12.8131V2.068H13.6321V2.77C13.7941 2.518 14.0131 2.323 14.2891 2.185C14.5711 2.047 14.8801 1.978 15.2161 1.978ZM18.696 0.727H19.605L18.741 2.77H18.165L18.696 0.727ZM21.5377 2.743V5.65C21.5377 5.89 21.5887 6.061 21.6907 6.163C21.7927 6.259 21.9697 6.307 22.2217 6.307H22.8247V7H22.0867C21.6307 7 21.2887 6.895 21.0607 6.685C20.8327 6.475 20.7187 6.13 20.7187 5.65V2.743H20.0797V2.068H20.7187V0.826H21.5377V2.068H22.8247V2.743H21.5377ZM28.6644 1.978C29.0364 1.978 29.3724 2.059 29.6724 2.221C29.9724 2.377 30.2064 2.614 30.3744 2.932C30.5484 3.25 30.6354 3.637 30.6354 4.093V7H29.8254V4.21C29.8254 3.718 29.7024 3.343 29.4564 3.085C29.2104 2.821 28.8744 2.689 28.4484 2.689C28.0164 2.689 27.6714 2.824 27.4134 3.094C27.1614 3.364 27.0354 3.757 27.0354 4.273V7H26.2164V0.34H27.0354V2.77C27.1974 2.518 27.4194 2.323 27.7014 2.185C27.9894 2.047 28.3104 1.978 28.6644 1.978ZM31.6673 4.516C31.6673 4.012 31.7693 3.571 31.9733 3.193C32.1773 2.809 32.4563 2.512 32.8103 2.302C33.1703 2.092 33.5693 1.987 34.0073 1.987C34.4393 1.987 34.8143 2.08 35.1323 2.266C35.4503 2.452 35.6873 2.686 35.8433 2.968V2.068H36.6713V7H35.8433V6.082C35.6813 6.37 35.4383 6.61 35.1143 6.802C34.7963 6.988 34.4243 7.081 33.9983 7.081C33.5603 7.081 33.1643 6.973 32.8103 6.757C32.4563 6.541 32.1773 6.238 31.9733 5.848C31.7693 5.458 31.6673 5.014 31.6673 4.516ZM35.8433 4.525C35.8433 4.153 35.7683 3.829 35.6183 3.553C35.4683 3.277 35.2643 3.067 35.0063 2.923C34.7543 2.773 34.4753 2.698 34.1693 2.698C33.8633 2.698 33.5843 2.77 33.3323 2.914C33.0803 3.058 32.8793 3.268 32.7293 3.544C32.5793 3.82 32.5043 4.144 32.5043 4.516C32.5043 4.894 32.5793 5.224 32.7293 5.506C32.8793 5.782 33.0803 5.995 33.3323 6.145C33.5843 6.289 33.8633 6.361 34.1693 6.361C34.4753 6.361 34.7543 6.289 35.0063 6.145C35.2643 5.995 35.4683 5.782 35.6183 5.506C35.7683 5.224 35.8433 4.897 35.8433 4.525ZM39.8913 6.244L41.4213 2.068H42.2943L40.3593 7H39.4053L37.4703 2.068H38.3523L39.8913 6.244ZM47.6002 4.345C47.6002 4.501 47.5912 4.666 47.5732 4.84H43.6312C43.6612 5.326 43.8262 5.707 44.1262 5.983C44.4322 6.253 44.8012 6.388 45.2332 6.388C45.5872 6.388 45.8812 6.307 46.1152 6.145C46.3552 5.977 46.5232 5.755 46.6192 5.479H47.5012C47.3692 5.953 47.1052 6.34 46.7092 6.64C46.3132 6.934 45.8212 7.081 45.2332 7.081C44.7652 7.081 44.3452 6.976 43.9732 6.766C43.6072 6.556 43.3192 6.259 43.1092 5.875C42.8992 5.485 42.7942 5.035 42.7942 4.525C42.7942 4.015 42.8962 3.568 43.1002 3.184C43.3042 2.8 43.5892 2.506 43.9552 2.302C44.3272 2.092 44.7532 1.987 45.2332 1.987C45.7012 1.987 46.1152 2.089 46.4752 2.293C46.8352 2.497 47.1112 2.779 47.3032 3.139C47.5012 3.493 47.6002 3.895 47.6002 4.345ZM46.7542 4.174C46.7542 3.862 46.6852 3.595 46.5472 3.373C46.4092 3.145 46.2202 2.974 45.9802 2.86C45.7462 2.74 45.4852 2.68 45.1972 2.68C44.7832 2.68 44.4292 2.812 44.1352 3.076C43.8472 3.34 43.6822 3.706 43.6402 4.174H46.7542ZM50.7747 4.516C50.7747 4.012 50.8767 3.571 51.0807 3.193C51.2847 2.809 51.5637 2.512 51.9177 2.302C52.2777 2.092 52.6767 1.987 53.1147 1.987C53.5467 1.987 53.9217 2.08 54.2397 2.266C54.5577 2.452 54.7947 2.686 54.9507 2.968V2.068H55.7787V7H54.9507V6.082C54.7887 6.37 54.5457 6.61 54.2217 6.802C53.9037 6.988 53.5317 7.081 53.1057 7.081C52.6677 7.081 52.2717 6.973 51.9177 6.757C51.5637 6.541 51.2847 6.238 51.0807 5.848C50.8767 5.458 50.7747 5.014 50.7747 4.516ZM54.9507 4.525C54.9507 4.153 54.8757 3.829 54.7257 3.553C54.5757 3.277 54.3717 3.067 54.1137 2.923C53.8617 2.773 53.5827 2.698 53.2767 2.698C52.9707 2.698 52.6917 2.77 52.4397 2.914C52.1877 3.058 51.9867 3.268 51.8367 3.544C51.6867 3.82 51.6117 4.144 51.6117 4.516C51.6117 4.894 51.6867 5.224 51.8367 5.506C51.9867 5.782 52.1877 5.995 52.4397 6.145C52.6917 6.289 52.9707 6.361 53.2767 6.361C53.5827 6.361 53.8617 6.289 54.1137 6.145C54.3717 5.995 54.5757 5.782 54.7257 5.506C54.8757 5.224 54.9507 4.897 54.9507 4.525ZM56.8567 4.525C56.8567 4.015 56.9587 3.571 57.1627 3.193C57.3667 2.809 57.6487 2.512 58.0087 2.302C58.3747 2.092 58.7917 1.987 59.2597 1.987C59.8657 1.987 60.3637 2.134 60.7537 2.428C61.1497 2.722 61.4107 3.13 61.5367 3.652H60.6547C60.5707 3.352 60.4057 3.115 60.1597 2.941C59.9197 2.767 59.6197 2.68 59.2597 2.68C58.7917 2.68 58.4137 2.842 58.1257 3.166C57.8377 3.484 57.6937 3.937 57.6937 4.525C57.6937 5.119 57.8377 5.578 58.1257 5.902C58.4137 6.226 58.7917 6.388 59.2597 6.388C59.6197 6.388 59.9197 6.304 60.1597 6.136C60.3997 5.968 60.5647 5.728 60.6547 5.416H61.5367C61.4047 5.92 61.1407 6.325 60.7447 6.631C60.3487 6.931 59.8537 7.081 59.2597 7.081C58.7917 7.081 58.3747 6.976 58.0087 6.766C57.6487 6.556 57.3667 6.259 57.1627 5.875C56.9587 5.491 56.8567 5.041 56.8567 4.525ZM62.3235 4.525C62.3235 4.015 62.4255 3.571 62.6295 3.193C62.8335 2.809 63.1155 2.512 63.4755 2.302C63.8415 2.092 64.2585 1.987 64.7265 1.987C65.3325 1.987 65.8305 2.134 66.2205 2.428C66.6165 2.722 66.8775 3.13 67.0035 3.652H66.1215C66.0375 3.352 65.8725 3.115 65.6265 2.941C65.3865 2.767 65.0865 2.68 64.7265 2.68C64.2585 2.68 63.8805 2.842 63.5925 3.166C63.3045 3.484 63.1605 3.937 63.1605 4.525C63.1605 5.119 63.3045 5.578 63.5925 5.902C63.8805 6.226 64.2585 6.388 64.7265 6.388C65.0865 6.388 65.3865 6.304 65.6265 6.136C65.8665 5.968 66.0315 5.728 66.1215 5.416H67.0035C66.8715 5.92 66.6075 6.325 66.2115 6.631C65.8155 6.931 65.3205 7.081 64.7265 7.081C64.2585 7.081 63.8415 6.976 63.4755 6.766C63.1155 6.556 62.8335 6.259 62.6295 5.875C62.4255 5.491 62.3235 5.041 62.3235 4.525ZM70.2473 7.081C69.7853 7.081 69.3653 6.976 68.9873 6.766C68.6153 6.556 68.3213 6.259 68.1053 5.875C67.8953 5.485 67.7903 5.035 67.7903 4.525C67.7903 4.021 67.8983 3.577 68.1143 3.193C68.3363 2.803 68.6363 2.506 69.0143 2.302C69.3923 2.092 69.8153 1.987 70.2833 1.987C70.7513 1.987 71.1743 2.092 71.5523 2.302C71.9303 2.506 72.2273 2.8 72.4433 3.184C72.6653 3.568 72.7763 4.015 72.7763 4.525C72.7763 5.035 72.6623 5.485 72.4343 5.875C72.2123 6.259 71.9093 6.556 71.5253 6.766C71.1413 6.976 70.7153 7.081 70.2473 7.081ZM70.2473 6.361C70.5413 6.361 70.8173 6.292 71.0753 6.154C71.3333 6.016 71.5403 5.809 71.6963 5.533C71.8583 5.257 71.9393 4.921 71.9393 4.525C71.9393 4.129 71.8613 3.793 71.7053 3.517C71.5493 3.241 71.3453 3.037 71.0933 2.905C70.8413 2.767 70.5683 2.698 70.2743 2.698C69.9743 2.698 69.6983 2.767 69.4463 2.905C69.2003 3.037 69.0023 3.241 68.8523 3.517C68.7023 3.793 68.6273 4.129 68.6273 4.525C68.6273 4.927 68.6993 5.266 68.8433 5.542C68.9933 5.818 69.1913 6.025 69.4373 6.163C69.6833 6.295 69.9533 6.361 70.2473 6.361ZM78.2272 2.068V7H77.4082V6.271C77.2522 6.523 77.0332 6.721 76.7512 6.865C76.4752 7.003 76.1692 7.072 75.8332 7.072C75.4492 7.072 75.1042 6.994 74.7982 6.838C74.4922 6.676 74.2492 6.436 74.0692 6.118C73.8952 5.8 73.8082 5.413 73.8082 4.957V2.068H74.6182V4.849C74.6182 5.335 74.7412 5.71 74.9872 5.974C75.2332 6.232 75.5692 6.361 75.9952 6.361C76.4332 6.361 76.7782 6.226 77.0302 5.956C77.2822 5.686 77.4082 5.293 77.4082 4.777V2.068H78.2272ZM82.013 1.978C82.613 1.978 83.099 2.161 83.471 2.527C83.843 2.887 84.029 3.409 84.029 4.093V7H83.219V4.21C83.219 3.718 83.096 3.343 82.85 3.085C82.604 2.821 82.268 2.689 81.842 2.689C81.41 2.689 81.065 2.824 80.807 3.094C80.555 3.364 80.429 3.757 80.429 4.273V7H79.61V2.068H80.429V2.77C80.591 2.518 80.81 2.323 81.086 2.185C81.368 2.047 81.677 1.978 82.013 1.978ZM86.3658 2.743V5.65C86.3658 5.89 86.4168 6.061 86.5188 6.163C86.6208 6.259 86.7978 6.307 87.0498 6.307H87.6528V7H86.9148C86.4588 7 86.1168 6.895 85.8888 6.685C85.6608 6.475 85.5468 6.13 85.5468 5.65V2.743H84.9078V2.068H85.5468V0.826H86.3658V2.068H87.6528V2.743H86.3658ZM90.2471 0.646C90.8411 0.646 91.3211 0.814 91.6871 1.15C92.0531 1.486 92.2361 1.936 92.2361 2.5C92.2361 3.13 92.0411 3.598 91.6511 3.904C91.2611 4.204 90.7331 4.354 90.0671 4.354L90.0401 5.209H89.3291L89.2931 3.787H89.5541C90.1481 3.787 90.6131 3.697 90.9491 3.517C91.2851 3.337 91.4531 2.998 91.4531 2.5C91.4531 2.14 91.3451 1.855 91.1291 1.645C90.9131 1.435 90.6221 1.33 90.2561 1.33C89.8841 1.33 89.5901 1.432 89.3741 1.636C89.1641 1.834 89.0591 2.107 89.0591 2.455H88.2851C88.2851 2.095 88.3661 1.78 88.5281 1.51C88.6901 1.234 88.9181 1.021 89.2121 0.871C89.5121 0.721 89.8571 0.646 90.2471 0.646ZM89.6801 7.054C89.5241 7.054 89.3921 7 89.2841 6.892C89.1761 6.784 89.1221 6.652 89.1221 6.496C89.1221 6.34 89.1761 6.208 89.2841 6.1C89.3921 5.992 89.5241 5.938 89.6801 5.938C89.8301 5.938 89.9561 5.992 90.0581 6.1C90.1661 6.208 90.2201 6.34 90.2201 6.496C90.2201 6.652 90.1661 6.784 90.0581 6.892C89.9561 7 89.8301 7.054 89.6801 7.054Z" fill="black"/>
</svg>
