<svg width="27" height="27" viewBox="0 0 27 27" fill="none" xmlns="http://www.w3.org/2000/svg">
<path d="M15.5588 21.375C15.3907 21.3756 15.2246 21.3385 15.0728 21.2664C14.9209 21.1944 14.7871 21.0893 14.6813 20.9588L9.2475 14.2088C9.08203 14.0075 8.99158 13.755 8.99158 13.4944C8.99158 13.2338 9.08203 12.9813 9.2475 12.78L14.8725 6.03001C15.0635 5.80026 15.3379 5.65578 15.6353 5.62836C15.9328 5.60093 16.229 5.6928 16.4588 5.88375C16.6885 6.07471 16.833 6.34911 16.8604 6.64659C16.8878 6.94407 16.796 7.24026 16.605 7.47L11.5763 13.5L16.4363 19.53C16.5738 19.6951 16.6612 19.8962 16.6881 20.1095C16.7149 20.3227 16.6802 20.5392 16.5878 20.7333C16.4955 20.9274 16.3495 21.091 16.1672 21.2047C15.9848 21.3184 15.7737 21.3775 15.5588 21.375Z" fill="#7733FF"/>
</svg>
