<svg width="20" height="20" viewBox="0 0 20 20" fill="none" xmlns="http://www.w3.org/2000/svg">
<path d="M3 5.682C3 4.2 4.2 3 5.682 3H14.318C15.8 3 17 4.2 17 5.682V14.318C17 15.8 15.8 17 14.318 17H5.682C4.97069 17 4.28851 16.7174 3.78554 16.2145C3.28257 15.7115 3 15.0293 3 14.318V5.682ZM13.854 7.854C13.9479 7.76011 14.0006 7.63278 14.0006 7.5C14.0006 7.36722 13.9479 7.23989 13.854 7.146C13.7601 7.05211 13.6328 6.99937 13.5 6.99937C13.3672 6.99937 13.2399 7.05211 13.146 7.146L8.5 11.793L6.854 10.146C6.76011 10.0521 6.63278 9.99937 6.5 9.99937C6.36722 9.99937 6.23989 10.0521 6.146 10.146C6.05211 10.2399 5.99937 10.3672 5.99937 10.5C5.99937 10.6328 6.05211 10.7601 6.146 10.854L8.146 12.854C8.19245 12.9006 8.24762 12.9375 8.30837 12.9627C8.36911 12.9879 8.43423 13.0009 8.5 13.0009C8.56577 13.0009 8.63089 12.9879 8.69163 12.9627C8.75238 12.9375 8.80755 12.9006 8.854 12.854L13.854 7.854Z" fill="#7733FF"/>
</svg>
