<svg width="308" height="139" viewBox="0 0 308 139" fill="none" xmlns="http://www.w3.org/2000/svg">
<rect y="95.924" width="4" height="43.076" rx="2" fill="url(#paint0_linear_59:464)"/>
<rect x="8" y="75.8713" width="4" height="63.1287" rx="2" fill="url(#paint1_linear_59:464)"/>
<rect x="16" y="63.9883" width="4" height="75.0117" rx="2" fill="url(#paint2_linear_59:464)"/>
<rect x="24" y="58.0468" width="4" height="80.9532" rx="2" fill="url(#paint3_linear_59:464)"/>
<rect x="32" y="63.9883" width="4" height="75.0117" rx="2" fill="url(#paint4_linear_59:464)"/>
<rect x="40" y="48.3918" width="4" height="90.6082" rx="2" fill="url(#paint5_linear_59:464)"/>
<rect x="48" y="43.9357" width="4" height="95.0643" rx="2" fill="url(#paint6_linear_59:464)"/>
<rect x="56" y="48.3918" width="4" height="90.6082" rx="2" fill="url(#paint7_linear_59:464)"/>
<rect x="64" y="43.9357" width="4" height="95.0643" rx="2" fill="url(#paint8_linear_59:464)"/>
<rect x="72" y="45.421" width="4" height="93.5789" rx="2" fill="url(#paint9_linear_59:464)"/>
<rect x="80" y="43.9357" width="4" height="95.0643" rx="2" fill="url(#paint10_linear_59:464)"/>
<rect x="88" y="45.421" width="4" height="93.5789" rx="2" fill="url(#paint11_linear_59:464)"/>
<rect x="96" y="32.0526" width="4" height="106.947" rx="2" fill="url(#paint12_linear_59:464)"/>
<rect x="104" y="23.1404" width="4" height="115.86" rx="2" fill="url(#paint13_linear_59:464)"/>
<rect x="112" y="12" width="4" height="127" rx="2" fill="url(#paint14_linear_59:464)"/>
<rect x="120" y="12" width="4" height="127" rx="2" fill="url(#paint15_linear_59:464)"/>
<rect x="128" y="12" width="4" height="127" rx="2" fill="url(#paint16_linear_59:464)"/>
<rect x="136" y="32.0526" width="4" height="106.947" rx="2" fill="url(#paint17_linear_59:464)"/>
<rect x="144" y="52.8479" width="4" height="86.152" rx="2" fill="url(#paint18_linear_59:464)"/>
<rect x="152" y="72.158" width="4" height="66.8421" rx="2" fill="url(#paint19_linear_59:464)"/>
<rect x="160" y="117.462" width="4" height="21.538" rx="2" fill="url(#paint20_linear_59:464)"/>
<rect x="168" y="127.86" width="4" height="11.1404" rx="2" fill="url(#paint21_linear_59:464)"/>
<rect x="176" y="134.544" width="4" height="4.45614" rx="2" fill="url(#paint22_linear_59:464)"/>
<rect x="184" y="134.544" width="4" height="4.45614" rx="2" fill="url(#paint23_linear_59:464)"/>
<rect x="192" y="134.544" width="4" height="4.45614" rx="2" fill="url(#paint24_linear_59:464)"/>
<rect x="200" y="134.544" width="4" height="4.45614" rx="2" fill="url(#paint25_linear_59:464)"/>
<rect x="208" y="134.544" width="4" height="4.45614" rx="2" fill="url(#paint26_linear_59:464)"/>
<rect x="216" y="134.544" width="4" height="4.45614" rx="2" fill="url(#paint27_linear_59:464)"/>
<rect x="224" y="134.544" width="4" height="4.45614" rx="2" fill="url(#paint28_linear_59:464)"/>
<rect x="232" y="134.544" width="4" height="4.45614" rx="2" fill="url(#paint29_linear_59:464)"/>
<rect x="240" y="134.544" width="4" height="4.45614" rx="2" fill="url(#paint30_linear_59:464)"/>
<rect x="248" y="134.544" width="4" height="4.45614" rx="2" fill="url(#paint31_linear_59:464)"/>
<rect x="256" y="134.544" width="4" height="4.45614" rx="2" fill="url(#paint32_linear_59:464)"/>
<rect x="264" y="134.544" width="4" height="4.45614" rx="2" fill="url(#paint33_linear_59:464)"/>
<rect x="272" y="134.544" width="4" height="4.45614" rx="2" fill="url(#paint34_linear_59:464)"/>
<rect x="280" y="134.544" width="4" height="4.45614" rx="2" fill="url(#paint35_linear_59:464)"/>
<rect x="288" y="134.544" width="4" height="4.45614" rx="2" fill="url(#paint36_linear_59:464)"/>
<rect x="296" y="134.544" width="4" height="4.45614" rx="2" fill="url(#paint37_linear_59:464)"/>
<rect x="304" y="134.544" width="4" height="4.45614" rx="2" fill="url(#paint38_linear_59:464)"/>
<defs>
<linearGradient id="paint0_linear_59:464" x1="2" y1="95.924" x2="2" y2="139" gradientUnits="userSpaceOnUse">
<stop offset="0.0104167" stop-color="#A887F1"/>
<stop offset="0.84375" stop-color="#844AF8"/>
</linearGradient>
<linearGradient id="paint1_linear_59:464" x1="10" y1="75.8713" x2="10" y2="139" gradientUnits="userSpaceOnUse">
<stop offset="0.0104167" stop-color="#A887F1"/>
<stop offset="0.84375" stop-color="#844AF8"/>
</linearGradient>
<linearGradient id="paint2_linear_59:464" x1="18" y1="63.9883" x2="18" y2="139" gradientUnits="userSpaceOnUse">
<stop offset="0.0104167" stop-color="#A887F1"/>
<stop offset="0.84375" stop-color="#844AF8"/>
</linearGradient>
<linearGradient id="paint3_linear_59:464" x1="26" y1="58.0468" x2="26" y2="139" gradientUnits="userSpaceOnUse">
<stop offset="0.0104167" stop-color="#A887F1"/>
<stop offset="0.84375" stop-color="#844AF8"/>
</linearGradient>
<linearGradient id="paint4_linear_59:464" x1="34" y1="63.9883" x2="34" y2="139" gradientUnits="userSpaceOnUse">
<stop offset="0.0104167" stop-color="#A887F1"/>
<stop offset="0.84375" stop-color="#844AF8"/>
</linearGradient>
<linearGradient id="paint5_linear_59:464" x1="42" y1="48.3918" x2="42" y2="139" gradientUnits="userSpaceOnUse">
<stop offset="0.0104167" stop-color="#A887F1"/>
<stop offset="0.84375" stop-color="#844AF8"/>
</linearGradient>
<linearGradient id="paint6_linear_59:464" x1="50" y1="43.9357" x2="50" y2="139" gradientUnits="userSpaceOnUse">
<stop offset="0.0104167" stop-color="#A887F1"/>
<stop offset="0.84375" stop-color="#844AF8"/>
</linearGradient>
<linearGradient id="paint7_linear_59:464" x1="58" y1="48.3918" x2="58" y2="139" gradientUnits="userSpaceOnUse">
<stop offset="0.0104167" stop-color="#A887F1"/>
<stop offset="0.84375" stop-color="#844AF8"/>
</linearGradient>
<linearGradient id="paint8_linear_59:464" x1="66" y1="43.9357" x2="66" y2="139" gradientUnits="userSpaceOnUse">
<stop offset="0.0104167" stop-color="#A887F1"/>
<stop offset="0.84375" stop-color="#844AF8"/>
</linearGradient>
<linearGradient id="paint9_linear_59:464" x1="74" y1="45.421" x2="74" y2="139" gradientUnits="userSpaceOnUse">
<stop offset="0.0104167" stop-color="#A887F1"/>
<stop offset="0.84375" stop-color="#844AF8"/>
</linearGradient>
<linearGradient id="paint10_linear_59:464" x1="82" y1="43.9357" x2="82" y2="139" gradientUnits="userSpaceOnUse">
<stop offset="0.0104167" stop-color="#A887F1"/>
<stop offset="0.84375" stop-color="#844AF8"/>
</linearGradient>
<linearGradient id="paint11_linear_59:464" x1="90" y1="45.421" x2="90" y2="139" gradientUnits="userSpaceOnUse">
<stop offset="0.0104167" stop-color="#A887F1"/>
<stop offset="0.84375" stop-color="#844AF8"/>
</linearGradient>
<linearGradient id="paint12_linear_59:464" x1="98" y1="32.0526" x2="98" y2="139" gradientUnits="userSpaceOnUse">
<stop offset="0.0104167" stop-color="#A887F1"/>
<stop offset="0.84375" stop-color="#844AF8"/>
</linearGradient>
<linearGradient id="paint13_linear_59:464" x1="106" y1="23.1404" x2="106" y2="139" gradientUnits="userSpaceOnUse">
<stop offset="0.0104167" stop-color="#A887F1"/>
<stop offset="0.84375" stop-color="#844AF8"/>
</linearGradient>
<linearGradient id="paint14_linear_59:464" x1="114" y1="12" x2="114" y2="139" gradientUnits="userSpaceOnUse">
<stop offset="0.0104167" stop-color="#A887F1"/>
<stop offset="0.84375" stop-color="#844AF8"/>
</linearGradient>
<linearGradient id="paint15_linear_59:464" x1="122" y1="12" x2="122" y2="139" gradientUnits="userSpaceOnUse">
<stop offset="0.0104167" stop-color="#A887F1"/>
<stop offset="0.84375" stop-color="#844AF8"/>
</linearGradient>
<linearGradient id="paint16_linear_59:464" x1="130" y1="12" x2="130" y2="139" gradientUnits="userSpaceOnUse">
<stop offset="0.0104167" stop-color="#A887F1"/>
<stop offset="0.84375" stop-color="#844AF8"/>
</linearGradient>
<linearGradient id="paint17_linear_59:464" x1="138" y1="32.0526" x2="138" y2="139" gradientUnits="userSpaceOnUse">
<stop offset="0.0104167" stop-color="#A887F1"/>
<stop offset="0.84375" stop-color="#844AF8"/>
</linearGradient>
<linearGradient id="paint18_linear_59:464" x1="146" y1="52.8479" x2="146" y2="139" gradientUnits="userSpaceOnUse">
<stop offset="0.0104167" stop-color="#A887F1"/>
<stop offset="0.84375" stop-color="#844AF8"/>
</linearGradient>
<linearGradient id="paint19_linear_59:464" x1="154" y1="72.158" x2="154" y2="139" gradientUnits="userSpaceOnUse">
<stop offset="0.0104167" stop-color="#A887F1"/>
<stop offset="0.84375" stop-color="#844AF8"/>
</linearGradient>
<linearGradient id="paint20_linear_59:464" x1="162" y1="117.462" x2="162" y2="139" gradientUnits="userSpaceOnUse">
<stop offset="0.0104167" stop-color="#A887F1"/>
<stop offset="0.84375" stop-color="#844AF8"/>
</linearGradient>
<linearGradient id="paint21_linear_59:464" x1="170" y1="127.86" x2="170" y2="139" gradientUnits="userSpaceOnUse">
<stop offset="0.0104167" stop-color="#A887F1"/>
<stop offset="0.84375" stop-color="#844AF8"/>
</linearGradient>
<linearGradient id="paint22_linear_59:464" x1="178" y1="134.544" x2="178" y2="139" gradientUnits="userSpaceOnUse">
<stop offset="0.0104167" stop-color="#A887F1"/>
<stop offset="0.84375" stop-color="#844AF8"/>
</linearGradient>
<linearGradient id="paint23_linear_59:464" x1="186" y1="134.544" x2="186" y2="139" gradientUnits="userSpaceOnUse">
<stop offset="0.0104167" stop-color="#A887F1"/>
<stop offset="0.84375" stop-color="#844AF8"/>
</linearGradient>
<linearGradient id="paint24_linear_59:464" x1="194" y1="134.544" x2="194" y2="139" gradientUnits="userSpaceOnUse">
<stop offset="0.0104167" stop-color="#A887F1"/>
<stop offset="0.84375" stop-color="#844AF8"/>
</linearGradient>
<linearGradient id="paint25_linear_59:464" x1="202" y1="134.544" x2="202" y2="139" gradientUnits="userSpaceOnUse">
<stop offset="0.0104167" stop-color="#A887F1"/>
<stop offset="0.84375" stop-color="#844AF8"/>
</linearGradient>
<linearGradient id="paint26_linear_59:464" x1="210" y1="134.544" x2="210" y2="139" gradientUnits="userSpaceOnUse">
<stop offset="0.0104167" stop-color="#A887F1"/>
<stop offset="0.84375" stop-color="#844AF8"/>
</linearGradient>
<linearGradient id="paint27_linear_59:464" x1="218" y1="134.544" x2="218" y2="139" gradientUnits="userSpaceOnUse">
<stop offset="0.0104167" stop-color="#A887F1"/>
<stop offset="0.84375" stop-color="#844AF8"/>
</linearGradient>
<linearGradient id="paint28_linear_59:464" x1="226" y1="134.544" x2="226" y2="139" gradientUnits="userSpaceOnUse">
<stop offset="0.0104167" stop-color="#A887F1"/>
<stop offset="0.84375" stop-color="#844AF8"/>
</linearGradient>
<linearGradient id="paint29_linear_59:464" x1="234" y1="134.544" x2="234" y2="139" gradientUnits="userSpaceOnUse">
<stop offset="0.0104167" stop-color="#A887F1"/>
<stop offset="0.84375" stop-color="#844AF8"/>
</linearGradient>
<linearGradient id="paint30_linear_59:464" x1="242" y1="134.544" x2="242" y2="139" gradientUnits="userSpaceOnUse">
<stop offset="0.0104167" stop-color="#A887F1"/>
<stop offset="0.84375" stop-color="#844AF8"/>
</linearGradient>
<linearGradient id="paint31_linear_59:464" x1="250" y1="134.544" x2="250" y2="139" gradientUnits="userSpaceOnUse">
<stop offset="0.0104167" stop-color="#A887F1"/>
<stop offset="0.84375" stop-color="#844AF8"/>
</linearGradient>
<linearGradient id="paint32_linear_59:464" x1="258" y1="134.544" x2="258" y2="139" gradientUnits="userSpaceOnUse">
<stop offset="0.0104167" stop-color="#A887F1"/>
<stop offset="0.84375" stop-color="#844AF8"/>
</linearGradient>
<linearGradient id="paint33_linear_59:464" x1="266" y1="134.544" x2="266" y2="139" gradientUnits="userSpaceOnUse">
<stop offset="0.0104167" stop-color="#A887F1"/>
<stop offset="0.84375" stop-color="#844AF8"/>
</linearGradient>
<linearGradient id="paint34_linear_59:464" x1="274" y1="134.544" x2="274" y2="139" gradientUnits="userSpaceOnUse">
<stop offset="0.0104167" stop-color="#A887F1"/>
<stop offset="0.84375" stop-color="#844AF8"/>
</linearGradient>
<linearGradient id="paint35_linear_59:464" x1="282" y1="134.544" x2="282" y2="139" gradientUnits="userSpaceOnUse">
<stop offset="0.0104167" stop-color="#A887F1"/>
<stop offset="0.84375" stop-color="#844AF8"/>
</linearGradient>
<linearGradient id="paint36_linear_59:464" x1="290" y1="134.544" x2="290" y2="139" gradientUnits="userSpaceOnUse">
<stop offset="0.0104167" stop-color="#A887F1"/>
<stop offset="0.84375" stop-color="#844AF8"/>
</linearGradient>
<linearGradient id="paint37_linear_59:464" x1="298" y1="134.544" x2="298" y2="139" gradientUnits="userSpaceOnUse">
<stop offset="0.0104167" stop-color="#A887F1"/>
<stop offset="0.84375" stop-color="#844AF8"/>
</linearGradient>
<linearGradient id="paint38_linear_59:464" x1="306" y1="134.544" x2="306" y2="139" gradientUnits="userSpaceOnUse">
<stop offset="0.0104167" stop-color="#A887F1"/>
<stop offset="0.84375" stop-color="#844AF8"/>
</linearGradient>
</defs>
</svg>
