<svg width="248" height="125" viewBox="0 0 248 125" fill="none" xmlns="http://www.w3.org/2000/svg">
<path d="M3.108 2.66L2.172 7.952C2.14 8.112 2.124 8.276 2.124 8.444C2.124 8.916 2.26 9.272 2.532 9.512C2.812 9.744 3.208 9.86 3.72 9.86C4.32 9.86 4.812 9.7 5.196 9.38C5.588 9.06 5.84 8.584 5.952 7.952L6.888 2.66H8.256L7.32 7.952C7.2 8.632 6.948 9.208 6.564 9.68C6.188 10.152 5.732 10.504 5.196 10.736C4.66 10.968 4.092 11.084 3.492 11.084C2.676 11.084 2.012 10.876 1.5 10.46C0.996 10.044 0.744 9.44 0.744 8.648C0.744 8.384 0.764 8.152 0.804 7.952L1.74 2.66H3.108ZM10.9972 11.108C10.5412 11.108 10.1252 11.032 9.74916 10.88C9.37316 10.72 9.07716 10.5 8.86116 10.22C8.64516 9.932 8.53716 9.604 8.53716 9.236C8.53716 9.172 8.54516 9.084 8.56116 8.972H9.89316C9.86116 9.276 9.95316 9.528 10.1692 9.728C10.3852 9.928 10.6892 10.028 11.0812 10.028C11.4652 10.028 11.7812 9.96 12.0292 9.824C12.2772 9.688 12.4012 9.488 12.4012 9.224C12.4012 9 12.2972 8.82 12.0892 8.684C11.8892 8.548 11.5652 8.396 11.1172 8.228C10.6932 8.06 10.3492 7.904 10.0852 7.76C9.82116 7.616 9.59316 7.42 9.40116 7.172C9.20916 6.916 9.11316 6.6 9.11316 6.224C9.11316 5.84 9.22116 5.504 9.43716 5.216C9.66116 4.92 9.96916 4.692 10.3612 4.532C10.7612 4.364 11.2172 4.28 11.7292 4.28C12.1932 4.28 12.6052 4.36 12.9652 4.52C13.3332 4.672 13.6172 4.892 13.8172 5.18C14.0252 5.46 14.1292 5.784 14.1292 6.152C14.1292 6.264 14.1252 6.348 14.1172 6.404H12.8212C12.8532 6.092 12.7612 5.84 12.5452 5.648C12.3372 5.456 12.0372 5.36 11.6452 5.36C11.3012 5.36 11.0212 5.432 10.8052 5.576C10.5972 5.72 10.4932 5.916 10.4932 6.164C10.4932 6.412 10.6012 6.612 10.8172 6.764C11.0332 6.908 11.3652 7.068 11.8132 7.244C12.2212 7.404 12.5532 7.556 12.8092 7.7C13.0652 7.844 13.2852 8.036 13.4692 8.276C13.6532 8.516 13.7452 8.816 13.7452 9.176C13.7452 9.568 13.6252 9.912 13.3852 10.208C13.1532 10.496 12.8292 10.72 12.4132 10.88C11.9972 11.032 11.5252 11.108 10.9972 11.108ZM19.0033 4.28C19.8273 4.28 20.4833 4.512 20.9713 4.976C21.4673 5.44 21.7153 6.064 21.7153 6.848C21.7153 7.032 21.6953 7.252 21.6553 7.508C21.6233 7.684 21.5673 7.9 21.4873 8.156H16.4353C16.4273 8.212 16.4233 8.296 16.4233 8.408C16.4233 8.88 16.5673 9.256 16.8553 9.536C17.1513 9.816 17.5353 9.956 18.0073 9.956C18.7513 9.956 19.3233 9.648 19.7233 9.032H21.1993C20.8953 9.64 20.4473 10.14 19.8553 10.532C19.2633 10.916 18.5793 11.108 17.8033 11.108C17.2513 11.108 16.7673 11 16.3513 10.784C15.9353 10.568 15.6113 10.26 15.3793 9.86C15.1473 9.452 15.0313 8.976 15.0313 8.432C15.0313 8.2 15.0553 7.952 15.1033 7.688C15.2233 7.008 15.4673 6.412 15.8353 5.9C16.2033 5.38 16.6593 4.98 17.2033 4.7C17.7553 4.42 18.3553 4.28 19.0033 4.28ZM20.2873 7.172C20.3033 7.028 20.3113 6.924 20.3113 6.86C20.3113 6.42 20.1633 6.072 19.8673 5.816C19.5793 5.56 19.2033 5.432 18.7393 5.432C18.2513 5.432 17.8113 5.588 17.4193 5.9C17.0273 6.212 16.7593 6.636 16.6153 7.172H20.2873ZM24.7056 5.552C24.9776 5.152 25.2976 4.84 25.6656 4.616C26.0416 4.392 26.4576 4.28 26.9136 4.28L26.6616 5.696H26.3136C25.7856 5.696 25.3616 5.828 25.0416 6.092C24.7216 6.356 24.4976 6.812 24.3696 7.46L23.7456 11H22.3776L23.5416 4.388H24.9096L24.7056 5.552ZM31.507 4.28C32.203 4.28 32.755 4.468 33.163 4.844C33.579 5.212 33.787 5.744 33.787 6.44C33.787 6.616 33.767 6.836 33.727 7.1L33.031 11H31.675L32.335 7.304C32.367 7.08 32.383 6.92 32.383 6.824C32.383 6.384 32.259 6.048 32.011 5.816C31.771 5.584 31.435 5.468 31.003 5.468C30.483 5.468 30.043 5.628 29.683 5.948C29.331 6.26 29.107 6.712 29.011 7.304V7.268L28.351 11H26.983L28.147 4.388H29.515L29.383 5.156C29.655 4.884 29.975 4.672 30.343 4.52C30.719 4.36 31.107 4.28 31.507 4.28ZM34.908 7.664C35.028 7 35.268 6.412 35.628 5.9C35.996 5.388 36.444 4.992 36.972 4.712C37.5 4.424 38.052 4.28 38.628 4.28C39.148 4.28 39.584 4.384 39.936 4.592C40.288 4.792 40.552 5.044 40.728 5.348L40.896 4.388H42.276L41.112 11H39.732L39.912 10.016C39.624 10.328 39.26 10.588 38.82 10.796C38.388 11.004 37.916 11.108 37.404 11.108C36.908 11.108 36.464 10.996 36.072 10.772C35.688 10.548 35.384 10.232 35.16 9.824C34.944 9.408 34.836 8.932 34.836 8.396C34.836 8.156 34.86 7.912 34.908 7.664ZM40.32 7.688C40.352 7.536 40.368 7.372 40.368 7.196C40.368 6.66 40.208 6.24 39.888 5.936C39.576 5.624 39.184 5.468 38.712 5.468C38.36 5.468 38.016 5.556 37.68 5.732C37.344 5.9 37.052 6.152 36.804 6.488C36.556 6.816 36.392 7.208 36.312 7.664C36.28 7.816 36.264 7.98 36.264 8.156C36.264 8.7 36.42 9.132 36.732 9.452C37.052 9.764 37.448 9.92 37.92 9.92C38.272 9.92 38.616 9.832 38.952 9.656C39.288 9.48 39.58 9.224 39.828 8.888C40.076 8.544 40.24 8.144 40.32 7.688ZM52.1008 4.28C52.7968 4.28 53.3528 4.468 53.7688 4.844C54.1848 5.22 54.3928 5.752 54.3928 6.44C54.3928 6.624 54.3728 6.844 54.3328 7.1L53.6368 11H52.2808L52.9408 7.304C52.9728 7.08 52.9888 6.92 52.9888 6.824C52.9888 6.384 52.8648 6.048 52.6168 5.816C52.3768 5.584 52.0408 5.468 51.6088 5.468C51.0888 5.468 50.6488 5.628 50.2888 5.948C49.9368 6.26 49.7128 6.712 49.6168 7.304L48.9568 11H47.6008L48.2608 7.304C48.2928 7.08 48.3088 6.92 48.3088 6.824C48.3088 6.384 48.1848 6.048 47.9368 5.816C47.6968 5.584 47.3608 5.468 46.9288 5.468C46.4088 5.468 45.9688 5.628 45.6088 5.948C45.2568 6.26 45.0328 6.712 44.9368 7.304V7.268L44.2768 11H42.9088L44.0728 4.388H45.4408L45.3088 5.156C45.5728 4.884 45.8888 4.672 46.2568 4.52C46.6328 4.36 47.0208 4.28 47.4208 4.28C47.9488 4.28 48.4008 4.392 48.7768 4.616C49.1608 4.84 49.4288 5.164 49.5808 5.588C49.8448 5.188 50.2088 4.872 50.6728 4.64C51.1368 4.4 51.6128 4.28 52.1008 4.28ZM59.4096 4.28C60.2336 4.28 60.8896 4.512 61.3776 4.976C61.8736 5.44 62.1216 6.064 62.1216 6.848C62.1216 7.032 62.1016 7.252 62.0616 7.508C62.0296 7.684 61.9736 7.9 61.8936 8.156H56.8416C56.8336 8.212 56.8296 8.296 56.8296 8.408C56.8296 8.88 56.9736 9.256 57.2616 9.536C57.5576 9.816 57.9416 9.956 58.4136 9.956C59.1576 9.956 59.7296 9.648 60.1296 9.032H61.6056C61.3016 9.64 60.8536 10.14 60.2616 10.532C59.6696 10.916 58.9856 11.108 58.2096 11.108C57.6576 11.108 57.1736 11 56.7576 10.784C56.3416 10.568 56.0176 10.26 55.7856 9.86C55.5536 9.452 55.4376 8.976 55.4376 8.432C55.4376 8.2 55.4616 7.952 55.5096 7.688C55.6296 7.008 55.8736 6.412 56.2416 5.9C56.6096 5.38 57.0656 4.98 57.6096 4.7C58.1616 4.42 58.7616 4.28 59.4096 4.28ZM60.6936 7.172C60.7096 7.028 60.7176 6.924 60.7176 6.86C60.7176 6.42 60.5696 6.072 60.2736 5.816C59.9856 5.56 59.6096 5.432 59.1456 5.432C58.6576 5.432 58.2176 5.588 57.8256 5.9C57.4336 6.212 57.1656 6.636 57.0216 7.172H60.6936Z" fill="#7D7D7D"/>
<rect x="0.125" y="18.125" width="247.75" height="36.75" rx="18.375" stroke="black" stroke-width="0.25"/>
<path d="M23.62 30.159C23.506 30.159 23.413 30.126 23.341 30.06C23.269 29.988 23.233 29.895 23.233 29.781C23.233 29.625 23.287 29.496 23.395 29.394C23.503 29.286 23.632 29.232 23.782 29.232C23.896 29.232 23.986 29.265 24.052 29.331C24.124 29.397 24.16 29.484 24.16 29.592C24.16 29.748 24.106 29.883 23.998 29.997C23.89 30.105 23.764 30.159 23.62 30.159ZM23.764 31.086L22.9 36H22.27L23.134 31.086H23.764ZM27.6116 30.996C28.1156 30.996 28.5176 31.134 28.8176 31.41C29.1236 31.68 29.2766 32.076 29.2766 32.598C29.2766 32.79 29.2616 32.964 29.2316 33.12L28.7186 36H28.0976L28.5926 33.192C28.6166 33.054 28.6286 32.907 28.6286 32.751C28.6286 32.355 28.5206 32.055 28.3046 31.851C28.0886 31.647 27.7856 31.545 27.3956 31.545C26.9216 31.545 26.5166 31.695 26.1806 31.995C25.8446 32.295 25.6256 32.736 25.5236 33.318V33.291L25.0466 36H24.4166L25.2806 31.086H25.9106L25.7576 31.932C25.9676 31.632 26.2346 31.401 26.5586 31.239C26.8826 31.077 27.2336 30.996 27.6116 30.996ZM31.84 36.072C31.342 36.072 30.937 35.958 30.625 35.73C30.313 35.496 30.157 35.178 30.157 34.776C30.157 34.704 30.16 34.65 30.166 34.614H30.778C30.754 34.902 30.838 35.133 31.03 35.307C31.222 35.481 31.504 35.568 31.876 35.568C32.254 35.568 32.557 35.49 32.785 35.334C33.013 35.172 33.127 34.959 33.127 34.695C33.127 34.539 33.079 34.407 32.983 34.299C32.887 34.191 32.767 34.104 32.623 34.038C32.485 33.966 32.29 33.885 32.038 33.795C31.726 33.681 31.474 33.576 31.282 33.48C31.096 33.378 30.934 33.24 30.796 33.066C30.664 32.886 30.598 32.661 30.598 32.391C30.598 32.121 30.676 31.881 30.832 31.671C30.988 31.461 31.201 31.299 31.471 31.185C31.747 31.071 32.059 31.014 32.407 31.014C32.893 31.014 33.289 31.134 33.595 31.374C33.907 31.614 34.063 31.932 34.063 32.328C34.063 32.412 34.06 32.475 34.054 32.517H33.46C33.466 32.493 33.469 32.454 33.469 32.4C33.469 32.136 33.364 31.923 33.154 31.761C32.95 31.599 32.686 31.518 32.362 31.518C32.038 31.518 31.768 31.596 31.552 31.752C31.342 31.902 31.237 32.106 31.237 32.364C31.237 32.538 31.288 32.685 31.39 32.805C31.492 32.919 31.618 33.012 31.768 33.084C31.918 33.156 32.119 33.24 32.371 33.336C32.671 33.45 32.911 33.555 33.091 33.651C33.277 33.747 33.433 33.879 33.559 34.047C33.685 34.215 33.748 34.425 33.748 34.677C33.748 35.103 33.571 35.442 33.217 35.694C32.863 35.946 32.404 36.072 31.84 36.072ZM37.8858 31.014C38.2998 31.014 38.6538 31.095 38.9478 31.257C39.2418 31.413 39.4638 31.629 39.6138 31.905C39.7698 32.181 39.8478 32.496 39.8478 32.85C39.8478 33.012 39.8358 33.156 39.8118 33.282C39.7758 33.462 39.7398 33.624 39.7038 33.768H35.6268C35.6088 33.882 35.5998 33.99 35.5998 34.092C35.5998 34.554 35.7378 34.911 36.0138 35.163C36.2958 35.415 36.6528 35.541 37.0848 35.541C37.4988 35.541 37.8618 35.442 38.1738 35.244C38.4858 35.046 38.7138 34.779 38.8578 34.443H39.5328C39.3288 34.923 39.0018 35.316 38.5518 35.622C38.1078 35.922 37.5888 36.072 36.9948 36.072C36.3828 36.072 35.8908 35.898 35.5188 35.55C35.1528 35.196 34.9698 34.716 34.9698 34.11C34.9698 33.93 34.9878 33.741 35.0238 33.543C35.1138 33.033 35.2938 32.586 35.5638 32.202C35.8398 31.818 36.1788 31.524 36.5808 31.32C36.9828 31.116 37.4178 31.014 37.8858 31.014ZM39.1638 33.3C39.1938 33.132 39.2088 32.991 39.2088 32.877C39.2088 32.451 39.0738 32.124 38.8038 31.896C38.5338 31.668 38.1888 31.554 37.7688 31.554C37.4628 31.554 37.1688 31.62 36.8868 31.752C36.6048 31.884 36.3588 32.082 36.1488 32.346C35.9388 32.61 35.7948 32.928 35.7168 33.3H39.1638ZM41.8915 32.067C42.0895 31.725 42.3475 31.461 42.6655 31.275C42.9835 31.089 43.3525 30.996 43.7725 30.996L43.6555 31.653H43.4755C43.0435 31.653 42.6715 31.764 42.3595 31.986C42.0475 32.208 41.8315 32.574 41.7115 33.084L41.1985 36H40.5685L41.4325 31.086H42.0625L41.8915 32.067ZM44.9632 34.668C44.9452 34.776 44.9362 34.869 44.9362 34.947C44.9362 35.139 44.9872 35.274 45.0892 35.352C45.1972 35.424 45.3712 35.46 45.6112 35.46H46.1872L46.0882 36H45.4132C45.0412 36 44.7622 35.928 44.5762 35.784C44.3902 35.64 44.2972 35.403 44.2972 35.073C44.2972 34.941 44.3092 34.806 44.3332 34.668L44.8732 31.617H44.1892L44.2882 31.086H44.9722L45.1882 29.853H45.8182L45.6022 31.086H46.9612L46.8622 31.617H45.5032L44.9632 34.668ZM55.0825 31.086L54.2185 36H53.5885L53.7415 35.136C53.5375 35.442 53.2735 35.676 52.9495 35.838C52.6255 36 52.2775 36.081 51.9055 36.081C51.4015 36.081 50.9965 35.946 50.6905 35.676C50.3845 35.4 50.2315 35.001 50.2315 34.479C50.2315 34.287 50.2465 34.113 50.2765 33.957L50.7805 31.086H51.4015L50.9065 33.885C50.8825 34.023 50.8705 34.167 50.8705 34.317C50.8705 34.713 50.9785 35.016 51.1945 35.226C51.4165 35.43 51.7225 35.532 52.1125 35.532C52.5685 35.532 52.9615 35.394 53.2915 35.118C53.6215 34.836 53.8435 34.425 53.9575 33.885L54.4525 31.086H55.0825ZM57.3848 36.072C56.8868 36.072 56.4818 35.958 56.1698 35.73C55.8578 35.496 55.7018 35.178 55.7018 34.776C55.7018 34.704 55.7048 34.65 55.7108 34.614H56.3228C56.2988 34.902 56.3828 35.133 56.5748 35.307C56.7668 35.481 57.0488 35.568 57.4208 35.568C57.7988 35.568 58.1018 35.49 58.3298 35.334C58.5578 35.172 58.6718 34.959 58.6718 34.695C58.6718 34.539 58.6238 34.407 58.5278 34.299C58.4318 34.191 58.3118 34.104 58.1678 34.038C58.0298 33.966 57.8348 33.885 57.5828 33.795C57.2708 33.681 57.0188 33.576 56.8268 33.48C56.6408 33.378 56.4788 33.24 56.3408 33.066C56.2088 32.886 56.1428 32.661 56.1428 32.391C56.1428 32.121 56.2208 31.881 56.3768 31.671C56.5328 31.461 56.7458 31.299 57.0158 31.185C57.2918 31.071 57.6038 31.014 57.9518 31.014C58.4378 31.014 58.8338 31.134 59.1398 31.374C59.4518 31.614 59.6078 31.932 59.6078 32.328C59.6078 32.412 59.6048 32.475 59.5988 32.517H59.0048C59.0108 32.493 59.0138 32.454 59.0138 32.4C59.0138 32.136 58.9088 31.923 58.6988 31.761C58.4948 31.599 58.2308 31.518 57.9068 31.518C57.5828 31.518 57.3128 31.596 57.0968 31.752C56.8868 31.902 56.7818 32.106 56.7818 32.364C56.7818 32.538 56.8328 32.685 56.9348 32.805C57.0368 32.919 57.1628 33.012 57.3128 33.084C57.4628 33.156 57.6638 33.24 57.9158 33.336C58.2158 33.45 58.4558 33.555 58.6358 33.651C58.8218 33.747 58.9778 33.879 59.1038 34.047C59.2298 34.215 59.2928 34.425 59.2928 34.677C59.2928 35.103 59.1158 35.442 58.7618 35.694C58.4078 35.946 57.9488 36.072 57.3848 36.072ZM63.4307 31.014C63.8447 31.014 64.1987 31.095 64.4927 31.257C64.7867 31.413 65.0087 31.629 65.1587 31.905C65.3147 32.181 65.3927 32.496 65.3927 32.85C65.3927 33.012 65.3807 33.156 65.3567 33.282C65.3207 33.462 65.2847 33.624 65.2487 33.768H61.1717C61.1537 33.882 61.1447 33.99 61.1447 34.092C61.1447 34.554 61.2827 34.911 61.5587 35.163C61.8407 35.415 62.1977 35.541 62.6297 35.541C63.0437 35.541 63.4067 35.442 63.7187 35.244C64.0307 35.046 64.2587 34.779 64.4027 34.443H65.0777C64.8737 34.923 64.5467 35.316 64.0967 35.622C63.6527 35.922 63.1337 36.072 62.5397 36.072C61.9277 36.072 61.4357 35.898 61.0637 35.55C60.6977 35.196 60.5147 34.716 60.5147 34.11C60.5147 33.93 60.5327 33.741 60.5687 33.543C60.6587 33.033 60.8387 32.586 61.1087 32.202C61.3847 31.818 61.7237 31.524 62.1257 31.32C62.5277 31.116 62.9627 31.014 63.4307 31.014ZM64.7087 33.3C64.7387 33.132 64.7537 32.991 64.7537 32.877C64.7537 32.451 64.6187 32.124 64.3487 31.896C64.0787 31.668 63.7337 31.554 63.3137 31.554C63.0077 31.554 62.7137 31.62 62.4317 31.752C62.1497 31.884 61.9037 32.082 61.6937 32.346C61.4837 32.61 61.3397 32.928 61.2617 33.3H64.7087ZM67.4364 32.067C67.6344 31.725 67.8924 31.461 68.2104 31.275C68.5284 31.089 68.8974 30.996 69.3174 30.996L69.2004 31.653H69.0204C68.5884 31.653 68.2164 31.764 67.9044 31.986C67.5924 32.208 67.3764 32.574 67.2564 33.084L66.7434 36H66.1134L66.9774 31.086H67.6074L67.4364 32.067ZM72.6591 30.996C73.1631 30.996 73.5651 31.134 73.8651 31.41C74.1711 31.68 74.3241 32.076 74.3241 32.598C74.3241 32.79 74.3091 32.964 74.2791 33.12L73.7661 36H73.1451L73.6401 33.192C73.6641 33.054 73.6761 32.907 73.6761 32.751C73.6761 32.355 73.5681 32.055 73.3521 31.851C73.1361 31.647 72.8331 31.545 72.4431 31.545C71.9691 31.545 71.5641 31.695 71.2281 31.995C70.8921 32.295 70.6731 32.736 70.5711 33.318V33.291L70.0941 36H69.4641L70.3281 31.086H70.9581L70.8051 31.932C71.0151 31.632 71.2821 31.401 71.6061 31.239C71.9301 31.077 72.2811 30.996 72.6591 30.996ZM75.3934 33.534C75.4834 33.03 75.6634 32.589 75.9334 32.211C76.2034 31.827 76.5334 31.533 76.9234 31.329C77.3194 31.119 77.7424 31.014 78.1924 31.014C78.6604 31.014 79.0444 31.122 79.3444 31.338C79.6444 31.554 79.8394 31.83 79.9294 32.166L80.1184 31.086H80.7484L79.8844 36H79.2544L79.4434 34.911C79.2394 35.247 78.9454 35.526 78.5614 35.748C78.1834 35.964 77.7604 36.072 77.2924 36.072C76.9024 36.072 76.5604 35.991 76.2664 35.829C75.9724 35.667 75.7444 35.439 75.5824 35.145C75.4204 34.845 75.3394 34.494 75.3394 34.092C75.3394 33.918 75.3574 33.732 75.3934 33.534ZM79.6864 33.543C79.7164 33.375 79.7314 33.225 79.7314 33.093C79.7314 32.625 79.5904 32.253 79.3084 31.977C79.0264 31.701 78.6604 31.563 78.2104 31.563C77.8624 31.563 77.5354 31.641 77.2294 31.797C76.9294 31.953 76.6744 32.181 76.4644 32.481C76.2544 32.775 76.1134 33.126 76.0414 33.534C76.0114 33.714 75.9964 33.867 75.9964 33.993C75.9964 34.467 76.1344 34.842 76.4104 35.118C76.6924 35.388 77.0584 35.523 77.5084 35.523C77.8444 35.523 78.1654 35.442 78.4714 35.28C78.7834 35.118 79.0444 34.887 79.2544 34.587C79.4704 34.287 79.6144 33.939 79.6864 33.543ZM88.1537 30.996C88.6457 30.996 89.0387 31.131 89.3327 31.401C89.6327 31.671 89.7827 32.067 89.7827 32.589C89.7827 32.751 89.7647 32.928 89.7287 33.12L89.2157 36H88.5947L89.0987 33.192C89.1287 33.012 89.1437 32.862 89.1437 32.742C89.1437 32.352 89.0387 32.055 88.8287 31.851C88.6187 31.647 88.3217 31.545 87.9377 31.545C87.5117 31.545 87.1367 31.68 86.8127 31.95C86.4947 32.22 86.2727 32.61 86.1467 33.12L85.6247 36H85.0037L85.5077 33.192C85.5377 33.012 85.5527 32.862 85.5527 32.742C85.5527 32.352 85.4477 32.055 85.2377 31.851C85.0277 31.647 84.7337 31.545 84.3557 31.545C83.8997 31.545 83.5067 31.695 83.1767 31.995C82.8467 32.289 82.6277 32.715 82.5197 33.273L82.0427 36H81.4127L82.2767 31.086H82.9067L82.7537 31.941C82.9577 31.635 83.2187 31.401 83.5367 31.239C83.8607 31.077 84.2027 30.996 84.5627 30.996C84.9887 30.996 85.3427 31.098 85.6247 31.302C85.9067 31.506 86.0837 31.806 86.1557 32.202C86.3537 31.812 86.6327 31.515 86.9927 31.311C87.3527 31.101 87.7397 30.996 88.1537 30.996ZM93.7108 31.014C94.1248 31.014 94.4788 31.095 94.7728 31.257C95.0668 31.413 95.2888 31.629 95.4388 31.905C95.5948 32.181 95.6728 32.496 95.6728 32.85C95.6728 33.012 95.6608 33.156 95.6368 33.282C95.6008 33.462 95.5648 33.624 95.5288 33.768H91.4518C91.4338 33.882 91.4248 33.99 91.4248 34.092C91.4248 34.554 91.5628 34.911 91.8388 35.163C92.1208 35.415 92.4778 35.541 92.9098 35.541C93.3238 35.541 93.6868 35.442 93.9988 35.244C94.3108 35.046 94.5388 34.779 94.6828 34.443H95.3578C95.1538 34.923 94.8268 35.316 94.3768 35.622C93.9328 35.922 93.4138 36.072 92.8198 36.072C92.2078 36.072 91.7158 35.898 91.3438 35.55C90.9778 35.196 90.7948 34.716 90.7948 34.11C90.7948 33.93 90.8128 33.741 90.8488 33.543C90.9388 33.033 91.1188 32.586 91.3888 32.202C91.6648 31.818 92.0038 31.524 92.4058 31.32C92.8078 31.116 93.2428 31.014 93.7108 31.014ZM94.9888 33.3C95.0188 33.132 95.0338 32.991 95.0338 32.877C95.0338 32.451 94.8988 32.124 94.6288 31.896C94.3588 31.668 94.0138 31.554 93.5938 31.554C93.2878 31.554 92.9938 31.62 92.7118 31.752C92.4298 31.884 92.1838 32.082 91.9738 32.346C91.7638 32.61 91.6198 32.928 91.5418 33.3H94.9888ZM101.298 36.072C100.89 36.072 100.53 35.991 100.218 35.829C99.9057 35.661 99.6627 35.427 99.4887 35.127C99.3207 34.821 99.2367 34.464 99.2367 34.056C99.2367 33.504 99.3627 32.997 99.6147 32.535C99.8667 32.067 100.218 31.698 100.668 31.428C101.118 31.152 101.619 31.014 102.171 31.014C102.579 31.014 102.939 31.098 103.251 31.266C103.563 31.428 103.806 31.662 103.98 31.968C104.154 32.268 104.241 32.622 104.241 33.03C104.241 33.588 104.112 34.098 103.854 34.56C103.596 35.022 103.242 35.391 102.792 35.667C102.348 35.937 101.85 36.072 101.298 36.072ZM101.37 35.541C101.796 35.541 102.177 35.427 102.513 35.199C102.855 34.971 103.119 34.668 103.305 34.29C103.497 33.912 103.593 33.504 103.593 33.066C103.593 32.574 103.449 32.199 103.161 31.941C102.879 31.683 102.519 31.554 102.081 31.554C101.655 31.554 101.274 31.668 100.938 31.896C100.608 32.124 100.35 32.427 100.164 32.805C99.9777 33.183 99.8847 33.591 99.8847 34.029C99.8847 34.515 100.026 34.89 100.308 35.154C100.59 35.412 100.944 35.541 101.37 35.541ZM106.325 32.067C106.523 31.725 106.781 31.461 107.099 31.275C107.417 31.089 107.786 30.996 108.206 30.996L108.089 31.653H107.909C107.477 31.653 107.105 31.764 106.793 31.986C106.481 32.208 106.265 32.574 106.145 33.084L105.632 36H105.002L105.866 31.086H106.496L106.325 32.067ZM114.103 31.014C114.517 31.014 114.871 31.095 115.165 31.257C115.459 31.413 115.681 31.629 115.831 31.905C115.987 32.181 116.065 32.496 116.065 32.85C116.065 33.012 116.053 33.156 116.029 33.282C115.993 33.462 115.957 33.624 115.921 33.768H111.844C111.826 33.882 111.817 33.99 111.817 34.092C111.817 34.554 111.955 34.911 112.231 35.163C112.513 35.415 112.87 35.541 113.302 35.541C113.716 35.541 114.079 35.442 114.391 35.244C114.703 35.046 114.931 34.779 115.075 34.443H115.75C115.546 34.923 115.219 35.316 114.769 35.622C114.325 35.922 113.806 36.072 113.212 36.072C112.6 36.072 112.108 35.898 111.736 35.55C111.37 35.196 111.187 34.716 111.187 34.11C111.187 33.93 111.205 33.741 111.241 33.543C111.331 33.033 111.511 32.586 111.781 32.202C112.057 31.818 112.396 31.524 112.798 31.32C113.2 31.116 113.635 31.014 114.103 31.014ZM115.381 33.3C115.411 33.132 115.426 32.991 115.426 32.877C115.426 32.451 115.291 32.124 115.021 31.896C114.751 31.668 114.406 31.554 113.986 31.554C113.68 31.554 113.386 31.62 113.104 31.752C112.822 31.884 112.576 32.082 112.366 32.346C112.156 32.61 112.012 32.928 111.934 33.3H115.381ZM123.527 30.996C124.019 30.996 124.412 31.131 124.706 31.401C125.006 31.671 125.156 32.067 125.156 32.589C125.156 32.751 125.138 32.928 125.102 33.12L124.589 36H123.968L124.472 33.192C124.502 33.012 124.517 32.862 124.517 32.742C124.517 32.352 124.412 32.055 124.202 31.851C123.992 31.647 123.695 31.545 123.311 31.545C122.885 31.545 122.51 31.68 122.186 31.95C121.868 32.22 121.646 32.61 121.52 33.12L120.998 36H120.377L120.881 33.192C120.911 33.012 120.926 32.862 120.926 32.742C120.926 32.352 120.821 32.055 120.611 31.851C120.401 31.647 120.107 31.545 119.729 31.545C119.273 31.545 118.88 31.695 118.55 31.995C118.22 32.289 118.001 32.715 117.893 33.273L117.416 36H116.786L117.65 31.086H118.28L118.127 31.941C118.331 31.635 118.592 31.401 118.91 31.239C119.234 31.077 119.576 30.996 119.936 30.996C120.362 30.996 120.716 31.098 120.998 31.302C121.28 31.506 121.457 31.806 121.529 32.202C121.727 31.812 122.006 31.515 122.366 31.311C122.726 31.101 123.113 30.996 123.527 30.996ZM126.222 33.534C126.312 33.03 126.492 32.589 126.762 32.211C127.032 31.827 127.362 31.533 127.752 31.329C128.148 31.119 128.571 31.014 129.021 31.014C129.489 31.014 129.873 31.122 130.173 31.338C130.473 31.554 130.668 31.83 130.758 32.166L130.947 31.086H131.577L130.713 36H130.083L130.272 34.911C130.068 35.247 129.774 35.526 129.39 35.748C129.012 35.964 128.589 36.072 128.121 36.072C127.731 36.072 127.389 35.991 127.095 35.829C126.801 35.667 126.573 35.439 126.411 35.145C126.249 34.845 126.168 34.494 126.168 34.092C126.168 33.918 126.186 33.732 126.222 33.534ZM130.515 33.543C130.545 33.375 130.56 33.225 130.56 33.093C130.56 32.625 130.419 32.253 130.137 31.977C129.855 31.701 129.489 31.563 129.039 31.563C128.691 31.563 128.364 31.641 128.058 31.797C127.758 31.953 127.503 32.181 127.293 32.481C127.083 32.775 126.942 33.126 126.87 33.534C126.84 33.714 126.825 33.867 126.825 33.993C126.825 34.467 126.963 34.842 127.239 35.118C127.521 35.388 127.887 35.523 128.337 35.523C128.673 35.523 128.994 35.442 129.3 35.28C129.612 35.118 129.873 34.887 130.083 34.587C130.299 34.287 130.443 33.939 130.515 33.543ZM133.591 30.159C133.477 30.159 133.384 30.126 133.312 30.06C133.24 29.988 133.204 29.895 133.204 29.781C133.204 29.625 133.258 29.496 133.366 29.394C133.474 29.286 133.603 29.232 133.753 29.232C133.867 29.232 133.957 29.265 134.023 29.331C134.095 29.397 134.131 29.484 134.131 29.592C134.131 29.748 134.077 29.883 133.969 29.997C133.861 30.105 133.735 30.159 133.591 30.159ZM133.735 31.086L132.871 36H132.241L133.105 31.086H133.735ZM136.197 29.34L135.018 36H134.388L135.567 29.34H136.197ZM139.423 33.534C139.513 33.03 139.693 32.589 139.963 32.211C140.233 31.827 140.563 31.533 140.953 31.329C141.349 31.119 141.772 31.014 142.222 31.014C142.69 31.014 143.074 31.122 143.374 31.338C143.674 31.554 143.869 31.83 143.959 32.166L144.148 31.086H144.778L143.914 36H143.284L143.473 34.911C143.269 35.247 142.975 35.526 142.591 35.748C142.213 35.964 141.79 36.072 141.322 36.072C140.932 36.072 140.59 35.991 140.296 35.829C140.002 35.667 139.774 35.439 139.612 35.145C139.45 34.845 139.369 34.494 139.369 34.092C139.369 33.918 139.387 33.732 139.423 33.534ZM143.716 33.543C143.746 33.375 143.761 33.225 143.761 33.093C143.761 32.625 143.62 32.253 143.338 31.977C143.056 31.701 142.69 31.563 142.24 31.563C141.892 31.563 141.565 31.641 141.259 31.797C140.959 31.953 140.704 32.181 140.494 32.481C140.284 32.775 140.143 33.126 140.071 33.534C140.041 33.714 140.026 33.867 140.026 33.993C140.026 34.467 140.164 34.842 140.44 35.118C140.722 35.388 141.088 35.523 141.538 35.523C141.874 35.523 142.195 35.442 142.501 35.28C142.813 35.118 143.074 34.887 143.284 34.587C143.5 34.287 143.644 33.939 143.716 33.543ZM145.586 33.534C145.676 33.03 145.856 32.589 146.126 32.211C146.396 31.827 146.729 31.533 147.125 31.329C147.521 31.119 147.944 31.014 148.394 31.014C148.826 31.014 149.195 31.119 149.501 31.329C149.813 31.539 150.023 31.812 150.131 32.148L150.626 29.34H151.256L150.077 36H149.447L149.645 34.902C149.429 35.244 149.132 35.526 148.754 35.748C148.376 35.964 147.956 36.072 147.494 36.072C146.9 36.072 146.423 35.895 146.063 35.541C145.709 35.181 145.532 34.698 145.532 34.092C145.532 33.918 145.55 33.732 145.586 33.534ZM149.879 33.543C149.909 33.375 149.924 33.225 149.924 33.093C149.924 32.625 149.783 32.253 149.501 31.977C149.219 31.701 148.853 31.563 148.403 31.563C148.055 31.563 147.728 31.641 147.422 31.797C147.122 31.953 146.867 32.181 146.657 32.481C146.447 32.775 146.306 33.126 146.234 33.534C146.204 33.714 146.189 33.867 146.189 33.993C146.189 34.467 146.327 34.842 146.603 35.118C146.885 35.388 147.251 35.523 147.701 35.523C148.037 35.523 148.358 35.442 148.664 35.28C148.976 35.118 149.237 34.887 149.447 34.587C149.663 34.287 149.807 33.939 149.879 33.543ZM151.749 33.534C151.839 33.03 152.019 32.589 152.289 32.211C152.559 31.827 152.892 31.533 153.288 31.329C153.684 31.119 154.107 31.014 154.557 31.014C154.989 31.014 155.358 31.119 155.664 31.329C155.976 31.539 156.186 31.812 156.294 32.148L156.789 29.34H157.419L156.24 36H155.61L155.808 34.902C155.592 35.244 155.295 35.526 154.917 35.748C154.539 35.964 154.119 36.072 153.657 36.072C153.063 36.072 152.586 35.895 152.226 35.541C151.872 35.181 151.695 34.698 151.695 34.092C151.695 33.918 151.713 33.732 151.749 33.534ZM156.042 33.543C156.072 33.375 156.087 33.225 156.087 33.093C156.087 32.625 155.946 32.253 155.664 31.977C155.382 31.701 155.016 31.563 154.566 31.563C154.218 31.563 153.891 31.641 153.585 31.797C153.285 31.953 153.03 32.181 152.82 32.481C152.61 32.775 152.469 33.126 152.397 33.534C152.367 33.714 152.352 33.867 152.352 33.993C152.352 34.467 152.49 34.842 152.766 35.118C153.048 35.388 153.414 35.523 153.864 35.523C154.2 35.523 154.521 35.442 154.827 35.28C155.139 35.118 155.4 34.887 155.61 34.587C155.826 34.287 155.97 33.939 156.042 33.543ZM159.092 32.067C159.29 31.725 159.548 31.461 159.866 31.275C160.184 31.089 160.553 30.996 160.973 30.996L160.856 31.653H160.676C160.244 31.653 159.872 31.764 159.56 31.986C159.248 32.208 159.032 32.574 158.912 33.084L158.399 36H157.769L158.633 31.086H159.263L159.092 32.067ZM164.125 31.014C164.539 31.014 164.893 31.095 165.187 31.257C165.481 31.413 165.703 31.629 165.853 31.905C166.009 32.181 166.087 32.496 166.087 32.85C166.087 33.012 166.075 33.156 166.051 33.282C166.015 33.462 165.979 33.624 165.943 33.768H161.866C161.848 33.882 161.839 33.99 161.839 34.092C161.839 34.554 161.977 34.911 162.253 35.163C162.535 35.415 162.892 35.541 163.324 35.541C163.738 35.541 164.101 35.442 164.413 35.244C164.725 35.046 164.953 34.779 165.097 34.443H165.772C165.568 34.923 165.241 35.316 164.791 35.622C164.347 35.922 163.828 36.072 163.234 36.072C162.622 36.072 162.13 35.898 161.758 35.55C161.392 35.196 161.209 34.716 161.209 34.11C161.209 33.93 161.227 33.741 161.263 33.543C161.353 33.033 161.533 32.586 161.803 32.202C162.079 31.818 162.418 31.524 162.82 31.32C163.222 31.116 163.657 31.014 164.125 31.014ZM165.403 33.3C165.433 33.132 165.448 32.991 165.448 32.877C165.448 32.451 165.313 32.124 165.043 31.896C164.773 31.668 164.428 31.554 164.008 31.554C163.702 31.554 163.408 31.62 163.126 31.752C162.844 31.884 162.598 32.082 162.388 32.346C162.178 32.61 162.034 32.928 161.956 33.3H165.403ZM168.446 36.072C167.948 36.072 167.543 35.958 167.231 35.73C166.919 35.496 166.763 35.178 166.763 34.776C166.763 34.704 166.766 34.65 166.772 34.614H167.384C167.36 34.902 167.444 35.133 167.636 35.307C167.828 35.481 168.11 35.568 168.482 35.568C168.86 35.568 169.163 35.49 169.391 35.334C169.619 35.172 169.733 34.959 169.733 34.695C169.733 34.539 169.685 34.407 169.589 34.299C169.493 34.191 169.373 34.104 169.229 34.038C169.091 33.966 168.896 33.885 168.644 33.795C168.332 33.681 168.08 33.576 167.888 33.48C167.702 33.378 167.54 33.24 167.402 33.066C167.27 32.886 167.204 32.661 167.204 32.391C167.204 32.121 167.282 31.881 167.438 31.671C167.594 31.461 167.807 31.299 168.077 31.185C168.353 31.071 168.665 31.014 169.013 31.014C169.499 31.014 169.895 31.134 170.201 31.374C170.513 31.614 170.669 31.932 170.669 32.328C170.669 32.412 170.666 32.475 170.66 32.517H170.066C170.072 32.493 170.075 32.454 170.075 32.4C170.075 32.136 169.97 31.923 169.76 31.761C169.556 31.599 169.292 31.518 168.968 31.518C168.644 31.518 168.374 31.596 168.158 31.752C167.948 31.902 167.843 32.106 167.843 32.364C167.843 32.538 167.894 32.685 167.996 32.805C168.098 32.919 168.224 33.012 168.374 33.084C168.524 33.156 168.725 33.24 168.977 33.336C169.277 33.45 169.517 33.555 169.697 33.651C169.883 33.747 170.039 33.879 170.165 34.047C170.291 34.215 170.354 34.425 170.354 34.677C170.354 35.103 170.177 35.442 169.823 35.694C169.469 35.946 169.01 36.072 168.446 36.072ZM173.124 36.072C172.626 36.072 172.221 35.958 171.909 35.73C171.597 35.496 171.441 35.178 171.441 34.776C171.441 34.704 171.444 34.65 171.45 34.614H172.062C172.038 34.902 172.122 35.133 172.314 35.307C172.506 35.481 172.788 35.568 173.16 35.568C173.538 35.568 173.841 35.49 174.069 35.334C174.297 35.172 174.411 34.959 174.411 34.695C174.411 34.539 174.363 34.407 174.267 34.299C174.171 34.191 174.051 34.104 173.907 34.038C173.769 33.966 173.574 33.885 173.322 33.795C173.01 33.681 172.758 33.576 172.566 33.48C172.38 33.378 172.218 33.24 172.08 33.066C171.948 32.886 171.882 32.661 171.882 32.391C171.882 32.121 171.96 31.881 172.116 31.671C172.272 31.461 172.485 31.299 172.755 31.185C173.031 31.071 173.343 31.014 173.691 31.014C174.177 31.014 174.573 31.134 174.879 31.374C175.191 31.614 175.347 31.932 175.347 32.328C175.347 32.412 175.344 32.475 175.338 32.517H174.744C174.75 32.493 174.753 32.454 174.753 32.4C174.753 32.136 174.648 31.923 174.438 31.761C174.234 31.599 173.97 31.518 173.646 31.518C173.322 31.518 173.052 31.596 172.836 31.752C172.626 31.902 172.521 32.106 172.521 32.364C172.521 32.538 172.572 32.685 172.674 32.805C172.776 32.919 172.902 33.012 173.052 33.084C173.202 33.156 173.403 33.24 173.655 33.336C173.955 33.45 174.195 33.555 174.375 33.651C174.561 33.747 174.717 33.879 174.843 34.047C174.969 34.215 175.032 34.425 175.032 34.677C175.032 35.103 174.855 35.442 174.501 35.694C174.147 35.946 173.688 36.072 173.124 36.072Z" fill="black" fill-opacity="0.31"/>
<path d="M7.14 75.144C7.068 75.568 6.896 75.968 6.624 76.344C6.36 76.72 5.988 77.028 5.508 77.268C5.028 77.5 4.444 77.616 3.756 77.616H2.244L1.644 81H0.276L1.752 72.66H4.632C5.472 72.66 6.108 72.848 6.54 73.224C6.972 73.592 7.188 74.076 7.188 74.676C7.188 74.78 7.172 74.936 7.14 75.144ZM3.948 76.548C4.468 76.548 4.876 76.424 5.172 76.176C5.476 75.928 5.664 75.584 5.736 75.144C5.76 75.024 5.772 74.908 5.772 74.796C5.772 74.46 5.66 74.2 5.436 74.016C5.22 73.824 4.888 73.728 4.44 73.728H2.928L2.436 76.548H3.948ZM7.54472 77.664C7.66472 77 7.90472 76.412 8.26472 75.9C8.63272 75.388 9.08072 74.992 9.60872 74.712C10.1367 74.424 10.6887 74.28 11.2647 74.28C11.7847 74.28 12.2207 74.384 12.5727 74.592C12.9247 74.792 13.1887 75.044 13.3647 75.348L13.5327 74.388H14.9127L13.7487 81H12.3687L12.5487 80.016C12.2607 80.328 11.8967 80.588 11.4567 80.796C11.0247 81.004 10.5527 81.108 10.0407 81.108C9.54472 81.108 9.10072 80.996 8.70872 80.772C8.32472 80.548 8.02072 80.232 7.79672 79.824C7.58072 79.408 7.47272 78.932 7.47272 78.396C7.47272 78.156 7.49672 77.912 7.54472 77.664ZM12.9567 77.688C12.9887 77.536 13.0047 77.372 13.0047 77.196C13.0047 76.66 12.8447 76.24 12.5247 75.936C12.2127 75.624 11.8207 75.468 11.3487 75.468C10.9967 75.468 10.6527 75.556 10.3167 75.732C9.98072 75.9 9.68872 76.152 9.44072 76.488C9.19272 76.816 9.02872 77.208 8.94872 77.664C8.91672 77.816 8.90072 77.98 8.90072 78.156C8.90072 78.7 9.05672 79.132 9.36872 79.452C9.68872 79.764 10.0847 79.92 10.5567 79.92C10.9087 79.92 11.2527 79.832 11.5887 79.656C11.9247 79.48 12.2167 79.224 12.4647 78.888C12.7127 78.544 12.8767 78.144 12.9567 77.688ZM17.9815 81.108C17.5255 81.108 17.1095 81.032 16.7335 80.88C16.3575 80.72 16.0615 80.5 15.8455 80.22C15.6295 79.932 15.5215 79.604 15.5215 79.236C15.5215 79.172 15.5295 79.084 15.5455 78.972H16.8775C16.8455 79.276 16.9375 79.528 17.1535 79.728C17.3695 79.928 17.6735 80.028 18.0655 80.028C18.4495 80.028 18.7655 79.96 19.0135 79.824C19.2615 79.688 19.3855 79.488 19.3855 79.224C19.3855 79 19.2815 78.82 19.0735 78.684C18.8735 78.548 18.5495 78.396 18.1015 78.228C17.6775 78.06 17.3335 77.904 17.0695 77.76C16.8055 77.616 16.5775 77.42 16.3855 77.172C16.1935 76.916 16.0975 76.6 16.0975 76.224C16.0975 75.84 16.2055 75.504 16.4215 75.216C16.6455 74.92 16.9535 74.692 17.3455 74.532C17.7455 74.364 18.2015 74.28 18.7135 74.28C19.1775 74.28 19.5895 74.36 19.9495 74.52C20.3175 74.672 20.6015 74.892 20.8015 75.18C21.0095 75.46 21.1135 75.784 21.1135 76.152C21.1135 76.264 21.1095 76.348 21.1015 76.404H19.8055C19.8375 76.092 19.7455 75.84 19.5295 75.648C19.3215 75.456 19.0215 75.36 18.6295 75.36C18.2855 75.36 18.0055 75.432 17.7895 75.576C17.5815 75.72 17.4775 75.916 17.4775 76.164C17.4775 76.412 17.5855 76.612 17.8015 76.764C18.0175 76.908 18.3495 77.068 18.7975 77.244C19.2055 77.404 19.5375 77.556 19.7935 77.7C20.0495 77.844 20.2695 78.036 20.4535 78.276C20.6375 78.516 20.7295 78.816 20.7295 79.176C20.7295 79.568 20.6095 79.912 20.3695 80.208C20.1375 80.496 19.8135 80.72 19.3975 80.88C18.9815 81.032 18.5095 81.108 17.9815 81.108ZM24.3917 81.108C23.9357 81.108 23.5197 81.032 23.1437 80.88C22.7677 80.72 22.4717 80.5 22.2557 80.22C22.0397 79.932 21.9317 79.604 21.9317 79.236C21.9317 79.172 21.9397 79.084 21.9557 78.972H23.2877C23.2557 79.276 23.3477 79.528 23.5637 79.728C23.7797 79.928 24.0837 80.028 24.4757 80.028C24.8597 80.028 25.1757 79.96 25.4237 79.824C25.6717 79.688 25.7957 79.488 25.7957 79.224C25.7957 79 25.6917 78.82 25.4837 78.684C25.2837 78.548 24.9597 78.396 24.5117 78.228C24.0877 78.06 23.7437 77.904 23.4797 77.76C23.2157 77.616 22.9877 77.42 22.7957 77.172C22.6037 76.916 22.5077 76.6 22.5077 76.224C22.5077 75.84 22.6157 75.504 22.8317 75.216C23.0557 74.92 23.3637 74.692 23.7557 74.532C24.1557 74.364 24.6117 74.28 25.1237 74.28C25.5877 74.28 25.9997 74.36 26.3597 74.52C26.7277 74.672 27.0117 74.892 27.2117 75.18C27.4197 75.46 27.5237 75.784 27.5237 76.152C27.5237 76.264 27.5197 76.348 27.5117 76.404H26.2157C26.2477 76.092 26.1557 75.84 25.9397 75.648C25.7317 75.456 25.4317 75.36 25.0397 75.36C24.6957 75.36 24.4157 75.432 24.1997 75.576C23.9917 75.72 23.8877 75.916 23.8877 76.164C23.8877 76.412 23.9957 76.612 24.2117 76.764C24.4277 76.908 24.7597 77.068 25.2077 77.244C25.6157 77.404 25.9477 77.556 26.2037 77.7C26.4597 77.844 26.6797 78.036 26.8637 78.276C27.0477 78.516 27.1397 78.816 27.1397 79.176C27.1397 79.568 27.0197 79.912 26.7797 80.208C26.5477 80.496 26.2237 80.72 25.8077 80.88C25.3917 81.032 24.9197 81.108 24.3917 81.108ZM38.4098 74.388L35.1938 81H33.7538L33.2978 76.116L31.0898 81H29.6498L28.7498 74.388H30.1418L30.5978 79.704L32.9258 74.388H34.3538L34.7738 79.68L37.0658 74.388H38.4098ZM41.1602 81.108C40.6002 81.108 40.1082 80.992 39.6842 80.76C39.2602 80.528 38.9282 80.2 38.6882 79.776C38.4562 79.352 38.3402 78.868 38.3402 78.324C38.3402 77.58 38.5122 76.9 38.8562 76.284C39.2082 75.668 39.6882 75.18 40.2962 74.82C40.9122 74.46 41.5962 74.28 42.3482 74.28C42.9082 74.28 43.4042 74.4 43.8362 74.64C44.2682 74.872 44.6042 75.2 44.8442 75.624C45.0922 76.04 45.2162 76.524 45.2162 77.076C45.2162 77.82 45.0362 78.5 44.6762 79.116C44.3162 79.732 43.8282 80.22 43.2122 80.58C42.5962 80.932 41.9122 81.108 41.1602 81.108ZM41.3282 79.956C41.7842 79.956 42.2002 79.828 42.5762 79.572C42.9602 79.308 43.2602 78.964 43.4762 78.54C43.6922 78.108 43.8002 77.648 43.8002 77.16C43.8002 76.608 43.6442 76.184 43.3322 75.888C43.0202 75.584 42.6282 75.432 42.1562 75.432C41.6922 75.432 41.2762 75.564 40.9082 75.828C40.5482 76.084 40.2642 76.432 40.0562 76.872C39.8562 77.304 39.7562 77.768 39.7562 78.264C39.7562 78.8 39.9002 79.216 40.1882 79.512C40.4842 79.808 40.8642 79.956 41.3282 79.956ZM48.2485 75.552C48.5205 75.152 48.8405 74.84 49.2085 74.616C49.5845 74.392 50.0005 74.28 50.4565 74.28L50.2045 75.696H49.8565C49.3285 75.696 48.9045 75.828 48.5845 76.092C48.2645 76.356 48.0405 76.812 47.9125 77.46L47.2885 81H45.9205L47.0845 74.388H48.4525L48.2485 75.552ZM50.658 77.664C50.778 77 51.018 76.412 51.378 75.9C51.746 75.388 52.194 74.992 52.722 74.712C53.25 74.424 53.806 74.28 54.39 74.28C54.822 74.28 55.23 74.376 55.614 74.568C55.998 74.752 56.29 75 56.49 75.312L57.054 72.12H58.434L56.862 81H55.482L55.662 80.004C55.374 80.332 55.014 80.6 54.582 80.808C54.158 81.008 53.69 81.108 53.178 81.108C52.674 81.108 52.226 80.996 51.834 80.772C51.442 80.548 51.134 80.232 50.91 79.824C50.694 79.408 50.586 78.932 50.586 78.396C50.586 78.156 50.61 77.912 50.658 77.664ZM56.07 77.688C56.102 77.536 56.118 77.372 56.118 77.196C56.118 76.66 55.958 76.24 55.638 75.936C55.326 75.624 54.934 75.468 54.462 75.468C54.11 75.468 53.766 75.556 53.43 75.732C53.094 75.9 52.802 76.152 52.554 76.488C52.306 76.816 52.142 77.208 52.062 77.664C52.03 77.816 52.014 77.98 52.014 78.156C52.014 78.7 52.17 79.132 52.482 79.452C52.802 79.764 53.198 79.92 53.67 79.92C54.022 79.92 54.366 79.832 54.702 79.656C55.038 79.48 55.33 79.224 55.578 78.888C55.826 78.544 55.99 78.144 56.07 77.688Z" fill="black" fill-opacity="0.51"/>
<rect x="0.125" y="88.125" width="247.75" height="36.75" rx="18.375" stroke="black" stroke-width="0.25"/>
<path d="M25.276 103.014C25.69 103.014 26.044 103.095 26.338 103.257C26.632 103.413 26.854 103.629 27.004 103.905C27.16 104.181 27.238 104.496 27.238 104.85C27.238 105.012 27.226 105.156 27.202 105.282C27.166 105.462 27.13 105.624 27.094 105.768H23.017C22.999 105.882 22.99 105.99 22.99 106.092C22.99 106.554 23.128 106.911 23.404 107.163C23.686 107.415 24.043 107.541 24.475 107.541C24.889 107.541 25.252 107.442 25.564 107.244C25.876 107.046 26.104 106.779 26.248 106.443H26.923C26.719 106.923 26.392 107.316 25.942 107.622C25.498 107.922 24.979 108.072 24.385 108.072C23.773 108.072 23.281 107.898 22.909 107.55C22.543 107.196 22.36 106.716 22.36 106.11C22.36 105.93 22.378 105.741 22.414 105.543C22.504 105.033 22.684 104.586 22.954 104.202C23.23 103.818 23.569 103.524 23.971 103.32C24.373 103.116 24.808 103.014 25.276 103.014ZM26.554 105.3C26.584 105.132 26.599 104.991 26.599 104.877C26.599 104.451 26.464 104.124 26.194 103.896C25.924 103.668 25.579 103.554 25.159 103.554C24.853 103.554 24.559 103.62 24.277 103.752C23.995 103.884 23.749 104.082 23.539 104.346C23.329 104.61 23.185 104.928 23.107 105.3H26.554ZM31.1536 102.996C31.6576 102.996 32.0596 103.134 32.3596 103.41C32.6656 103.68 32.8186 104.076 32.8186 104.598C32.8186 104.79 32.8036 104.964 32.7736 105.12L32.2606 108H31.6396L32.1346 105.192C32.1586 105.054 32.1706 104.907 32.1706 104.751C32.1706 104.355 32.0626 104.055 31.8466 103.851C31.6306 103.647 31.3276 103.545 30.9376 103.545C30.4636 103.545 30.0586 103.695 29.7226 103.995C29.3866 104.295 29.1676 104.736 29.0656 105.318V105.291L28.5886 108H27.9586L28.8226 103.086H29.4526L29.2996 103.932C29.5096 103.632 29.7766 103.401 30.1006 103.239C30.4246 103.077 30.7756 102.996 31.1536 102.996ZM34.7879 106.668C34.7699 106.776 34.7609 106.869 34.7609 106.947C34.7609 107.139 34.8119 107.274 34.9139 107.352C35.0219 107.424 35.1959 107.46 35.4359 107.46H36.0119L35.9129 108H35.2379C34.8659 108 34.5869 107.928 34.4009 107.784C34.2149 107.64 34.1219 107.403 34.1219 107.073C34.1219 106.941 34.1339 106.806 34.1579 106.668L34.6979 103.617H34.0139L34.1129 103.086H34.7969L35.0129 101.853H35.6429L35.4269 103.086H36.7859L36.6869 103.617H35.3279L34.7879 106.668ZM40.048 103.014C40.462 103.014 40.816 103.095 41.11 103.257C41.404 103.413 41.626 103.629 41.776 103.905C41.932 104.181 42.01 104.496 42.01 104.85C42.01 105.012 41.998 105.156 41.974 105.282C41.938 105.462 41.902 105.624 41.866 105.768H37.789C37.771 105.882 37.762 105.99 37.762 106.092C37.762 106.554 37.9 106.911 38.176 107.163C38.458 107.415 38.815 107.541 39.247 107.541C39.661 107.541 40.024 107.442 40.336 107.244C40.648 107.046 40.876 106.779 41.02 106.443H41.695C41.491 106.923 41.164 107.316 40.714 107.622C40.27 107.922 39.751 108.072 39.157 108.072C38.545 108.072 38.053 107.898 37.681 107.55C37.315 107.196 37.132 106.716 37.132 106.11C37.132 105.93 37.15 105.741 37.186 105.543C37.276 105.033 37.456 104.586 37.726 104.202C38.002 103.818 38.341 103.524 38.743 103.32C39.145 103.116 39.58 103.014 40.048 103.014ZM41.326 105.3C41.356 105.132 41.371 104.991 41.371 104.877C41.371 104.451 41.236 104.124 40.966 103.896C40.696 103.668 40.351 103.554 39.931 103.554C39.625 103.554 39.331 103.62 39.049 103.752C38.767 103.884 38.521 104.082 38.311 104.346C38.101 104.61 37.957 104.928 37.879 105.3H41.326ZM44.0536 104.067C44.2516 103.725 44.5096 103.461 44.8276 103.275C45.1456 103.089 45.5146 102.996 45.9346 102.996L45.8176 103.653H45.6376C45.2056 103.653 44.8336 103.764 44.5216 103.986C44.2096 104.208 43.9936 104.574 43.8736 105.084L43.3606 108H42.7306L43.5946 103.086H44.2246L44.0536 104.067ZM49.8066 103.086L50.7336 107.253L53.0826 103.086H53.7396L49.5546 110.313H48.8886L50.2566 107.964L49.1046 103.086H49.8066ZM55.9799 108.072C55.5719 108.072 55.2119 107.991 54.8999 107.829C54.5879 107.661 54.3449 107.427 54.1709 107.127C54.0029 106.821 53.9189 106.464 53.9189 106.056C53.9189 105.504 54.0449 104.997 54.2969 104.535C54.5489 104.067 54.8999 103.698 55.3499 103.428C55.7999 103.152 56.3009 103.014 56.8529 103.014C57.2609 103.014 57.6209 103.098 57.9329 103.266C58.2449 103.428 58.4879 103.662 58.6619 103.968C58.8359 104.268 58.9229 104.622 58.9229 105.03C58.9229 105.588 58.7939 106.098 58.5359 106.56C58.2779 107.022 57.9239 107.391 57.4739 107.667C57.0299 107.937 56.5319 108.072 55.9799 108.072ZM56.0519 107.541C56.4779 107.541 56.8589 107.427 57.1949 107.199C57.5369 106.971 57.8009 106.668 57.9869 106.29C58.1789 105.912 58.2749 105.504 58.2749 105.066C58.2749 104.574 58.1309 104.199 57.8429 103.941C57.5609 103.683 57.2009 103.554 56.7629 103.554C56.3369 103.554 55.9559 103.668 55.6199 103.896C55.2899 104.124 55.0319 104.427 54.8459 104.805C54.6599 105.183 54.5669 105.591 54.5669 106.029C54.5669 106.515 54.7079 106.89 54.9899 107.154C55.2719 107.412 55.6259 107.541 56.0519 107.541ZM64.8053 103.086L63.9413 108H63.3113L63.4643 107.136C63.2603 107.442 62.9963 107.676 62.6723 107.838C62.3483 108 62.0003 108.081 61.6283 108.081C61.1243 108.081 60.7193 107.946 60.4133 107.676C60.1073 107.4 59.9543 107.001 59.9543 106.479C59.9543 106.287 59.9693 106.113 59.9993 105.957L60.5033 103.086H61.1243L60.6293 105.885C60.6053 106.023 60.5933 106.167 60.5933 106.317C60.5933 106.713 60.7013 107.016 60.9173 107.226C61.1393 107.43 61.4453 107.532 61.8353 107.532C62.2913 107.532 62.6843 107.394 63.0143 107.118C63.3443 106.836 63.5663 106.425 63.6803 105.885L64.1753 103.086H64.8053ZM66.7926 104.067C66.9906 103.725 67.2486 103.461 67.5666 103.275C67.8846 103.089 68.2536 102.996 68.6736 102.996L68.5567 103.653H68.3766C67.9446 103.653 67.5726 103.764 67.2606 103.986C66.9486 104.208 66.7326 104.574 66.6126 105.084L66.0996 108H65.4696L66.3336 103.086H66.9636L66.7926 104.067ZM72.8697 104.166C73.0737 103.836 73.3647 103.563 73.7427 103.347C74.1267 103.125 74.5497 103.014 75.0117 103.014C75.6057 103.014 76.0797 103.191 76.4337 103.545C76.7937 103.893 76.9737 104.37 76.9737 104.976C76.9737 105.15 76.9557 105.336 76.9197 105.534C76.8297 106.038 76.6497 106.482 76.3797 106.866C76.1097 107.25 75.7767 107.547 75.3807 107.757C74.9907 107.967 74.5707 108.072 74.1207 108.072C73.6587 108.072 73.2777 107.964 72.9777 107.748C72.6777 107.526 72.4767 107.25 72.3747 106.92L71.7807 110.322H71.1507L72.4287 103.086H73.0587L72.8697 104.166ZM76.2807 105.534C76.3107 105.354 76.3257 105.201 76.3257 105.075C76.3257 104.601 76.1847 104.232 75.9027 103.968C75.6267 103.698 75.2607 103.563 74.8047 103.563C74.4687 103.563 74.1477 103.644 73.8417 103.806C73.5357 103.968 73.2747 104.199 73.0587 104.499C72.8427 104.799 72.6987 105.147 72.6267 105.543C72.5967 105.711 72.5817 105.861 72.5817 105.993C72.5817 106.461 72.7227 106.833 73.0047 107.109C73.2867 107.385 73.6527 107.523 74.1027 107.523C74.4507 107.523 74.7747 107.445 75.0747 107.289C75.3807 107.127 75.6387 106.896 75.8487 106.596C76.0647 106.29 76.2087 105.936 76.2807 105.534ZM77.8719 105.534C77.9619 105.03 78.1419 104.589 78.4119 104.211C78.6819 103.827 79.0119 103.533 79.4019 103.329C79.7979 103.119 80.2209 103.014 80.6709 103.014C81.1389 103.014 81.5229 103.122 81.8229 103.338C82.1229 103.554 82.3179 103.83 82.4079 104.166L82.5969 103.086H83.2269L82.3629 108H81.7329L81.9219 106.911C81.7179 107.247 81.4239 107.526 81.0399 107.748C80.6619 107.964 80.2389 108.072 79.7709 108.072C79.3809 108.072 79.0389 107.991 78.7449 107.829C78.4509 107.667 78.2229 107.439 78.0609 107.145C77.8989 106.845 77.8179 106.494 77.8179 106.092C77.8179 105.918 77.8359 105.732 77.8719 105.534ZM82.1649 105.543C82.1949 105.375 82.2099 105.225 82.2099 105.093C82.2099 104.625 82.0689 104.253 81.7869 103.977C81.5049 103.701 81.1389 103.563 80.6889 103.563C80.3409 103.563 80.0139 103.641 79.7079 103.797C79.4079 103.953 79.1529 104.181 78.9429 104.481C78.7329 104.775 78.5919 105.126 78.5199 105.534C78.4899 105.714 78.4749 105.867 78.4749 105.993C78.4749 106.467 78.6129 106.842 78.8889 107.118C79.1709 107.388 79.5369 107.523 79.9869 107.523C80.3229 107.523 80.6439 107.442 80.9499 107.28C81.2619 107.118 81.5229 106.887 81.7329 106.587C81.9489 106.287 82.0929 105.939 82.1649 105.543ZM85.5292 108.072C85.0312 108.072 84.6262 107.958 84.3142 107.73C84.0022 107.496 83.8462 107.178 83.8462 106.776C83.8462 106.704 83.8492 106.65 83.8552 106.614H84.4672C84.4432 106.902 84.5272 107.133 84.7192 107.307C84.9112 107.481 85.1932 107.568 85.5652 107.568C85.9432 107.568 86.2462 107.49 86.4742 107.334C86.7022 107.172 86.8162 106.959 86.8162 106.695C86.8162 106.539 86.7682 106.407 86.6722 106.299C86.5762 106.191 86.4562 106.104 86.3122 106.038C86.1742 105.966 85.9792 105.885 85.7272 105.795C85.4152 105.681 85.1632 105.576 84.9712 105.48C84.7852 105.378 84.6232 105.24 84.4852 105.066C84.3532 104.886 84.2872 104.661 84.2872 104.391C84.2872 104.121 84.3652 103.881 84.5212 103.671C84.6772 103.461 84.8902 103.299 85.1602 103.185C85.4362 103.071 85.7482 103.014 86.0962 103.014C86.5822 103.014 86.9782 103.134 87.2842 103.374C87.5962 103.614 87.7522 103.932 87.7522 104.328C87.7522 104.412 87.7492 104.475 87.7432 104.517H87.1492C87.1552 104.493 87.1582 104.454 87.1582 104.4C87.1582 104.136 87.0532 103.923 86.8432 103.761C86.6392 103.599 86.3752 103.518 86.0512 103.518C85.7272 103.518 85.4572 103.596 85.2412 103.752C85.0312 103.902 84.9262 104.106 84.9262 104.364C84.9262 104.538 84.9772 104.685 85.0792 104.805C85.1812 104.919 85.3072 105.012 85.4572 105.084C85.6072 105.156 85.8082 105.24 86.0602 105.336C86.3602 105.45 86.6002 105.555 86.7802 105.651C86.9662 105.747 87.1222 105.879 87.2482 106.047C87.3742 106.215 87.4372 106.425 87.4372 106.677C87.4372 107.103 87.2602 107.442 86.9062 107.694C86.5522 107.946 86.0932 108.072 85.5292 108.072ZM90.2071 108.072C89.7091 108.072 89.3041 107.958 88.9921 107.73C88.6801 107.496 88.5241 107.178 88.5241 106.776C88.5241 106.704 88.5271 106.65 88.5331 106.614H89.1451C89.1211 106.902 89.2051 107.133 89.3971 107.307C89.5891 107.481 89.8711 107.568 90.2431 107.568C90.6211 107.568 90.9241 107.49 91.1521 107.334C91.3801 107.172 91.4941 106.959 91.4941 106.695C91.4941 106.539 91.4461 106.407 91.3501 106.299C91.2541 106.191 91.1341 106.104 90.9901 106.038C90.8521 105.966 90.6571 105.885 90.4051 105.795C90.0931 105.681 89.8411 105.576 89.6491 105.48C89.4631 105.378 89.3011 105.24 89.1631 105.066C89.0311 104.886 88.9651 104.661 88.9651 104.391C88.9651 104.121 89.0431 103.881 89.1991 103.671C89.3551 103.461 89.5681 103.299 89.8381 103.185C90.1141 103.071 90.4261 103.014 90.7741 103.014C91.2601 103.014 91.6561 103.134 91.9621 103.374C92.2741 103.614 92.4301 103.932 92.4301 104.328C92.4301 104.412 92.4271 104.475 92.4211 104.517H91.8271C91.8331 104.493 91.8361 104.454 91.8361 104.4C91.8361 104.136 91.7311 103.923 91.5211 103.761C91.3171 103.599 91.0531 103.518 90.7291 103.518C90.4051 103.518 90.1351 103.596 89.9191 103.752C89.7091 103.902 89.6041 104.106 89.6041 104.364C89.6041 104.538 89.6551 104.685 89.7571 104.805C89.8591 104.919 89.9851 105.012 90.1351 105.084C90.2851 105.156 90.4861 105.24 90.7381 105.336C91.0381 105.45 91.2781 105.555 91.4581 105.651C91.6441 105.747 91.8001 105.879 91.9261 106.047C92.0521 106.215 92.1151 106.425 92.1151 106.677C92.1151 107.103 91.9381 107.442 91.5841 107.694C91.2301 107.946 90.7711 108.072 90.2071 108.072ZM100.591 103.086L98.188 108H97.558L96.928 103.887L94.831 108H94.201L93.526 103.086H94.174L94.651 107.334L96.766 103.086H97.405L98.008 107.343L99.97 103.086H100.591ZM102.836 108.072C102.428 108.072 102.068 107.991 101.756 107.829C101.444 107.661 101.201 107.427 101.027 107.127C100.859 106.821 100.775 106.464 100.775 106.056C100.775 105.504 100.901 104.997 101.153 104.535C101.405 104.067 101.756 103.698 102.206 103.428C102.656 103.152 103.157 103.014 103.709 103.014C104.117 103.014 104.477 103.098 104.789 103.266C105.101 103.428 105.344 103.662 105.518 103.968C105.692 104.268 105.779 104.622 105.779 105.03C105.779 105.588 105.65 106.098 105.392 106.56C105.134 107.022 104.78 107.391 104.33 107.667C103.886 107.937 103.388 108.072 102.836 108.072ZM102.908 107.541C103.334 107.541 103.715 107.427 104.051 107.199C104.393 106.971 104.657 106.668 104.843 106.29C105.035 105.912 105.131 105.504 105.131 105.066C105.131 104.574 104.987 104.199 104.699 103.941C104.417 103.683 104.057 103.554 103.619 103.554C103.193 103.554 102.812 103.668 102.476 103.896C102.146 104.124 101.888 104.427 101.702 104.805C101.516 105.183 101.423 105.591 101.423 106.029C101.423 106.515 101.564 106.89 101.846 107.154C102.128 107.412 102.482 107.541 102.908 107.541ZM107.863 104.067C108.061 103.725 108.319 103.461 108.637 103.275C108.955 103.089 109.324 102.996 109.744 102.996L109.627 103.653H109.447C109.015 103.653 108.643 103.764 108.331 103.986C108.019 104.208 107.803 104.574 107.683 105.084L107.17 108H106.54L107.404 103.086H108.034L107.863 104.067ZM110.035 105.534C110.125 105.03 110.305 104.589 110.575 104.211C110.845 103.827 111.178 103.533 111.574 103.329C111.97 103.119 112.393 103.014 112.843 103.014C113.275 103.014 113.644 103.119 113.95 103.329C114.262 103.539 114.472 103.812 114.58 104.148L115.075 101.34H115.705L114.526 108H113.896L114.094 106.902C113.878 107.244 113.581 107.526 113.203 107.748C112.825 107.964 112.405 108.072 111.943 108.072C111.349 108.072 110.872 107.895 110.512 107.541C110.158 107.181 109.981 106.698 109.981 106.092C109.981 105.918 109.999 105.732 110.035 105.534ZM114.328 105.543C114.358 105.375 114.373 105.225 114.373 105.093C114.373 104.625 114.232 104.253 113.95 103.977C113.668 103.701 113.302 103.563 112.852 103.563C112.504 103.563 112.177 103.641 111.871 103.797C111.571 103.953 111.316 104.181 111.106 104.481C110.896 104.775 110.755 105.126 110.683 105.534C110.653 105.714 110.638 105.867 110.638 105.993C110.638 106.467 110.776 106.842 111.052 107.118C111.334 107.388 111.7 107.523 112.15 107.523C112.486 107.523 112.807 107.442 113.113 107.28C113.425 107.118 113.686 106.887 113.896 106.587C114.112 106.287 114.256 105.939 114.328 105.543Z" fill="black" fill-opacity="0.23"/>
</svg>
