<svg width="121" height="121" viewBox="0 0 121 121" fill="none" xmlns="http://www.w3.org/2000/svg">
<circle cx="60.3547" cy="60.3547" r="56.3547" stroke="#4ED394" stroke-opacity="0.23" stroke-width="7" stroke-linecap="round"/>
<path d="M36.9898 9.07183C25.3532 14.3736 15.8657 23.4752 10.0856 34.8817C4.30555 46.2883 2.57665 59.3215 5.18289 71.8405C7.78914 84.3595 14.5755 95.6199 24.4274 103.772C34.2793 111.924 46.6108 116.484 59.3963 116.701" stroke="#4ED394" stroke-width="7" stroke-linecap="round"/>
<path d="M60.5236 54.2039H57.0236V50.1539H55.2736V54.2039H47.6736L56.6236 42.9039H54.6236L45.3486 54.5039V55.8039H55.2236V60.4039H57.0236V55.8039H60.5236V54.2039ZM67.4316 42.7539C64.0316 42.7539 61.4566 44.8539 61.4566 48.1289C61.4566 51.3289 63.8816 53.3789 67.3566 53.3789C69.7816 53.3789 71.8316 52.3039 72.7066 50.3789C72.7566 50.9039 72.7816 51.4039 72.7816 51.8039C72.7816 56.5539 70.3566 58.9789 66.5816 58.9789C65.2816 58.9789 64.0816 58.7539 63.1816 58.1539L62.4566 59.6039C63.5566 60.2789 65.0316 60.5539 66.6066 60.5539C71.3566 60.5539 74.6066 57.4539 74.6066 51.5039C74.6066 45.9789 72.0816 42.7539 67.4316 42.7539ZM67.6316 51.8539C64.9316 51.8539 63.2316 50.3789 63.2316 48.0789C63.2316 45.7539 64.9816 44.2789 67.5066 44.2789C70.5316 44.2789 72.1316 46.1039 72.1316 48.0289C72.1316 50.2039 70.3066 51.8539 67.6316 51.8539Z" fill="#525252"/>
<path d="M45.3491 74.6V81.416L39.9371 74.6H39.2051V83H40.0931V76.184L45.4931 83H46.2251V74.6H45.3491ZM51.3668 83.06C53.2148 83.06 54.5708 81.716 54.5708 79.844C54.5708 77.972 53.2148 76.64 51.3668 76.64C49.5188 76.64 48.1508 77.972 48.1508 79.844C48.1508 81.716 49.5188 83.06 51.3668 83.06ZM51.3668 82.304C50.0228 82.304 49.0148 81.32 49.0148 79.844C49.0148 78.368 50.0228 77.384 51.3668 77.384C52.7108 77.384 53.7068 78.368 53.7068 79.844C53.7068 81.32 52.7108 82.304 51.3668 82.304ZM57.1262 77.924V76.688H56.3102V83H57.1622V79.784C57.1622 78.296 57.9662 77.456 59.2862 77.456C59.3462 77.456 59.4182 77.468 59.4902 77.468V76.64C58.3262 76.64 57.5222 77.084 57.1262 77.924ZM68.9049 76.64C67.7649 76.64 66.8649 77.156 66.4089 77.972C66.0249 77.084 65.2089 76.64 64.1649 76.64C63.1089 76.64 62.2929 77.084 61.8489 77.84V76.688H61.0329V83H61.8849V79.688C61.8849 78.248 62.7129 77.408 63.9969 77.408C65.1489 77.408 65.8209 78.092 65.8209 79.424V83H66.6729V79.688C66.6729 78.248 67.4889 77.408 68.7849 77.408C69.9249 77.408 70.5969 78.092 70.5969 79.424V83H71.4489V79.34C71.4489 77.528 70.4409 76.64 68.9049 76.64ZM75.9674 76.64C74.9714 76.64 74.0354 76.952 73.3994 77.492L73.7834 78.128C74.2994 77.672 75.0674 77.384 75.8834 77.384C77.0594 77.384 77.6714 77.972 77.6714 79.052V79.436H75.6674C73.8554 79.436 73.2314 80.252 73.2314 81.224C73.2314 82.316 74.1074 83.06 75.5354 83.06C76.5794 83.06 77.3234 82.664 77.7074 82.016V83H78.5234V79.088C78.5234 77.456 77.5994 76.64 75.9674 76.64ZM75.6674 82.388C74.6594 82.388 74.0714 81.932 74.0714 81.2C74.0714 80.552 74.4674 80.072 75.6914 80.072H77.6714V81.104C77.3354 81.932 76.6274 82.388 75.6674 82.388ZM80.8376 83H81.6896V74.096H80.8376V83Z" fill="black"/>
</svg>
