<svg width="315" height="11" viewBox="0 0 315 11" fill="none" xmlns="http://www.w3.org/2000/svg">
<path d="M157.5 3.20837C156.892 3.20837 156.309 3.44982 155.88 3.87959C155.45 4.30936 155.208 4.89225 155.208 5.50004C155.208 6.10783 155.45 6.69072 155.88 7.12049C156.309 7.55026 156.892 7.79171 157.5 7.79171C158.108 7.79171 158.691 7.55026 159.12 7.12049C159.55 6.69072 159.792 6.10783 159.792 5.50004C159.792 4.89225 159.55 4.30936 159.12 3.87959C158.691 3.44982 158.108 3.20837 157.5 3.20837Z" fill="#FF6C87"/>
<path fill-rule="evenodd" clip-rule="evenodd" d="M157.5 0.458374C157.622 0.458374 157.738 0.506663 157.824 0.592617C157.91 0.678571 157.958 0.79515 157.958 0.916707V1.37504C157.958 1.4966 157.91 1.61318 157.824 1.69913C157.738 1.78509 157.622 1.83337 157.5 1.83337C157.378 1.83337 157.262 1.78509 157.176 1.69913C157.09 1.61318 157.042 1.4966 157.042 1.37504V0.916707C157.042 0.79515 157.09 0.678571 157.176 0.592617C157.262 0.506663 157.378 0.458374 157.5 0.458374ZM153.509 1.50933C153.595 1.42341 153.712 1.37514 153.833 1.37514C153.955 1.37514 154.071 1.42341 154.157 1.50933L154.845 2.19683C154.928 2.28328 154.975 2.39905 154.974 2.51922C154.973 2.6394 154.924 2.75435 154.839 2.83933C154.754 2.92431 154.639 2.97251 154.519 2.97356C154.399 2.9746 154.283 2.9284 154.197 2.84492L153.509 2.15742C153.423 2.07147 153.375 1.95491 153.375 1.83337C153.375 1.71184 153.423 1.59528 153.509 1.50933ZM161.491 1.50933C161.577 1.59528 161.625 1.71184 161.625 1.83337C161.625 1.95491 161.577 2.07147 161.491 2.15742L160.803 2.84492C160.761 2.88869 160.71 2.92361 160.654 2.94763C160.599 2.97165 160.538 2.98429 160.478 2.98482C160.417 2.98535 160.356 2.97375 160.3 2.95071C160.244 2.92766 160.193 2.89363 160.149 2.8506C160.106 2.80756 160.072 2.75639 160.049 2.70006C160.026 2.64373 160.015 2.58338 160.015 2.52252C160.016 2.46167 160.028 2.40152 160.052 2.34561C160.076 2.28969 160.111 2.23911 160.155 2.19683L160.843 1.50933C160.929 1.42341 161.045 1.37514 161.167 1.37514C161.288 1.37514 161.405 1.42341 161.491 1.50933ZM152.458 5.50004C152.458 5.37848 152.507 5.2619 152.593 5.17595C152.679 5.09 152.795 5.04171 152.917 5.04171H153.375C153.497 5.04171 153.613 5.09 153.699 5.17595C153.785 5.2619 153.833 5.37848 153.833 5.50004C153.833 5.6216 153.785 5.73818 153.699 5.82413C153.613 5.91009 153.497 5.95837 153.375 5.95837H152.917C152.795 5.95837 152.679 5.91009 152.593 5.82413C152.507 5.73818 152.458 5.6216 152.458 5.50004ZM161.167 5.50004C161.167 5.37848 161.215 5.2619 161.301 5.17595C161.387 5.09 161.503 5.04171 161.625 5.04171H162.083C162.205 5.04171 162.322 5.09 162.407 5.17595C162.493 5.2619 162.542 5.37848 162.542 5.50004C162.542 5.6216 162.493 5.73818 162.407 5.82413C162.322 5.91009 162.205 5.95837 162.083 5.95837H161.625C161.503 5.95837 161.387 5.91009 161.301 5.82413C161.215 5.73818 161.167 5.6216 161.167 5.50004ZM154.845 8.15517C154.931 8.24112 154.979 8.35767 154.979 8.47921C154.979 8.60074 154.931 8.7173 154.845 8.80325L154.157 9.49075C154.071 9.57424 153.955 9.62044 153.835 9.61939C153.715 9.61835 153.6 9.57014 153.515 9.48517C153.43 9.40019 153.382 9.28523 153.381 9.16506C153.38 9.04488 153.426 8.92911 153.509 8.84266L154.197 8.15517C154.283 8.06924 154.399 8.02097 154.521 8.02097C154.642 8.02097 154.759 8.06924 154.845 8.15517ZM160.155 8.15517C160.241 8.06924 160.358 8.02097 160.479 8.02097C160.601 8.02097 160.717 8.06924 160.803 8.15517L161.491 8.84266C161.574 8.92911 161.62 9.04488 161.619 9.16506C161.618 9.28523 161.57 9.40019 161.485 9.48517C161.4 9.57014 161.285 9.61835 161.165 9.61939C161.045 9.62044 160.929 9.57424 160.843 9.49075L160.155 8.80325C160.069 8.7173 160.021 8.60074 160.021 8.47921C160.021 8.35767 160.069 8.24112 160.155 8.15517ZM157.5 9.16671C157.622 9.16671 157.738 9.215 157.824 9.30095C157.91 9.3869 157.958 9.50348 157.958 9.62504V10.0834C157.958 10.2049 157.91 10.3215 157.824 10.4075C157.738 10.4934 157.622 10.5417 157.5 10.5417C157.378 10.5417 157.262 10.4934 157.176 10.4075C157.09 10.3215 157.042 10.2049 157.042 10.0834V9.62504C157.042 9.50348 157.09 9.3869 157.176 9.30095C157.262 9.215 157.378 9.16671 157.5 9.16671Z" fill="#FF6C87"/>
<path d="M4.35417 0.916626C3.52 0.916626 2.73625 1.14579 2.0625 1.53538C3.43292 2.32829 4.35417 3.80413 4.35417 5.49996C4.35417 7.19579 3.43292 8.67163 2.0625 9.46454C2.73625 9.85413 3.52 10.0833 4.35417 10.0833C6.88417 10.0833 8.9375 8.02996 8.9375 5.49996C8.9375 2.96996 6.88417 0.916626 4.35417 0.916626Z" fill="#FF6C87"/>
<path d="M308.354 0.916626C307.52 0.916626 306.736 1.14579 306.062 1.53538C307.433 2.32829 308.354 3.80413 308.354 5.49996C308.354 7.19579 307.433 8.67163 306.062 9.46454C306.736 9.85413 307.52 10.0833 308.354 10.0833C310.884 10.0833 312.938 8.02996 312.938 5.49996C312.938 2.96996 310.884 0.916626 308.354 0.916626Z" fill="#FF6C87"/>
</svg>
