<svg width="202" height="41" viewBox="0 0 202 41" fill="none" xmlns="http://www.w3.org/2000/svg">
<path d="M1.23355 32V32.64H2.88355V39H3.60355V32H1.23355ZM8.51402 39H11.364C13.604 39 15.114 37.56 15.114 35.5C15.114 33.44 13.604 32 11.364 32H8.51402V39ZM9.25402 38.36V32.64H11.324C13.184 32.64 14.384 33.82 14.384 35.5C14.384 37.18 13.184 38.36 11.324 38.36H9.25402ZM18.4657 33.7C17.6357 33.7 16.8557 33.96 16.3257 34.41L16.6457 34.94C17.0757 34.56 17.7157 34.32 18.3957 34.32C19.3757 34.32 19.8857 34.81 19.8857 35.71V36.03H18.2157C16.7057 36.03 16.1857 36.71 16.1857 37.52C16.1857 38.43 16.9157 39.05 18.1057 39.05C18.9757 39.05 19.5957 38.72 19.9157 38.18V39H20.5957V35.74C20.5957 34.38 19.8257 33.7 18.4657 33.7ZM18.2157 38.49C17.3757 38.49 16.8857 38.11 16.8857 37.5C16.8857 36.96 17.2157 36.56 18.2357 36.56H19.8857V37.42C19.6057 38.11 19.0157 38.49 18.2157 38.49ZM26.1465 33.74L24.1665 38.21L22.1865 33.74H21.4465L23.7965 38.99L23.5665 39.5C23.2665 40.16 22.9465 40.38 22.4765 40.38C22.0965 40.38 21.7765 40.24 21.5165 39.98L21.1865 40.51C21.5065 40.83 21.9765 40.99 22.4665 40.99C23.2165 40.99 23.7765 40.66 24.2165 39.63L26.8465 33.74H26.1465Z" fill="#525252"/>
<path d="M3.724 11.858V10.066H8.078V7.994H3.724V6.342H8.666V4.2H0.98V14H8.848V11.858H3.724ZM15.2023 6.286C14.2503 6.286 13.3963 6.608 12.7943 7.238V6.412H10.2603V14H12.9203V10.332C12.9203 9.072 13.5783 8.54 14.4323 8.54C15.2023 8.54 15.6783 9.002 15.6783 10.094V14H18.3383V9.66C18.3383 7.308 16.9803 6.286 15.2023 6.286ZM27.8737 10.22C27.8737 7.714 26.0537 6.286 23.8137 6.286C21.4197 6.286 19.6417 7.91 19.6417 10.192C19.6417 12.46 21.3917 14.126 24.0937 14.126C25.5357 14.126 26.5997 13.706 27.3277 12.894L25.9277 11.438C25.4097 11.886 24.9197 12.096 24.1777 12.096C23.1977 12.096 22.5397 11.648 22.3157 10.878H27.8317C27.8457 10.668 27.8737 10.416 27.8737 10.22ZM23.8277 8.176C24.6537 8.176 25.2417 8.68 25.3817 9.478H22.2737C22.4277 8.68 23.0017 8.176 23.8277 8.176ZM31.6341 7.322V6.412H29.1001V14H31.7601V10.514C31.7601 9.184 32.5021 8.638 33.5801 8.638C33.7761 8.638 33.9441 8.652 34.1821 8.68V6.286C33.0621 6.286 32.1801 6.636 31.6341 7.322ZM40.8394 6.412V7.336C40.3214 6.622 39.5094 6.286 38.4594 6.286C36.4434 6.286 34.7354 7.714 34.7354 9.94C34.7354 12.18 36.4434 13.608 38.4594 13.608C39.4254 13.608 40.1954 13.314 40.7134 12.712V12.964C40.7134 14.154 40.1114 14.798 38.6834 14.798C37.7874 14.798 36.7514 14.49 36.1214 13.986L35.1554 15.848C36.0794 16.506 37.4654 16.842 38.9214 16.842C41.7494 16.842 43.3734 15.484 43.3734 12.614V6.412H40.8394ZM39.0894 11.494C38.1374 11.494 37.4234 10.864 37.4234 9.94C37.4234 9.016 38.1374 8.4 39.0894 8.4C40.0414 8.4 40.7414 9.016 40.7414 9.94C40.7414 10.864 40.0414 11.494 39.0894 11.494ZM50.5425 6.412L48.6665 11.046L46.8045 6.412H44.0745L47.3225 14.098C47.0985 14.546 46.8045 14.742 46.2865 14.742C45.8665 14.742 45.4185 14.574 45.1105 14.294L44.1865 16.156C44.6905 16.576 45.5865 16.842 46.3845 16.842C47.8825 16.842 49.0025 16.268 49.8005 14.308L53.0765 6.412H50.5425ZM62.8504 14.196C64.6564 14.196 66.1124 13.538 67.0644 12.348L65.3004 10.752C64.6844 11.494 63.9284 11.9 62.9904 11.9C61.3804 11.9 60.2604 10.78 60.2604 9.1C60.2604 7.42 61.3804 6.3 62.9904 6.3C63.9284 6.3 64.6844 6.706 65.3004 7.448L67.0644 5.852C66.1124 4.662 64.6564 4.004 62.8504 4.004C59.7424 4.004 57.4604 6.118 57.4604 9.1C57.4604 12.082 59.7424 14.196 62.8504 14.196ZM71.7499 14.126C74.2559 14.126 76.0339 12.488 76.0339 10.192C76.0339 7.91 74.2559 6.286 71.7499 6.286C69.2719 6.286 67.4659 7.91 67.4659 10.192C67.4659 12.488 69.2719 14.126 71.7499 14.126ZM71.7499 12.012C70.8539 12.012 70.1539 11.354 70.1539 10.192C70.1539 9.044 70.8539 8.4 71.7499 8.4C72.6599 8.4 73.3459 9.044 73.3459 10.192C73.3459 11.354 72.6599 12.012 71.7499 12.012ZM82.2081 6.286C81.2561 6.286 80.4021 6.608 79.8001 7.238V6.412H77.2661V14H79.9261V10.332C79.9261 9.072 80.5841 8.54 81.4381 8.54C82.2081 8.54 82.6841 9.002 82.6841 10.094V14H85.3441V9.66C85.3441 7.308 83.9861 6.286 82.2081 6.286ZM89.7722 14.126C92.2362 14.126 93.5242 13.034 93.5242 11.634C93.5242 8.624 89.0582 9.758 89.0582 8.708C89.0582 8.428 89.3802 8.176 90.2762 8.176C90.9482 8.176 91.7042 8.316 92.4602 8.736L93.2582 6.93C92.5022 6.51 91.3262 6.286 90.2622 6.286C87.8822 6.286 86.5662 7.378 86.5662 8.806C86.5662 11.844 91.0462 10.682 91.0462 11.704C91.0462 12.026 90.7522 12.222 89.8562 12.222C88.9322 12.222 87.9102 11.956 87.2102 11.522L86.4122 13.342C87.1542 13.804 88.4842 14.126 89.7722 14.126ZM99.9904 6.412V10.066C99.9904 11.34 99.3464 11.858 98.5624 11.858C97.7644 11.858 97.3024 11.396 97.3024 10.22V6.412H94.6424V10.654C94.6424 13.062 96.0004 14.126 97.8624 14.126C98.7304 14.126 99.5424 13.818 100.116 13.188V14H102.65V6.412H99.9904ZM114.248 6.286C113.156 6.286 112.218 6.72 111.616 7.476C111.084 6.664 110.202 6.286 109.166 6.286C108.27 6.286 107.472 6.594 106.898 7.21V6.412H104.364V14H107.024V10.234C107.024 9.058 107.584 8.54 108.368 8.54C109.082 8.54 109.516 9.002 109.516 10.094V14H112.176V10.234C112.176 9.058 112.736 8.54 113.506 8.54C114.206 8.54 114.654 9.002 114.654 10.094V14H117.314V9.66C117.314 7.308 116.012 6.286 114.248 6.286ZM123.767 6.286C122.773 6.286 122.031 6.566 121.527 7.168V6.412H118.993V16.716H121.653V13.328C122.171 13.86 122.885 14.126 123.767 14.126C125.825 14.126 127.491 12.614 127.491 10.206C127.491 7.798 125.825 6.286 123.767 6.286ZM123.207 12.012C122.311 12.012 121.611 11.354 121.611 10.206C121.611 9.058 122.311 8.4 123.207 8.4C124.103 8.4 124.803 9.058 124.803 10.206C124.803 11.354 124.103 12.012 123.207 12.012ZM133.305 11.83C133.081 11.984 132.787 12.068 132.493 12.068C132.017 12.068 131.695 11.76 131.695 11.2V8.68H133.431V6.692H131.695V4.718H129.035V6.692H127.929V8.68H129.035V11.228C129.035 13.174 130.169 14.126 132.115 14.126C132.815 14.126 133.501 13.986 133.963 13.692L133.305 11.83ZM136.319 5.572C137.299 5.572 137.943 4.956 137.943 4.116C137.943 3.318 137.299 2.744 136.319 2.744C135.339 2.744 134.695 3.36 134.695 4.158C134.695 4.956 135.339 5.572 136.319 5.572ZM134.989 14H137.649V6.412H134.989V14ZM143.185 14.126C145.691 14.126 147.469 12.488 147.469 10.192C147.469 7.91 145.691 6.286 143.185 6.286C140.707 6.286 138.901 7.91 138.901 10.192C138.901 12.488 140.707 14.126 143.185 14.126ZM143.185 12.012C142.289 12.012 141.589 11.354 141.589 10.192C141.589 9.044 142.289 8.4 143.185 8.4C144.095 8.4 144.781 9.044 144.781 10.192C144.781 11.354 144.095 12.012 143.185 12.012ZM153.644 6.286C152.692 6.286 151.838 6.608 151.236 7.238V6.412H148.702V14H151.362V10.332C151.362 9.072 152.02 8.54 152.874 8.54C153.644 8.54 154.12 9.002 154.12 10.094V14H156.78V9.66C156.78 7.308 155.422 6.286 153.644 6.286Z" fill="#7733FF"/>
<path d="M33 35L37 38.3684L41 35" stroke="#525252" stroke-linecap="round" stroke-linejoin="round"/>
</svg>
