<svg width="121" height="121" viewBox="0 0 121 121" fill="none" xmlns="http://www.w3.org/2000/svg">
<circle cx="60.3547" cy="60.3547" r="56.3547" stroke="#4ED394" stroke-opacity="0.23" stroke-width="7" stroke-linecap="round"/>
<path d="M36.9898 9.07183C25.3532 14.3736 15.8657 23.4752 10.0856 34.8817C4.30555 46.2883 2.57665 59.3215 5.18289 71.8405C7.78914 84.3595 14.5755 95.6199 24.4274 103.772C34.2793 111.924 46.6108 116.484 59.3963 116.701" stroke="#4ED394" stroke-width="7" stroke-linecap="round"/>
<path d="M47.3218 53.2217L52.2718 46.9967V45.7217H41.0218V47.3217H49.9718L45.1218 53.3967V54.7217H46.3718C49.6218 54.7217 51.0968 56.0967 51.0968 58.1967C51.0968 60.3717 49.4968 61.7217 46.5968 61.7217C44.3218 61.7217 42.2968 60.8717 41.1718 59.6967L40.2968 61.1217C41.6468 62.4967 44.0718 63.3717 46.5968 63.3717C50.8218 63.3717 52.9468 61.1217 52.9468 58.1967C52.9468 55.3967 51.0718 53.4217 47.3218 53.2217ZM62.4582 63.3717C66.5082 63.3717 69.4582 60.0467 69.4582 54.4717C69.4582 48.8967 66.5082 45.5717 62.4582 45.5717C58.4082 45.5717 55.4832 48.8967 55.4832 54.4717C55.4832 60.0467 58.4082 63.3717 62.4582 63.3717ZM62.4582 61.7217C59.4082 61.7217 57.3082 59.1467 57.3082 54.4717C57.3082 49.7967 59.4082 47.2217 62.4582 47.2217C65.5082 47.2217 67.6082 49.7967 67.6082 54.4717C67.6082 59.1467 65.5082 61.7217 62.4582 61.7217ZM75.7359 55.0967C78.0609 55.0967 79.6859 53.2217 79.6859 50.3467C79.6859 47.4717 78.0609 45.5967 75.7359 45.5967C73.3859 45.5967 71.7859 47.4967 71.7859 50.3467C71.7859 53.1967 73.3859 55.0967 75.7359 55.0967ZM74.3859 63.2217H75.8609L87.8109 45.7217H86.3359L74.3859 63.2217ZM75.7359 53.9717C74.0859 53.9717 73.0359 52.5967 73.0359 50.3467C73.0359 48.0967 74.0859 46.7217 75.7359 46.7217C77.3609 46.7217 78.4359 48.0717 78.4359 50.3467C78.4359 52.6217 77.3609 53.9717 75.7359 53.9717ZM86.4609 63.3467C88.8109 63.3467 90.4109 61.4467 90.4109 58.5967C90.4109 55.7467 88.8109 53.8467 86.4609 53.8467C84.1359 53.8467 82.5109 55.7467 82.5109 58.5967C82.5109 61.4467 84.1359 63.3467 86.4609 63.3467ZM86.4609 62.2217C84.8359 62.2217 83.7609 60.8717 83.7609 58.5967C83.7609 56.3217 84.8359 54.9717 86.4609 54.9717C88.1109 54.9717 89.1609 56.3467 89.1609 58.5967C89.1609 60.8467 88.1109 62.2217 86.4609 62.2217Z" fill="#525252"/>
<path d="M51.4082 82.2576C50.7602 82.7256 50.0162 82.9056 49.2122 82.9056C47.1482 82.9056 45.6242 81.4176 45.6242 79.4256C45.6242 77.4216 47.1482 75.9456 49.2242 75.9456C50.2082 75.9456 51.0482 76.2336 51.7562 76.9296L52.3082 76.3656C51.5642 75.5616 50.4602 75.1536 49.1882 75.1536C46.6202 75.1536 44.7482 76.9656 44.7482 79.4256C44.7482 81.8856 46.6202 83.6976 49.1762 83.6976C50.3402 83.6976 51.4682 83.3376 52.2602 82.6296V79.4256H51.4082V82.2576ZM57.1734 83.6856C59.0214 83.6856 60.3774 82.3416 60.3774 80.4696C60.3774 78.5976 59.0214 77.2656 57.1734 77.2656C55.3254 77.2656 53.9574 78.5976 53.9574 80.4696C53.9574 82.3416 55.3254 83.6856 57.1734 83.6856ZM57.1734 82.9296C55.8294 82.9296 54.8214 81.9456 54.8214 80.4696C54.8214 78.9936 55.8294 78.0096 57.1734 78.0096C58.5174 78.0096 59.5134 78.9936 59.5134 80.4696C59.5134 81.9456 58.5174 82.9296 57.1734 82.9296ZM64.6969 83.6856C66.5449 83.6856 67.9009 82.3416 67.9009 80.4696C67.9009 78.5976 66.5449 77.2656 64.6969 77.2656C62.8489 77.2656 61.4809 78.5976 61.4809 80.4696C61.4809 82.3416 62.8489 83.6856 64.6969 83.6856ZM64.6969 82.9296C63.3529 82.9296 62.3449 81.9456 62.3449 80.4696C62.3449 78.9936 63.3529 78.0096 64.6969 78.0096C66.0409 78.0096 67.0369 78.9936 67.0369 80.4696C67.0369 81.9456 66.0409 82.9296 64.6969 82.9296ZM74.5483 74.7216V78.5136C74.0203 77.6976 73.1563 77.2656 72.1483 77.2656C70.3483 77.2656 69.0043 78.5616 69.0043 80.4696C69.0043 82.3776 70.3483 83.6856 72.1483 83.6856C73.1923 83.6856 74.0683 83.2296 74.5843 82.3776V83.6256H75.4003V74.7216H74.5483ZM72.2203 82.9296C70.8763 82.9296 69.8683 81.9456 69.8683 80.4696C69.8683 78.9936 70.8763 78.0096 72.2203 78.0096C73.5523 78.0096 74.5603 78.9936 74.5603 80.4696C74.5603 81.9456 73.5523 82.9296 72.2203 82.9296Z" fill="black"/>
</svg>
