<svg width="111" height="37" viewBox="0 0 111 37" fill="none" xmlns="http://www.w3.org/2000/svg">
<rect width="111" height="37" rx="18.5" fill="#7733FF"/>
<path d="M39.2713 23.084C38.7193 23.084 38.2233 22.988 37.7833 22.796C37.3513 22.596 37.0113 22.324 36.7633 21.98C36.5153 21.628 36.3873 21.224 36.3793 20.768H37.5433C37.5833 21.16 37.7433 21.492 38.0233 21.764C38.3113 22.028 38.7273 22.16 39.2713 22.16C39.7913 22.16 40.1993 22.032 40.4953 21.776C40.7993 21.512 40.9513 21.176 40.9513 20.768C40.9513 20.448 40.8633 20.188 40.6873 19.988C40.5113 19.788 40.2913 19.636 40.0273 19.532C39.7633 19.428 39.4073 19.316 38.9593 19.196C38.4073 19.052 37.9633 18.908 37.6273 18.764C37.2993 18.62 37.0153 18.396 36.7753 18.092C36.5433 17.78 36.4273 17.364 36.4273 16.844C36.4273 16.388 36.5433 15.984 36.7753 15.632C37.0073 15.28 37.3313 15.008 37.7473 14.816C38.1713 14.624 38.6553 14.528 39.1993 14.528C39.9833 14.528 40.6233 14.724 41.1193 15.116C41.6233 15.508 41.9073 16.028 41.9713 16.676H40.7713C40.7313 16.356 40.5633 16.076 40.2673 15.836C39.9713 15.588 39.5793 15.464 39.0913 15.464C38.6353 15.464 38.2633 15.584 37.9753 15.824C37.6873 16.056 37.5433 16.384 37.5433 16.808C37.5433 17.112 37.6273 17.36 37.7953 17.552C37.9713 17.744 38.1833 17.892 38.4313 17.996C38.6873 18.092 39.0433 18.204 39.4993 18.332C40.0513 18.484 40.4953 18.636 40.8313 18.788C41.1673 18.932 41.4553 19.16 41.6953 19.472C41.9353 19.776 42.0553 20.192 42.0553 20.72C42.0553 21.128 41.9473 21.512 41.7313 21.872C41.5153 22.232 41.1953 22.524 40.7713 22.748C40.3473 22.972 39.8473 23.084 39.2713 23.084ZM44.2263 15.356C44.0183 15.356 43.8423 15.284 43.6983 15.14C43.5543 14.996 43.4823 14.82 43.4823 14.612C43.4823 14.404 43.5543 14.228 43.6983 14.084C43.8423 13.94 44.0183 13.868 44.2263 13.868C44.4263 13.868 44.5943 13.94 44.7303 14.084C44.8743 14.228 44.9463 14.404 44.9463 14.612C44.9463 14.82 44.8743 14.996 44.7303 15.14C44.5943 15.284 44.4263 15.356 44.2263 15.356ZM44.7543 16.424V23H43.6623V16.424H44.7543ZM49.3274 16.316C49.8954 16.316 50.3914 16.44 50.8154 16.688C51.2474 16.936 51.5674 17.248 51.7754 17.624V16.424H52.8794V23.144C52.8794 23.744 52.7514 24.276 52.4954 24.74C52.2394 25.212 51.8714 25.58 51.3914 25.844C50.9194 26.108 50.3674 26.24 49.7354 26.24C48.8714 26.24 48.1514 26.036 47.5754 25.628C46.9994 25.22 46.6594 24.664 46.5554 23.96H47.6354C47.7554 24.36 48.0034 24.68 48.3794 24.92C48.7554 25.168 49.2074 25.292 49.7354 25.292C50.3354 25.292 50.8234 25.104 51.1994 24.728C51.5834 24.352 51.7754 23.824 51.7754 23.144V21.764C51.5594 22.148 51.2394 22.468 50.8154 22.724C50.3914 22.98 49.8954 23.108 49.3274 23.108C48.7434 23.108 48.2114 22.964 47.7314 22.676C47.2594 22.388 46.8874 21.984 46.6154 21.464C46.3434 20.944 46.2074 20.352 46.2074 19.688C46.2074 19.016 46.3434 18.428 46.6154 17.924C46.8874 17.412 47.2594 17.016 47.7314 16.736C48.2114 16.456 48.7434 16.316 49.3274 16.316ZM51.7754 19.7C51.7754 19.204 51.6754 18.772 51.4754 18.404C51.2754 18.036 51.0034 17.756 50.6594 17.564C50.3234 17.364 49.9514 17.264 49.5434 17.264C49.1354 17.264 48.7634 17.36 48.4274 17.552C48.0914 17.744 47.8234 18.024 47.6234 18.392C47.4234 18.76 47.3234 19.192 47.3234 19.688C47.3234 20.192 47.4234 20.632 47.6234 21.008C47.8234 21.376 48.0914 21.66 48.4274 21.86C48.7634 22.052 49.1354 22.148 49.5434 22.148C49.9514 22.148 50.3234 22.052 50.6594 21.86C51.0034 21.66 51.2754 21.376 51.4754 21.008C51.6754 20.632 51.7754 20.196 51.7754 19.7ZM57.9288 16.304C58.7288 16.304 59.3768 16.548 59.8728 17.036C60.3688 17.516 60.6168 18.212 60.6168 19.124V23H59.5368V19.28C59.5368 18.624 59.3728 18.124 59.0448 17.78C58.7168 17.428 58.2688 17.252 57.7008 17.252C57.1248 17.252 56.6648 17.432 56.3208 17.792C55.9848 18.152 55.8168 18.676 55.8168 19.364V23H54.7248V16.424H55.8168V17.36C56.0328 17.024 56.3248 16.764 56.6928 16.58C57.0688 16.396 57.4808 16.304 57.9288 16.304ZM66.1638 15.356C65.9558 15.356 65.7798 15.284 65.6358 15.14C65.4918 14.996 65.4198 14.82 65.4198 14.612C65.4198 14.404 65.4918 14.228 65.6358 14.084C65.7798 13.94 65.9558 13.868 66.1638 13.868C66.3638 13.868 66.5318 13.94 66.6678 14.084C66.8118 14.228 66.8838 14.404 66.8838 14.612C66.8838 14.82 66.8118 14.996 66.6678 15.14C66.5318 15.284 66.3638 15.356 66.1638 15.356ZM66.6918 16.424V23H65.5998V16.424H66.6918ZM71.7569 16.304C72.5569 16.304 73.2049 16.548 73.7009 17.036C74.1969 17.516 74.4449 18.212 74.4449 19.124V23H73.3649V19.28C73.3649 18.624 73.2009 18.124 72.8729 17.78C72.5449 17.428 72.0969 17.252 71.5289 17.252C70.9529 17.252 70.4929 17.432 70.1489 17.792C69.8129 18.152 69.6449 18.676 69.6449 19.364V23H68.5529V16.424H69.6449V17.36C69.8609 17.024 70.1529 16.764 70.5209 16.58C70.8969 16.396 71.3089 16.304 71.7569 16.304Z" fill="white"/>
</svg>
