<svg width="73" height="59" viewBox="0 0 73 59" fill="none" xmlns="http://www.w3.org/2000/svg">
<path d="M11.0829 23.2127L17.0329 17.3627C19.3829 15.0627 19.9079 13.5627 19.9079 11.8877C19.9079 8.96274 17.6579 7.16274 14.1079 7.16274C11.4329 7.16274 9.25791 8.06274 7.90791 9.66274L9.18291 10.7627C10.3329 9.43774 11.9079 8.81274 13.9579 8.81274C16.6329 8.81274 18.0579 10.0627 18.0579 12.0877C18.0579 13.2877 17.6829 14.4627 15.7079 16.4127L8.43291 23.5377V24.8127H20.7079V23.2127H11.0829ZM32.9919 15.6377C34.7919 14.9377 35.7919 13.6127 35.7919 11.7877C35.7919 8.93774 33.3169 7.16274 29.6169 7.16274C25.9169 7.16274 23.4919 8.93774 23.4919 11.7877C23.4919 13.6127 24.4669 14.9377 26.2419 15.6377C24.0669 16.3627 22.8669 17.8377 22.8669 19.9377C22.8669 23.0377 25.4169 24.9627 29.6169 24.9627C33.7919 24.9627 36.4169 23.0377 36.4169 19.9377C36.4169 17.8627 35.1919 16.3627 32.9919 15.6377ZM25.2919 11.8377C25.2919 9.88774 26.9669 8.68774 29.6169 8.68774C32.2419 8.68774 33.9669 9.88774 33.9669 11.8627C33.9669 13.7627 32.3419 14.9877 29.6169 14.9877C26.8919 14.9877 25.2919 13.7627 25.2919 11.8377ZM29.6169 23.4377C26.5169 23.4377 24.6919 22.0877 24.6919 19.9127C24.6919 17.7627 26.5169 16.4127 29.6169 16.4127C32.7169 16.4127 34.5669 17.7627 34.5669 19.9127C34.5669 22.0877 32.7169 23.4377 29.6169 23.4377ZM42.8343 15.1127C45.0843 15.1127 46.8343 13.3627 46.8343 11.1377C46.8343 8.93774 45.0843 7.18774 42.8343 7.18774C40.6093 7.18774 38.8593 8.93774 38.8593 11.1377C38.8593 13.3627 40.6093 15.1127 42.8343 15.1127ZM42.8343 14.0627C41.2093 14.0627 39.9593 12.7877 39.9593 11.1377C39.9593 9.48774 41.2093 8.23774 42.8343 8.23774C44.4843 8.23774 45.7343 9.51274 45.7343 11.1377C45.7343 12.7877 44.4843 14.0627 42.8343 14.0627ZM58.777 24.9627C61.352 24.9627 63.6521 24.0877 65.202 22.3877L64.027 21.2127C62.6021 22.6877 60.8521 23.3127 58.8521 23.3127C54.627 23.3127 51.452 20.2127 51.452 16.0627C51.452 11.9127 54.627 8.81274 58.8521 8.81274C60.8521 8.81274 62.6021 9.43774 64.027 10.8877L65.202 9.71274C63.6521 8.01274 61.352 7.16274 58.802 7.16274C53.527 7.16274 49.627 10.9377 49.627 16.0627C49.627 21.1877 53.527 24.9627 58.777 24.9627Z" fill="#525252"/>
<path d="M18.3491 39.6344V46.4504L12.9371 39.6344H12.2051V48.0344H13.0931V41.2184L18.4931 48.0344H19.2251V39.6344H18.3491ZM24.3668 48.0944C26.2148 48.0944 27.5708 46.7504 27.5708 44.8784C27.5708 43.0064 26.2148 41.6744 24.3668 41.6744C22.5188 41.6744 21.1508 43.0064 21.1508 44.8784C21.1508 46.7504 22.5188 48.0944 24.3668 48.0944ZM24.3668 47.3384C23.0228 47.3384 22.0148 46.3544 22.0148 44.8784C22.0148 43.4024 23.0228 42.4184 24.3668 42.4184C25.7108 42.4184 26.7068 43.4024 26.7068 44.8784C26.7068 46.3544 25.7108 47.3384 24.3668 47.3384ZM30.1262 42.9584V41.7224H29.3102V48.0344H30.1622V44.8184C30.1622 43.3304 30.9662 42.4904 32.2862 42.4904C32.3462 42.4904 32.4182 42.5024 32.4902 42.5024V41.6744C31.3262 41.6744 30.5222 42.1184 30.1262 42.9584ZM41.9049 41.6744C40.7649 41.6744 39.8649 42.1904 39.4089 43.0064C39.0249 42.1184 38.2089 41.6744 37.1649 41.6744C36.1089 41.6744 35.2929 42.1184 34.8489 42.8744V41.7224H34.0329V48.0344H34.8849V44.7224C34.8849 43.2824 35.7129 42.4424 36.9969 42.4424C38.1489 42.4424 38.8209 43.1264 38.8209 44.4584V48.0344H39.6729V44.7224C39.6729 43.2824 40.4889 42.4424 41.7849 42.4424C42.9249 42.4424 43.5969 43.1264 43.5969 44.4584V48.0344H44.4489V44.3744C44.4489 42.5624 43.4409 41.6744 41.9049 41.6744ZM48.9674 41.6744C47.9714 41.6744 47.0354 41.9864 46.3994 42.5264L46.7834 43.1624C47.2994 42.7064 48.0674 42.4184 48.8834 42.4184C50.0594 42.4184 50.6714 43.0064 50.6714 44.0864V44.4704H48.6674C46.8554 44.4704 46.2314 45.2864 46.2314 46.2584C46.2314 47.3504 47.1074 48.0944 48.5354 48.0944C49.5794 48.0944 50.3234 47.6984 50.7074 47.0504V48.0344H51.5234V44.1224C51.5234 42.4904 50.5994 41.6744 48.9674 41.6744ZM48.6674 47.4224C47.6594 47.4224 47.0714 46.9664 47.0714 46.2344C47.0714 45.5864 47.4674 45.1064 48.6914 45.1064H50.6714V46.1384C50.3354 46.9664 49.6274 47.4224 48.6674 47.4224ZM53.8376 48.0344H54.6896V39.1304H53.8376V48.0344Z" fill="black"/>
</svg>
