<svg width="152" height="18" viewBox="0 0 152 18" fill="none" xmlns="http://www.w3.org/2000/svg">
<path d="M20.672 12.06C22.748 12.06 23.696 11.028 23.696 9.84C23.696 6.792 18.452 8.28 18.452 5.76C18.452 4.836 19.184 4.08 20.816 4.08C21.572 4.08 22.424 4.308 23.12 4.788L23.348 4.296C22.7 3.828 21.74 3.54 20.816 3.54C18.752 3.54 17.84 4.584 17.84 5.772C17.84 8.868 23.084 7.356 23.084 9.876C23.084 10.788 22.34 11.52 20.66 11.52C19.532 11.52 18.464 11.064 17.888 10.464L17.612 10.92C18.224 11.592 19.424 12.06 20.672 12.06ZM30.4685 5.736V9.072C30.4685 10.56 29.5925 11.508 28.1765 11.508C26.8685 11.508 26.1125 10.764 26.1125 9.348V5.736H25.5125V9.396C25.5125 11.148 26.5325 12.048 28.1285 12.048C29.2325 12.048 30.0845 11.532 30.4925 10.656V12H31.0685V5.736H30.4685ZM34.1878 7.104V5.736H33.6118V12H34.2118V8.736C34.2118 7.188 35.0398 6.264 36.4318 6.264C36.4798 6.264 36.5278 6.276 36.5758 6.276V5.688C35.3998 5.688 34.5718 6.192 34.1878 7.104ZM40.341 5.688C39.369 5.688 38.457 6.024 37.833 6.576L38.133 7.008C38.649 6.54 39.429 6.216 40.293 6.216C41.517 6.216 42.153 6.84 42.153 8.004V8.508H40.005C38.265 8.508 37.665 9.312 37.665 10.26C37.665 11.328 38.517 12.048 39.921 12.048C41.013 12.048 41.781 11.604 42.177 10.884V12H42.753V8.028C42.753 6.48 41.889 5.688 40.341 5.688ZM40.005 11.556C38.901 11.556 38.265 11.052 38.265 10.236C38.265 9.516 38.721 8.976 40.017 8.976H42.153V10.152C41.793 11.052 41.061 11.556 40.005 11.556ZM48.3691 5.688C47.2651 5.688 46.3291 6.228 45.8251 7.164V3.096H45.2251V12H45.8011V10.524C46.2931 11.484 47.2411 12.048 48.3691 12.048C50.1331 12.048 51.4651 10.74 51.4651 8.868C51.4651 6.984 50.1331 5.688 48.3691 5.688ZM48.3331 11.508C46.8931 11.508 45.8131 10.44 45.8131 8.868C45.8131 7.296 46.8931 6.228 48.3331 6.228C49.7731 6.228 50.8651 7.296 50.8651 8.868C50.8651 10.44 49.7731 11.508 48.3331 11.508ZM55.4113 5.688C54.4393 5.688 53.5273 6.024 52.9033 6.576L53.2033 7.008C53.7193 6.54 54.4993 6.216 55.3633 6.216C56.5873 6.216 57.2233 6.84 57.2233 8.004V8.508H55.0753C53.3353 8.508 52.7353 9.312 52.7353 10.26C52.7353 11.328 53.5873 12.048 54.9913 12.048C56.0833 12.048 56.8513 11.604 57.2473 10.884V12H57.8233V8.028C57.8233 6.48 56.9593 5.688 55.4113 5.688ZM55.0753 11.556C53.9713 11.556 53.3353 11.052 53.3353 10.236C53.3353 9.516 53.7913 8.976 55.0873 8.976H57.2233V10.152C56.8633 11.052 56.1313 11.556 55.0753 11.556ZM64.5943 5.736L62.0863 11.34L59.5783 5.736H58.9423L61.7623 11.976L61.4263 12.732C61.0423 13.584 60.6223 13.848 60.0463 13.848C59.5783 13.848 59.2063 13.692 58.8822 13.356L58.5822 13.812C58.9423 14.184 59.4703 14.376 60.0343 14.376C60.8623 14.376 61.4863 14.004 61.9902 12.852L65.2063 5.736H64.5943ZM68.4426 5.688C67.4706 5.688 66.5586 6.024 65.9346 6.576L66.2346 7.008C66.7506 6.54 67.5306 6.216 68.3946 6.216C69.6186 6.216 70.2546 6.84 70.2546 8.004V8.508H68.1066C66.3666 8.508 65.7666 9.312 65.7666 10.26C65.7666 11.328 66.6186 12.048 68.0226 12.048C69.1146 12.048 69.8826 11.604 70.2786 10.884V12H70.8546V8.028C70.8546 6.48 69.9906 5.688 68.4426 5.688ZM68.1066 11.556C67.0026 11.556 66.3666 11.052 66.3666 10.236C66.3666 9.516 66.8226 8.976 68.1186 8.976H70.2546V10.152C69.8946 11.052 69.1626 11.556 68.1066 11.556ZM73.2547 11.028C72.9667 11.028 72.7507 11.244 72.7507 11.532C72.7507 11.784 72.9067 11.964 73.1467 12.024L72.7507 13.716H73.1827L73.6507 12.084C73.7227 11.832 73.7587 11.712 73.7587 11.532C73.7587 11.268 73.5547 11.028 73.2547 11.028ZM79.6151 11.448V8.004H84.0911V7.464H79.6151V4.152H84.6191V3.6H79.0031V12H84.7991V11.448H79.6151ZM88.8449 5.688C87.8729 5.688 86.9609 6.024 86.3369 6.576L86.6369 7.008C87.1529 6.54 87.9329 6.216 88.7969 6.216C90.0209 6.216 90.6569 6.84 90.6569 8.004V8.508H88.5089C86.7689 8.508 86.1689 9.312 86.1689 10.26C86.1689 11.328 87.0209 12.048 88.4249 12.048C89.5169 12.048 90.2849 11.604 90.6809 10.884V12H91.2569V8.028C91.2569 6.48 90.3929 5.688 88.8449 5.688ZM88.5089 11.556C87.4049 11.556 86.7689 11.052 86.7689 10.236C86.7689 9.516 87.2249 8.976 88.5209 8.976H90.6569V10.152C90.2969 11.052 89.5649 11.556 88.5089 11.556ZM95.313 12.048C96.909 12.048 97.785 11.352 97.785 10.332C97.785 7.944 93.633 9.276 93.633 7.392C93.633 6.72 94.173 6.216 95.397 6.216C96.069 6.216 96.753 6.396 97.281 6.78L97.557 6.3C97.065 5.928 96.201 5.688 95.409 5.688C93.825 5.688 93.033 6.456 93.033 7.404C93.033 9.864 97.185 8.52 97.185 10.344C97.185 11.052 96.657 11.52 95.337 11.52C94.413 11.52 93.561 11.172 93.081 10.764L92.805 11.244C93.297 11.7 94.281 12.048 95.313 12.048ZM102.316 11.184C102.064 11.412 101.715 11.532 101.344 11.532C100.576 11.532 100.18 11.088 100.18 10.284V6.252H102.172V5.736H100.18V4.368H99.5795V5.736H98.4275V6.252H99.5795V10.344C99.5795 11.4 100.18 12.048 101.284 12.048C101.752 12.048 102.256 11.904 102.568 11.604L102.316 11.184ZM108.271 12.06C109.771 12.06 110.551 11.22 110.551 9.528V3.6H106.843V4.152H109.939V9.528C109.939 10.872 109.387 11.508 108.271 11.508C107.515 11.508 106.867 11.136 106.411 10.452L106.039 10.86C106.519 11.616 107.359 12.06 108.271 12.06ZM115.329 5.688C114.357 5.688 113.445 6.024 112.821 6.576L113.121 7.008C113.637 6.54 114.417 6.216 115.281 6.216C116.505 6.216 117.141 6.84 117.141 8.004V8.508H114.993C113.253 8.508 112.653 9.312 112.653 10.26C112.653 11.328 113.505 12.048 114.909 12.048C116.001 12.048 116.769 11.604 117.165 10.884V12H117.741V8.028C117.741 6.48 116.877 5.688 115.329 5.688ZM114.993 11.556C113.889 11.556 113.253 11.052 113.253 10.236C113.253 9.516 113.709 8.976 115.005 8.976H117.141V10.152C116.781 11.052 116.049 11.556 114.993 11.556ZM124.512 5.736L121.992 11.34L119.496 5.736H118.86L121.68 12H122.292L125.124 5.736H124.512ZM128.361 5.688C127.389 5.688 126.477 6.024 125.853 6.576L126.153 7.008C126.669 6.54 127.449 6.216 128.313 6.216C129.537 6.216 130.173 6.84 130.173 8.004V8.508H128.025C126.285 8.508 125.685 9.312 125.685 10.26C125.685 11.328 126.537 12.048 127.941 12.048C129.033 12.048 129.801 11.604 130.197 10.884V12H130.773V8.028C130.773 6.48 129.909 5.688 128.361 5.688ZM128.025 11.556C126.921 11.556 126.285 11.052 126.285 10.236C126.285 9.516 126.741 8.976 128.037 8.976H130.173V10.152C129.813 11.052 129.081 11.556 128.025 11.556Z" fill="#525252"/>
<path d="M6 0C4.40928 0.00196598 2.88425 0.66484 1.75944 1.84321C0.634626 3.02159 0.001883 4.61924 6.38338e-06 6.28571C-0.00189883 7.64756 0.422723 8.97245 1.20873 10.0571C1.20873 10.0571 1.37237 10.2829 1.3991 10.3154L6 16L10.6031 10.3126C10.6271 10.2823 10.7913 10.0571 10.7913 10.0571L10.7918 10.0554C11.5774 8.97121 12.0019 7.64693 12 6.28571C11.9981 4.61924 11.3654 3.02159 10.2406 1.84321C9.11575 0.66484 7.59072 0.00196598 6 0ZM6 8.57143C5.56848 8.57143 5.14665 8.43737 4.78785 8.18622C4.42905 7.93506 4.1494 7.57808 3.98426 7.16042C3.81913 6.74276 3.77592 6.28318 3.86011 5.83979C3.94429 5.39641 4.15209 4.98913 4.45722 4.66947C4.76236 4.34981 5.15112 4.13211 5.57435 4.04392C5.99758 3.95572 6.43627 4.00099 6.83494 4.17399C7.23362 4.34699 7.57437 4.63996 7.81411 5.01584C8.05385 5.39172 8.18182 5.83364 8.18182 6.28571C8.18109 6.89169 7.95099 7.47263 7.54198 7.90112C7.13297 8.32961 6.57843 8.57067 6 8.57143Z" fill="#7733FF"/>
</svg>
