<svg width="209" height="13" viewBox="0 0 209 13" fill="none" xmlns="http://www.w3.org/2000/svg">
<path d="M1.344 2.424V8H0.616V2.424H1.344ZM4.44556 5.792C4.44556 5.344 4.53623 4.952 4.71756 4.616C4.8989 4.27467 5.1469 4.01067 5.46156 3.824C5.78156 3.63733 6.13623 3.544 6.52556 3.544C6.90956 3.544 7.2429 3.62667 7.52556 3.792C7.80823 3.95733 8.0189 4.16533 8.15756 4.416V3.616H8.89356V8H8.15756V7.184C8.01356 7.44 7.79756 7.65333 7.50956 7.824C7.2269 7.98933 6.89623 8.072 6.51756 8.072C6.12823 8.072 5.77623 7.976 5.46156 7.784C5.1469 7.592 4.8989 7.32267 4.71756 6.976C4.53623 6.62933 4.44556 6.23467 4.44556 5.792ZM8.15756 5.8C8.15756 5.46933 8.0909 5.18133 7.95756 4.936C7.82423 4.69067 7.6429 4.504 7.41356 4.376C7.18956 4.24267 6.94156 4.176 6.66956 4.176C6.39756 4.176 6.14956 4.24 5.92556 4.368C5.70156 4.496 5.5229 4.68267 5.38956 4.928C5.25623 5.17333 5.18956 5.46133 5.18956 5.792C5.18956 6.128 5.25623 6.42133 5.38956 6.672C5.5229 6.91733 5.70156 7.10667 5.92556 7.24C6.14956 7.368 6.39756 7.432 6.66956 7.432C6.94156 7.432 7.18956 7.368 7.41356 7.24C7.6429 7.10667 7.82423 6.91733 7.95756 6.672C8.0909 6.42133 8.15756 6.13067 8.15756 5.8ZM11.9318 3.544C12.3105 3.544 12.6411 3.62667 12.9238 3.792C13.2118 3.95733 13.4251 4.16533 13.5638 4.416V3.616H14.2998V8.096C14.2998 8.496 14.2145 8.85067 14.0438 9.16C13.8731 9.47467 13.6278 9.72 13.3078 9.896C12.9931 10.072 12.6251 10.16 12.2038 10.16C11.6278 10.16 11.1478 10.024 10.7638 9.752C10.3798 9.48 10.1531 9.10933 10.0838 8.64H10.8038C10.8838 8.90667 11.0491 9.12 11.2998 9.28C11.5505 9.44533 11.8518 9.528 12.2038 9.528C12.6038 9.528 12.9291 9.40267 13.1798 9.152C13.4358 8.90133 13.5638 8.54933 13.5638 8.096V7.176C13.4198 7.432 13.2065 7.64533 12.9238 7.816C12.6411 7.98667 12.3105 8.072 11.9318 8.072C11.5425 8.072 11.1878 7.976 10.8678 7.784C10.5531 7.592 10.3051 7.32267 10.1238 6.976C9.94248 6.62933 9.85181 6.23467 9.85181 5.792C9.85181 5.344 9.94248 4.952 10.1238 4.616C10.3051 4.27467 10.5531 4.01067 10.8678 3.824C11.1878 3.63733 11.5425 3.544 11.9318 3.544ZM13.5638 5.8C13.5638 5.46933 13.4971 5.18133 13.3638 4.936C13.2305 4.69067 13.0491 4.504 12.8198 4.376C12.5958 4.24267 12.3478 4.176 12.0758 4.176C11.8038 4.176 11.5558 4.24 11.3318 4.368C11.1078 4.496 10.9291 4.68267 10.7958 4.928C10.6625 5.17333 10.5958 5.46133 10.5958 5.792C10.5958 6.128 10.6625 6.42133 10.7958 6.672C10.9291 6.91733 11.1078 7.10667 11.3318 7.24C11.5558 7.368 11.8038 7.432 12.0758 7.432C12.3478 7.432 12.5958 7.368 12.8198 7.24C13.0491 7.10667 13.2305 6.91733 13.3638 6.672C13.4971 6.42133 13.5638 6.13067 13.5638 5.8ZM16.2581 4.328C16.3861 4.07733 16.5674 3.88267 16.8021 3.744C17.0421 3.60533 17.3327 3.536 17.6741 3.536V4.288H17.4821C16.6661 4.288 16.2581 4.73067 16.2581 5.616V8H15.5301V3.616H16.2581V4.328ZM22.5144 5.64C22.5144 5.77867 22.5064 5.92533 22.4904 6.08H18.9864C19.0131 6.512 19.1598 6.85067 19.4264 7.096C19.6984 7.336 20.0264 7.456 20.4104 7.456C20.7251 7.456 20.9864 7.384 21.1944 7.24C21.4078 7.09067 21.5571 6.89333 21.6424 6.648H22.4264C22.3091 7.06933 22.0744 7.41333 21.7224 7.68C21.3704 7.94133 20.9331 8.072 20.4104 8.072C19.9944 8.072 19.6211 7.97867 19.2904 7.792C18.9651 7.60533 18.7091 7.34133 18.5224 7C18.3358 6.65333 18.2424 6.25333 18.2424 5.8C18.2424 5.34667 18.3331 4.94933 18.5144 4.608C18.6958 4.26667 18.9491 4.00533 19.2744 3.824C19.6051 3.63733 19.9838 3.544 20.4104 3.544C20.8264 3.544 21.1944 3.63467 21.5144 3.816C21.8344 3.99733 22.0798 4.248 22.2504 4.568C22.4264 4.88267 22.5144 5.24 22.5144 5.64ZM21.7624 5.488C21.7624 5.21067 21.7011 4.97333 21.5784 4.776C21.4558 4.57333 21.2878 4.42133 21.0744 4.32C20.8664 4.21333 20.6344 4.16 20.3784 4.16C20.0104 4.16 19.6958 4.27733 19.4344 4.512C19.1784 4.74667 19.0318 5.072 18.9944 5.488H21.7624ZM27.4754 5.64C27.4754 5.77867 27.4674 5.92533 27.4514 6.08H23.9474C23.974 6.512 24.1207 6.85067 24.3874 7.096C24.6594 7.336 24.9874 7.456 25.3714 7.456C25.686 7.456 25.9474 7.384 26.1554 7.24C26.3687 7.09067 26.518 6.89333 26.6034 6.648H27.3874C27.27 7.06933 27.0354 7.41333 26.6834 7.68C26.3314 7.94133 25.894 8.072 25.3714 8.072C24.9554 8.072 24.582 7.97867 24.2514 7.792C23.926 7.60533 23.67 7.34133 23.4834 7C23.2967 6.65333 23.2034 6.25333 23.2034 5.8C23.2034 5.34667 23.294 4.94933 23.4754 4.608C23.6567 4.26667 23.91 4.00533 24.2354 3.824C24.566 3.63733 24.9447 3.544 25.3714 3.544C25.7874 3.544 26.1554 3.63467 26.4754 3.816C26.7954 3.99733 27.0407 4.248 27.2114 4.568C27.3874 4.88267 27.4754 5.24 27.4754 5.64ZM26.7234 5.488C26.7234 5.21067 26.662 4.97333 26.5394 4.776C26.4167 4.57333 26.2487 4.42133 26.0354 4.32C25.8274 4.21333 25.5954 4.16 25.3394 4.16C24.9714 4.16 24.6567 4.27733 24.3954 4.512C24.1394 4.74667 23.9927 5.072 23.9554 5.488H26.7234ZM31.4571 4.216V6.8C31.4571 7.01333 31.5025 7.16533 31.5931 7.256C31.6838 7.34133 31.8411 7.384 32.0651 7.384H32.6011V8H31.9451C31.5398 8 31.2358 7.90667 31.0331 7.72C30.8305 7.53333 30.7291 7.22667 30.7291 6.8V4.216H30.1611V3.616H30.7291V2.512H31.4571V3.616H32.6011V4.216H31.4571ZM35.3952 8.072C34.9845 8.072 34.6112 7.97867 34.2752 7.792C33.9445 7.60533 33.6832 7.34133 33.4912 7C33.3045 6.65333 33.2112 6.25333 33.2112 5.8C33.2112 5.352 33.3072 4.95733 33.4992 4.616C33.6965 4.26933 33.9632 4.00533 34.2992 3.824C34.6352 3.63733 35.0112 3.544 35.4272 3.544C35.8432 3.544 36.2192 3.63733 36.5552 3.824C36.8912 4.00533 37.1552 4.26667 37.3472 4.608C37.5445 4.94933 37.6432 5.34667 37.6432 5.8C37.6432 6.25333 37.5419 6.65333 37.3392 7C37.1419 7.34133 36.8725 7.60533 36.5312 7.792C36.1899 7.97867 35.8112 8.072 35.3952 8.072ZM35.3952 7.432C35.6565 7.432 35.9019 7.37067 36.1312 7.248C36.3605 7.12533 36.5445 6.94133 36.6832 6.696C36.8272 6.45067 36.8992 6.152 36.8992 5.8C36.8992 5.448 36.8299 5.14933 36.6912 4.904C36.5525 4.65867 36.3712 4.47733 36.1472 4.36C35.9232 4.23733 35.6805 4.176 35.4192 4.176C35.1525 4.176 34.9072 4.23733 34.6832 4.36C34.4645 4.47733 34.2885 4.65867 34.1552 4.904C34.0219 5.14933 33.9552 5.448 33.9552 5.8C33.9552 6.15733 34.0192 6.45867 34.1472 6.704C34.2805 6.94933 34.4565 7.13333 34.6752 7.256C34.8939 7.37333 35.1339 7.432 35.3952 7.432ZM41.6212 4.216V6.8C41.6212 7.01333 41.6665 7.16533 41.7572 7.256C41.8479 7.34133 42.0052 7.384 42.2292 7.384H42.7652V8H42.1092C41.7039 8 41.3999 7.90667 41.1972 7.72C40.9945 7.53333 40.8932 7.22667 40.8932 6.8V4.216H40.3252V3.616H40.8932V2.512H41.6212V3.616H42.7652V4.216H41.6212ZM45.8233 3.536C46.1539 3.536 46.4526 3.608 46.7193 3.752C46.9859 3.89067 47.1939 4.10133 47.3433 4.384C47.4979 4.66667 47.5753 5.01067 47.5753 5.416V8H46.8553V5.52C46.8553 5.08267 46.7459 4.74933 46.5273 4.52C46.3086 4.28533 46.0099 4.168 45.6313 4.168C45.2473 4.168 44.9406 4.288 44.7113 4.528C44.4873 4.768 44.3753 5.11733 44.3753 5.576V8H43.6473V2.08H44.3753V4.24C44.5193 4.016 44.7166 3.84267 44.9673 3.72C45.2233 3.59733 45.5086 3.536 45.8233 3.536ZM52.7644 5.64C52.7644 5.77867 52.7564 5.92533 52.7404 6.08H49.2364C49.2631 6.512 49.4098 6.85067 49.6764 7.096C49.9484 7.336 50.2764 7.456 50.6604 7.456C50.9751 7.456 51.2364 7.384 51.4444 7.24C51.6578 7.09067 51.8071 6.89333 51.8924 6.648H52.6764C52.5591 7.06933 52.3244 7.41333 51.9724 7.68C51.6204 7.94133 51.1831 8.072 50.6604 8.072C50.2444 8.072 49.8711 7.97867 49.5404 7.792C49.2151 7.60533 48.9591 7.34133 48.7724 7C48.5858 6.65333 48.4924 6.25333 48.4924 5.8C48.4924 5.34667 48.5831 4.94933 48.7644 4.608C48.9458 4.26667 49.1991 4.00533 49.5244 3.824C49.8551 3.63733 50.2338 3.544 50.6604 3.544C51.0764 3.544 51.4444 3.63467 51.7644 3.816C52.0844 3.99733 52.3298 4.248 52.5004 4.568C52.6764 4.88267 52.7644 5.24 52.7644 5.64ZM52.0124 5.488C52.0124 5.21067 51.9511 4.97333 51.8284 4.776C51.7058 4.57333 51.5378 4.42133 51.3244 4.32C51.1164 4.21333 50.8844 4.16 50.6284 4.16C50.2604 4.16 49.9458 4.27733 49.6844 4.512C49.4284 4.74667 49.2818 5.072 49.2444 5.488H52.0124Z" fill="black"/>
<path d="M130.344 5.792C130.344 5.344 130.435 4.952 130.616 4.616C130.797 4.27467 131.045 4.01067 131.36 3.824C131.68 3.63733 132.035 3.544 132.424 3.544C132.808 3.544 133.141 3.62667 133.424 3.792C133.707 3.95733 133.917 4.16533 134.056 4.416V3.616H134.792V8H134.056V7.184C133.912 7.44 133.696 7.65333 133.408 7.824C133.125 7.98933 132.795 8.072 132.416 8.072C132.027 8.072 131.675 7.976 131.36 7.784C131.045 7.592 130.797 7.32267 130.616 6.976C130.435 6.62933 130.344 6.23467 130.344 5.792ZM134.056 5.8C134.056 5.46933 133.989 5.18133 133.856 4.936C133.723 4.69067 133.541 4.504 133.312 4.376C133.088 4.24267 132.84 4.176 132.568 4.176C132.296 4.176 132.048 4.24 131.824 4.368C131.6 4.496 131.421 4.68267 131.288 4.928C131.155 5.17333 131.088 5.46133 131.088 5.792C131.088 6.128 131.155 6.42133 131.288 6.672C131.421 6.91733 131.6 7.10667 131.824 7.24C132.048 7.368 132.296 7.432 132.568 7.432C132.84 7.432 133.088 7.368 133.312 7.24C133.541 7.10667 133.723 6.91733 133.856 6.672C133.989 6.42133 134.056 6.13067 134.056 5.8ZM138.158 3.536C138.692 3.536 139.124 3.69867 139.454 4.024C139.785 4.344 139.95 4.808 139.95 5.416V8H139.23V5.52C139.23 5.08267 139.121 4.74933 138.902 4.52C138.684 4.28533 138.385 4.168 138.006 4.168C137.622 4.168 137.316 4.288 137.086 4.528C136.862 4.768 136.75 5.11733 136.75 5.576V8H136.022V3.616H136.75V4.24C136.894 4.016 137.089 3.84267 137.334 3.72C137.585 3.59733 137.86 3.536 138.158 3.536ZM140.867 5.792C140.867 5.344 140.958 4.952 141.139 4.616C141.321 4.27467 141.569 4.01067 141.883 3.824C142.203 3.63733 142.561 3.544 142.955 3.544C143.297 3.544 143.614 3.624 143.907 3.784C144.201 3.93867 144.425 4.144 144.579 4.4V2.08H145.315V8H144.579V7.176C144.435 7.43733 144.222 7.65333 143.939 7.824C143.657 7.98933 143.326 8.072 142.947 8.072C142.558 8.072 142.203 7.976 141.883 7.784C141.569 7.592 141.321 7.32267 141.139 6.976C140.958 6.62933 140.867 6.23467 140.867 5.792ZM144.579 5.8C144.579 5.46933 144.513 5.18133 144.379 4.936C144.246 4.69067 144.065 4.504 143.835 4.376C143.611 4.24267 143.363 4.176 143.091 4.176C142.819 4.176 142.571 4.24 142.347 4.368C142.123 4.496 141.945 4.68267 141.811 4.928C141.678 5.17333 141.611 5.46133 141.611 5.792C141.611 6.128 141.678 6.42133 141.811 6.672C141.945 6.91733 142.123 7.10667 142.347 7.24C142.571 7.368 142.819 7.432 143.091 7.432C143.363 7.432 143.611 7.368 143.835 7.24C144.065 7.10667 144.246 6.91733 144.379 6.672C144.513 6.42133 144.579 6.13067 144.579 5.8Z" fill="black"/>
<path d="M59.536 2.384V3.48H58.048V8H56.68V3.48H55.192V2.384H59.536ZM64.4306 5.696C64.4306 5.824 64.4226 5.95733 64.4066 6.096H61.3106C61.3319 6.37333 61.4199 6.58667 61.5746 6.736C61.7346 6.88 61.9292 6.952 62.1586 6.952C62.4999 6.952 62.7372 6.808 62.8706 6.52H64.3266C64.2519 6.81333 64.1159 7.07733 63.9186 7.312C63.7266 7.54667 63.4839 7.73067 63.1906 7.864C62.8972 7.99733 62.5692 8.064 62.2066 8.064C61.7692 8.064 61.3799 7.97067 61.0386 7.784C60.6972 7.59733 60.4306 7.33067 60.2386 6.984C60.0466 6.63733 59.9506 6.232 59.9506 5.768C59.9506 5.304 60.0439 4.89867 60.2306 4.552C60.4226 4.20533 60.6892 3.93867 61.0306 3.752C61.3719 3.56533 61.7639 3.472 62.2066 3.472C62.6386 3.472 63.0226 3.56267 63.3586 3.744C63.6946 3.92533 63.9559 4.184 64.1426 4.52C64.3346 4.856 64.4306 5.248 64.4306 5.696ZM63.0306 5.336C63.0306 5.10133 62.9506 4.91467 62.7906 4.776C62.6306 4.63733 62.4306 4.568 62.1906 4.568C61.9612 4.568 61.7666 4.63467 61.6066 4.768C61.4519 4.90133 61.3559 5.09067 61.3186 5.336H63.0306ZM66.5203 4.28C66.6803 4.03467 66.8803 3.84267 67.1203 3.704C67.3603 3.56 67.6269 3.488 67.9203 3.488V4.936H67.5443C67.2029 4.936 66.9469 5.01067 66.7763 5.16C66.6056 5.304 66.5203 5.56 66.5203 5.928V8H65.1523V3.536H66.5203V4.28ZM74.2701 3.488C74.8248 3.488 75.2648 3.656 75.5901 3.992C75.9208 4.328 76.0861 4.79467 76.0861 5.392V8H74.7261V5.576C74.7261 5.288 74.6488 5.06667 74.4941 4.912C74.3448 4.752 74.1368 4.672 73.8701 4.672C73.6035 4.672 73.3928 4.752 73.2381 4.912C73.0888 5.06667 73.0141 5.288 73.0141 5.576V8H71.6541V5.576C71.6541 5.288 71.5768 5.06667 71.4221 4.912C71.2728 4.752 71.0648 4.672 70.7981 4.672C70.5315 4.672 70.3208 4.752 70.1661 4.912C70.0168 5.06667 69.9421 5.288 69.9421 5.576V8H68.5741V3.536H69.9421V4.096C70.0808 3.90933 70.2621 3.76267 70.4861 3.656C70.7101 3.544 70.9635 3.488 71.2461 3.488C71.5821 3.488 71.8808 3.56 72.1421 3.704C72.4088 3.848 72.6168 4.05333 72.7661 4.32C72.9208 4.07467 73.1315 3.87467 73.3981 3.72C73.6648 3.56533 73.9555 3.488 74.2701 3.488ZM78.8589 8.064C78.4695 8.064 78.1229 7.99733 77.8189 7.864C77.5149 7.73067 77.2749 7.54933 77.0989 7.32C76.9229 7.08533 76.8242 6.824 76.8029 6.536H78.1549C78.1709 6.69067 78.2429 6.816 78.3709 6.912C78.4989 7.008 78.6562 7.056 78.8429 7.056C79.0135 7.056 79.1442 7.024 79.2349 6.96C79.3309 6.89067 79.3789 6.80267 79.3789 6.696C79.3789 6.568 79.3122 6.47467 79.1789 6.416C79.0455 6.352 78.8295 6.28267 78.5309 6.208C78.2109 6.13333 77.9442 6.056 77.7309 5.976C77.5175 5.89067 77.3335 5.76 77.1789 5.584C77.0242 5.40267 76.9469 5.16 76.9469 4.856C76.9469 4.6 77.0162 4.368 77.1549 4.16C77.2989 3.94667 77.5069 3.77867 77.7789 3.656C78.0562 3.53333 78.3842 3.472 78.7629 3.472C79.3229 3.472 79.7629 3.61067 80.0829 3.888C80.4082 4.16533 80.5949 4.53333 80.6429 4.992H79.3789C79.3575 4.83733 79.2882 4.71467 79.1709 4.624C79.0589 4.53333 78.9095 4.488 78.7229 4.488C78.5629 4.488 78.4402 4.52 78.3549 4.584C78.2695 4.64267 78.2269 4.72533 78.2269 4.832C78.2269 4.96 78.2935 5.056 78.4269 5.12C78.5655 5.184 78.7789 5.248 79.0669 5.312C79.3975 5.39733 79.6669 5.48267 79.8749 5.568C80.0829 5.648 80.2642 5.78133 80.4189 5.968C80.5789 6.14933 80.6615 6.39467 80.6669 6.704C80.6669 6.96533 80.5922 7.2 80.4429 7.408C80.2989 7.61067 80.0882 7.77067 79.8109 7.888C79.5389 8.00533 79.2215 8.064 78.8589 8.064ZM85.2311 8.064C84.7938 8.064 84.3991 7.97067 84.0471 7.784C83.7005 7.59733 83.4258 7.33067 83.2231 6.984C83.0258 6.63733 82.9271 6.232 82.9271 5.768C82.9271 5.30933 83.0285 4.90667 83.2311 4.56C83.4338 4.208 83.7111 3.93867 84.0631 3.752C84.4151 3.56533 84.8098 3.472 85.2471 3.472C85.6845 3.472 86.0791 3.56533 86.4311 3.752C86.7831 3.93867 87.0605 4.208 87.2631 4.56C87.4658 4.90667 87.5671 5.30933 87.5671 5.768C87.5671 6.22667 87.4631 6.632 87.2551 6.984C87.0525 7.33067 86.7725 7.59733 86.4151 7.784C86.0631 7.97067 85.6685 8.064 85.2311 8.064ZM85.2311 6.88C85.4925 6.88 85.7138 6.784 85.8951 6.592C86.0818 6.4 86.1751 6.12533 86.1751 5.768C86.1751 5.41067 86.0845 5.136 85.9031 4.944C85.7271 4.752 85.5085 4.656 85.2471 4.656C84.9805 4.656 84.7591 4.752 84.5831 4.944C84.4071 5.13067 84.3191 5.40533 84.3191 5.768C84.3191 6.12533 84.4045 6.4 84.5751 6.592C84.7511 6.784 84.9698 6.88 85.2311 6.88ZM90.5329 4.672H89.7969V8H88.4289V4.672H87.9329V3.536H88.4289V3.408C88.4289 2.85867 88.5862 2.44267 88.9009 2.16C89.2155 1.872 89.6769 1.728 90.2849 1.728C90.3862 1.728 90.4609 1.73067 90.5089 1.736V2.896C90.2475 2.88 90.0635 2.91733 89.9569 3.008C89.8502 3.09867 89.7969 3.26133 89.7969 3.496V3.536H90.5329V4.672ZM94.903 8.056C94.4923 8.056 94.1243 7.98933 93.799 7.856C93.4737 7.72267 93.2123 7.52533 93.015 7.264C92.823 7.00267 92.7217 6.688 92.711 6.32H94.167C94.1883 6.528 94.2603 6.688 94.383 6.8C94.5057 6.90667 94.6657 6.96 94.863 6.96C95.0657 6.96 95.2257 6.91467 95.343 6.824C95.4603 6.728 95.519 6.59733 95.519 6.432C95.519 6.29333 95.471 6.17867 95.375 6.088C95.2843 5.99733 95.1697 5.92267 95.031 5.864C94.8977 5.80533 94.7057 5.73867 94.455 5.664C94.0923 5.552 93.7963 5.44 93.567 5.328C93.3377 5.216 93.1403 5.05067 92.975 4.832C92.8097 4.61333 92.727 4.328 92.727 3.976C92.727 3.45333 92.9163 3.04533 93.295 2.752C93.6737 2.45333 94.167 2.304 94.775 2.304C95.3937 2.304 95.8923 2.45333 96.271 2.752C96.6497 3.04533 96.8523 3.456 96.879 3.984H95.399C95.3883 3.80267 95.3217 3.66133 95.199 3.56C95.0763 3.45333 94.919 3.4 94.727 3.4C94.5617 3.4 94.4283 3.44533 94.327 3.536C94.2257 3.62133 94.175 3.74667 94.175 3.912C94.175 4.09333 94.2603 4.23467 94.431 4.336C94.6017 4.43733 94.8683 4.54667 95.231 4.664C95.5937 4.78667 95.887 4.904 96.111 5.016C96.3403 5.128 96.5377 5.29067 96.703 5.504C96.8683 5.71733 96.951 5.992 96.951 6.328C96.951 6.648 96.8683 6.93867 96.703 7.2C96.543 7.46133 96.3083 7.66933 95.999 7.824C95.6897 7.97867 95.3243 8.056 94.903 8.056ZM102.001 5.696C102.001 5.824 101.993 5.95733 101.977 6.096H98.8809C98.9022 6.37333 98.9902 6.58667 99.1449 6.736C99.3049 6.88 99.4995 6.952 99.7289 6.952C100.07 6.952 100.308 6.808 100.441 6.52H101.897C101.822 6.81333 101.686 7.07733 101.489 7.312C101.297 7.54667 101.054 7.73067 100.761 7.864C100.468 7.99733 100.14 8.064 99.7769 8.064C99.3395 8.064 98.9502 7.97067 98.6089 7.784C98.2675 7.59733 98.0009 7.33067 97.8089 6.984C97.6169 6.63733 97.5209 6.232 97.5209 5.768C97.5209 5.304 97.6142 4.89867 97.8009 4.552C97.9929 4.20533 98.2595 3.93867 98.6009 3.752C98.9422 3.56533 99.3342 3.472 99.7769 3.472C100.209 3.472 100.593 3.56267 100.929 3.744C101.265 3.92533 101.526 4.184 101.713 4.52C101.905 4.856 102.001 5.248 102.001 5.696ZM100.601 5.336C100.601 5.10133 100.521 4.91467 100.361 4.776C100.201 4.63733 100.001 4.568 99.7609 4.568C99.5315 4.568 99.3369 4.63467 99.1769 4.768C99.0222 4.90133 98.9262 5.09067 98.8889 5.336H100.601ZM104.091 4.28C104.251 4.03467 104.451 3.84267 104.691 3.704C104.931 3.56 105.197 3.488 105.491 3.488V4.936H105.115C104.773 4.936 104.517 5.01067 104.347 5.16C104.176 5.304 104.091 5.56 104.091 5.928V8H102.723V3.536H104.091V4.28ZM108.152 6.72L109.12 3.536H110.576L108.992 8H107.304L105.72 3.536H107.184L108.152 6.72ZM111.84 3.072C111.6 3.072 111.403 3.00267 111.248 2.864C111.099 2.72 111.024 2.544 111.024 2.336C111.024 2.12267 111.099 1.94667 111.248 1.808C111.403 1.664 111.6 1.592 111.84 1.592C112.075 1.592 112.267 1.664 112.416 1.808C112.571 1.94667 112.648 2.12267 112.648 2.336C112.648 2.544 112.571 2.72 112.416 2.864C112.267 3.00267 112.075 3.072 111.84 3.072ZM112.52 3.536V8H111.152V3.536H112.52ZM113.24 5.768C113.24 5.304 113.333 4.89867 113.52 4.552C113.712 4.20533 113.976 3.93867 114.312 3.752C114.653 3.56533 115.042 3.472 115.48 3.472C116.04 3.472 116.506 3.61867 116.88 3.912C117.258 4.20533 117.506 4.61867 117.624 5.152H116.168C116.045 4.81067 115.808 4.64 115.456 4.64C115.205 4.64 115.005 4.73867 114.856 4.936C114.706 5.128 114.632 5.40533 114.632 5.768C114.632 6.13067 114.706 6.41067 114.856 6.608C115.005 6.8 115.205 6.896 115.456 6.896C115.808 6.896 116.045 6.72533 116.168 6.384H117.624C117.506 6.90667 117.258 7.31733 116.88 7.616C116.501 7.91467 116.034 8.064 115.48 8.064C115.042 8.064 114.653 7.97067 114.312 7.784C113.976 7.59733 113.712 7.33067 113.52 6.984C113.333 6.63733 113.24 6.232 113.24 5.768ZM122.563 5.696C122.563 5.824 122.555 5.95733 122.539 6.096H119.443C119.465 6.37333 119.553 6.58667 119.707 6.736C119.867 6.88 120.062 6.952 120.291 6.952C120.633 6.952 120.87 6.808 121.003 6.52H122.459C122.385 6.81333 122.249 7.07733 122.051 7.312C121.859 7.54667 121.617 7.73067 121.323 7.864C121.03 7.99733 120.702 8.064 120.339 8.064C119.902 8.064 119.513 7.97067 119.171 7.784C118.83 7.59733 118.563 7.33067 118.371 6.984C118.179 6.63733 118.083 6.232 118.083 5.768C118.083 5.304 118.177 4.89867 118.363 4.552C118.555 4.20533 118.822 3.93867 119.163 3.752C119.505 3.56533 119.897 3.472 120.339 3.472C120.771 3.472 121.155 3.56267 121.491 3.744C121.827 3.92533 122.089 4.184 122.275 4.52C122.467 4.856 122.563 5.248 122.563 5.696ZM121.163 5.336C121.163 5.10133 121.083 4.91467 120.923 4.776C120.763 4.63733 120.563 4.568 120.323 4.568C120.094 4.568 119.899 4.63467 119.739 4.768C119.585 4.90133 119.489 5.09067 119.451 5.336H121.163ZM125.101 8.064C124.712 8.064 124.365 7.99733 124.061 7.864C123.757 7.73067 123.517 7.54933 123.341 7.32C123.165 7.08533 123.066 6.824 123.045 6.536H124.397C124.413 6.69067 124.485 6.816 124.613 6.912C124.741 7.008 124.898 7.056 125.085 7.056C125.256 7.056 125.386 7.024 125.477 6.96C125.573 6.89067 125.621 6.80267 125.621 6.696C125.621 6.568 125.554 6.47467 125.421 6.416C125.288 6.352 125.072 6.28267 124.773 6.208C124.453 6.13333 124.186 6.056 123.973 5.976C123.76 5.89067 123.576 5.76 123.421 5.584C123.266 5.40267 123.189 5.16 123.189 4.856C123.189 4.6 123.258 4.368 123.397 4.16C123.541 3.94667 123.749 3.77867 124.021 3.656C124.298 3.53333 124.626 3.472 125.005 3.472C125.565 3.472 126.005 3.61067 126.325 3.888C126.65 4.16533 126.837 4.53333 126.885 4.992H125.621C125.6 4.83733 125.53 4.71467 125.413 4.624C125.301 4.53333 125.152 4.488 124.965 4.488C124.805 4.488 124.682 4.52 124.597 4.584C124.512 4.64267 124.469 4.72533 124.469 4.832C124.469 4.96 124.536 5.056 124.669 5.12C124.808 5.184 125.021 5.248 125.309 5.312C125.64 5.39733 125.909 5.48267 126.117 5.568C126.325 5.648 126.506 5.78133 126.661 5.968C126.821 6.14933 126.904 6.39467 126.909 6.704C126.909 6.96533 126.834 7.2 126.685 7.408C126.541 7.61067 126.33 7.77067 126.053 7.888C125.781 8.00533 125.464 8.064 125.101 8.064Z" fill="#844AF8"/>
<path d="M152.776 4.192C152.776 4.51733 152.701 4.816 152.552 5.088C152.403 5.35467 152.173 5.57067 151.864 5.736C151.555 5.90133 151.171 5.984 150.712 5.984H149.864V8H148.496V2.384H150.712C151.16 2.384 151.539 2.46133 151.848 2.616C152.157 2.77067 152.389 2.984 152.544 3.256C152.699 3.528 152.776 3.84 152.776 4.192ZM150.608 4.896C150.869 4.896 151.064 4.83467 151.192 4.712C151.32 4.58933 151.384 4.416 151.384 4.192C151.384 3.968 151.32 3.79467 151.192 3.672C151.064 3.54933 150.869 3.488 150.608 3.488H149.864V4.896H150.608ZM154.856 4.28C155.016 4.03467 155.216 3.84267 155.456 3.704C155.696 3.56 155.963 3.488 156.256 3.488V4.936H155.88C155.539 4.936 155.283 5.01067 155.112 5.16C154.942 5.304 154.856 5.56 154.856 5.928V8H153.488V3.536H154.856V4.28ZM157.598 3.072C157.358 3.072 157.161 3.00267 157.006 2.864C156.857 2.72 156.782 2.544 156.782 2.336C156.782 2.12267 156.857 1.94667 157.006 1.808C157.161 1.664 157.358 1.592 157.598 1.592C157.833 1.592 158.025 1.664 158.174 1.808C158.329 1.94667 158.406 2.12267 158.406 2.336C158.406 2.544 158.329 2.72 158.174 2.864C158.025 3.00267 157.833 3.072 157.598 3.072ZM158.278 3.536V8H156.91V3.536H158.278ZM161.277 6.72L162.245 3.536H163.701L162.117 8H160.429L158.845 3.536H160.309L161.277 6.72ZM164.005 5.76C164.005 5.30133 164.091 4.89867 164.261 4.552C164.437 4.20533 164.675 3.93867 164.973 3.752C165.272 3.56533 165.605 3.472 165.973 3.472C166.288 3.472 166.563 3.536 166.797 3.664C167.037 3.792 167.221 3.96 167.349 4.168V3.536H168.717V8H167.349V7.368C167.216 7.576 167.029 7.744 166.789 7.872C166.555 8 166.28 8.064 165.965 8.064C165.603 8.064 165.272 7.97067 164.973 7.784C164.675 7.592 164.437 7.32267 164.261 6.976C164.091 6.624 164.005 6.21867 164.005 5.76ZM167.349 5.768C167.349 5.42667 167.253 5.15733 167.061 4.96C166.875 4.76267 166.645 4.664 166.373 4.664C166.101 4.664 165.869 4.76267 165.677 4.96C165.491 5.152 165.397 5.41867 165.397 5.76C165.397 6.10133 165.491 6.37333 165.677 6.576C165.869 6.77333 166.101 6.872 166.373 6.872C166.645 6.872 166.875 6.77333 167.061 6.576C167.253 6.37867 167.349 6.10933 167.349 5.768ZM169.435 5.768C169.435 5.304 169.528 4.89867 169.715 4.552C169.907 4.20533 170.171 3.93867 170.507 3.752C170.848 3.56533 171.238 3.472 171.675 3.472C172.235 3.472 172.702 3.61867 173.075 3.912C173.454 4.20533 173.702 4.61867 173.819 5.152H172.363C172.24 4.81067 172.003 4.64 171.651 4.64C171.4 4.64 171.2 4.73867 171.051 4.936C170.902 5.128 170.827 5.40533 170.827 5.768C170.827 6.13067 170.902 6.41067 171.051 6.608C171.2 6.8 171.4 6.896 171.651 6.896C172.003 6.896 172.24 6.72533 172.363 6.384H173.819C173.702 6.90667 173.454 7.31733 173.075 7.616C172.696 7.91467 172.23 8.064 171.675 8.064C171.238 8.064 170.848 7.97067 170.507 7.784C170.171 7.59733 169.907 7.33067 169.715 6.984C169.528 6.63733 169.435 6.232 169.435 5.768ZM179.111 3.536L176.311 10.12H174.839L175.863 7.848L174.047 3.536H175.575L176.607 6.328L177.631 3.536H179.111ZM185.581 4.192C185.581 4.51733 185.506 4.816 185.357 5.088C185.207 5.35467 184.978 5.57067 184.669 5.736C184.359 5.90133 183.975 5.984 183.517 5.984H182.669V8H181.301V2.384H183.517C183.965 2.384 184.343 2.46133 184.653 2.616C184.962 2.77067 185.194 2.984 185.349 3.256C185.503 3.528 185.581 3.84 185.581 4.192ZM183.413 4.896C183.674 4.896 183.869 4.83467 183.997 4.712C184.125 4.58933 184.189 4.416 184.189 4.192C184.189 3.968 184.125 3.79467 183.997 3.672C183.869 3.54933 183.674 3.488 183.413 3.488H182.669V4.896H183.413ZM188.325 8.064C187.888 8.064 187.493 7.97067 187.141 7.784C186.794 7.59733 186.52 7.33067 186.317 6.984C186.12 6.63733 186.021 6.232 186.021 5.768C186.021 5.30933 186.122 4.90667 186.325 4.56C186.528 4.208 186.805 3.93867 187.157 3.752C187.509 3.56533 187.904 3.472 188.341 3.472C188.778 3.472 189.173 3.56533 189.525 3.752C189.877 3.93867 190.154 4.208 190.357 4.56C190.56 4.90667 190.661 5.30933 190.661 5.768C190.661 6.22667 190.557 6.632 190.349 6.984C190.146 7.33067 189.866 7.59733 189.509 7.784C189.157 7.97067 188.762 8.064 188.325 8.064ZM188.325 6.88C188.586 6.88 188.808 6.784 188.989 6.592C189.176 6.4 189.269 6.12533 189.269 5.768C189.269 5.41067 189.178 5.136 188.997 4.944C188.821 4.752 188.602 4.656 188.341 4.656C188.074 4.656 187.853 4.752 187.677 4.944C187.501 5.13067 187.413 5.40533 187.413 5.768C187.413 6.12533 187.498 6.4 187.669 6.592C187.845 6.784 188.064 6.88 188.325 6.88ZM192.755 2.08V8H191.387V2.08H192.755ZM194.434 3.072C194.194 3.072 193.997 3.00267 193.842 2.864C193.693 2.72 193.618 2.544 193.618 2.336C193.618 2.12267 193.693 1.94667 193.842 1.808C193.997 1.664 194.194 1.592 194.434 1.592C194.669 1.592 194.861 1.664 195.01 1.808C195.165 1.94667 195.242 2.12267 195.242 2.336C195.242 2.544 195.165 2.72 195.01 2.864C194.861 3.00267 194.669 3.072 194.434 3.072ZM195.114 3.536V8H193.746V3.536H195.114ZM195.833 5.768C195.833 5.304 195.927 4.89867 196.113 4.552C196.305 4.20533 196.569 3.93867 196.905 3.752C197.247 3.56533 197.636 3.472 198.073 3.472C198.633 3.472 199.1 3.61867 199.473 3.912C199.852 4.20533 200.1 4.61867 200.217 5.152H198.761C198.639 4.81067 198.401 4.64 198.049 4.64C197.799 4.64 197.599 4.73867 197.449 4.936C197.3 5.128 197.225 5.40533 197.225 5.768C197.225 6.13067 197.3 6.41067 197.449 6.608C197.599 6.8 197.799 6.896 198.049 6.896C198.401 6.896 198.639 6.72533 198.761 6.384H200.217C200.1 6.90667 199.852 7.31733 199.473 7.616C199.095 7.91467 198.628 8.064 198.073 8.064C197.636 8.064 197.247 7.97067 196.905 7.784C196.569 7.59733 196.305 7.33067 196.113 6.984C195.927 6.63733 195.833 6.232 195.833 5.768ZM205.509 3.536L202.709 10.12H201.237L202.261 7.848L200.445 3.536H201.973L203.005 6.328L204.029 3.536H205.509Z" fill="#844AF8"/>
</svg>
