<svg width="351" height="48" viewBox="0 0 351 48" fill="none" xmlns="http://www.w3.org/2000/svg">
<g filter="url(#filter0_d_59:501)">
<rect x="8" y="6" width="335" height="32" rx="16" fill="white"/>
</g>
<path d="M40.256 25.232V22.112H44.6V21.356H40.256V18.368H45.128V17.6H39.368V26H45.308V25.232H40.256ZM49.7376 26.06C50.8056 26.06 51.7056 25.628 52.2096 24.812L51.5736 24.38C51.1416 25.016 50.4696 25.304 49.7376 25.304C48.3576 25.304 47.3496 24.332 47.3496 22.844C47.3496 21.368 48.3576 20.384 49.7376 20.384C50.4696 20.384 51.1416 20.684 51.5736 21.32L52.2096 20.888C51.7056 20.06 50.8056 19.64 49.7376 19.64C47.8536 19.64 46.4856 20.96 46.4856 22.844C46.4856 24.728 47.8536 26.06 49.7376 26.06ZM56.3578 26.06C58.2058 26.06 59.5618 24.716 59.5618 22.844C59.5618 20.972 58.2058 19.64 56.3578 19.64C54.5098 19.64 53.1418 20.972 53.1418 22.844C53.1418 24.716 54.5098 26.06 56.3578 26.06ZM56.3578 25.304C55.0138 25.304 54.0058 24.32 54.0058 22.844C54.0058 21.368 55.0138 20.384 56.3578 20.384C57.7018 20.384 58.6978 21.368 58.6978 22.844C58.6978 24.32 57.7018 25.304 56.3578 25.304ZM72.6139 17.6L69.0019 23.828L65.3539 17.6H64.6219V26H65.4739V19.316L68.7739 24.932H69.1939L72.4939 19.28V26H73.3459V17.6H72.6139ZM78.4828 26.06C80.3308 26.06 81.6868 24.716 81.6868 22.844C81.6868 20.972 80.3308 19.64 78.4828 19.64C76.6348 19.64 75.2668 20.972 75.2668 22.844C75.2668 24.716 76.6348 26.06 78.4828 26.06ZM78.4828 25.304C77.1388 25.304 76.1308 24.32 76.1308 22.844C76.1308 21.368 77.1388 20.384 78.4828 20.384C79.8268 20.384 80.8228 21.368 80.8228 22.844C80.8228 24.32 79.8268 25.304 78.4828 25.304ZM88.3343 17.096V20.888C87.8063 20.072 86.9423 19.64 85.9343 19.64C84.1343 19.64 82.7903 20.936 82.7903 22.844C82.7903 24.752 84.1343 26.06 85.9343 26.06C86.9783 26.06 87.8543 25.604 88.3703 24.752V26H89.1863V17.096H88.3343ZM86.0063 25.304C84.6623 25.304 83.6543 24.32 83.6543 22.844C83.6543 21.368 84.6623 20.384 86.0063 20.384C87.3383 20.384 88.3463 21.368 88.3463 22.844C88.3463 24.32 87.3383 25.304 86.0063 25.304ZM97.0671 22.844C97.0671 20.948 95.7831 19.64 94.0071 19.64C92.2311 19.64 90.9231 20.972 90.9231 22.844C90.9231 24.716 92.2671 26.06 94.2351 26.06C95.2311 26.06 96.1071 25.7 96.6711 25.028L96.1911 24.476C95.7111 25.028 95.0271 25.304 94.2591 25.304C92.8791 25.304 91.8711 24.428 91.7751 23.108H97.0551C97.0551 23.012 97.0671 22.916 97.0671 22.844ZM94.0071 20.372C95.2431 20.372 96.1431 21.236 96.2511 22.472H91.7751C91.8831 21.236 92.7831 20.372 94.0071 20.372Z" fill="#525252"/>
<rect x="276" y="13" width="39" height="18.72" rx="9.36" fill="#7733FF" fill-opacity="0.08"/>
<circle cx="305.64" cy="22.36" r="7.02" fill="#7733FF"/>
<defs>
<filter id="filter0_d_59:501" x="0" y="0" width="351" height="48" filterUnits="userSpaceOnUse" color-interpolation-filters="sRGB">
<feFlood flood-opacity="0" result="BackgroundImageFix"/>
<feColorMatrix in="SourceAlpha" type="matrix" values="0 0 0 0 0 0 0 0 0 0 0 0 0 0 0 0 0 0 127 0" result="hardAlpha"/>
<feMorphology radius="4" operator="dilate" in="SourceAlpha" result="effect1_dropShadow_59:501"/>
<feOffset dy="2"/>
<feGaussianBlur stdDeviation="2"/>
<feComposite in2="hardAlpha" operator="out"/>
<feColorMatrix type="matrix" values="0 0 0 0 0.466667 0 0 0 0 0.2 0 0 0 0 1 0 0 0 0.05 0"/>
<feBlend mode="normal" in2="BackgroundImageFix" result="effect1_dropShadow_59:501"/>
<feBlend mode="normal" in="SourceGraphic" in2="effect1_dropShadow_59:501" result="shape"/>
</filter>
</defs>
</svg>
