<svg width="32" height="32" viewBox="0 0 32 32" fill="none" xmlns="http://www.w3.org/2000/svg">
<path d="M10.6667 4V6.66667H14.6667V13.6933C13.84 14.1733 13.3334 15.0533 13.3334 16V17.3333H18.6667V16C18.6667 15.0533 18.16 14.1733 17.3334 13.6933V6.66667H21.3334V4H10.6667ZM8.00002 16C5.05335 16 2.66669 16.8933 2.66669 18C2.66669 19.1067 5.05335 20 8.00002 20C10.9467 20 13.3334 19.1067 13.3334 18C13.3334 16.8933 10.9467 16 8.00002 16ZM24 16C21.0534 16 18.6667 16.8933 18.6667 18C18.6667 19.1067 21.0534 20 24 20C26.9467 20 29.3334 19.1067 29.3334 18C29.3334 16.8933 26.9467 16 24 16ZM13.3334 18.6667V20C13.3334 20.96 13.84 21.84 14.6667 22.3067C15.4934 22.7867 16.5067 22.7867 17.3334 22.3067C18.16 21.84 18.6667 20.9467 18.6667 20V18.6667H13.3334ZM17.3334 25.3333V29.3333H14.6667V25.3333H17.3334ZM21.1734 21.9467L24 24.7867L22.12 26.6667L19.2934 23.84L21.1734 21.9467ZM12.72 23.84L9.88002 26.6667L8.00002 24.7867L10.8267 21.96L12.72 23.84Z" fill="#7733FF"/>
</svg>
