<svg width="67" height="11" viewBox="0 0 67 11" fill="none" xmlns="http://www.w3.org/2000/svg">
<path d="M9.32 10L9.308 1.6H8.024L4.748 7.168L1.412 1.6H0.128V10H1.616V4.504L4.376 9.04H5.072L7.832 4.432L7.844 10H9.32ZM12.2009 2.536C12.7649 2.536 13.1609 2.128 13.1609 1.6C13.1609 1.108 12.7529 0.736 12.2009 0.736C11.6489 0.736 11.2409 1.132 11.2409 1.636C11.2409 2.14 11.6489 2.536 12.2009 2.536ZM11.4449 10H12.9449V3.592H11.4449V10ZM16.8937 10.084C18.6937 10.084 19.7977 9.304 19.7977 8.104C19.7977 5.596 15.8377 6.748 15.8377 5.452C15.8377 5.032 16.2697 4.732 17.1817 4.732C17.7937 4.732 18.4057 4.852 19.0177 5.212L19.5937 4.072C19.0177 3.724 18.0457 3.52 17.1937 3.52C15.4657 3.52 14.3737 4.312 14.3737 5.524C14.3737 8.08 18.3337 6.928 18.3337 8.152C18.3337 8.596 17.9377 8.86 16.9897 8.86C16.1857 8.86 15.3217 8.596 14.7577 8.224L14.1817 9.364C14.7577 9.772 15.8257 10.084 16.8937 10.084ZM24.5215 8.584C24.2935 8.764 23.9935 8.848 23.6815 8.848C23.1055 8.848 22.7935 8.512 22.7935 7.888V4.84H24.5095V3.64H22.7935V2.176H21.2935V3.64H20.2375V4.84H21.2935V7.924C21.2935 9.34 22.0975 10.084 23.5015 10.084C24.0415 10.084 24.5815 9.94 24.9415 9.652L24.5215 8.584ZM38.8278 10L38.8158 1.6H37.5318L34.2558 7.168L30.9198 1.6H29.6358V10H31.1238V4.504L33.8838 9.04H34.5798L37.3398 4.432L37.3518 10H38.8278ZM43.4008 3.52C42.3688 3.52 41.3728 3.784 40.6888 4.312L41.2768 5.404C41.7568 5.008 42.5008 4.768 43.2208 4.768C44.2888 4.768 44.8168 5.284 44.8168 6.16V6.256H43.1608C41.2168 6.256 40.4968 7.096 40.4968 8.164C40.4968 9.28 41.4208 10.084 42.8848 10.084C43.8448 10.084 44.5408 9.772 44.9008 9.22V10H46.3168V6.244C46.3168 4.396 45.2488 3.52 43.4008 3.52ZM43.1968 8.992C42.4288 8.992 41.9728 8.644 41.9728 8.104C41.9728 7.636 42.2488 7.252 43.2688 7.252H44.8168V7.996C44.5648 8.656 43.9288 8.992 43.1968 8.992ZM53.0778 10H54.9018L51.9738 6.28L54.6498 3.592H52.8498L49.7418 6.472V1.096H48.2418V10H49.7418V8.308L50.8578 7.252L53.0778 10ZM61.6252 6.832C61.6252 4.828 60.2572 3.52 58.3852 3.52C56.4772 3.52 55.0732 4.888 55.0732 6.796C55.0732 8.704 56.4652 10.084 58.6132 10.084C59.7172 10.084 60.6172 9.724 61.1932 9.04L60.3892 8.116C59.9332 8.584 59.3692 8.812 58.6492 8.812C57.5332 8.812 56.7532 8.212 56.5732 7.276H61.6012C61.6132 7.132 61.6252 6.952 61.6252 6.832ZM58.3852 4.72C59.3692 4.72 60.0772 5.356 60.1972 6.28H56.5612C56.7052 5.344 57.4132 4.72 58.3852 4.72ZM64.494 4.528V3.592H63.066V10H64.566V6.892C64.566 5.584 65.286 4.912 66.426 4.912C66.534 4.912 66.642 4.924 66.774 4.948V3.52C65.706 3.52 64.926 3.856 64.494 4.528Z" fill="#525252"/>
</svg>
