<svg width="109" height="27" viewBox="0 0 109 27" fill="none" xmlns="http://www.w3.org/2000/svg">
<path d="M17.512 0.799998V14.228L6.388 0.799998H0.52V26H7.504V12.572L18.628 26H24.496V0.799998H17.512ZM49.1439 16.28C49.1439 9.836 44.4639 6.164 38.7039 6.164C32.5479 6.164 27.9759 10.34 27.9759 16.208C27.9759 22.04 32.4759 26.324 39.4239 26.324C43.1319 26.324 45.8679 25.244 47.7399 23.156L44.1399 19.412C42.8079 20.564 41.5479 21.104 39.6399 21.104C37.1199 21.104 35.4279 19.952 34.8519 17.972H49.0359C49.0719 17.432 49.1439 16.784 49.1439 16.28ZM38.7399 11.024C40.8639 11.024 42.3759 12.32 42.7359 14.372H34.7439C35.1399 12.32 36.6159 11.024 38.7399 11.024ZM59.3896 26.324C65.7256 26.324 69.0376 23.516 69.0376 19.916C69.0376 12.176 57.5536 15.092 57.5536 12.392C57.5536 11.672 58.3816 11.024 60.6856 11.024C62.4136 11.024 64.3576 11.384 66.3016 12.464L68.3536 7.82C66.4096 6.74 63.3856 6.164 60.6496 6.164C54.5296 6.164 51.1456 8.972 51.1456 12.644C51.1456 20.456 62.6656 17.468 62.6656 20.096C62.6656 20.924 61.9096 21.428 59.6056 21.428C57.2296 21.428 54.6016 20.744 52.8016 19.628L50.7496 24.308C52.6576 25.496 56.0776 26.324 59.3896 26.324ZM83.7571 20.42C83.1811 20.816 82.4251 21.032 81.6691 21.032C80.4451 21.032 79.6171 20.24 79.6171 18.8V12.32H84.0811V7.208H79.6171V2.132H72.7771V7.208H69.9331V12.32H72.7771V18.872C72.7771 23.876 75.6931 26.324 80.6971 26.324C82.4971 26.324 84.2611 25.964 85.4491 25.208L83.7571 20.42ZM96.5832 0.799998V6.308H101.263V26H108.391V0.799998H96.5832Z" fill="#7733FF"/>
</svg>
