<svg width="110" height="12" viewBox="0 0 110 12" fill="none" xmlns="http://www.w3.org/2000/svg">
<path d="M7.2928 9L5.2408 6.12C6.4648 5.724 7.1608 4.8 7.1608 3.48C7.1608 1.68 5.8648 0.599999 3.7288 0.599999H0.584797V9H1.4728V6.336H3.7288C3.9688 6.336 4.1848 6.324 4.4008 6.3L6.3208 9H7.2928ZM3.7048 5.58H1.4728V1.368H3.7048C5.3848 1.368 6.2728 2.136 6.2728 3.48C6.2728 4.8 5.3848 5.58 3.7048 5.58ZM11.6567 9.06C13.5047 9.06 14.8607 7.716 14.8607 5.844C14.8607 3.972 13.5047 2.64 11.6567 2.64C9.80867 2.64 8.44067 3.972 8.44067 5.844C8.44067 7.716 9.80867 9.06 11.6567 9.06ZM11.6567 8.304C10.3127 8.304 9.30467 7.32 9.30467 5.844C9.30467 4.368 10.3127 3.384 11.6567 3.384C13.0007 3.384 13.9967 4.368 13.9967 5.844C13.9967 7.32 13.0007 8.304 11.6567 8.304ZM19.1801 9.06C21.0281 9.06 22.3841 7.716 22.3841 5.844C22.3841 3.972 21.0281 2.64 19.1801 2.64C17.3321 2.64 15.9641 3.972 15.9641 5.844C15.9641 7.716 17.3321 9.06 19.1801 9.06ZM19.1801 8.304C17.8361 8.304 16.8281 7.32 16.8281 5.844C16.8281 4.368 17.8361 3.384 19.1801 3.384C20.5241 3.384 21.5201 4.368 21.5201 5.844C21.5201 7.32 20.5241 8.304 19.1801 8.304ZM31.9955 2.64C30.8555 2.64 29.9555 3.156 29.4995 3.972C29.1155 3.084 28.2995 2.64 27.2555 2.64C26.1995 2.64 25.3835 3.084 24.9395 3.84V2.688H24.1235V9H24.9755V5.688C24.9755 4.248 25.8035 3.408 27.0875 3.408C28.2395 3.408 28.9115 4.092 28.9115 5.424V9H29.7635V5.688C29.7635 4.248 30.5795 3.408 31.8755 3.408C33.0155 3.408 33.6875 4.092 33.6875 5.424V9H34.5395V5.34C34.5395 3.528 33.5315 2.64 31.9955 2.64ZM41.8027 9H42.6907V1.368H45.6427V0.599999H38.8507V1.368H41.8027V9ZM51.7331 5.844C51.7331 3.948 50.4491 2.64 48.6731 2.64C46.8971 2.64 45.5891 3.972 45.5891 5.844C45.5891 7.716 46.9331 9.06 48.9011 9.06C49.8971 9.06 50.7731 8.7 51.3371 8.028L50.8571 7.476C50.3771 8.028 49.6931 8.304 48.9251 8.304C47.5451 8.304 46.5371 7.428 46.4411 6.108H51.7211C51.7211 6.012 51.7331 5.916 51.7331 5.844ZM48.6731 3.372C49.9091 3.372 50.8091 4.236 50.9171 5.472H46.4411C46.5491 4.236 47.4491 3.372 48.6731 3.372ZM61.3393 2.64C60.1993 2.64 59.2993 3.156 58.8433 3.972C58.4593 3.084 57.6433 2.64 56.5993 2.64C55.5433 2.64 54.7273 3.084 54.2833 3.84V2.688H53.4673V9H54.3193V5.688C54.3193 4.248 55.1473 3.408 56.4313 3.408C57.5833 3.408 58.2553 4.092 58.2553 5.424V9H59.1073V5.688C59.1073 4.248 59.9233 3.408 61.2193 3.408C62.3593 3.408 63.0313 4.092 63.0313 5.424V9H63.8833V5.34C63.8833 3.528 62.8753 2.64 61.3393 2.64ZM69.4459 2.64C68.4019 2.64 67.5259 3.096 67.0099 3.936V2.688H66.1939V11.328H67.0459V7.812C67.5739 8.628 68.4379 9.06 69.4459 9.06C71.2459 9.06 72.5899 7.764 72.5899 5.844C72.5899 3.936 71.2459 2.64 69.4459 2.64ZM69.3859 8.304C68.0419 8.304 67.0339 7.32 67.0339 5.844C67.0339 4.38 68.0419 3.384 69.3859 3.384C70.7179 3.384 71.7379 4.38 71.7379 5.844C71.7379 7.32 70.7179 8.304 69.3859 8.304ZM75.1427 3.924V2.688H74.3267V9H75.1787V5.784C75.1787 4.296 75.9827 3.456 77.3027 3.456C77.3627 3.456 77.4347 3.468 77.5067 3.468V2.64C76.3427 2.64 75.5387 3.084 75.1427 3.924ZM81.2456 2.64C80.2496 2.64 79.3136 2.952 78.6776 3.492L79.0616 4.128C79.5776 3.672 80.3456 3.384 81.1616 3.384C82.3376 3.384 82.9496 3.972 82.9496 5.052V5.436H80.9456C79.1336 5.436 78.5096 6.252 78.5096 7.224C78.5096 8.316 79.3856 9.06 80.8136 9.06C81.8576 9.06 82.6016 8.664 82.9856 8.016V9H83.8016V5.088C83.8016 3.456 82.8776 2.64 81.2456 2.64ZM80.9456 8.388C79.9376 8.388 79.3496 7.932 79.3496 7.2C79.3496 6.552 79.7456 6.072 80.9696 6.072H82.9496V7.104C82.6136 7.932 81.9056 8.388 80.9456 8.388ZM89.1397 8.004C88.8997 8.22 88.5517 8.328 88.2037 8.328C87.4957 8.328 87.1117 7.92 87.1117 7.176V3.408H89.0317V2.688H87.1117V1.308H86.2597V2.688H85.1317V3.408H86.2597V7.224C86.2597 8.388 86.9197 9.06 88.1077 9.06C88.5997 9.06 89.1037 8.916 89.4397 8.616L89.1397 8.004ZM95.8267 2.688V6C95.8267 7.44 94.9987 8.292 93.6787 8.292C92.4787 8.292 91.7827 7.608 91.7827 6.264V2.688H90.9307V6.348C90.9307 8.16 91.9867 9.06 93.5947 9.06C94.6027 9.06 95.4187 8.616 95.8627 7.848V9H96.6787V2.688H95.8267ZM99.881 3.924V2.688H99.065V9H99.917V5.784C99.917 4.296 100.721 3.456 102.041 3.456C102.101 3.456 102.173 3.468 102.245 3.468V2.64C101.081 2.64 100.277 3.084 99.881 3.924ZM109.237 5.844C109.237 3.948 107.953 2.64 106.177 2.64C104.401 2.64 103.093 3.972 103.093 5.844C103.093 7.716 104.437 9.06 106.405 9.06C107.401 9.06 108.277 8.7 108.841 8.028L108.361 7.476C107.881 8.028 107.197 8.304 106.429 8.304C105.049 8.304 104.041 7.428 103.945 6.108H109.225C109.225 6.012 109.237 5.916 109.237 5.844ZM106.177 3.372C107.413 3.372 108.313 4.236 108.421 5.472H103.945C104.053 4.236 104.953 3.372 106.177 3.372Z" fill="#525252"/>
</svg>
