<svg width="51" height="12" viewBox="0 0 51 12" fill="none" xmlns="http://www.w3.org/2000/svg">
<path d="M7.77248 2.916C7.77248 1.44 6.70448 0.599999 4.85648 0.599999H1.91648L0.236484 9H0.848484L1.40048 6.24H3.92048C4.12448 6.24 4.31648 6.228 4.50848 6.216L6.08048 9H6.75248L5.13248 6.12C6.78849 5.772 7.77248 4.668 7.77248 2.916ZM3.92048 5.7H1.50848L2.42048 1.152H4.82048C6.32048 1.152 7.16048 1.788 7.16048 2.964C7.16048 4.776 5.97248 5.7 3.92048 5.7ZM14.8252 2.736L14.1412 6.144C13.8292 7.704 12.8332 8.508 11.4172 8.508C10.2532 8.508 9.6772 7.932 9.6772 6.96C9.6772 6.78 9.6892 6.576 9.7372 6.36L10.4572 2.736H9.8572L9.1372 6.36C9.0892 6.6 9.0652 6.828 9.0652 7.044C9.0652 8.28 9.8452 9.048 11.2612 9.048C12.3172 9.048 13.2172 8.676 13.8292 7.812L13.5892 9H14.1772L15.4252 2.736H14.8252ZM20.8845 2.688C19.8165 2.688 18.9045 3.072 18.2925 3.924L18.5325 2.736H17.9445L16.6965 9H17.2965L17.9805 5.592C18.2925 4.032 19.3005 3.228 20.7285 3.228C21.9045 3.228 22.4925 3.804 22.4925 4.776C22.4925 4.968 22.4805 5.16 22.4325 5.376L21.7125 9H22.3125L23.0325 5.376C23.0805 5.136 23.1045 4.908 23.1045 4.692C23.1045 3.456 22.3245 2.688 20.8845 2.688ZM28.9588 2.688C27.8908 2.688 26.9788 3.072 26.3668 3.924L26.6068 2.736H26.0188L24.7708 9H25.3708L26.0548 5.592C26.3668 4.032 27.3748 3.228 28.8028 3.228C29.9788 3.228 30.5668 3.804 30.5668 4.776C30.5668 4.968 30.5548 5.16 30.5068 5.376L29.7868 9H30.3868L31.1068 5.376C31.1548 5.136 31.1788 4.908 31.1788 4.692C31.1788 3.456 30.3988 2.688 28.9588 2.688ZM34.753 1.212C35.065 1.212 35.293 0.983999 35.293 0.684C35.293 0.443999 35.089 0.24 34.825 0.24C34.525 0.24 34.297 0.48 34.297 0.767999C34.297 1.008 34.489 1.212 34.753 1.212ZM32.845 9H33.445L34.693 2.736H34.093L32.845 9ZM40.1619 2.688C39.0939 2.688 38.1819 3.072 37.5699 3.924L37.8099 2.736H37.2219L35.9739 9H36.5739L37.2579 5.592C37.5699 4.032 38.5779 3.228 40.0059 3.228C41.1819 3.228 41.7699 3.804 41.7699 4.776C41.7699 4.968 41.7579 5.16 41.7099 5.376L40.9899 9H41.5899L42.3099 5.376C42.3579 5.136 42.3819 4.908 42.3819 4.692C42.3819 3.456 41.6019 2.688 40.1619 2.688ZM50.3958 2.736L50.0838 4.332C49.7838 3.252 48.8478 2.688 47.5518 2.688C45.4758 2.688 43.9878 4.236 43.9878 6.276C43.9878 7.824 45.0558 8.772 46.7238 8.772C47.8878 8.772 48.8238 8.28 49.4358 7.488L49.2438 8.424C48.9198 10.08 48.0078 10.836 46.3398 10.836C45.3198 10.836 44.4678 10.512 43.9638 9.948L43.5798 10.392C44.1798 11.016 45.1398 11.376 46.2918 11.376C48.3078 11.376 49.4358 10.476 49.8558 8.328L50.9718 2.736H50.3958ZM46.8318 8.232C45.4278 8.232 44.5878 7.5 44.5878 6.252C44.5878 4.512 45.8358 3.228 47.5518 3.228C48.9678 3.228 49.7958 3.96 49.7958 5.208C49.7958 6.96 48.5478 8.232 46.8318 8.232Z" fill="#844AF8"/>
</svg>
