<svg width="91" height="27" viewBox="0 0 91 27" fill="none" xmlns="http://www.w3.org/2000/svg">
<path d="M7.9 21.35C13.1 21.35 15.65 18.75 15.65 15.7C15.65 9.25 5.725 11.25 5.725 8.575C5.725 7.7 6.475 7 8.55 7C10.075 7 11.725 7.45 13.4 8.35L14.925 4.675C13.2 3.675 10.85 3.15 8.575 3.15C3.375 3.15 0.825 5.7 0.825 8.825C0.825 15.325 10.775 13.3 10.775 16.075C10.775 16.925 9.975 17.5 7.925 17.5C5.9 17.5 3.7 16.8 2.15 15.775L0.525 19.425C2.175 20.575 5.025 21.35 7.9 21.35ZM20.0865 5.95C21.8365 5.95 22.9865 4.85 22.9865 3.35C22.9865 1.925 21.8365 0.899999 20.0865 0.899999C18.3365 0.899999 17.1865 2 17.1865 3.425C17.1865 4.85 18.3365 5.95 20.0865 5.95ZM17.7115 21H22.4615V7.45H17.7115V21ZM35.5984 7.45V9.1C34.6734 7.825 33.2234 7.225 31.3484 7.225C27.7484 7.225 24.6984 9.775 24.6984 13.75C24.6984 17.75 27.7484 20.3 31.3484 20.3C33.0734 20.3 34.4484 19.775 35.3734 18.7V19.15C35.3734 21.275 34.2984 22.425 31.7484 22.425C30.1484 22.425 28.2984 21.875 27.1734 20.975L25.4484 24.3C27.0984 25.475 29.5734 26.075 32.1734 26.075C37.2234 26.075 40.1234 23.65 40.1234 18.525V7.45H35.5984ZM32.4734 16.525C30.7734 16.525 29.4984 15.4 29.4984 13.75C29.4984 12.1 30.7734 11 32.4734 11C34.1734 11 35.4234 12.1 35.4234 13.75C35.4234 15.4 34.1734 16.525 32.4734 16.525ZM52.0004 7.225C50.3004 7.225 48.7754 7.8 47.7004 8.925V7.45H43.1754V21H47.9254V14.45C47.9254 12.2 49.1004 11.25 50.6254 11.25C52.0004 11.25 52.8504 12.075 52.8504 14.025V21H57.6004V13.25C57.6004 9.05 55.1754 7.225 52.0004 7.225ZM70.233 5.95C71.983 5.95 73.133 4.85 73.133 3.35C73.133 1.925 71.983 0.899999 70.233 0.899999C68.483 0.899999 67.333 2 67.333 3.425C67.333 4.85 68.483 5.95 70.233 5.95ZM67.858 21H72.608V7.45H67.858V21ZM84.5199 7.225C82.8199 7.225 81.2949 7.8 80.2199 8.925V7.45H75.6949V21H80.4449V14.45C80.4449 12.2 81.6199 11.25 83.1449 11.25C84.5199 11.25 85.3699 12.075 85.3699 14.025V21H90.1199V13.25C90.1199 9.05 87.6949 7.225 84.5199 7.225Z" fill="#7733FF"/>
</svg>
