<svg width="103" height="27" viewBox="0 0 103 27" fill="none" xmlns="http://www.w3.org/2000/svg">
<path d="M7.9 21.35C13.1 21.35 15.65 18.75 15.65 15.7C15.65 9.25 5.725 11.25 5.725 8.575C5.725 7.7 6.475 7 8.55 7C10.075 7 11.725 7.45 13.4 8.35L14.925 4.675C13.2 3.675 10.85 3.15 8.575 3.15C3.375 3.15 0.825 5.7 0.825 8.825C0.825 15.325 10.775 13.3 10.775 16.075C10.775 16.925 9.975 17.5 7.925 17.5C5.9 17.5 3.7 16.8 2.15 15.775L0.525 19.425C2.175 20.575 5.025 21.35 7.9 21.35ZM20.0865 5.95C21.8365 5.95 22.9865 4.85 22.9865 3.35C22.9865 1.925 21.8365 0.899999 20.0865 0.899999C18.3365 0.899999 17.1865 2 17.1865 3.425C17.1865 4.85 18.3365 5.95 20.0865 5.95ZM17.7115 21H22.4615V7.45H17.7115V21ZM35.5984 7.45V9.1C34.6734 7.825 33.2234 7.225 31.3484 7.225C27.7484 7.225 24.6984 9.775 24.6984 13.75C24.6984 17.75 27.7484 20.3 31.3484 20.3C33.0734 20.3 34.4484 19.775 35.3734 18.7V19.15C35.3734 21.275 34.2984 22.425 31.7484 22.425C30.1484 22.425 28.2984 21.875 27.1734 20.975L25.4484 24.3C27.0984 25.475 29.5734 26.075 32.1734 26.075C37.2234 26.075 40.1234 23.65 40.1234 18.525V7.45H35.5984ZM32.4734 16.525C30.7734 16.525 29.4984 15.4 29.4984 13.75C29.4984 12.1 30.7734 11 32.4734 11C34.1734 11 35.4234 12.1 35.4234 13.75C35.4234 15.4 34.1734 16.525 32.4734 16.525ZM52.0004 7.225C50.3004 7.225 48.7754 7.8 47.7004 8.925V7.45H43.1754V21H47.9254V14.45C47.9254 12.2 49.1004 11.25 50.6254 11.25C52.0004 11.25 52.8504 12.075 52.8504 14.025V21H57.6004V13.25C57.6004 9.05 55.1754 7.225 52.0004 7.225ZM76.158 21.35C81.333 21.35 84.383 18.425 84.383 13.2V3.5H79.508V13.05C79.508 16.05 78.258 17.25 76.208 17.25C74.133 17.25 72.883 16.05 72.883 13.05V3.5H67.933V13.2C67.933 18.425 70.983 21.35 76.158 21.35ZM96.0363 7.225C94.2613 7.225 92.9363 7.725 92.0363 8.8V7.45H87.5113V25.85H92.2613V19.8C93.1863 20.75 94.4613 21.225 96.0363 21.225C99.7113 21.225 102.686 18.525 102.686 14.225C102.686 9.925 99.7113 7.225 96.0363 7.225ZM95.0363 17.45C93.4363 17.45 92.1863 16.275 92.1863 14.225C92.1863 12.175 93.4363 11 95.0363 11C96.6363 11 97.8863 12.175 97.8863 14.225C97.8863 16.275 96.6363 17.45 95.0363 17.45Z" fill="#7733FF"/>
</svg>
